<svg width="16" height="16" viewBox="0 0 16 16" fill="none" xmlns="http://www.w3.org/2000/svg">
<g clip-path="url(#clip0_726_23554)">
<path d="M1.97733 7.36587L8.27032 1.15873C8.9414 0.496801 10.0718 1.04593 9.96627 1.98261L9.26705 8.18976C9.21008 8.69553 8.7823 9.07782 8.27334 9.07782H2.67956C1.78534 9.07782 1.34069 7.99382 1.97733 7.36587Z" fill="#E9C700"/>
<path d="M14.2298 8.16494L7.84534 14.7937C7.18446 15.4799 6.02939 14.9409 6.13076 13.9936L6.84014 7.36482C6.89453 6.85663 7.32337 6.47123 7.83446 6.47123L13.5096 6.47123C14.3914 6.47123 14.8416 7.52976 14.2298 8.16494Z" fill="#C7A200"/>
<path d="M9.46055 6.47266L9.21697 8.63494C9.18849 8.88782 8.9746 9.07897 8.72012 9.07897H6.65649L6.8876 6.91945C6.91479 6.66536 7.12921 6.47266 7.38476 6.47266L9.46055 6.47266Z" fill="#755D1B"/>
</g>
<defs>
<clipPath id="clip0_726_23554">
<rect width="16" height="16" fill="white"/>
</clipPath>
</defs>
</svg>
