<svg width="16" height="12" fill="none" xmlns="http://www.w3.org/2000/svg"><g clip-path="url(#clip0_1951_15147)"><rect width="16" height="12" rx="2" fill="#fff"/><g clip-path="url(#clip1_1951_15147)"><path fill-rule="evenodd" clip-rule="evenodd" d="M0 0v12h16V0H0z" fill="#F1F9FF"/><mask id="id-18a" style="mask-type:luminance" maskUnits="userSpaceOnUse" x="0" y="0" width="16" height="12"><path fill-rule="evenodd" clip-rule="evenodd" d="M0 0v12h16V0H0z" fill="#fff"/></mask><g mask="url(#id-18a)"><path fill-rule="evenodd" clip-rule="evenodd" d="M7.894 9.286c1.708 0 3.092-1.418 3.092-3.168 0-1.749-1.384-3.167-3.092-3.167C6.185 2.951 4.8 4.37 4.8 6.118c0 1.75 1.384 3.168 3.093 3.168z" fill="#3D58DB"/><mask id="id-19b" style="mask-type:luminance" maskUnits="userSpaceOnUse" x="4" y="2" width="7" height="8"><path fill-rule="evenodd" clip-rule="evenodd" d="M7.894 9.286c1.708 0 3.092-1.418 3.092-3.168 0-1.749-1.384-3.167-3.092-3.167C6.185 2.951 4.8 4.37 4.8 6.118c0 1.75 1.384 3.168 3.093 3.168z" fill="#fff"/></mask><g mask="url(#id-19b)"><path fill-rule="evenodd" clip-rule="evenodd" d="M11.095 6.362s-.174-1.494-1.46-1.575C8.35 4.707 8.003 5.882 7.93 6.194c-.074.312-.262 1.143-1.616 1.143-1.353 0-1.476-2.114-1.476-2.114V2.73h6.258v3.632z" fill="#E31D1C"/></g><path fill-rule="evenodd" clip-rule="evenodd" d="M3.65 1.025l.457.414-2.12 2.476-.457-.414 2.12-2.476zm.754.67l.458.414-2.044 2.44-.458-.414 2.044-2.44zm1.209 1.092l-.458-.414-2.05 2.458.458.414 2.05-2.458z" fill="#272727"/><path d="M4.107 1.44l.057.048.048-.056-.054-.048-.05.055zm-.457-.415L3.7.97 3.643.918l-.05.059.057.048zm-1.663 2.89l-.05.056.057.051.05-.058-.057-.049zm-.457-.414l-.057-.048-.048.055.054.049.05-.056zM4.862 2.11l.057.048.047-.055-.054-.049-.05.056zm-.458-.414l.05-.056-.057-.052-.05.06.057.048zM2.818 4.549l-.05.055.057.053.05-.06-.057-.048zm-.458-.414l-.057-.048-.047.055.054.049.05-.056zm2.795-1.762l.05-.056-.057-.052-.05.06.057.048zm.458.414l.058.048.046-.056-.054-.048-.05.056zM3.106 4.83l-.058-.048-.046.056.053.048.05-.056zm.457.414l-.05.056.058.052.05-.06-.058-.048zm.595-3.861L3.7.97l-.1.111.457.414.1-.111zm-2.114 2.58l2.12-2.476-.114-.098-2.12 2.476.114.098zm-.565-.407l.458.414.1-.112-.457-.413-.1.111zM3.593.977l-2.12 2.476.114.097 2.12-2.476-.114-.097zm1.32 1.076l-.458-.414-.1.112.457.413.1-.11zM2.874 4.597l2.044-2.44-.115-.096L2.76 4.5l.115.096zm-.565-.406l.457.413.101-.11-.457-.415-.101.112zm2.037-2.544l-2.044 2.44.115.096 2.044-2.44-.115-.096zm.758.781l.458.414.1-.111-.457-.414-.1.111zM3.163 4.88l2.05-2.458-.115-.096-2.05 2.458.115.096zm.45.31l-.457-.413-.1.111.457.414.1-.111zm1.942-2.45l-2.05 2.458.116.096 2.05-2.458-.116-.096z" fill="#272727"/><path fill-rule="evenodd" clip-rule="evenodd" d="M12.293 1.025l-.457.414 2.12 2.476.457-.414-2.12-2.476zm-.754.67l-.458.414 2.044 2.44.458-.414-2.044-2.44zm-1.21 1.092l.458-.414 2.05 2.458-.457.414-2.05-2.458z" fill="#272727"/><path d="M11.835 1.44l-.057.048-.047-.056.054-.048.05.055zm.458-.415l-.05-.055.057-.052.05.059-.057.048zm1.663 2.89l.05.056-.057.051-.05-.058.057-.049zm.457-.414l.057-.048.047.055-.054.049-.05-.056zM11.081 2.11l-.057.048-.047-.055.054-.049.05.056zm.458-.414l-.05-.056.057-.052.05.06-.057.048zm1.586 2.854l.05.055-.057.053-.05-.06.057-.048zm.458-.414l.057-.048.046.055-.053.049-.05-.056zm-2.796-1.762l-.05-.056.058-.052.05.06-.058.048zm-.457.414l-.058.048-.046-.056.054-.048.05.056zm2.507 2.044l.058-.048.046.056-.054.048-.05-.056zm-.457.414l.05.056-.058.052-.05-.06.058-.048zm-.595-3.861l.458-.414.1.111-.457.414-.1-.111zm2.114 2.58l-2.12-2.476.113-.098 2.12 2.476-.113.098zm.564-.407l-.457.414-.1-.112.457-.413.1.111zM12.35.977l2.12 2.476-.114.097-2.12-2.476.114-.097zm-1.32 1.076l.458-.414.1.112-.457.413-.1-.11zm2.038 2.544l-2.044-2.44.115-.096 2.044 2.44-.115.096zm.565-.406l-.458.413-.1-.11.457-.415.1.112zm-2.037-2.544l2.044 2.44-.115.096-2.044-2.44.115-.096zm-.758.781l-.458.414-.1-.111.457-.414.1.111zM12.78 4.88l-2.05-2.458.115-.096 2.05 2.458-.115.096zm-.45.31l.457-.413.1.111-.457.414-.1-.111zm-1.943-2.45l2.05 2.458-.115.096-2.05-2.458.115-.096z" fill="#272727"/><path fill-rule="evenodd" clip-rule="evenodd" d="M3.65 11.246l.457-.414-2.12-2.476-.457.414 2.12 2.476zm.754-.67l.458-.413-2.044-2.44-.458.413 2.044 2.44zm1.209-1.091l-.458.414-2.05-2.459.458-.414 2.05 2.459z" fill="#272727"/><path d="M4.107 10.832l.057-.049.048.056-.054.049-.05-.056zm-.457.414l.05.056-.057.051-.05-.058.057-.049zm-1.663-2.89l-.05-.055.057-.052.05.059-.057.048zm-.457.414l-.057.049-.048-.056.054-.048.05.055zm3.332 1.393l.057-.048.047.055-.054.048-.05-.055zm-.458.413l.05.056-.057.052-.05-.06.057-.048zM2.818 7.723l-.05-.056.057-.052.05.06-.057.048zm-.458.413l-.057.049-.047-.056.054-.048.05.055zM5.155 9.9l.05.055-.057.053-.05-.06.057-.048zm.458-.414l.058-.048.046.055-.054.049-.05-.056zM3.106 7.44l-.058.048-.046-.055.053-.049.05.056zm.457-.414l-.05-.055.058-.053.05.06-.058.048zm.595 3.862l-.458.414-.1-.111.457-.414.1.111zm-2.114-2.58l2.12 2.476-.114.097-2.12-2.476.114-.097zm-.565.407l.458-.414.1.111-.457.414-.1-.111zm2.114 2.58l-2.12-2.476.114-.098 2.12 2.476-.114.098zm1.32-1.077l-.458.414-.1-.111.457-.414.1.111zM2.874 7.675l2.044 2.44-.115.096L2.76 7.77l.115-.096zm-.565.406l.457-.414.101.111-.457.414-.101-.111zm2.037 2.544l-2.044-2.44.115-.097 2.044 2.44-.115.097zm.758-.782l.458-.414.1.112-.457.413-.1-.11zm-1.942-2.45l2.05 2.458-.115.096-2.05-2.459.115-.096zm.45-.311l-.457.414-.1-.112.457-.413.1.11zm1.942 2.45l-2.05-2.458.116-.096 2.05 2.459-.116.096z" fill="#272727"/><path fill-rule="evenodd" clip-rule="evenodd" d="M12.293 11.246l-.457-.414 2.12-2.476.457.414-2.12 2.476zm-.754-.67l-.458-.413 2.044-2.44.458.413-2.044 2.44zm-1.21-1.091l.458.414 2.05-2.459-.457-.414-2.05 2.459z" fill="#272727"/><path d="M11.835 10.832l-.057-.049-.047.056.054.049.05-.056zm.458.414l-.05.056.057.051.05-.058-.057-.049zm1.663-2.89l.05-.055-.057-.052-.05.059.057.048zm.457.414l.057.049.047-.056-.054-.048-.05.055zm-3.332 1.393l-.057-.048-.047.055.054.048.05-.055zm.458.413l-.05.056.057.052.05-.06-.057-.048zm1.586-2.853l.05-.056-.057-.052-.05.06.057.048zm.458.413l.057.049.046-.056-.053-.048-.05.055zM10.787 9.9l-.05.055.058.053.05-.06-.058-.048zm-.457-.414l-.058-.048-.046.055.054.049.05-.056zm2.507-2.045l.058.048.046-.055-.054-.049-.05.056zm-.457-.414l.05-.055-.058-.053-.05.06.058.048zm-.595 3.862l.458.414.1-.111-.457-.414-.1.111zm2.114-2.58l-2.12 2.476.113.097 2.12-2.476-.113-.097zm.564.407l-.457-.414-.1.111.457.414.1-.111zm-2.113 2.58l2.12-2.476-.114-.098-2.12 2.476.114.098zm-1.32-1.077l.458.414.1-.111-.457-.414-.1.111zm2.038-2.543l-2.044 2.44.115.096 2.044-2.44-.115-.096zm.565.406l-.458-.414-.1.111.457.414.1-.111zm-2.037 2.544l2.044-2.44-.115-.097-2.044 2.44.115.097zm-.758-.782l-.458-.414-.1.112.457.413.1-.11zm1.942-2.45L10.73 9.85l.115.096 2.05-2.459-.115-.096zm-.45-.311l.457.414.1-.112-.457-.413-.1.11zm-1.943 2.45l2.05-2.458-.115-.096-2.05 2.459.115.096z" fill="#272727"/></g></g></g><defs><clipPath id="clip0_1951_15147"><rect width="16" height="12" rx="2" fill="#fff"/></clipPath><clipPath id="clip1_1951_15147"><rect width="16" height="12" rx="2" fill="#fff"/></clipPath></defs></svg>