<svg width="16" height="12" fill="none" xmlns="http://www.w3.org/2000/svg"><g clip-path="url(#clip0_1951_15296)"><rect width="16" height="12" rx="2" fill="#fff"/><g clip-path="url(#clip1_1951_15296)"><path fill-rule="evenodd" clip-rule="evenodd" d="M0 0v12h16V0H0z" fill="#2E42A5"/><mask id="id-4a" style="mask-type:luminance" maskUnits="userSpaceOnUse" x="0" y="0" width="16" height="12"><path fill-rule="evenodd" clip-rule="evenodd" d="M0 0v12h16V0H0z" fill="#fff"/></mask><g mask="url(#id-4a)"><path d="M-1.782 11.142L1.74 12.63 16.08 1.618l1.858-2.213-3.765-.497-5.85 4.745-4.707 3.198-5.397 4.29z" fill="#F1F9FF"/><path d="M-1.3 12.185l1.794.864L17.27-.801h-2.52L-1.3 12.185z" fill="#F50100"/><path d="M17.782 11.142L14.26 12.63-.08 1.618-1.938-.595l3.765-.497 5.85 4.745 4.707 3.198 5.397 4.29z" fill="#F1F9FF"/><path d="M17.662 11.892l-1.794.864-7.143-5.93-2.118-.662-8.723-6.75H.403l8.717 6.59 2.316.794 6.226 5.094z" fill="#F50100"/><mask id="id-5b" fill="#fff"><path fill-rule="evenodd" clip-rule="evenodd" d="M9.889-1H6.11v5H-.986v4H6.11v5h3.778V8h7.125V4H9.889v-5z"/></mask><path fill-rule="evenodd" clip-rule="evenodd" d="M9.889-1H6.11v5H-.986v4H6.11v5h3.778V8h7.125V4H9.889v-5z" fill="#F50100"/><path d="M6.111-1v-1h-1v1h1zm3.778 0h1v-1h-1v1zM6.11 4v1h1V4h-1zM-.986 4V3h-1v1h1zm0 4h-1v1h1V8zM6.11 8h1V7h-1v1zm0 5h-1v1h1v-1zm3.778 0v1h1v-1h-1zm0-5V7h-1v1h1zm7.125 0v1h1V8h-1zm0-4h1V3h-1v1zM9.889 4h-1v1h1V4zM6.11 0h3.778v-2H6.11v2zm1 4v-5h-2v5h2zM-.986 5H6.11V3H-.986v2zm1 3V4h-2v4h2zM6.11 7H-.986v2H6.11V7zm1 6V8h-2v5h2zm2.778-1H6.11v2h3.778v-2zm-1-4v5h2V8h-2zm8.125-1H9.889v2h7.125V7zm-1-3v4h2V4h-2zM9.889 5h7.125V3H9.889v2zm-1-6v5h2v-5h-2z" fill="#F1F9FF" mask="url(#id-5b)"/></g></g></g><defs><clipPath id="clip0_1951_15296"><rect width="16" height="12" rx="2" fill="#fff"/></clipPath><clipPath id="clip1_1951_15296"><rect width="16" height="12" rx="2" fill="#fff"/></clipPath></defs></svg>