<svg width="16" height="12" fill="none" xmlns="http://www.w3.org/2000/svg"><g clip-path="url(#clip0_1951_15220)"><rect width="16" height="12" rx="2" fill="#fff"/><g clip-path="url(#clip1_1951_15220)"><path fill-rule="evenodd" clip-rule="evenodd" d="M0 0v12h16V0H0z" fill="#FFB400"/><mask id="id-12a" style="mask-type:luminance" maskUnits="userSpaceOnUse" x="0" y="0" width="16" height="12"><path fill-rule="evenodd" clip-rule="evenodd" d="M0 0v12h16V0H0z" fill="#fff"/></mask><g mask="url(#id-12a)"><path fill-rule="evenodd" clip-rule="evenodd" d="M0 0v3h16V0H0zm0 9v3h16V9H0z" fill="#C51918"/><path fill="#F1F9FF" d="M2.504 5.137h.56v2.912h-.56z"/><path fill-rule="evenodd" clip-rule="evenodd" d="M3.288 4.633H2.28v.28h.168v.224h.672v-.224h.168v-.28zM3.12 8.216h.168v.28H2.28v-.28h.168v-.224h.672v.224z" fill="#C88A02"/><path fill-rule="evenodd" clip-rule="evenodd" d="M2.784 4.688c.122 0 .134-.046.206-.114.056-.053.186-.12.186-.194 0-.17-.175-.308-.392-.308-.216 0-.392.138-.392.308 0 .083.09.138.157.194.072.058.124.114.235.114z" fill="#AD1619"/><path fill-rule="evenodd" clip-rule="evenodd" d="M2.28 8.496h1.008v.448s-.126-.056-.252-.056-.252.056-.252.056-.126-.056-.252-.056-.252.056-.252.056v-.448z" fill="#005BBF"/><path fill="#F1F9FF" d="M7.992 5.137h.56v2.912h-.56z"/><path fill-rule="evenodd" clip-rule="evenodd" d="M8.776 4.633H7.768v.28h.168v.224h.672v-.224h.168v-.28zm-.168 3.583h.168v.28H7.768v-.28h.168v-.224h.672v.224z" fill="#C88A02"/><path fill-rule="evenodd" clip-rule="evenodd" d="M8.272 4.688c.122 0 .134-.046.206-.114.056-.053.186-.12.186-.194 0-.17-.176-.308-.392-.308-.217 0-.392.138-.392.308 0 .083.09.138.157.194.071.058.124.114.235.114z" fill="#AD1619"/><path fill-rule="evenodd" clip-rule="evenodd" d="M7.768 8.496h1.008v.448s-.126-.056-.252-.056-.252.056-.252.056-.126-.056-.252-.056-.252.056-.252.056v-.448z" fill="#005BBF"/><path fill-rule="evenodd" clip-rule="evenodd" d="M2.494 7.84c.1-.121.157-.233.157-.351a.316.316 0 00-.06-.192l.006-.003s.11-.048.15-.067c.071-.034.135-.07.197-.116.04-.028.092-.06.173-.103l.096-.051.096-.053a.62.62 0 00.183-.144.268.268 0 00-.061-.399.728.728 0 00-.301-.096l-.197-.03a4.931 4.931 0 01-.177-.03c.344-.057.836-.036 1.052.076l.206-.398c-.44-.228-1.445-.204-1.82.054-.275.19-.238.476.048.6.12.05.276.085.564.131a1.431 1.431 0 00-.126.081.799.799 0 01-.127.075 6.775 6.775 0 01-.126.055l-.016.008c-.233.106-.346.252-.312.517l.018.143.033.01.344.284zm-.288-.37l-.001.003V7.47zm6.147.019c0 .118.056.23.157.352l.344-.284.033-.01.018-.143c.034-.265-.079-.411-.312-.517l-.016-.008-.125-.055a.799.799 0 01-.128-.075 1.43 1.43 0 00-.126-.08c.289-.047.445-.081.564-.133.286-.123.323-.41.048-.6-.375-.257-1.379-.28-1.82-.053l.206.398c.216-.112.708-.133 1.052-.075l-.177.029-.197.03a.728.728 0 00-.3.096.268.268 0 00-.062.4.606.606 0 00.183.143l.096.053.096.05c.08.044.134.076.173.104.062.045.126.082.198.116.039.02.15.068.15.067l.006.003a.316.316 0 00-.061.192z" fill="#AD1619"/><path d="M2.962 6.201l.165.034v.247c-.176.14-.623.377-.623.377V6.2h.458zm5.195 0l-.165.034v.247c.176.14.623.377.623.377V6.2h-.458z" fill="#F1F9FF"/><path fill-rule="evenodd" clip-rule="evenodd" d="M7.388 3.603V3.52a1.53 1.53 0 00-.905-.31 1.806 1.806 0 00-.918-.156v-.001c-.465-.046-.934.157-.934.157-.473 0-.905.31-.905.31v.082l.565.567s.159.546 1.272.418v.001s.737-.02.79-.037l.063-.02c.144-.042.31-.09.407-.362l.565-.567zm-1.825-.519z" fill="#AD1619"/><path fill-rule="evenodd" clip-rule="evenodd" d="M3.76 3.7l.038-.04.513.483a5.268 5.268 0 011.216-.168h.045a5.28 5.28 0 011.232.172s-.006.053-.021.116a2.76 2.76 0 01.056-.11l.006-.007.517-.486.038.04-.514.484c-.075.138-.112.23-.112.267 0 .058-.15.092-.444.127-.23.028-.5.046-.722.05h-.056a7.219 7.219 0 01-.723-.05c-.293-.035-.443-.07-.443-.127a.118.118 0 00-.004-.027.44.44 0 01-.064-.155 2.84 2.84 0 00-.045-.085l-.513-.483zm2.866.752c.04.019.071 0 .096-.035a.18.18 0 00-.004.026.541.541 0 01-.098.032 3.067 3.067 0 01-.296.048c-.238.028-.52.047-.744.048a7.095 7.095 0 01-.744-.048 3.068 3.068 0 01-.296-.048.63.63 0 01-.074-.02l.006-.003c.123-.057.932-.11 1.077-.12.146.01.955.063 1.077.12zm.155-.01l-.001.001v-.001z" fill="#C88A02"/><path fill-rule="evenodd" clip-rule="evenodd" d="M5.556 2.674a.168.168 0 100-.336.168.168 0 000 .336z" fill="#005BBF"/><path fill-rule="evenodd" clip-rule="evenodd" d="M5.493 2.04h.117v.073h.076v.116H5.61v.234h.076v.116h-.27v-.116h.077v-.234h-.077v-.116h.077v-.074z" fill="#C88A02"/><path fill="#C88A02" d="M5.472 2.672h.224V3.4h-.224z"/><path d="M3.854 3.65l-.308-.012c.146-.838.86-1.25 2.003-1.25 1.143 0 1.855.413 1.99 1.255l-.416.044c-.066-.41-.752-.78-1.568-.78-.819 0-1.63.33-1.701.743z" fill="#C88A02"/><path opacity=".3" fill-rule="evenodd" clip-rule="evenodd" d="M3.736 4.633h3.64v3.27s-.27 1.098-1.82 1.098-1.82-1.127-1.82-1.127V4.633z" fill="#E1E5E8"/><mask id="id-13b" style="mask-type:luminance" maskUnits="userSpaceOnUse" x="3" y="4" width="5" height="5"><path fill-rule="evenodd" clip-rule="evenodd" d="M3.736 4.633h3.64v3.27s-.27 1.098-1.82 1.098-1.82-1.127-1.82-1.127V4.633z" fill="#fff"/></mask><g mask="url(#id-13b)"><path fill="#FFC034" d="M3.736 6.648h1.848v2.184H3.736z"/><path fill="#AD1619" d="M3.736 4.576h1.848v2.128H3.736z"/><path fill="#AD1619" d="M5.528 6.594h1.848v2.128H5.528z"/><path fill="#F1F9FF" d="M5.528 4.633h1.96v2.072h-1.96z"/><path fill-rule="evenodd" clip-rule="evenodd" d="M6.741 8.723s-1.186.093-1.186-.672c0 0-.011.672-1.25.672v.603h2.436v-.603z" fill="#F1F9FF"/><path fill-rule="evenodd" clip-rule="evenodd" d="M5.556 7.097c.232 0 .42-.2.42-.448 0-.247-.188-.448-.42-.448-.232 0-.42.2-.42.448s.188.448.42.448z" fill="#005BBF" stroke="#AD1619" stroke-width=".583"/></g><path fill-rule="evenodd" clip-rule="evenodd" d="M4.5 6a.5.5 0 100-1 .5.5 0 000 1z" fill="#C88A02"/><path fill-rule="evenodd" clip-rule="evenodd" d="M6.5 6a.5.5 0 100-1 .5.5 0 000 1z" fill="#C37C9C"/><path fill-rule="evenodd" clip-rule="evenodd" d="M6.5 8a.5.5 0 100-1 .5.5 0 000 1z" fill="#FFC034"/><path d="M4.5 8a.5.5 0 100-1 .5.5 0 000 1z" fill="#AD1619"/></g></g></g><defs><clipPath id="clip0_1951_15220"><rect width="16" height="12" rx="2" fill="#fff"/></clipPath><clipPath id="clip1_1951_15220"><rect width="16" height="12" rx="2" fill="#fff"/></clipPath></defs></svg>