<svg width="16" height="12" fill="none" xmlns="http://www.w3.org/2000/svg"><g clip-path="url(#clip0_1951_15173)"><rect width="16" height="12" rx="2" fill="#fff"/><g clip-path="url(#clip1_1951_15173)"><path fill-rule="evenodd" clip-rule="evenodd" d="M4 0h12v12H4V0z" fill="#EF0000"/><path fill-rule="evenodd" clip-rule="evenodd" d="M0 0h6v12H0V0z" fill="#2F8D00"/><mask id="id-24a" style="mask-type:luminance" maskUnits="userSpaceOnUse" x="2" y="2" width="8" height="8"><path fill-rule="evenodd" clip-rule="evenodd" d="M5.952 9.903c-2.13 0-3.857-1.748-3.857-3.904 0-2.156 1.727-3.903 3.857-3.903S9.81 3.843 9.81 5.999c0 2.156-1.726 3.904-3.857 3.904z" fill="#fff"/></mask><g mask="url(#id-24a)" fill="#FFE017"><path fill-rule="evenodd" clip-rule="evenodd" d="M5.714 2h.5v1.35h-.5V2zm0 6.746h.5V10h-.5V8.746z"/><path d="M2.157 6.202l-.14-.359C3.56 5.228 4.725 4.83 5.515 4.651a29.368 29.368 0 013.821-.583l.034.384a28.97 28.97 0 00-3.771.576c-.767.173-1.915.565-3.44 1.174z"/><path d="M9.57 3.832l-.113.368C8.29 3.832 7.34 3.673 6.61 3.722l-.025-.384c.784-.053 1.777.113 2.984.494zm.404 2.057l-.216.318c-.594-.413-1.326-.62-2.201-.62V5.2c.948 0 1.756.229 2.417.688z"/><path d="M9.651 6.004l.099.372c-1.282.347-2.485.544-3.61.59-1.132.047-2.452-.15-3.96-.59l.105-.371c1.472.43 2.752.621 3.84.576 1.096-.045 2.27-.237 3.526-.577z"/><path d="M9.506 7.817l-.602.618C7.759 7.29 6.752 6.474 5.887 5.983c-.879-.5-2.025-1.007-3.437-1.52l.29-.817c1.453.529 2.642 1.055 3.567 1.58.94.535 2.004 1.398 3.199 2.591zm-6.777.349L2.5 7.857a4.64 4.64 0 01.594-.361c.425-.215.851-.35 1.258-.362l.06-.001v.385l-.048.001c-.343.01-.72.13-1.1.322a4.266 4.266 0 00-.536.325z"/><path d="M2.906 8.301l.096-.373c1.27.334 2.25.501 2.933.501.68 0 1.694-.197 3.033-.591l.107.37c-1.371.404-2.416.607-3.14.607-.722 0-1.73-.172-3.029-.514zm-.495-3.455l.604-.616.883.887-.603.616-.884-.887z"/><path d="M7.418 7.923l.449-.74 1.402.873-.45.739-1.401-.872z"/></g><path fill-rule="evenodd" clip-rule="evenodd" d="M2.095 6c0 2.155 1.727 3.903 3.857 3.903S9.81 8.155 9.81 5.999c0-2.156-1.726-3.903-3.857-3.903-2.13 0-3.857 1.747-3.857 3.903zm7.238.048C9.333 7.91 7.841 9.42 6 9.42c-1.841 0-3.333-1.51-3.333-3.373 0-1.864 1.492-3.374 3.333-3.374 1.84 0 3.333 1.51 3.333 3.374z" fill="#F9E813"/><path d="M3.828 3.592v3.13c.206 1.24.9 1.859 2.083 1.859 1.182 0 1.876-.62 2.083-1.859v-3.13H3.828z" fill="#F1F9FF"/><path d="M3.042 3H8.58v3.711l-.004.026C8.307 8.22 7.359 9 5.81 9c-1.548 0-2.496-.78-2.764-2.263l-.005-.026V3z" fill="#C51918"/><path fill-rule="evenodd" clip-rule="evenodd" d="M4.524 3.953h-.9v.9h.9v-.9zm3.5 0h-.9v.9h.9v-.9zm-4.4 2h.9v.9h-.9v-.9zm3.55.014h.9v.9h-.9v-.9zm.013 1.458h-.9v.9h.9v-.9zM4.324 7.42h.9v.9h-.9v-.9z" fill="#F9E813"/><path d="M4.426 4.355h2.97v2.22s-.22 1.148-1.485 1.148c-1.265 0-1.485-1.147-1.485-1.147v-2.22z" fill="#F1F9FF"/><path d="M5.619 4.602h.66v.48s-.05.249-.33.249c-.281 0-.33-.249-.33-.249v-.48zm0 1.06h.66v.48s-.05.25-.33.25c-.281 0-.33-.25-.33-.25v-.48zm.857 0h.66v.48s-.049.25-.33.25c-.28 0-.33-.25-.33-.25v-.48zm-1.714 0h.66v.48s-.05.25-.33.25c-.281 0-.33-.25-.33-.25v-.48zm.857 1.061h.66v.48s-.05.249-.33.249c-.281 0-.33-.249-.33-.249v-.48z" fill="#013399"/></g></g><defs><clipPath id="clip0_1951_15173"><rect width="16" height="12" rx="2" fill="#fff"/></clipPath><clipPath id="clip1_1951_15173"><rect width="16" height="12" rx="2" fill="#fff"/></clipPath></defs></svg>