<svg width="32" height="32" viewBox="0 0 32 32" fill="none" xmlns="http://www.w3.org/2000/svg">
<path d="M28.3935 27.9999C28.4335 28.5507 27.982 29 27.4297 29H16H4.57031C4.01803 29 3.56648 28.5507 3.60655 27.9999C4.09481 21.2875 9.45701 16 16 16C22.543 16 27.9052 21.2875 28.3935 27.9999Z" fill="#0079A7"/>
<path d="M20.3941 16.8379L22.3589 23.0703C22.6092 23.8648 21.8354 24.5992 21.0552 24.3076L16.2408 22.5059C16.0104 22.4196 15.7561 22.4214 15.5269 22.5107L10.9087 24.3115C10.1299 24.6148 9.3441 23.8851 9.58939 23.0859L11.4937 16.8818C11.5435 16.8616 11.5939 16.8428 11.6441 16.8232C11.6471 16.8252 11.651 16.8258 11.6538 16.8281L15.4087 20.3496C15.8004 20.7169 16.412 20.709 16.7945 20.332L20.0953 17.0771C20.1773 16.9963 20.2349 16.8964 20.2662 16.7891C20.3088 16.8053 20.3516 16.8211 20.3941 16.8379Z" fill="#17B4DD"/>
<rect x="15" y="22" width="2" height="7" fill="#17B4DD"/>
<path d="M15.9922 16C17.5111 16 18.9651 16.2873 20.3105 16.8076C19.0863 17.6596 17.5997 18.1621 15.9951 18.1621C14.3895 18.162 12.9024 17.6588 11.6777 16.8057C13.022 16.2863 14.4748 16 15.9922 16Z" fill="#008CBA"/>
<circle cx="16.0034" cy="10.5952" r="7.5659" fill="#17B4DD"/>
</svg>
