<svg width="29" height="28" viewBox="0 0 29 28" fill="none" xmlns="http://www.w3.org/2000/svg">
<path fill-rule="evenodd" clip-rule="evenodd" d="M12.2085 2H16.6576V4.6759C17.6566 4.92272 18.6078 5.33044 19.4729 5.88271L19.489 5.86591L21.3766 3.99922L24.4779 7.06619L22.5101 9.01221C23.0357 9.89656 23.4091 10.8611 23.6153 11.8664H26.5005V16.2662H23.452C23.1984 17.1571 22.8116 18.0056 22.3043 18.7834L22.4553 18.9327L24.4779 20.9329L21.3766 23.9998L19.489 22.1332L19.1398 21.7869C18.3753 22.2312 17.541 22.5709 16.6576 22.7893V26H12.3434V22.8518C11.44 22.6568 10.5708 22.3307 9.76401 21.884L9.51201 22.1332C9.28173 22.3609 9.06842 22.5877 8.8589 22.8098C8.45401 23.2392 8.06894 23.648 7.62441 23.9998L4.52306 20.9329L6.53525 18.9439C6.00148 18.1618 5.59126 17.3039 5.31869 16.3996H2.50049V12.1342H5.06669C5.25308 11.066 5.62746 10.0384 6.17283 9.09808L4.25408 7.20059L4.52306 6.93366L7.62441 3.86762L9.50823 5.73058C10.3854 5.20825 11.3431 4.83148 12.3434 4.61523V4.40056C12.2085 3.73415 12.2085 2.80081 12.2085 2.00093V2ZM18.1422 13.7331C18.1422 14.7232 17.7444 15.6728 17.0364 16.373C16.3284 17.0731 15.3682 17.4664 14.3669 17.4664C13.3657 17.4664 12.4054 17.0731 11.6975 16.373C10.9895 15.6728 10.5917 14.7232 10.5917 13.7331C10.5917 12.7429 10.9895 11.7933 11.6975 11.0932C12.4054 10.393 13.3657 9.99969 14.3669 9.99969C15.3682 9.99969 16.3284 10.393 17.0364 11.0932C17.7444 11.7933 18.1422 12.7429 18.1422 13.7331Z" fill="#3887D8"/>
</svg>
