<svg width="14" height="14" viewBox="0 0 14 14" fill="none" xmlns="http://www.w3.org/2000/svg">
<path d="M3.5 2.5C2.94772 2.5 2.5 2.94772 2.5 3.5L2.5 13C2.5 13.5523 2.94772 14 3.5 14L13 14C13.5523 14 14 13.5523 14 13L14 5.91421C14 5.649 13.8946 5.39464 13.7071 5.20711L11.2929 2.79289C11.1054 2.60536 10.851 2.5 10.5858 2.5L3.5 2.5Z" fill="#009714"/>
<path d="M11 2.5918C11.1077 2.64091 11.2077 2.70766 11.293 2.79297L13.707 5.20703C13.7924 5.29243 13.8601 5.39217 13.9092 5.5H12C11.4477 5.5 11 5.05228 11 4.5V2.5918Z" fill="#2DBF3A"/>
<path d="M1 -1.09279e-08C0.447715 -4.89258e-09 9.78513e-09 0.447715 2.18557e-08 1L1.5299e-07 7C1.6506e-07 7.55228 0.447715 8 1 8L7 8C7.55228 8 8 7.55228 8 7L8 2L8 1C8 0.447715 7.55228 -8.25305e-08 7 -7.64952e-08L1 -1.09279e-08Z" fill="#73E06B"/>
<path d="M8 2.5V7C8 7.55228 7.55228 8 7 8H2.5V3.5C2.5 2.94772 2.94772 2.5 3.5 2.5H8Z" fill="#2DBF3A"/>
<rect width="3" height="3" rx="0.5" transform="matrix(2.18557e-08 1 1 -2.18557e-08 2.5 2.5)" fill="#009714"/>
<rect y="9" width="13" height="4" rx="1" fill="#73E06B"/>
<path d="M12 9C12.5523 9 13 9.44772 13 10V12C13 12.5523 12.5523 13 12 13H2.5V9H12Z" fill="#2DBF3A"/>
<path fill-rule="evenodd" clip-rule="evenodd" d="M10.5 11.5C10.2239 11.5 10 11.2761 10 11L10 9L11.5 9L11.5 11C11.5 11.2761 11.2761 11.5 11 11.5L10.5 11.5Z" fill="#73E06B"/>
<path fill-rule="evenodd" clip-rule="evenodd" d="M7.5 11.5C7.22386 11.5 7 11.2761 7 11L7 9L8.5 9L8.5 11C8.5 11.2761 8.27614 11.5 8 11.5L7.5 11.5Z" fill="#73E06B"/>
<path fill-rule="evenodd" clip-rule="evenodd" d="M4.5 11.5C4.22386 11.5 4 11.2761 4 11L4 9L5.5 9L5.5 11C5.5 11.2761 5.27614 11.5 5 11.5L4.5 11.5Z" fill="#73E06B"/>
</svg>
