%TF.GenerationSoftware,KiCad,Pcbnew,10.0.2*%
%TF.CreationDate,2026-07-24T00:13:34-06:00*%
%TF.ProjectId,PRISM_Power,50524953-4d5f-4506-9f77-65722e6b6963,rev?*%
%TF.SameCoordinates,Original*%
%TF.FileFunction,Legend,Top*%
%TF.FilePolarity,Positive*%
%FSLAX46Y46*%
G04 Gerber Fmt 4.6, Leading zero omitted, Abs format (unit mm)*
G04 Created by KiCad (PCBNEW 10.0.2) date 2026-07-24 00:13:34*
%MOMM*%
%LPD*%
G01*
G04 APERTURE LIST*
%ADD10C,0.125000*%
%ADD11C,0.150000*%
%ADD12C,0.254000*%
%ADD13C,0.120000*%
%ADD14C,0.200000*%
%ADD15C,0.100000*%
%ADD16C,0.152400*%
G04 APERTURE END LIST*
D10*
X131206119Y-80349999D02*
X130206119Y-80349999D01*
X130206119Y-80349999D02*
X131206119Y-79778571D01*
X131206119Y-79778571D02*
X130206119Y-79778571D01*
X131158500Y-79349999D02*
X131206119Y-79207142D01*
X131206119Y-79207142D02*
X131206119Y-78969047D01*
X131206119Y-78969047D02*
X131158500Y-78873809D01*
X131158500Y-78873809D02*
X131110880Y-78826190D01*
X131110880Y-78826190D02*
X131015642Y-78778571D01*
X131015642Y-78778571D02*
X130920404Y-78778571D01*
X130920404Y-78778571D02*
X130825166Y-78826190D01*
X130825166Y-78826190D02*
X130777547Y-78873809D01*
X130777547Y-78873809D02*
X130729928Y-78969047D01*
X130729928Y-78969047D02*
X130682309Y-79159523D01*
X130682309Y-79159523D02*
X130634690Y-79254761D01*
X130634690Y-79254761D02*
X130587071Y-79302380D01*
X130587071Y-79302380D02*
X130491833Y-79349999D01*
X130491833Y-79349999D02*
X130396595Y-79349999D01*
X130396595Y-79349999D02*
X130301357Y-79302380D01*
X130301357Y-79302380D02*
X130253738Y-79254761D01*
X130253738Y-79254761D02*
X130206119Y-79159523D01*
X130206119Y-79159523D02*
X130206119Y-78921428D01*
X130206119Y-78921428D02*
X130253738Y-78778571D01*
X131158500Y-78397618D02*
X131206119Y-78254761D01*
X131206119Y-78254761D02*
X131206119Y-78016666D01*
X131206119Y-78016666D02*
X131158500Y-77921428D01*
X131158500Y-77921428D02*
X131110880Y-77873809D01*
X131110880Y-77873809D02*
X131015642Y-77826190D01*
X131015642Y-77826190D02*
X130920404Y-77826190D01*
X130920404Y-77826190D02*
X130825166Y-77873809D01*
X130825166Y-77873809D02*
X130777547Y-77921428D01*
X130777547Y-77921428D02*
X130729928Y-78016666D01*
X130729928Y-78016666D02*
X130682309Y-78207142D01*
X130682309Y-78207142D02*
X130634690Y-78302380D01*
X130634690Y-78302380D02*
X130587071Y-78349999D01*
X130587071Y-78349999D02*
X130491833Y-78397618D01*
X130491833Y-78397618D02*
X130396595Y-78397618D01*
X130396595Y-78397618D02*
X130301357Y-78349999D01*
X130301357Y-78349999D02*
X130253738Y-78302380D01*
X130253738Y-78302380D02*
X130206119Y-78207142D01*
X130206119Y-78207142D02*
X130206119Y-77969047D01*
X130206119Y-77969047D02*
X130253738Y-77826190D01*
X131301357Y-77635714D02*
X131301357Y-76873809D01*
X131206119Y-76111904D02*
X131206119Y-76683332D01*
X131206119Y-76397618D02*
X130206119Y-76397618D01*
X130206119Y-76397618D02*
X130348976Y-76492856D01*
X130348976Y-76492856D02*
X130444214Y-76588094D01*
X130444214Y-76588094D02*
X130491833Y-76683332D01*
X130206119Y-75826189D02*
X131206119Y-75492856D01*
X131206119Y-75492856D02*
X130206119Y-75159523D01*
X130634690Y-74683332D02*
X130587071Y-74778570D01*
X130587071Y-74778570D02*
X130539452Y-74826189D01*
X130539452Y-74826189D02*
X130444214Y-74873808D01*
X130444214Y-74873808D02*
X130396595Y-74873808D01*
X130396595Y-74873808D02*
X130301357Y-74826189D01*
X130301357Y-74826189D02*
X130253738Y-74778570D01*
X130253738Y-74778570D02*
X130206119Y-74683332D01*
X130206119Y-74683332D02*
X130206119Y-74492856D01*
X130206119Y-74492856D02*
X130253738Y-74397618D01*
X130253738Y-74397618D02*
X130301357Y-74349999D01*
X130301357Y-74349999D02*
X130396595Y-74302380D01*
X130396595Y-74302380D02*
X130444214Y-74302380D01*
X130444214Y-74302380D02*
X130539452Y-74349999D01*
X130539452Y-74349999D02*
X130587071Y-74397618D01*
X130587071Y-74397618D02*
X130634690Y-74492856D01*
X130634690Y-74492856D02*
X130634690Y-74683332D01*
X130634690Y-74683332D02*
X130682309Y-74778570D01*
X130682309Y-74778570D02*
X130729928Y-74826189D01*
X130729928Y-74826189D02*
X130825166Y-74873808D01*
X130825166Y-74873808D02*
X131015642Y-74873808D01*
X131015642Y-74873808D02*
X131110880Y-74826189D01*
X131110880Y-74826189D02*
X131158500Y-74778570D01*
X131158500Y-74778570D02*
X131206119Y-74683332D01*
X131206119Y-74683332D02*
X131206119Y-74492856D01*
X131206119Y-74492856D02*
X131158500Y-74397618D01*
X131158500Y-74397618D02*
X131110880Y-74349999D01*
X131110880Y-74349999D02*
X131015642Y-74302380D01*
X131015642Y-74302380D02*
X130825166Y-74302380D01*
X130825166Y-74302380D02*
X130729928Y-74349999D01*
X130729928Y-74349999D02*
X130682309Y-74397618D01*
X130682309Y-74397618D02*
X130634690Y-74492856D01*
X126256119Y-80883332D02*
X125256119Y-80883332D01*
X125256119Y-80883332D02*
X125970404Y-80549999D01*
X125970404Y-80549999D02*
X125256119Y-80216666D01*
X125256119Y-80216666D02*
X126256119Y-80216666D01*
X126256119Y-79740475D02*
X125256119Y-79740475D01*
X126208500Y-79311904D02*
X126256119Y-79169047D01*
X126256119Y-79169047D02*
X126256119Y-78930952D01*
X126256119Y-78930952D02*
X126208500Y-78835714D01*
X126208500Y-78835714D02*
X126160880Y-78788095D01*
X126160880Y-78788095D02*
X126065642Y-78740476D01*
X126065642Y-78740476D02*
X125970404Y-78740476D01*
X125970404Y-78740476D02*
X125875166Y-78788095D01*
X125875166Y-78788095D02*
X125827547Y-78835714D01*
X125827547Y-78835714D02*
X125779928Y-78930952D01*
X125779928Y-78930952D02*
X125732309Y-79121428D01*
X125732309Y-79121428D02*
X125684690Y-79216666D01*
X125684690Y-79216666D02*
X125637071Y-79264285D01*
X125637071Y-79264285D02*
X125541833Y-79311904D01*
X125541833Y-79311904D02*
X125446595Y-79311904D01*
X125446595Y-79311904D02*
X125351357Y-79264285D01*
X125351357Y-79264285D02*
X125303738Y-79216666D01*
X125303738Y-79216666D02*
X125256119Y-79121428D01*
X125256119Y-79121428D02*
X125256119Y-78883333D01*
X125256119Y-78883333D02*
X125303738Y-78740476D01*
X125256119Y-78121428D02*
X125256119Y-77930952D01*
X125256119Y-77930952D02*
X125303738Y-77835714D01*
X125303738Y-77835714D02*
X125398976Y-77740476D01*
X125398976Y-77740476D02*
X125589452Y-77692857D01*
X125589452Y-77692857D02*
X125922785Y-77692857D01*
X125922785Y-77692857D02*
X126113261Y-77740476D01*
X126113261Y-77740476D02*
X126208500Y-77835714D01*
X126208500Y-77835714D02*
X126256119Y-77930952D01*
X126256119Y-77930952D02*
X126256119Y-78121428D01*
X126256119Y-78121428D02*
X126208500Y-78216666D01*
X126208500Y-78216666D02*
X126113261Y-78311904D01*
X126113261Y-78311904D02*
X125922785Y-78359523D01*
X125922785Y-78359523D02*
X125589452Y-78359523D01*
X125589452Y-78359523D02*
X125398976Y-78311904D01*
X125398976Y-78311904D02*
X125303738Y-78216666D01*
X125303738Y-78216666D02*
X125256119Y-78121428D01*
X126351357Y-77502381D02*
X126351357Y-76740476D01*
X126256119Y-75978571D02*
X126256119Y-76549999D01*
X126256119Y-76264285D02*
X125256119Y-76264285D01*
X125256119Y-76264285D02*
X125398976Y-76359523D01*
X125398976Y-76359523D02*
X125494214Y-76454761D01*
X125494214Y-76454761D02*
X125541833Y-76549999D01*
X125256119Y-75692856D02*
X126256119Y-75359523D01*
X126256119Y-75359523D02*
X125256119Y-75026190D01*
X125684690Y-74549999D02*
X125637071Y-74645237D01*
X125637071Y-74645237D02*
X125589452Y-74692856D01*
X125589452Y-74692856D02*
X125494214Y-74740475D01*
X125494214Y-74740475D02*
X125446595Y-74740475D01*
X125446595Y-74740475D02*
X125351357Y-74692856D01*
X125351357Y-74692856D02*
X125303738Y-74645237D01*
X125303738Y-74645237D02*
X125256119Y-74549999D01*
X125256119Y-74549999D02*
X125256119Y-74359523D01*
X125256119Y-74359523D02*
X125303738Y-74264285D01*
X125303738Y-74264285D02*
X125351357Y-74216666D01*
X125351357Y-74216666D02*
X125446595Y-74169047D01*
X125446595Y-74169047D02*
X125494214Y-74169047D01*
X125494214Y-74169047D02*
X125589452Y-74216666D01*
X125589452Y-74216666D02*
X125637071Y-74264285D01*
X125637071Y-74264285D02*
X125684690Y-74359523D01*
X125684690Y-74359523D02*
X125684690Y-74549999D01*
X125684690Y-74549999D02*
X125732309Y-74645237D01*
X125732309Y-74645237D02*
X125779928Y-74692856D01*
X125779928Y-74692856D02*
X125875166Y-74740475D01*
X125875166Y-74740475D02*
X126065642Y-74740475D01*
X126065642Y-74740475D02*
X126160880Y-74692856D01*
X126160880Y-74692856D02*
X126208500Y-74645237D01*
X126208500Y-74645237D02*
X126256119Y-74549999D01*
X126256119Y-74549999D02*
X126256119Y-74359523D01*
X126256119Y-74359523D02*
X126208500Y-74264285D01*
X126208500Y-74264285D02*
X126160880Y-74216666D01*
X126160880Y-74216666D02*
X126065642Y-74169047D01*
X126065642Y-74169047D02*
X125875166Y-74169047D01*
X125875166Y-74169047D02*
X125779928Y-74216666D01*
X125779928Y-74216666D02*
X125732309Y-74264285D01*
X125732309Y-74264285D02*
X125684690Y-74359523D01*
D11*
X172623333Y-75386819D02*
X172147143Y-75386819D01*
X172147143Y-75386819D02*
X172147143Y-74386819D01*
X172861429Y-74386819D02*
X173528095Y-74386819D01*
X173528095Y-74386819D02*
X173099524Y-75386819D01*
X143444286Y-68034819D02*
X144015714Y-68034819D01*
X143730000Y-69034819D02*
X143730000Y-68034819D01*
X144349048Y-69034819D02*
X144349048Y-68034819D01*
X144349048Y-68511009D02*
X144920476Y-68511009D01*
X144920476Y-69034819D02*
X144920476Y-68034819D01*
X145920476Y-69034819D02*
X145349048Y-69034819D01*
X145634762Y-69034819D02*
X145634762Y-68034819D01*
X145634762Y-68034819D02*
X145539524Y-68177676D01*
X145539524Y-68177676D02*
X145444286Y-68272914D01*
X145444286Y-68272914D02*
X145349048Y-68320533D01*
X178799580Y-74054857D02*
X178847200Y-74102476D01*
X178847200Y-74102476D02*
X178894819Y-74245333D01*
X178894819Y-74245333D02*
X178894819Y-74340571D01*
X178894819Y-74340571D02*
X178847200Y-74483428D01*
X178847200Y-74483428D02*
X178751961Y-74578666D01*
X178751961Y-74578666D02*
X178656723Y-74626285D01*
X178656723Y-74626285D02*
X178466247Y-74673904D01*
X178466247Y-74673904D02*
X178323390Y-74673904D01*
X178323390Y-74673904D02*
X178132914Y-74626285D01*
X178132914Y-74626285D02*
X178037676Y-74578666D01*
X178037676Y-74578666D02*
X177942438Y-74483428D01*
X177942438Y-74483428D02*
X177894819Y-74340571D01*
X177894819Y-74340571D02*
X177894819Y-74245333D01*
X177894819Y-74245333D02*
X177942438Y-74102476D01*
X177942438Y-74102476D02*
X177990057Y-74054857D01*
X178228152Y-73197714D02*
X178894819Y-73197714D01*
X177847200Y-73435809D02*
X178561485Y-73673904D01*
X178561485Y-73673904D02*
X178561485Y-73054857D01*
X177894819Y-72197714D02*
X177894819Y-72673904D01*
X177894819Y-72673904D02*
X178371009Y-72721523D01*
X178371009Y-72721523D02*
X178323390Y-72673904D01*
X178323390Y-72673904D02*
X178275771Y-72578666D01*
X178275771Y-72578666D02*
X178275771Y-72340571D01*
X178275771Y-72340571D02*
X178323390Y-72245333D01*
X178323390Y-72245333D02*
X178371009Y-72197714D01*
X178371009Y-72197714D02*
X178466247Y-72150095D01*
X178466247Y-72150095D02*
X178704342Y-72150095D01*
X178704342Y-72150095D02*
X178799580Y-72197714D01*
X178799580Y-72197714D02*
X178847200Y-72245333D01*
X178847200Y-72245333D02*
X178894819Y-72340571D01*
X178894819Y-72340571D02*
X178894819Y-72578666D01*
X178894819Y-72578666D02*
X178847200Y-72673904D01*
X178847200Y-72673904D02*
X178799580Y-72721523D01*
X156623333Y-91216819D02*
X156290000Y-90740628D01*
X156051905Y-91216819D02*
X156051905Y-90216819D01*
X156051905Y-90216819D02*
X156432857Y-90216819D01*
X156432857Y-90216819D02*
X156528095Y-90264438D01*
X156528095Y-90264438D02*
X156575714Y-90312057D01*
X156575714Y-90312057D02*
X156623333Y-90407295D01*
X156623333Y-90407295D02*
X156623333Y-90550152D01*
X156623333Y-90550152D02*
X156575714Y-90645390D01*
X156575714Y-90645390D02*
X156528095Y-90693009D01*
X156528095Y-90693009D02*
X156432857Y-90740628D01*
X156432857Y-90740628D02*
X156051905Y-90740628D01*
X156956667Y-90216819D02*
X157575714Y-90216819D01*
X157575714Y-90216819D02*
X157242381Y-90597771D01*
X157242381Y-90597771D02*
X157385238Y-90597771D01*
X157385238Y-90597771D02*
X157480476Y-90645390D01*
X157480476Y-90645390D02*
X157528095Y-90693009D01*
X157528095Y-90693009D02*
X157575714Y-90788247D01*
X157575714Y-90788247D02*
X157575714Y-91026342D01*
X157575714Y-91026342D02*
X157528095Y-91121580D01*
X157528095Y-91121580D02*
X157480476Y-91169200D01*
X157480476Y-91169200D02*
X157385238Y-91216819D01*
X157385238Y-91216819D02*
X157099524Y-91216819D01*
X157099524Y-91216819D02*
X157004286Y-91169200D01*
X157004286Y-91169200D02*
X156956667Y-91121580D01*
X143329580Y-97116166D02*
X143377200Y-97163785D01*
X143377200Y-97163785D02*
X143424819Y-97306642D01*
X143424819Y-97306642D02*
X143424819Y-97401880D01*
X143424819Y-97401880D02*
X143377200Y-97544737D01*
X143377200Y-97544737D02*
X143281961Y-97639975D01*
X143281961Y-97639975D02*
X143186723Y-97687594D01*
X143186723Y-97687594D02*
X142996247Y-97735213D01*
X142996247Y-97735213D02*
X142853390Y-97735213D01*
X142853390Y-97735213D02*
X142662914Y-97687594D01*
X142662914Y-97687594D02*
X142567676Y-97639975D01*
X142567676Y-97639975D02*
X142472438Y-97544737D01*
X142472438Y-97544737D02*
X142424819Y-97401880D01*
X142424819Y-97401880D02*
X142424819Y-97306642D01*
X142424819Y-97306642D02*
X142472438Y-97163785D01*
X142472438Y-97163785D02*
X142520057Y-97116166D01*
X142424819Y-96782832D02*
X142424819Y-96116166D01*
X142424819Y-96116166D02*
X143424819Y-96544737D01*
D12*
X117009318Y-94783332D02*
X117916461Y-94783332D01*
X117916461Y-94783332D02*
X118097889Y-94843809D01*
X118097889Y-94843809D02*
X118218842Y-94964761D01*
X118218842Y-94964761D02*
X118279318Y-95146190D01*
X118279318Y-95146190D02*
X118279318Y-95267142D01*
X118279318Y-93513332D02*
X118279318Y-94239047D01*
X118279318Y-93876190D02*
X117009318Y-93876190D01*
X117009318Y-93876190D02*
X117190746Y-93997142D01*
X117190746Y-93997142D02*
X117311699Y-94118094D01*
X117311699Y-94118094D02*
X117372175Y-94239047D01*
D11*
X142623333Y-82316819D02*
X142147143Y-82316819D01*
X142147143Y-82316819D02*
X142147143Y-81316819D01*
X143480476Y-82316819D02*
X142909048Y-82316819D01*
X143194762Y-82316819D02*
X143194762Y-81316819D01*
X143194762Y-81316819D02*
X143099524Y-81459676D01*
X143099524Y-81459676D02*
X143004286Y-81554914D01*
X143004286Y-81554914D02*
X142909048Y-81602533D01*
X128694761Y-121362057D02*
X128599523Y-121314438D01*
X128599523Y-121314438D02*
X128504285Y-121219200D01*
X128504285Y-121219200D02*
X128361428Y-121076342D01*
X128361428Y-121076342D02*
X128266190Y-121028723D01*
X128266190Y-121028723D02*
X128170952Y-121028723D01*
X128218571Y-121266819D02*
X128123333Y-121219200D01*
X128123333Y-121219200D02*
X128028095Y-121123961D01*
X128028095Y-121123961D02*
X127980476Y-120933485D01*
X127980476Y-120933485D02*
X127980476Y-120600152D01*
X127980476Y-120600152D02*
X128028095Y-120409676D01*
X128028095Y-120409676D02*
X128123333Y-120314438D01*
X128123333Y-120314438D02*
X128218571Y-120266819D01*
X128218571Y-120266819D02*
X128409047Y-120266819D01*
X128409047Y-120266819D02*
X128504285Y-120314438D01*
X128504285Y-120314438D02*
X128599523Y-120409676D01*
X128599523Y-120409676D02*
X128647142Y-120600152D01*
X128647142Y-120600152D02*
X128647142Y-120933485D01*
X128647142Y-120933485D02*
X128599523Y-121123961D01*
X128599523Y-121123961D02*
X128504285Y-121219200D01*
X128504285Y-121219200D02*
X128409047Y-121266819D01*
X128409047Y-121266819D02*
X128218571Y-121266819D01*
X129599523Y-121266819D02*
X129028095Y-121266819D01*
X129313809Y-121266819D02*
X129313809Y-120266819D01*
X129313809Y-120266819D02*
X129218571Y-120409676D01*
X129218571Y-120409676D02*
X129123333Y-120504914D01*
X129123333Y-120504914D02*
X129028095Y-120552533D01*
X159309580Y-95892857D02*
X159357200Y-95940476D01*
X159357200Y-95940476D02*
X159404819Y-96083333D01*
X159404819Y-96083333D02*
X159404819Y-96178571D01*
X159404819Y-96178571D02*
X159357200Y-96321428D01*
X159357200Y-96321428D02*
X159261961Y-96416666D01*
X159261961Y-96416666D02*
X159166723Y-96464285D01*
X159166723Y-96464285D02*
X158976247Y-96511904D01*
X158976247Y-96511904D02*
X158833390Y-96511904D01*
X158833390Y-96511904D02*
X158642914Y-96464285D01*
X158642914Y-96464285D02*
X158547676Y-96416666D01*
X158547676Y-96416666D02*
X158452438Y-96321428D01*
X158452438Y-96321428D02*
X158404819Y-96178571D01*
X158404819Y-96178571D02*
X158404819Y-96083333D01*
X158404819Y-96083333D02*
X158452438Y-95940476D01*
X158452438Y-95940476D02*
X158500057Y-95892857D01*
X158738152Y-95035714D02*
X159404819Y-95035714D01*
X158357200Y-95273809D02*
X159071485Y-95511904D01*
X159071485Y-95511904D02*
X159071485Y-94892857D01*
X159404819Y-93988095D02*
X159404819Y-94559523D01*
X159404819Y-94273809D02*
X158404819Y-94273809D01*
X158404819Y-94273809D02*
X158547676Y-94369047D01*
X158547676Y-94369047D02*
X158642914Y-94464285D01*
X158642914Y-94464285D02*
X158690533Y-94559523D01*
X178999580Y-114554857D02*
X179047200Y-114602476D01*
X179047200Y-114602476D02*
X179094819Y-114745333D01*
X179094819Y-114745333D02*
X179094819Y-114840571D01*
X179094819Y-114840571D02*
X179047200Y-114983428D01*
X179047200Y-114983428D02*
X178951961Y-115078666D01*
X178951961Y-115078666D02*
X178856723Y-115126285D01*
X178856723Y-115126285D02*
X178666247Y-115173904D01*
X178666247Y-115173904D02*
X178523390Y-115173904D01*
X178523390Y-115173904D02*
X178332914Y-115126285D01*
X178332914Y-115126285D02*
X178237676Y-115078666D01*
X178237676Y-115078666D02*
X178142438Y-114983428D01*
X178142438Y-114983428D02*
X178094819Y-114840571D01*
X178094819Y-114840571D02*
X178094819Y-114745333D01*
X178094819Y-114745333D02*
X178142438Y-114602476D01*
X178142438Y-114602476D02*
X178190057Y-114554857D01*
X179094819Y-113602476D02*
X179094819Y-114173904D01*
X179094819Y-113888190D02*
X178094819Y-113888190D01*
X178094819Y-113888190D02*
X178237676Y-113983428D01*
X178237676Y-113983428D02*
X178332914Y-114078666D01*
X178332914Y-114078666D02*
X178380533Y-114173904D01*
X178523390Y-113031047D02*
X178475771Y-113126285D01*
X178475771Y-113126285D02*
X178428152Y-113173904D01*
X178428152Y-113173904D02*
X178332914Y-113221523D01*
X178332914Y-113221523D02*
X178285295Y-113221523D01*
X178285295Y-113221523D02*
X178190057Y-113173904D01*
X178190057Y-113173904D02*
X178142438Y-113126285D01*
X178142438Y-113126285D02*
X178094819Y-113031047D01*
X178094819Y-113031047D02*
X178094819Y-112840571D01*
X178094819Y-112840571D02*
X178142438Y-112745333D01*
X178142438Y-112745333D02*
X178190057Y-112697714D01*
X178190057Y-112697714D02*
X178285295Y-112650095D01*
X178285295Y-112650095D02*
X178332914Y-112650095D01*
X178332914Y-112650095D02*
X178428152Y-112697714D01*
X178428152Y-112697714D02*
X178475771Y-112745333D01*
X178475771Y-112745333D02*
X178523390Y-112840571D01*
X178523390Y-112840571D02*
X178523390Y-113031047D01*
X178523390Y-113031047D02*
X178571009Y-113126285D01*
X178571009Y-113126285D02*
X178618628Y-113173904D01*
X178618628Y-113173904D02*
X178713866Y-113221523D01*
X178713866Y-113221523D02*
X178904342Y-113221523D01*
X178904342Y-113221523D02*
X178999580Y-113173904D01*
X178999580Y-113173904D02*
X179047200Y-113126285D01*
X179047200Y-113126285D02*
X179094819Y-113031047D01*
X179094819Y-113031047D02*
X179094819Y-112840571D01*
X179094819Y-112840571D02*
X179047200Y-112745333D01*
X179047200Y-112745333D02*
X178999580Y-112697714D01*
X178999580Y-112697714D02*
X178904342Y-112650095D01*
X178904342Y-112650095D02*
X178713866Y-112650095D01*
X178713866Y-112650095D02*
X178618628Y-112697714D01*
X178618628Y-112697714D02*
X178571009Y-112745333D01*
X178571009Y-112745333D02*
X178523390Y-112840571D01*
X125883333Y-92659580D02*
X125835714Y-92707200D01*
X125835714Y-92707200D02*
X125692857Y-92754819D01*
X125692857Y-92754819D02*
X125597619Y-92754819D01*
X125597619Y-92754819D02*
X125454762Y-92707200D01*
X125454762Y-92707200D02*
X125359524Y-92611961D01*
X125359524Y-92611961D02*
X125311905Y-92516723D01*
X125311905Y-92516723D02*
X125264286Y-92326247D01*
X125264286Y-92326247D02*
X125264286Y-92183390D01*
X125264286Y-92183390D02*
X125311905Y-91992914D01*
X125311905Y-91992914D02*
X125359524Y-91897676D01*
X125359524Y-91897676D02*
X125454762Y-91802438D01*
X125454762Y-91802438D02*
X125597619Y-91754819D01*
X125597619Y-91754819D02*
X125692857Y-91754819D01*
X125692857Y-91754819D02*
X125835714Y-91802438D01*
X125835714Y-91802438D02*
X125883333Y-91850057D01*
X126216667Y-91754819D02*
X126835714Y-91754819D01*
X126835714Y-91754819D02*
X126502381Y-92135771D01*
X126502381Y-92135771D02*
X126645238Y-92135771D01*
X126645238Y-92135771D02*
X126740476Y-92183390D01*
X126740476Y-92183390D02*
X126788095Y-92231009D01*
X126788095Y-92231009D02*
X126835714Y-92326247D01*
X126835714Y-92326247D02*
X126835714Y-92564342D01*
X126835714Y-92564342D02*
X126788095Y-92659580D01*
X126788095Y-92659580D02*
X126740476Y-92707200D01*
X126740476Y-92707200D02*
X126645238Y-92754819D01*
X126645238Y-92754819D02*
X126359524Y-92754819D01*
X126359524Y-92754819D02*
X126264286Y-92707200D01*
X126264286Y-92707200D02*
X126216667Y-92659580D01*
X139983333Y-91204819D02*
X139650000Y-90728628D01*
X139411905Y-91204819D02*
X139411905Y-90204819D01*
X139411905Y-90204819D02*
X139792857Y-90204819D01*
X139792857Y-90204819D02*
X139888095Y-90252438D01*
X139888095Y-90252438D02*
X139935714Y-90300057D01*
X139935714Y-90300057D02*
X139983333Y-90395295D01*
X139983333Y-90395295D02*
X139983333Y-90538152D01*
X139983333Y-90538152D02*
X139935714Y-90633390D01*
X139935714Y-90633390D02*
X139888095Y-90681009D01*
X139888095Y-90681009D02*
X139792857Y-90728628D01*
X139792857Y-90728628D02*
X139411905Y-90728628D01*
X140459524Y-91204819D02*
X140650000Y-91204819D01*
X140650000Y-91204819D02*
X140745238Y-91157200D01*
X140745238Y-91157200D02*
X140792857Y-91109580D01*
X140792857Y-91109580D02*
X140888095Y-90966723D01*
X140888095Y-90966723D02*
X140935714Y-90776247D01*
X140935714Y-90776247D02*
X140935714Y-90395295D01*
X140935714Y-90395295D02*
X140888095Y-90300057D01*
X140888095Y-90300057D02*
X140840476Y-90252438D01*
X140840476Y-90252438D02*
X140745238Y-90204819D01*
X140745238Y-90204819D02*
X140554762Y-90204819D01*
X140554762Y-90204819D02*
X140459524Y-90252438D01*
X140459524Y-90252438D02*
X140411905Y-90300057D01*
X140411905Y-90300057D02*
X140364286Y-90395295D01*
X140364286Y-90395295D02*
X140364286Y-90633390D01*
X140364286Y-90633390D02*
X140411905Y-90728628D01*
X140411905Y-90728628D02*
X140459524Y-90776247D01*
X140459524Y-90776247D02*
X140554762Y-90823866D01*
X140554762Y-90823866D02*
X140745238Y-90823866D01*
X140745238Y-90823866D02*
X140840476Y-90776247D01*
X140840476Y-90776247D02*
X140888095Y-90728628D01*
X140888095Y-90728628D02*
X140935714Y-90633390D01*
X145809580Y-119316666D02*
X145857200Y-119364285D01*
X145857200Y-119364285D02*
X145904819Y-119507142D01*
X145904819Y-119507142D02*
X145904819Y-119602380D01*
X145904819Y-119602380D02*
X145857200Y-119745237D01*
X145857200Y-119745237D02*
X145761961Y-119840475D01*
X145761961Y-119840475D02*
X145666723Y-119888094D01*
X145666723Y-119888094D02*
X145476247Y-119935713D01*
X145476247Y-119935713D02*
X145333390Y-119935713D01*
X145333390Y-119935713D02*
X145142914Y-119888094D01*
X145142914Y-119888094D02*
X145047676Y-119840475D01*
X145047676Y-119840475D02*
X144952438Y-119745237D01*
X144952438Y-119745237D02*
X144904819Y-119602380D01*
X144904819Y-119602380D02*
X144904819Y-119507142D01*
X144904819Y-119507142D02*
X144952438Y-119364285D01*
X144952438Y-119364285D02*
X145000057Y-119316666D01*
X145904819Y-118840475D02*
X145904819Y-118649999D01*
X145904819Y-118649999D02*
X145857200Y-118554761D01*
X145857200Y-118554761D02*
X145809580Y-118507142D01*
X145809580Y-118507142D02*
X145666723Y-118411904D01*
X145666723Y-118411904D02*
X145476247Y-118364285D01*
X145476247Y-118364285D02*
X145095295Y-118364285D01*
X145095295Y-118364285D02*
X145000057Y-118411904D01*
X145000057Y-118411904D02*
X144952438Y-118459523D01*
X144952438Y-118459523D02*
X144904819Y-118554761D01*
X144904819Y-118554761D02*
X144904819Y-118745237D01*
X144904819Y-118745237D02*
X144952438Y-118840475D01*
X144952438Y-118840475D02*
X145000057Y-118888094D01*
X145000057Y-118888094D02*
X145095295Y-118935713D01*
X145095295Y-118935713D02*
X145333390Y-118935713D01*
X145333390Y-118935713D02*
X145428628Y-118888094D01*
X145428628Y-118888094D02*
X145476247Y-118840475D01*
X145476247Y-118840475D02*
X145523866Y-118745237D01*
X145523866Y-118745237D02*
X145523866Y-118554761D01*
X145523866Y-118554761D02*
X145476247Y-118459523D01*
X145476247Y-118459523D02*
X145428628Y-118411904D01*
X145428628Y-118411904D02*
X145333390Y-118364285D01*
X140683333Y-86304819D02*
X140350000Y-85828628D01*
X140111905Y-86304819D02*
X140111905Y-85304819D01*
X140111905Y-85304819D02*
X140492857Y-85304819D01*
X140492857Y-85304819D02*
X140588095Y-85352438D01*
X140588095Y-85352438D02*
X140635714Y-85400057D01*
X140635714Y-85400057D02*
X140683333Y-85495295D01*
X140683333Y-85495295D02*
X140683333Y-85638152D01*
X140683333Y-85638152D02*
X140635714Y-85733390D01*
X140635714Y-85733390D02*
X140588095Y-85781009D01*
X140588095Y-85781009D02*
X140492857Y-85828628D01*
X140492857Y-85828628D02*
X140111905Y-85828628D01*
X141016667Y-85304819D02*
X141683333Y-85304819D01*
X141683333Y-85304819D02*
X141254762Y-86304819D01*
X149539580Y-99592857D02*
X149587200Y-99640476D01*
X149587200Y-99640476D02*
X149634819Y-99783333D01*
X149634819Y-99783333D02*
X149634819Y-99878571D01*
X149634819Y-99878571D02*
X149587200Y-100021428D01*
X149587200Y-100021428D02*
X149491961Y-100116666D01*
X149491961Y-100116666D02*
X149396723Y-100164285D01*
X149396723Y-100164285D02*
X149206247Y-100211904D01*
X149206247Y-100211904D02*
X149063390Y-100211904D01*
X149063390Y-100211904D02*
X148872914Y-100164285D01*
X148872914Y-100164285D02*
X148777676Y-100116666D01*
X148777676Y-100116666D02*
X148682438Y-100021428D01*
X148682438Y-100021428D02*
X148634819Y-99878571D01*
X148634819Y-99878571D02*
X148634819Y-99783333D01*
X148634819Y-99783333D02*
X148682438Y-99640476D01*
X148682438Y-99640476D02*
X148730057Y-99592857D01*
X149634819Y-98640476D02*
X149634819Y-99211904D01*
X149634819Y-98926190D02*
X148634819Y-98926190D01*
X148634819Y-98926190D02*
X148777676Y-99021428D01*
X148777676Y-99021428D02*
X148872914Y-99116666D01*
X148872914Y-99116666D02*
X148920533Y-99211904D01*
X148968152Y-97783333D02*
X149634819Y-97783333D01*
X148587200Y-98021428D02*
X149301485Y-98259523D01*
X149301485Y-98259523D02*
X149301485Y-97640476D01*
X126123333Y-101451580D02*
X126075714Y-101499200D01*
X126075714Y-101499200D02*
X125932857Y-101546819D01*
X125932857Y-101546819D02*
X125837619Y-101546819D01*
X125837619Y-101546819D02*
X125694762Y-101499200D01*
X125694762Y-101499200D02*
X125599524Y-101403961D01*
X125599524Y-101403961D02*
X125551905Y-101308723D01*
X125551905Y-101308723D02*
X125504286Y-101118247D01*
X125504286Y-101118247D02*
X125504286Y-100975390D01*
X125504286Y-100975390D02*
X125551905Y-100784914D01*
X125551905Y-100784914D02*
X125599524Y-100689676D01*
X125599524Y-100689676D02*
X125694762Y-100594438D01*
X125694762Y-100594438D02*
X125837619Y-100546819D01*
X125837619Y-100546819D02*
X125932857Y-100546819D01*
X125932857Y-100546819D02*
X126075714Y-100594438D01*
X126075714Y-100594438D02*
X126123333Y-100642057D01*
X126980476Y-100880152D02*
X126980476Y-101546819D01*
X126742381Y-100499200D02*
X126504286Y-101213485D01*
X126504286Y-101213485D02*
X127123333Y-101213485D01*
X175299580Y-74029857D02*
X175347200Y-74077476D01*
X175347200Y-74077476D02*
X175394819Y-74220333D01*
X175394819Y-74220333D02*
X175394819Y-74315571D01*
X175394819Y-74315571D02*
X175347200Y-74458428D01*
X175347200Y-74458428D02*
X175251961Y-74553666D01*
X175251961Y-74553666D02*
X175156723Y-74601285D01*
X175156723Y-74601285D02*
X174966247Y-74648904D01*
X174966247Y-74648904D02*
X174823390Y-74648904D01*
X174823390Y-74648904D02*
X174632914Y-74601285D01*
X174632914Y-74601285D02*
X174537676Y-74553666D01*
X174537676Y-74553666D02*
X174442438Y-74458428D01*
X174442438Y-74458428D02*
X174394819Y-74315571D01*
X174394819Y-74315571D02*
X174394819Y-74220333D01*
X174394819Y-74220333D02*
X174442438Y-74077476D01*
X174442438Y-74077476D02*
X174490057Y-74029857D01*
X174728152Y-73172714D02*
X175394819Y-73172714D01*
X174347200Y-73410809D02*
X175061485Y-73648904D01*
X175061485Y-73648904D02*
X175061485Y-73029857D01*
X174728152Y-72220333D02*
X175394819Y-72220333D01*
X174347200Y-72458428D02*
X175061485Y-72696523D01*
X175061485Y-72696523D02*
X175061485Y-72077476D01*
X144623333Y-86216819D02*
X144290000Y-85740628D01*
X144051905Y-86216819D02*
X144051905Y-85216819D01*
X144051905Y-85216819D02*
X144432857Y-85216819D01*
X144432857Y-85216819D02*
X144528095Y-85264438D01*
X144528095Y-85264438D02*
X144575714Y-85312057D01*
X144575714Y-85312057D02*
X144623333Y-85407295D01*
X144623333Y-85407295D02*
X144623333Y-85550152D01*
X144623333Y-85550152D02*
X144575714Y-85645390D01*
X144575714Y-85645390D02*
X144528095Y-85693009D01*
X144528095Y-85693009D02*
X144432857Y-85740628D01*
X144432857Y-85740628D02*
X144051905Y-85740628D01*
X145194762Y-85645390D02*
X145099524Y-85597771D01*
X145099524Y-85597771D02*
X145051905Y-85550152D01*
X145051905Y-85550152D02*
X145004286Y-85454914D01*
X145004286Y-85454914D02*
X145004286Y-85407295D01*
X145004286Y-85407295D02*
X145051905Y-85312057D01*
X145051905Y-85312057D02*
X145099524Y-85264438D01*
X145099524Y-85264438D02*
X145194762Y-85216819D01*
X145194762Y-85216819D02*
X145385238Y-85216819D01*
X145385238Y-85216819D02*
X145480476Y-85264438D01*
X145480476Y-85264438D02*
X145528095Y-85312057D01*
X145528095Y-85312057D02*
X145575714Y-85407295D01*
X145575714Y-85407295D02*
X145575714Y-85454914D01*
X145575714Y-85454914D02*
X145528095Y-85550152D01*
X145528095Y-85550152D02*
X145480476Y-85597771D01*
X145480476Y-85597771D02*
X145385238Y-85645390D01*
X145385238Y-85645390D02*
X145194762Y-85645390D01*
X145194762Y-85645390D02*
X145099524Y-85693009D01*
X145099524Y-85693009D02*
X145051905Y-85740628D01*
X145051905Y-85740628D02*
X145004286Y-85835866D01*
X145004286Y-85835866D02*
X145004286Y-86026342D01*
X145004286Y-86026342D02*
X145051905Y-86121580D01*
X145051905Y-86121580D02*
X145099524Y-86169200D01*
X145099524Y-86169200D02*
X145194762Y-86216819D01*
X145194762Y-86216819D02*
X145385238Y-86216819D01*
X145385238Y-86216819D02*
X145480476Y-86169200D01*
X145480476Y-86169200D02*
X145528095Y-86121580D01*
X145528095Y-86121580D02*
X145575714Y-86026342D01*
X145575714Y-86026342D02*
X145575714Y-85835866D01*
X145575714Y-85835866D02*
X145528095Y-85740628D01*
X145528095Y-85740628D02*
X145480476Y-85693009D01*
X145480476Y-85693009D02*
X145385238Y-85645390D01*
X127683333Y-87809580D02*
X127635714Y-87857200D01*
X127635714Y-87857200D02*
X127492857Y-87904819D01*
X127492857Y-87904819D02*
X127397619Y-87904819D01*
X127397619Y-87904819D02*
X127254762Y-87857200D01*
X127254762Y-87857200D02*
X127159524Y-87761961D01*
X127159524Y-87761961D02*
X127111905Y-87666723D01*
X127111905Y-87666723D02*
X127064286Y-87476247D01*
X127064286Y-87476247D02*
X127064286Y-87333390D01*
X127064286Y-87333390D02*
X127111905Y-87142914D01*
X127111905Y-87142914D02*
X127159524Y-87047676D01*
X127159524Y-87047676D02*
X127254762Y-86952438D01*
X127254762Y-86952438D02*
X127397619Y-86904819D01*
X127397619Y-86904819D02*
X127492857Y-86904819D01*
X127492857Y-86904819D02*
X127635714Y-86952438D01*
X127635714Y-86952438D02*
X127683333Y-87000057D01*
X128254762Y-87333390D02*
X128159524Y-87285771D01*
X128159524Y-87285771D02*
X128111905Y-87238152D01*
X128111905Y-87238152D02*
X128064286Y-87142914D01*
X128064286Y-87142914D02*
X128064286Y-87095295D01*
X128064286Y-87095295D02*
X128111905Y-87000057D01*
X128111905Y-87000057D02*
X128159524Y-86952438D01*
X128159524Y-86952438D02*
X128254762Y-86904819D01*
X128254762Y-86904819D02*
X128445238Y-86904819D01*
X128445238Y-86904819D02*
X128540476Y-86952438D01*
X128540476Y-86952438D02*
X128588095Y-87000057D01*
X128588095Y-87000057D02*
X128635714Y-87095295D01*
X128635714Y-87095295D02*
X128635714Y-87142914D01*
X128635714Y-87142914D02*
X128588095Y-87238152D01*
X128588095Y-87238152D02*
X128540476Y-87285771D01*
X128540476Y-87285771D02*
X128445238Y-87333390D01*
X128445238Y-87333390D02*
X128254762Y-87333390D01*
X128254762Y-87333390D02*
X128159524Y-87381009D01*
X128159524Y-87381009D02*
X128111905Y-87428628D01*
X128111905Y-87428628D02*
X128064286Y-87523866D01*
X128064286Y-87523866D02*
X128064286Y-87714342D01*
X128064286Y-87714342D02*
X128111905Y-87809580D01*
X128111905Y-87809580D02*
X128159524Y-87857200D01*
X128159524Y-87857200D02*
X128254762Y-87904819D01*
X128254762Y-87904819D02*
X128445238Y-87904819D01*
X128445238Y-87904819D02*
X128540476Y-87857200D01*
X128540476Y-87857200D02*
X128588095Y-87809580D01*
X128588095Y-87809580D02*
X128635714Y-87714342D01*
X128635714Y-87714342D02*
X128635714Y-87523866D01*
X128635714Y-87523866D02*
X128588095Y-87428628D01*
X128588095Y-87428628D02*
X128540476Y-87381009D01*
X128540476Y-87381009D02*
X128445238Y-87333390D01*
X139123333Y-105716819D02*
X138790000Y-105240628D01*
X138551905Y-105716819D02*
X138551905Y-104716819D01*
X138551905Y-104716819D02*
X138932857Y-104716819D01*
X138932857Y-104716819D02*
X139028095Y-104764438D01*
X139028095Y-104764438D02*
X139075714Y-104812057D01*
X139075714Y-104812057D02*
X139123333Y-104907295D01*
X139123333Y-104907295D02*
X139123333Y-105050152D01*
X139123333Y-105050152D02*
X139075714Y-105145390D01*
X139075714Y-105145390D02*
X139028095Y-105193009D01*
X139028095Y-105193009D02*
X138932857Y-105240628D01*
X138932857Y-105240628D02*
X138551905Y-105240628D01*
X139980476Y-104716819D02*
X139790000Y-104716819D01*
X139790000Y-104716819D02*
X139694762Y-104764438D01*
X139694762Y-104764438D02*
X139647143Y-104812057D01*
X139647143Y-104812057D02*
X139551905Y-104954914D01*
X139551905Y-104954914D02*
X139504286Y-105145390D01*
X139504286Y-105145390D02*
X139504286Y-105526342D01*
X139504286Y-105526342D02*
X139551905Y-105621580D01*
X139551905Y-105621580D02*
X139599524Y-105669200D01*
X139599524Y-105669200D02*
X139694762Y-105716819D01*
X139694762Y-105716819D02*
X139885238Y-105716819D01*
X139885238Y-105716819D02*
X139980476Y-105669200D01*
X139980476Y-105669200D02*
X140028095Y-105621580D01*
X140028095Y-105621580D02*
X140075714Y-105526342D01*
X140075714Y-105526342D02*
X140075714Y-105288247D01*
X140075714Y-105288247D02*
X140028095Y-105193009D01*
X140028095Y-105193009D02*
X139980476Y-105145390D01*
X139980476Y-105145390D02*
X139885238Y-105097771D01*
X139885238Y-105097771D02*
X139694762Y-105097771D01*
X139694762Y-105097771D02*
X139599524Y-105145390D01*
X139599524Y-105145390D02*
X139551905Y-105193009D01*
X139551905Y-105193009D02*
X139504286Y-105288247D01*
X172623333Y-82886819D02*
X172147143Y-82886819D01*
X172147143Y-82886819D02*
X172147143Y-81886819D01*
X173099524Y-82315390D02*
X173004286Y-82267771D01*
X173004286Y-82267771D02*
X172956667Y-82220152D01*
X172956667Y-82220152D02*
X172909048Y-82124914D01*
X172909048Y-82124914D02*
X172909048Y-82077295D01*
X172909048Y-82077295D02*
X172956667Y-81982057D01*
X172956667Y-81982057D02*
X173004286Y-81934438D01*
X173004286Y-81934438D02*
X173099524Y-81886819D01*
X173099524Y-81886819D02*
X173290000Y-81886819D01*
X173290000Y-81886819D02*
X173385238Y-81934438D01*
X173385238Y-81934438D02*
X173432857Y-81982057D01*
X173432857Y-81982057D02*
X173480476Y-82077295D01*
X173480476Y-82077295D02*
X173480476Y-82124914D01*
X173480476Y-82124914D02*
X173432857Y-82220152D01*
X173432857Y-82220152D02*
X173385238Y-82267771D01*
X173385238Y-82267771D02*
X173290000Y-82315390D01*
X173290000Y-82315390D02*
X173099524Y-82315390D01*
X173099524Y-82315390D02*
X173004286Y-82363009D01*
X173004286Y-82363009D02*
X172956667Y-82410628D01*
X172956667Y-82410628D02*
X172909048Y-82505866D01*
X172909048Y-82505866D02*
X172909048Y-82696342D01*
X172909048Y-82696342D02*
X172956667Y-82791580D01*
X172956667Y-82791580D02*
X173004286Y-82839200D01*
X173004286Y-82839200D02*
X173099524Y-82886819D01*
X173099524Y-82886819D02*
X173290000Y-82886819D01*
X173290000Y-82886819D02*
X173385238Y-82839200D01*
X173385238Y-82839200D02*
X173432857Y-82791580D01*
X173432857Y-82791580D02*
X173480476Y-82696342D01*
X173480476Y-82696342D02*
X173480476Y-82505866D01*
X173480476Y-82505866D02*
X173432857Y-82410628D01*
X173432857Y-82410628D02*
X173385238Y-82363009D01*
X173385238Y-82363009D02*
X173290000Y-82315390D01*
X141454819Y-120442857D02*
X140978628Y-120776190D01*
X141454819Y-121014285D02*
X140454819Y-121014285D01*
X140454819Y-121014285D02*
X140454819Y-120633333D01*
X140454819Y-120633333D02*
X140502438Y-120538095D01*
X140502438Y-120538095D02*
X140550057Y-120490476D01*
X140550057Y-120490476D02*
X140645295Y-120442857D01*
X140645295Y-120442857D02*
X140788152Y-120442857D01*
X140788152Y-120442857D02*
X140883390Y-120490476D01*
X140883390Y-120490476D02*
X140931009Y-120538095D01*
X140931009Y-120538095D02*
X140978628Y-120633333D01*
X140978628Y-120633333D02*
X140978628Y-121014285D01*
X141454819Y-119490476D02*
X141454819Y-120061904D01*
X141454819Y-119776190D02*
X140454819Y-119776190D01*
X140454819Y-119776190D02*
X140597676Y-119871428D01*
X140597676Y-119871428D02*
X140692914Y-119966666D01*
X140692914Y-119966666D02*
X140740533Y-120061904D01*
X141454819Y-118538095D02*
X141454819Y-119109523D01*
X141454819Y-118823809D02*
X140454819Y-118823809D01*
X140454819Y-118823809D02*
X140597676Y-118919047D01*
X140597676Y-118919047D02*
X140692914Y-119014285D01*
X140692914Y-119014285D02*
X140740533Y-119109523D01*
X177109580Y-87192857D02*
X177157200Y-87240476D01*
X177157200Y-87240476D02*
X177204819Y-87383333D01*
X177204819Y-87383333D02*
X177204819Y-87478571D01*
X177204819Y-87478571D02*
X177157200Y-87621428D01*
X177157200Y-87621428D02*
X177061961Y-87716666D01*
X177061961Y-87716666D02*
X176966723Y-87764285D01*
X176966723Y-87764285D02*
X176776247Y-87811904D01*
X176776247Y-87811904D02*
X176633390Y-87811904D01*
X176633390Y-87811904D02*
X176442914Y-87764285D01*
X176442914Y-87764285D02*
X176347676Y-87716666D01*
X176347676Y-87716666D02*
X176252438Y-87621428D01*
X176252438Y-87621428D02*
X176204819Y-87478571D01*
X176204819Y-87478571D02*
X176204819Y-87383333D01*
X176204819Y-87383333D02*
X176252438Y-87240476D01*
X176252438Y-87240476D02*
X176300057Y-87192857D01*
X176538152Y-86335714D02*
X177204819Y-86335714D01*
X176157200Y-86573809D02*
X176871485Y-86811904D01*
X176871485Y-86811904D02*
X176871485Y-86192857D01*
X176204819Y-85383333D02*
X176204819Y-85573809D01*
X176204819Y-85573809D02*
X176252438Y-85669047D01*
X176252438Y-85669047D02*
X176300057Y-85716666D01*
X176300057Y-85716666D02*
X176442914Y-85811904D01*
X176442914Y-85811904D02*
X176633390Y-85859523D01*
X176633390Y-85859523D02*
X177014342Y-85859523D01*
X177014342Y-85859523D02*
X177109580Y-85811904D01*
X177109580Y-85811904D02*
X177157200Y-85764285D01*
X177157200Y-85764285D02*
X177204819Y-85669047D01*
X177204819Y-85669047D02*
X177204819Y-85478571D01*
X177204819Y-85478571D02*
X177157200Y-85383333D01*
X177157200Y-85383333D02*
X177109580Y-85335714D01*
X177109580Y-85335714D02*
X177014342Y-85288095D01*
X177014342Y-85288095D02*
X176776247Y-85288095D01*
X176776247Y-85288095D02*
X176681009Y-85335714D01*
X176681009Y-85335714D02*
X176633390Y-85383333D01*
X176633390Y-85383333D02*
X176585771Y-85478571D01*
X176585771Y-85478571D02*
X176585771Y-85669047D01*
X176585771Y-85669047D02*
X176633390Y-85764285D01*
X176633390Y-85764285D02*
X176681009Y-85811904D01*
X176681009Y-85811904D02*
X176776247Y-85859523D01*
D10*
X135658500Y-80347618D02*
X135706119Y-80204761D01*
X135706119Y-80204761D02*
X135706119Y-79966666D01*
X135706119Y-79966666D02*
X135658500Y-79871428D01*
X135658500Y-79871428D02*
X135610880Y-79823809D01*
X135610880Y-79823809D02*
X135515642Y-79776190D01*
X135515642Y-79776190D02*
X135420404Y-79776190D01*
X135420404Y-79776190D02*
X135325166Y-79823809D01*
X135325166Y-79823809D02*
X135277547Y-79871428D01*
X135277547Y-79871428D02*
X135229928Y-79966666D01*
X135229928Y-79966666D02*
X135182309Y-80157142D01*
X135182309Y-80157142D02*
X135134690Y-80252380D01*
X135134690Y-80252380D02*
X135087071Y-80299999D01*
X135087071Y-80299999D02*
X134991833Y-80347618D01*
X134991833Y-80347618D02*
X134896595Y-80347618D01*
X134896595Y-80347618D02*
X134801357Y-80299999D01*
X134801357Y-80299999D02*
X134753738Y-80252380D01*
X134753738Y-80252380D02*
X134706119Y-80157142D01*
X134706119Y-80157142D02*
X134706119Y-79919047D01*
X134706119Y-79919047D02*
X134753738Y-79776190D01*
X135610880Y-78776190D02*
X135658500Y-78823809D01*
X135658500Y-78823809D02*
X135706119Y-78966666D01*
X135706119Y-78966666D02*
X135706119Y-79061904D01*
X135706119Y-79061904D02*
X135658500Y-79204761D01*
X135658500Y-79204761D02*
X135563261Y-79299999D01*
X135563261Y-79299999D02*
X135468023Y-79347618D01*
X135468023Y-79347618D02*
X135277547Y-79395237D01*
X135277547Y-79395237D02*
X135134690Y-79395237D01*
X135134690Y-79395237D02*
X134944214Y-79347618D01*
X134944214Y-79347618D02*
X134848976Y-79299999D01*
X134848976Y-79299999D02*
X134753738Y-79204761D01*
X134753738Y-79204761D02*
X134706119Y-79061904D01*
X134706119Y-79061904D02*
X134706119Y-78966666D01*
X134706119Y-78966666D02*
X134753738Y-78823809D01*
X134753738Y-78823809D02*
X134801357Y-78776190D01*
X135706119Y-78347618D02*
X134706119Y-78347618D01*
X135706119Y-77776190D02*
X135134690Y-78204761D01*
X134706119Y-77776190D02*
X135277547Y-78347618D01*
X135801357Y-77585714D02*
X135801357Y-76823809D01*
X135706119Y-76061904D02*
X135706119Y-76633332D01*
X135706119Y-76347618D02*
X134706119Y-76347618D01*
X134706119Y-76347618D02*
X134848976Y-76442856D01*
X134848976Y-76442856D02*
X134944214Y-76538094D01*
X134944214Y-76538094D02*
X134991833Y-76633332D01*
X134706119Y-75776189D02*
X135706119Y-75442856D01*
X135706119Y-75442856D02*
X134706119Y-75109523D01*
X135134690Y-74633332D02*
X135087071Y-74728570D01*
X135087071Y-74728570D02*
X135039452Y-74776189D01*
X135039452Y-74776189D02*
X134944214Y-74823808D01*
X134944214Y-74823808D02*
X134896595Y-74823808D01*
X134896595Y-74823808D02*
X134801357Y-74776189D01*
X134801357Y-74776189D02*
X134753738Y-74728570D01*
X134753738Y-74728570D02*
X134706119Y-74633332D01*
X134706119Y-74633332D02*
X134706119Y-74442856D01*
X134706119Y-74442856D02*
X134753738Y-74347618D01*
X134753738Y-74347618D02*
X134801357Y-74299999D01*
X134801357Y-74299999D02*
X134896595Y-74252380D01*
X134896595Y-74252380D02*
X134944214Y-74252380D01*
X134944214Y-74252380D02*
X135039452Y-74299999D01*
X135039452Y-74299999D02*
X135087071Y-74347618D01*
X135087071Y-74347618D02*
X135134690Y-74442856D01*
X135134690Y-74442856D02*
X135134690Y-74633332D01*
X135134690Y-74633332D02*
X135182309Y-74728570D01*
X135182309Y-74728570D02*
X135229928Y-74776189D01*
X135229928Y-74776189D02*
X135325166Y-74823808D01*
X135325166Y-74823808D02*
X135515642Y-74823808D01*
X135515642Y-74823808D02*
X135610880Y-74776189D01*
X135610880Y-74776189D02*
X135658500Y-74728570D01*
X135658500Y-74728570D02*
X135706119Y-74633332D01*
X135706119Y-74633332D02*
X135706119Y-74442856D01*
X135706119Y-74442856D02*
X135658500Y-74347618D01*
X135658500Y-74347618D02*
X135610880Y-74299999D01*
X135610880Y-74299999D02*
X135515642Y-74252380D01*
X135515642Y-74252380D02*
X135325166Y-74252380D01*
X135325166Y-74252380D02*
X135229928Y-74299999D01*
X135229928Y-74299999D02*
X135182309Y-74347618D01*
X135182309Y-74347618D02*
X135134690Y-74442856D01*
D11*
X180809580Y-99842857D02*
X180857200Y-99890476D01*
X180857200Y-99890476D02*
X180904819Y-100033333D01*
X180904819Y-100033333D02*
X180904819Y-100128571D01*
X180904819Y-100128571D02*
X180857200Y-100271428D01*
X180857200Y-100271428D02*
X180761961Y-100366666D01*
X180761961Y-100366666D02*
X180666723Y-100414285D01*
X180666723Y-100414285D02*
X180476247Y-100461904D01*
X180476247Y-100461904D02*
X180333390Y-100461904D01*
X180333390Y-100461904D02*
X180142914Y-100414285D01*
X180142914Y-100414285D02*
X180047676Y-100366666D01*
X180047676Y-100366666D02*
X179952438Y-100271428D01*
X179952438Y-100271428D02*
X179904819Y-100128571D01*
X179904819Y-100128571D02*
X179904819Y-100033333D01*
X179904819Y-100033333D02*
X179952438Y-99890476D01*
X179952438Y-99890476D02*
X180000057Y-99842857D01*
X180238152Y-98985714D02*
X180904819Y-98985714D01*
X179857200Y-99223809D02*
X180571485Y-99461904D01*
X180571485Y-99461904D02*
X180571485Y-98842857D01*
X179904819Y-98557142D02*
X179904819Y-97938095D01*
X179904819Y-97938095D02*
X180285771Y-98271428D01*
X180285771Y-98271428D02*
X180285771Y-98128571D01*
X180285771Y-98128571D02*
X180333390Y-98033333D01*
X180333390Y-98033333D02*
X180381009Y-97985714D01*
X180381009Y-97985714D02*
X180476247Y-97938095D01*
X180476247Y-97938095D02*
X180714342Y-97938095D01*
X180714342Y-97938095D02*
X180809580Y-97985714D01*
X180809580Y-97985714D02*
X180857200Y-98033333D01*
X180857200Y-98033333D02*
X180904819Y-98128571D01*
X180904819Y-98128571D02*
X180904819Y-98414285D01*
X180904819Y-98414285D02*
X180857200Y-98509523D01*
X180857200Y-98509523D02*
X180809580Y-98557142D01*
X139123333Y-108216819D02*
X138790000Y-107740628D01*
X138551905Y-108216819D02*
X138551905Y-107216819D01*
X138551905Y-107216819D02*
X138932857Y-107216819D01*
X138932857Y-107216819D02*
X139028095Y-107264438D01*
X139028095Y-107264438D02*
X139075714Y-107312057D01*
X139075714Y-107312057D02*
X139123333Y-107407295D01*
X139123333Y-107407295D02*
X139123333Y-107550152D01*
X139123333Y-107550152D02*
X139075714Y-107645390D01*
X139075714Y-107645390D02*
X139028095Y-107693009D01*
X139028095Y-107693009D02*
X138932857Y-107740628D01*
X138932857Y-107740628D02*
X138551905Y-107740628D01*
X140075714Y-108216819D02*
X139504286Y-108216819D01*
X139790000Y-108216819D02*
X139790000Y-107216819D01*
X139790000Y-107216819D02*
X139694762Y-107359676D01*
X139694762Y-107359676D02*
X139599524Y-107454914D01*
X139599524Y-107454914D02*
X139504286Y-107502533D01*
X150159580Y-119466666D02*
X150207200Y-119514285D01*
X150207200Y-119514285D02*
X150254819Y-119657142D01*
X150254819Y-119657142D02*
X150254819Y-119752380D01*
X150254819Y-119752380D02*
X150207200Y-119895237D01*
X150207200Y-119895237D02*
X150111961Y-119990475D01*
X150111961Y-119990475D02*
X150016723Y-120038094D01*
X150016723Y-120038094D02*
X149826247Y-120085713D01*
X149826247Y-120085713D02*
X149683390Y-120085713D01*
X149683390Y-120085713D02*
X149492914Y-120038094D01*
X149492914Y-120038094D02*
X149397676Y-119990475D01*
X149397676Y-119990475D02*
X149302438Y-119895237D01*
X149302438Y-119895237D02*
X149254819Y-119752380D01*
X149254819Y-119752380D02*
X149254819Y-119657142D01*
X149254819Y-119657142D02*
X149302438Y-119514285D01*
X149302438Y-119514285D02*
X149350057Y-119466666D01*
X149254819Y-118609523D02*
X149254819Y-118799999D01*
X149254819Y-118799999D02*
X149302438Y-118895237D01*
X149302438Y-118895237D02*
X149350057Y-118942856D01*
X149350057Y-118942856D02*
X149492914Y-119038094D01*
X149492914Y-119038094D02*
X149683390Y-119085713D01*
X149683390Y-119085713D02*
X150064342Y-119085713D01*
X150064342Y-119085713D02*
X150159580Y-119038094D01*
X150159580Y-119038094D02*
X150207200Y-118990475D01*
X150207200Y-118990475D02*
X150254819Y-118895237D01*
X150254819Y-118895237D02*
X150254819Y-118704761D01*
X150254819Y-118704761D02*
X150207200Y-118609523D01*
X150207200Y-118609523D02*
X150159580Y-118561904D01*
X150159580Y-118561904D02*
X150064342Y-118514285D01*
X150064342Y-118514285D02*
X149826247Y-118514285D01*
X149826247Y-118514285D02*
X149731009Y-118561904D01*
X149731009Y-118561904D02*
X149683390Y-118609523D01*
X149683390Y-118609523D02*
X149635771Y-118704761D01*
X149635771Y-118704761D02*
X149635771Y-118895237D01*
X149635771Y-118895237D02*
X149683390Y-118990475D01*
X149683390Y-118990475D02*
X149731009Y-119038094D01*
X149731009Y-119038094D02*
X149826247Y-119085713D01*
X177209580Y-99842857D02*
X177257200Y-99890476D01*
X177257200Y-99890476D02*
X177304819Y-100033333D01*
X177304819Y-100033333D02*
X177304819Y-100128571D01*
X177304819Y-100128571D02*
X177257200Y-100271428D01*
X177257200Y-100271428D02*
X177161961Y-100366666D01*
X177161961Y-100366666D02*
X177066723Y-100414285D01*
X177066723Y-100414285D02*
X176876247Y-100461904D01*
X176876247Y-100461904D02*
X176733390Y-100461904D01*
X176733390Y-100461904D02*
X176542914Y-100414285D01*
X176542914Y-100414285D02*
X176447676Y-100366666D01*
X176447676Y-100366666D02*
X176352438Y-100271428D01*
X176352438Y-100271428D02*
X176304819Y-100128571D01*
X176304819Y-100128571D02*
X176304819Y-100033333D01*
X176304819Y-100033333D02*
X176352438Y-99890476D01*
X176352438Y-99890476D02*
X176400057Y-99842857D01*
X177304819Y-98890476D02*
X177304819Y-99461904D01*
X177304819Y-99176190D02*
X176304819Y-99176190D01*
X176304819Y-99176190D02*
X176447676Y-99271428D01*
X176447676Y-99271428D02*
X176542914Y-99366666D01*
X176542914Y-99366666D02*
X176590533Y-99461904D01*
X177304819Y-98414285D02*
X177304819Y-98223809D01*
X177304819Y-98223809D02*
X177257200Y-98128571D01*
X177257200Y-98128571D02*
X177209580Y-98080952D01*
X177209580Y-98080952D02*
X177066723Y-97985714D01*
X177066723Y-97985714D02*
X176876247Y-97938095D01*
X176876247Y-97938095D02*
X176495295Y-97938095D01*
X176495295Y-97938095D02*
X176400057Y-97985714D01*
X176400057Y-97985714D02*
X176352438Y-98033333D01*
X176352438Y-98033333D02*
X176304819Y-98128571D01*
X176304819Y-98128571D02*
X176304819Y-98319047D01*
X176304819Y-98319047D02*
X176352438Y-98414285D01*
X176352438Y-98414285D02*
X176400057Y-98461904D01*
X176400057Y-98461904D02*
X176495295Y-98509523D01*
X176495295Y-98509523D02*
X176733390Y-98509523D01*
X176733390Y-98509523D02*
X176828628Y-98461904D01*
X176828628Y-98461904D02*
X176876247Y-98414285D01*
X176876247Y-98414285D02*
X176923866Y-98319047D01*
X176923866Y-98319047D02*
X176923866Y-98128571D01*
X176923866Y-98128571D02*
X176876247Y-98033333D01*
X176876247Y-98033333D02*
X176828628Y-97985714D01*
X176828628Y-97985714D02*
X176733390Y-97938095D01*
X131633333Y-116654819D02*
X131300000Y-116178628D01*
X131061905Y-116654819D02*
X131061905Y-115654819D01*
X131061905Y-115654819D02*
X131442857Y-115654819D01*
X131442857Y-115654819D02*
X131538095Y-115702438D01*
X131538095Y-115702438D02*
X131585714Y-115750057D01*
X131585714Y-115750057D02*
X131633333Y-115845295D01*
X131633333Y-115845295D02*
X131633333Y-115988152D01*
X131633333Y-115988152D02*
X131585714Y-116083390D01*
X131585714Y-116083390D02*
X131538095Y-116131009D01*
X131538095Y-116131009D02*
X131442857Y-116178628D01*
X131442857Y-116178628D02*
X131061905Y-116178628D01*
X132014286Y-115750057D02*
X132061905Y-115702438D01*
X132061905Y-115702438D02*
X132157143Y-115654819D01*
X132157143Y-115654819D02*
X132395238Y-115654819D01*
X132395238Y-115654819D02*
X132490476Y-115702438D01*
X132490476Y-115702438D02*
X132538095Y-115750057D01*
X132538095Y-115750057D02*
X132585714Y-115845295D01*
X132585714Y-115845295D02*
X132585714Y-115940533D01*
X132585714Y-115940533D02*
X132538095Y-116083390D01*
X132538095Y-116083390D02*
X131966667Y-116654819D01*
X131966667Y-116654819D02*
X132585714Y-116654819D01*
X143969580Y-80278666D02*
X144017200Y-80326285D01*
X144017200Y-80326285D02*
X144064819Y-80469142D01*
X144064819Y-80469142D02*
X144064819Y-80564380D01*
X144064819Y-80564380D02*
X144017200Y-80707237D01*
X144017200Y-80707237D02*
X143921961Y-80802475D01*
X143921961Y-80802475D02*
X143826723Y-80850094D01*
X143826723Y-80850094D02*
X143636247Y-80897713D01*
X143636247Y-80897713D02*
X143493390Y-80897713D01*
X143493390Y-80897713D02*
X143302914Y-80850094D01*
X143302914Y-80850094D02*
X143207676Y-80802475D01*
X143207676Y-80802475D02*
X143112438Y-80707237D01*
X143112438Y-80707237D02*
X143064819Y-80564380D01*
X143064819Y-80564380D02*
X143064819Y-80469142D01*
X143064819Y-80469142D02*
X143112438Y-80326285D01*
X143112438Y-80326285D02*
X143160057Y-80278666D01*
X143064819Y-79373904D02*
X143064819Y-79850094D01*
X143064819Y-79850094D02*
X143541009Y-79897713D01*
X143541009Y-79897713D02*
X143493390Y-79850094D01*
X143493390Y-79850094D02*
X143445771Y-79754856D01*
X143445771Y-79754856D02*
X143445771Y-79516761D01*
X143445771Y-79516761D02*
X143493390Y-79421523D01*
X143493390Y-79421523D02*
X143541009Y-79373904D01*
X143541009Y-79373904D02*
X143636247Y-79326285D01*
X143636247Y-79326285D02*
X143874342Y-79326285D01*
X143874342Y-79326285D02*
X143969580Y-79373904D01*
X143969580Y-79373904D02*
X144017200Y-79421523D01*
X144017200Y-79421523D02*
X144064819Y-79516761D01*
X144064819Y-79516761D02*
X144064819Y-79754856D01*
X144064819Y-79754856D02*
X144017200Y-79850094D01*
X144017200Y-79850094D02*
X143969580Y-79897713D01*
X136133333Y-87559580D02*
X136085714Y-87607200D01*
X136085714Y-87607200D02*
X135942857Y-87654819D01*
X135942857Y-87654819D02*
X135847619Y-87654819D01*
X135847619Y-87654819D02*
X135704762Y-87607200D01*
X135704762Y-87607200D02*
X135609524Y-87511961D01*
X135609524Y-87511961D02*
X135561905Y-87416723D01*
X135561905Y-87416723D02*
X135514286Y-87226247D01*
X135514286Y-87226247D02*
X135514286Y-87083390D01*
X135514286Y-87083390D02*
X135561905Y-86892914D01*
X135561905Y-86892914D02*
X135609524Y-86797676D01*
X135609524Y-86797676D02*
X135704762Y-86702438D01*
X135704762Y-86702438D02*
X135847619Y-86654819D01*
X135847619Y-86654819D02*
X135942857Y-86654819D01*
X135942857Y-86654819D02*
X136085714Y-86702438D01*
X136085714Y-86702438D02*
X136133333Y-86750057D01*
X136514286Y-86750057D02*
X136561905Y-86702438D01*
X136561905Y-86702438D02*
X136657143Y-86654819D01*
X136657143Y-86654819D02*
X136895238Y-86654819D01*
X136895238Y-86654819D02*
X136990476Y-86702438D01*
X136990476Y-86702438D02*
X137038095Y-86750057D01*
X137038095Y-86750057D02*
X137085714Y-86845295D01*
X137085714Y-86845295D02*
X137085714Y-86940533D01*
X137085714Y-86940533D02*
X137038095Y-87083390D01*
X137038095Y-87083390D02*
X136466667Y-87654819D01*
X136466667Y-87654819D02*
X137085714Y-87654819D01*
X147413811Y-93691819D02*
X147413811Y-92691819D01*
X148461429Y-93596580D02*
X148413810Y-93644200D01*
X148413810Y-93644200D02*
X148270953Y-93691819D01*
X148270953Y-93691819D02*
X148175715Y-93691819D01*
X148175715Y-93691819D02*
X148032858Y-93644200D01*
X148032858Y-93644200D02*
X147937620Y-93548961D01*
X147937620Y-93548961D02*
X147890001Y-93453723D01*
X147890001Y-93453723D02*
X147842382Y-93263247D01*
X147842382Y-93263247D02*
X147842382Y-93120390D01*
X147842382Y-93120390D02*
X147890001Y-92929914D01*
X147890001Y-92929914D02*
X147937620Y-92834676D01*
X147937620Y-92834676D02*
X148032858Y-92739438D01*
X148032858Y-92739438D02*
X148175715Y-92691819D01*
X148175715Y-92691819D02*
X148270953Y-92691819D01*
X148270953Y-92691819D02*
X148413810Y-92739438D01*
X148413810Y-92739438D02*
X148461429Y-92787057D01*
X148842382Y-92787057D02*
X148890001Y-92739438D01*
X148890001Y-92739438D02*
X148985239Y-92691819D01*
X148985239Y-92691819D02*
X149223334Y-92691819D01*
X149223334Y-92691819D02*
X149318572Y-92739438D01*
X149318572Y-92739438D02*
X149366191Y-92787057D01*
X149366191Y-92787057D02*
X149413810Y-92882295D01*
X149413810Y-92882295D02*
X149413810Y-92977533D01*
X149413810Y-92977533D02*
X149366191Y-93120390D01*
X149366191Y-93120390D02*
X148794763Y-93691819D01*
X148794763Y-93691819D02*
X149413810Y-93691819D01*
X157557142Y-81979580D02*
X157509523Y-82027200D01*
X157509523Y-82027200D02*
X157366666Y-82074819D01*
X157366666Y-82074819D02*
X157271428Y-82074819D01*
X157271428Y-82074819D02*
X157128571Y-82027200D01*
X157128571Y-82027200D02*
X157033333Y-81931961D01*
X157033333Y-81931961D02*
X156985714Y-81836723D01*
X156985714Y-81836723D02*
X156938095Y-81646247D01*
X156938095Y-81646247D02*
X156938095Y-81503390D01*
X156938095Y-81503390D02*
X156985714Y-81312914D01*
X156985714Y-81312914D02*
X157033333Y-81217676D01*
X157033333Y-81217676D02*
X157128571Y-81122438D01*
X157128571Y-81122438D02*
X157271428Y-81074819D01*
X157271428Y-81074819D02*
X157366666Y-81074819D01*
X157366666Y-81074819D02*
X157509523Y-81122438D01*
X157509523Y-81122438D02*
X157557142Y-81170057D01*
X158509523Y-82074819D02*
X157938095Y-82074819D01*
X158223809Y-82074819D02*
X158223809Y-81074819D01*
X158223809Y-81074819D02*
X158128571Y-81217676D01*
X158128571Y-81217676D02*
X158033333Y-81312914D01*
X158033333Y-81312914D02*
X157938095Y-81360533D01*
X158842857Y-81074819D02*
X159509523Y-81074819D01*
X159509523Y-81074819D02*
X159080952Y-82074819D01*
X152647142Y-88591580D02*
X152599523Y-88639200D01*
X152599523Y-88639200D02*
X152456666Y-88686819D01*
X152456666Y-88686819D02*
X152361428Y-88686819D01*
X152361428Y-88686819D02*
X152218571Y-88639200D01*
X152218571Y-88639200D02*
X152123333Y-88543961D01*
X152123333Y-88543961D02*
X152075714Y-88448723D01*
X152075714Y-88448723D02*
X152028095Y-88258247D01*
X152028095Y-88258247D02*
X152028095Y-88115390D01*
X152028095Y-88115390D02*
X152075714Y-87924914D01*
X152075714Y-87924914D02*
X152123333Y-87829676D01*
X152123333Y-87829676D02*
X152218571Y-87734438D01*
X152218571Y-87734438D02*
X152361428Y-87686819D01*
X152361428Y-87686819D02*
X152456666Y-87686819D01*
X152456666Y-87686819D02*
X152599523Y-87734438D01*
X152599523Y-87734438D02*
X152647142Y-87782057D01*
X153599523Y-88686819D02*
X153028095Y-88686819D01*
X153313809Y-88686819D02*
X153313809Y-87686819D01*
X153313809Y-87686819D02*
X153218571Y-87829676D01*
X153218571Y-87829676D02*
X153123333Y-87924914D01*
X153123333Y-87924914D02*
X153028095Y-87972533D01*
X154504285Y-87686819D02*
X154028095Y-87686819D01*
X154028095Y-87686819D02*
X153980476Y-88163009D01*
X153980476Y-88163009D02*
X154028095Y-88115390D01*
X154028095Y-88115390D02*
X154123333Y-88067771D01*
X154123333Y-88067771D02*
X154361428Y-88067771D01*
X154361428Y-88067771D02*
X154456666Y-88115390D01*
X154456666Y-88115390D02*
X154504285Y-88163009D01*
X154504285Y-88163009D02*
X154551904Y-88258247D01*
X154551904Y-88258247D02*
X154551904Y-88496342D01*
X154551904Y-88496342D02*
X154504285Y-88591580D01*
X154504285Y-88591580D02*
X154456666Y-88639200D01*
X154456666Y-88639200D02*
X154361428Y-88686819D01*
X154361428Y-88686819D02*
X154123333Y-88686819D01*
X154123333Y-88686819D02*
X154028095Y-88639200D01*
X154028095Y-88639200D02*
X153980476Y-88591580D01*
X131183333Y-114354819D02*
X130850000Y-113878628D01*
X130611905Y-114354819D02*
X130611905Y-113354819D01*
X130611905Y-113354819D02*
X130992857Y-113354819D01*
X130992857Y-113354819D02*
X131088095Y-113402438D01*
X131088095Y-113402438D02*
X131135714Y-113450057D01*
X131135714Y-113450057D02*
X131183333Y-113545295D01*
X131183333Y-113545295D02*
X131183333Y-113688152D01*
X131183333Y-113688152D02*
X131135714Y-113783390D01*
X131135714Y-113783390D02*
X131088095Y-113831009D01*
X131088095Y-113831009D02*
X130992857Y-113878628D01*
X130992857Y-113878628D02*
X130611905Y-113878628D01*
X132088095Y-113354819D02*
X131611905Y-113354819D01*
X131611905Y-113354819D02*
X131564286Y-113831009D01*
X131564286Y-113831009D02*
X131611905Y-113783390D01*
X131611905Y-113783390D02*
X131707143Y-113735771D01*
X131707143Y-113735771D02*
X131945238Y-113735771D01*
X131945238Y-113735771D02*
X132040476Y-113783390D01*
X132040476Y-113783390D02*
X132088095Y-113831009D01*
X132088095Y-113831009D02*
X132135714Y-113926247D01*
X132135714Y-113926247D02*
X132135714Y-114164342D01*
X132135714Y-114164342D02*
X132088095Y-114259580D01*
X132088095Y-114259580D02*
X132040476Y-114307200D01*
X132040476Y-114307200D02*
X131945238Y-114354819D01*
X131945238Y-114354819D02*
X131707143Y-114354819D01*
X131707143Y-114354819D02*
X131611905Y-114307200D01*
X131611905Y-114307200D02*
X131564286Y-114259580D01*
X135657142Y-120854819D02*
X135323809Y-120378628D01*
X135085714Y-120854819D02*
X135085714Y-119854819D01*
X135085714Y-119854819D02*
X135466666Y-119854819D01*
X135466666Y-119854819D02*
X135561904Y-119902438D01*
X135561904Y-119902438D02*
X135609523Y-119950057D01*
X135609523Y-119950057D02*
X135657142Y-120045295D01*
X135657142Y-120045295D02*
X135657142Y-120188152D01*
X135657142Y-120188152D02*
X135609523Y-120283390D01*
X135609523Y-120283390D02*
X135561904Y-120331009D01*
X135561904Y-120331009D02*
X135466666Y-120378628D01*
X135466666Y-120378628D02*
X135085714Y-120378628D01*
X136609523Y-120854819D02*
X136038095Y-120854819D01*
X136323809Y-120854819D02*
X136323809Y-119854819D01*
X136323809Y-119854819D02*
X136228571Y-119997676D01*
X136228571Y-119997676D02*
X136133333Y-120092914D01*
X136133333Y-120092914D02*
X136038095Y-120140533D01*
X137228571Y-119854819D02*
X137323809Y-119854819D01*
X137323809Y-119854819D02*
X137419047Y-119902438D01*
X137419047Y-119902438D02*
X137466666Y-119950057D01*
X137466666Y-119950057D02*
X137514285Y-120045295D01*
X137514285Y-120045295D02*
X137561904Y-120235771D01*
X137561904Y-120235771D02*
X137561904Y-120473866D01*
X137561904Y-120473866D02*
X137514285Y-120664342D01*
X137514285Y-120664342D02*
X137466666Y-120759580D01*
X137466666Y-120759580D02*
X137419047Y-120807200D01*
X137419047Y-120807200D02*
X137323809Y-120854819D01*
X137323809Y-120854819D02*
X137228571Y-120854819D01*
X137228571Y-120854819D02*
X137133333Y-120807200D01*
X137133333Y-120807200D02*
X137085714Y-120759580D01*
X137085714Y-120759580D02*
X137038095Y-120664342D01*
X137038095Y-120664342D02*
X136990476Y-120473866D01*
X136990476Y-120473866D02*
X136990476Y-120235771D01*
X136990476Y-120235771D02*
X137038095Y-120045295D01*
X137038095Y-120045295D02*
X137085714Y-119950057D01*
X137085714Y-119950057D02*
X137133333Y-119902438D01*
X137133333Y-119902438D02*
X137228571Y-119854819D01*
X180609580Y-87342857D02*
X180657200Y-87390476D01*
X180657200Y-87390476D02*
X180704819Y-87533333D01*
X180704819Y-87533333D02*
X180704819Y-87628571D01*
X180704819Y-87628571D02*
X180657200Y-87771428D01*
X180657200Y-87771428D02*
X180561961Y-87866666D01*
X180561961Y-87866666D02*
X180466723Y-87914285D01*
X180466723Y-87914285D02*
X180276247Y-87961904D01*
X180276247Y-87961904D02*
X180133390Y-87961904D01*
X180133390Y-87961904D02*
X179942914Y-87914285D01*
X179942914Y-87914285D02*
X179847676Y-87866666D01*
X179847676Y-87866666D02*
X179752438Y-87771428D01*
X179752438Y-87771428D02*
X179704819Y-87628571D01*
X179704819Y-87628571D02*
X179704819Y-87533333D01*
X179704819Y-87533333D02*
X179752438Y-87390476D01*
X179752438Y-87390476D02*
X179800057Y-87342857D01*
X180038152Y-86485714D02*
X180704819Y-86485714D01*
X179657200Y-86723809D02*
X180371485Y-86961904D01*
X180371485Y-86961904D02*
X180371485Y-86342857D01*
X179704819Y-86057142D02*
X179704819Y-85390476D01*
X179704819Y-85390476D02*
X180704819Y-85819047D01*
X128757261Y-126812057D02*
X128662023Y-126764438D01*
X128662023Y-126764438D02*
X128566785Y-126669200D01*
X128566785Y-126669200D02*
X128423928Y-126526342D01*
X128423928Y-126526342D02*
X128328690Y-126478723D01*
X128328690Y-126478723D02*
X128233452Y-126478723D01*
X128281071Y-126716819D02*
X128185833Y-126669200D01*
X128185833Y-126669200D02*
X128090595Y-126573961D01*
X128090595Y-126573961D02*
X128042976Y-126383485D01*
X128042976Y-126383485D02*
X128042976Y-126050152D01*
X128042976Y-126050152D02*
X128090595Y-125859676D01*
X128090595Y-125859676D02*
X128185833Y-125764438D01*
X128185833Y-125764438D02*
X128281071Y-125716819D01*
X128281071Y-125716819D02*
X128471547Y-125716819D01*
X128471547Y-125716819D02*
X128566785Y-125764438D01*
X128566785Y-125764438D02*
X128662023Y-125859676D01*
X128662023Y-125859676D02*
X128709642Y-126050152D01*
X128709642Y-126050152D02*
X128709642Y-126383485D01*
X128709642Y-126383485D02*
X128662023Y-126573961D01*
X128662023Y-126573961D02*
X128566785Y-126669200D01*
X128566785Y-126669200D02*
X128471547Y-126716819D01*
X128471547Y-126716819D02*
X128281071Y-126716819D01*
X129090595Y-125812057D02*
X129138214Y-125764438D01*
X129138214Y-125764438D02*
X129233452Y-125716819D01*
X129233452Y-125716819D02*
X129471547Y-125716819D01*
X129471547Y-125716819D02*
X129566785Y-125764438D01*
X129566785Y-125764438D02*
X129614404Y-125812057D01*
X129614404Y-125812057D02*
X129662023Y-125907295D01*
X129662023Y-125907295D02*
X129662023Y-126002533D01*
X129662023Y-126002533D02*
X129614404Y-126145390D01*
X129614404Y-126145390D02*
X129042976Y-126716819D01*
X129042976Y-126716819D02*
X129662023Y-126716819D01*
X172623333Y-97886819D02*
X172147143Y-97886819D01*
X172147143Y-97886819D02*
X172147143Y-96886819D01*
X173385238Y-96886819D02*
X173194762Y-96886819D01*
X173194762Y-96886819D02*
X173099524Y-96934438D01*
X173099524Y-96934438D02*
X173051905Y-96982057D01*
X173051905Y-96982057D02*
X172956667Y-97124914D01*
X172956667Y-97124914D02*
X172909048Y-97315390D01*
X172909048Y-97315390D02*
X172909048Y-97696342D01*
X172909048Y-97696342D02*
X172956667Y-97791580D01*
X172956667Y-97791580D02*
X173004286Y-97839200D01*
X173004286Y-97839200D02*
X173099524Y-97886819D01*
X173099524Y-97886819D02*
X173290000Y-97886819D01*
X173290000Y-97886819D02*
X173385238Y-97839200D01*
X173385238Y-97839200D02*
X173432857Y-97791580D01*
X173432857Y-97791580D02*
X173480476Y-97696342D01*
X173480476Y-97696342D02*
X173480476Y-97458247D01*
X173480476Y-97458247D02*
X173432857Y-97363009D01*
X173432857Y-97363009D02*
X173385238Y-97315390D01*
X173385238Y-97315390D02*
X173290000Y-97267771D01*
X173290000Y-97267771D02*
X173099524Y-97267771D01*
X173099524Y-97267771D02*
X173004286Y-97315390D01*
X173004286Y-97315390D02*
X172956667Y-97363009D01*
X172956667Y-97363009D02*
X172909048Y-97458247D01*
X155829580Y-98054857D02*
X155877200Y-98102476D01*
X155877200Y-98102476D02*
X155924819Y-98245333D01*
X155924819Y-98245333D02*
X155924819Y-98340571D01*
X155924819Y-98340571D02*
X155877200Y-98483428D01*
X155877200Y-98483428D02*
X155781961Y-98578666D01*
X155781961Y-98578666D02*
X155686723Y-98626285D01*
X155686723Y-98626285D02*
X155496247Y-98673904D01*
X155496247Y-98673904D02*
X155353390Y-98673904D01*
X155353390Y-98673904D02*
X155162914Y-98626285D01*
X155162914Y-98626285D02*
X155067676Y-98578666D01*
X155067676Y-98578666D02*
X154972438Y-98483428D01*
X154972438Y-98483428D02*
X154924819Y-98340571D01*
X154924819Y-98340571D02*
X154924819Y-98245333D01*
X154924819Y-98245333D02*
X154972438Y-98102476D01*
X154972438Y-98102476D02*
X155020057Y-98054857D01*
X155924819Y-97102476D02*
X155924819Y-97673904D01*
X155924819Y-97388190D02*
X154924819Y-97388190D01*
X154924819Y-97388190D02*
X155067676Y-97483428D01*
X155067676Y-97483428D02*
X155162914Y-97578666D01*
X155162914Y-97578666D02*
X155210533Y-97673904D01*
X154924819Y-96245333D02*
X154924819Y-96435809D01*
X154924819Y-96435809D02*
X154972438Y-96531047D01*
X154972438Y-96531047D02*
X155020057Y-96578666D01*
X155020057Y-96578666D02*
X155162914Y-96673904D01*
X155162914Y-96673904D02*
X155353390Y-96721523D01*
X155353390Y-96721523D02*
X155734342Y-96721523D01*
X155734342Y-96721523D02*
X155829580Y-96673904D01*
X155829580Y-96673904D02*
X155877200Y-96626285D01*
X155877200Y-96626285D02*
X155924819Y-96531047D01*
X155924819Y-96531047D02*
X155924819Y-96340571D01*
X155924819Y-96340571D02*
X155877200Y-96245333D01*
X155877200Y-96245333D02*
X155829580Y-96197714D01*
X155829580Y-96197714D02*
X155734342Y-96150095D01*
X155734342Y-96150095D02*
X155496247Y-96150095D01*
X155496247Y-96150095D02*
X155401009Y-96197714D01*
X155401009Y-96197714D02*
X155353390Y-96245333D01*
X155353390Y-96245333D02*
X155305771Y-96340571D01*
X155305771Y-96340571D02*
X155305771Y-96531047D01*
X155305771Y-96531047D02*
X155353390Y-96626285D01*
X155353390Y-96626285D02*
X155401009Y-96673904D01*
X155401009Y-96673904D02*
X155496247Y-96721523D01*
X162857142Y-93109580D02*
X162809523Y-93157200D01*
X162809523Y-93157200D02*
X162666666Y-93204819D01*
X162666666Y-93204819D02*
X162571428Y-93204819D01*
X162571428Y-93204819D02*
X162428571Y-93157200D01*
X162428571Y-93157200D02*
X162333333Y-93061961D01*
X162333333Y-93061961D02*
X162285714Y-92966723D01*
X162285714Y-92966723D02*
X162238095Y-92776247D01*
X162238095Y-92776247D02*
X162238095Y-92633390D01*
X162238095Y-92633390D02*
X162285714Y-92442914D01*
X162285714Y-92442914D02*
X162333333Y-92347676D01*
X162333333Y-92347676D02*
X162428571Y-92252438D01*
X162428571Y-92252438D02*
X162571428Y-92204819D01*
X162571428Y-92204819D02*
X162666666Y-92204819D01*
X162666666Y-92204819D02*
X162809523Y-92252438D01*
X162809523Y-92252438D02*
X162857142Y-92300057D01*
X163714285Y-92538152D02*
X163714285Y-93204819D01*
X163476190Y-92157200D02*
X163238095Y-92871485D01*
X163238095Y-92871485D02*
X163857142Y-92871485D01*
X164190476Y-92300057D02*
X164238095Y-92252438D01*
X164238095Y-92252438D02*
X164333333Y-92204819D01*
X164333333Y-92204819D02*
X164571428Y-92204819D01*
X164571428Y-92204819D02*
X164666666Y-92252438D01*
X164666666Y-92252438D02*
X164714285Y-92300057D01*
X164714285Y-92300057D02*
X164761904Y-92395295D01*
X164761904Y-92395295D02*
X164761904Y-92490533D01*
X164761904Y-92490533D02*
X164714285Y-92633390D01*
X164714285Y-92633390D02*
X164142857Y-93204819D01*
X164142857Y-93204819D02*
X164761904Y-93204819D01*
X182499580Y-114554857D02*
X182547200Y-114602476D01*
X182547200Y-114602476D02*
X182594819Y-114745333D01*
X182594819Y-114745333D02*
X182594819Y-114840571D01*
X182594819Y-114840571D02*
X182547200Y-114983428D01*
X182547200Y-114983428D02*
X182451961Y-115078666D01*
X182451961Y-115078666D02*
X182356723Y-115126285D01*
X182356723Y-115126285D02*
X182166247Y-115173904D01*
X182166247Y-115173904D02*
X182023390Y-115173904D01*
X182023390Y-115173904D02*
X181832914Y-115126285D01*
X181832914Y-115126285D02*
X181737676Y-115078666D01*
X181737676Y-115078666D02*
X181642438Y-114983428D01*
X181642438Y-114983428D02*
X181594819Y-114840571D01*
X181594819Y-114840571D02*
X181594819Y-114745333D01*
X181594819Y-114745333D02*
X181642438Y-114602476D01*
X181642438Y-114602476D02*
X181690057Y-114554857D01*
X181690057Y-114173904D02*
X181642438Y-114126285D01*
X181642438Y-114126285D02*
X181594819Y-114031047D01*
X181594819Y-114031047D02*
X181594819Y-113792952D01*
X181594819Y-113792952D02*
X181642438Y-113697714D01*
X181642438Y-113697714D02*
X181690057Y-113650095D01*
X181690057Y-113650095D02*
X181785295Y-113602476D01*
X181785295Y-113602476D02*
X181880533Y-113602476D01*
X181880533Y-113602476D02*
X182023390Y-113650095D01*
X182023390Y-113650095D02*
X182594819Y-114221523D01*
X182594819Y-114221523D02*
X182594819Y-113602476D01*
X181594819Y-112983428D02*
X181594819Y-112888190D01*
X181594819Y-112888190D02*
X181642438Y-112792952D01*
X181642438Y-112792952D02*
X181690057Y-112745333D01*
X181690057Y-112745333D02*
X181785295Y-112697714D01*
X181785295Y-112697714D02*
X181975771Y-112650095D01*
X181975771Y-112650095D02*
X182213866Y-112650095D01*
X182213866Y-112650095D02*
X182404342Y-112697714D01*
X182404342Y-112697714D02*
X182499580Y-112745333D01*
X182499580Y-112745333D02*
X182547200Y-112792952D01*
X182547200Y-112792952D02*
X182594819Y-112888190D01*
X182594819Y-112888190D02*
X182594819Y-112983428D01*
X182594819Y-112983428D02*
X182547200Y-113078666D01*
X182547200Y-113078666D02*
X182499580Y-113126285D01*
X182499580Y-113126285D02*
X182404342Y-113173904D01*
X182404342Y-113173904D02*
X182213866Y-113221523D01*
X182213866Y-113221523D02*
X181975771Y-113221523D01*
X181975771Y-113221523D02*
X181785295Y-113173904D01*
X181785295Y-113173904D02*
X181690057Y-113126285D01*
X181690057Y-113126285D02*
X181642438Y-113078666D01*
X181642438Y-113078666D02*
X181594819Y-112983428D01*
X172623333Y-105386819D02*
X172147143Y-105386819D01*
X172147143Y-105386819D02*
X172147143Y-104386819D01*
X173432857Y-104386819D02*
X172956667Y-104386819D01*
X172956667Y-104386819D02*
X172909048Y-104863009D01*
X172909048Y-104863009D02*
X172956667Y-104815390D01*
X172956667Y-104815390D02*
X173051905Y-104767771D01*
X173051905Y-104767771D02*
X173290000Y-104767771D01*
X173290000Y-104767771D02*
X173385238Y-104815390D01*
X173385238Y-104815390D02*
X173432857Y-104863009D01*
X173432857Y-104863009D02*
X173480476Y-104958247D01*
X173480476Y-104958247D02*
X173480476Y-105196342D01*
X173480476Y-105196342D02*
X173432857Y-105291580D01*
X173432857Y-105291580D02*
X173385238Y-105339200D01*
X173385238Y-105339200D02*
X173290000Y-105386819D01*
X173290000Y-105386819D02*
X173051905Y-105386819D01*
X173051905Y-105386819D02*
X172956667Y-105339200D01*
X172956667Y-105339200D02*
X172909048Y-105291580D01*
X130394819Y-96578666D02*
X129918628Y-96911999D01*
X130394819Y-97150094D02*
X129394819Y-97150094D01*
X129394819Y-97150094D02*
X129394819Y-96769142D01*
X129394819Y-96769142D02*
X129442438Y-96673904D01*
X129442438Y-96673904D02*
X129490057Y-96626285D01*
X129490057Y-96626285D02*
X129585295Y-96578666D01*
X129585295Y-96578666D02*
X129728152Y-96578666D01*
X129728152Y-96578666D02*
X129823390Y-96626285D01*
X129823390Y-96626285D02*
X129871009Y-96673904D01*
X129871009Y-96673904D02*
X129918628Y-96769142D01*
X129918628Y-96769142D02*
X129918628Y-97150094D01*
X129728152Y-95721523D02*
X130394819Y-95721523D01*
X129347200Y-95959618D02*
X130061485Y-96197713D01*
X130061485Y-96197713D02*
X130061485Y-95578666D01*
X127883333Y-85359580D02*
X127835714Y-85407200D01*
X127835714Y-85407200D02*
X127692857Y-85454819D01*
X127692857Y-85454819D02*
X127597619Y-85454819D01*
X127597619Y-85454819D02*
X127454762Y-85407200D01*
X127454762Y-85407200D02*
X127359524Y-85311961D01*
X127359524Y-85311961D02*
X127311905Y-85216723D01*
X127311905Y-85216723D02*
X127264286Y-85026247D01*
X127264286Y-85026247D02*
X127264286Y-84883390D01*
X127264286Y-84883390D02*
X127311905Y-84692914D01*
X127311905Y-84692914D02*
X127359524Y-84597676D01*
X127359524Y-84597676D02*
X127454762Y-84502438D01*
X127454762Y-84502438D02*
X127597619Y-84454819D01*
X127597619Y-84454819D02*
X127692857Y-84454819D01*
X127692857Y-84454819D02*
X127835714Y-84502438D01*
X127835714Y-84502438D02*
X127883333Y-84550057D01*
X128835714Y-85454819D02*
X128264286Y-85454819D01*
X128550000Y-85454819D02*
X128550000Y-84454819D01*
X128550000Y-84454819D02*
X128454762Y-84597676D01*
X128454762Y-84597676D02*
X128359524Y-84692914D01*
X128359524Y-84692914D02*
X128264286Y-84740533D01*
X119954819Y-81133332D02*
X118954819Y-81133332D01*
X118954819Y-81133332D02*
X119669104Y-80799999D01*
X119669104Y-80799999D02*
X118954819Y-80466666D01*
X118954819Y-80466666D02*
X119954819Y-80466666D01*
X118954819Y-79799999D02*
X118954819Y-79609523D01*
X118954819Y-79609523D02*
X119002438Y-79514285D01*
X119002438Y-79514285D02*
X119097676Y-79419047D01*
X119097676Y-79419047D02*
X119288152Y-79371428D01*
X119288152Y-79371428D02*
X119621485Y-79371428D01*
X119621485Y-79371428D02*
X119811961Y-79419047D01*
X119811961Y-79419047D02*
X119907200Y-79514285D01*
X119907200Y-79514285D02*
X119954819Y-79609523D01*
X119954819Y-79609523D02*
X119954819Y-79799999D01*
X119954819Y-79799999D02*
X119907200Y-79895237D01*
X119907200Y-79895237D02*
X119811961Y-79990475D01*
X119811961Y-79990475D02*
X119621485Y-80038094D01*
X119621485Y-80038094D02*
X119288152Y-80038094D01*
X119288152Y-80038094D02*
X119097676Y-79990475D01*
X119097676Y-79990475D02*
X119002438Y-79895237D01*
X119002438Y-79895237D02*
X118954819Y-79799999D01*
X119907200Y-78990475D02*
X119954819Y-78847618D01*
X119954819Y-78847618D02*
X119954819Y-78609523D01*
X119954819Y-78609523D02*
X119907200Y-78514285D01*
X119907200Y-78514285D02*
X119859580Y-78466666D01*
X119859580Y-78466666D02*
X119764342Y-78419047D01*
X119764342Y-78419047D02*
X119669104Y-78419047D01*
X119669104Y-78419047D02*
X119573866Y-78466666D01*
X119573866Y-78466666D02*
X119526247Y-78514285D01*
X119526247Y-78514285D02*
X119478628Y-78609523D01*
X119478628Y-78609523D02*
X119431009Y-78799999D01*
X119431009Y-78799999D02*
X119383390Y-78895237D01*
X119383390Y-78895237D02*
X119335771Y-78942856D01*
X119335771Y-78942856D02*
X119240533Y-78990475D01*
X119240533Y-78990475D02*
X119145295Y-78990475D01*
X119145295Y-78990475D02*
X119050057Y-78942856D01*
X119050057Y-78942856D02*
X119002438Y-78895237D01*
X119002438Y-78895237D02*
X118954819Y-78799999D01*
X118954819Y-78799999D02*
X118954819Y-78561904D01*
X118954819Y-78561904D02*
X119002438Y-78419047D01*
X119954819Y-77990475D02*
X118954819Y-77990475D01*
X120050057Y-77752381D02*
X120050057Y-76990476D01*
X119954819Y-76228571D02*
X119954819Y-76799999D01*
X119954819Y-76514285D02*
X118954819Y-76514285D01*
X118954819Y-76514285D02*
X119097676Y-76609523D01*
X119097676Y-76609523D02*
X119192914Y-76704761D01*
X119192914Y-76704761D02*
X119240533Y-76799999D01*
X118954819Y-75942856D02*
X119954819Y-75609523D01*
X119954819Y-75609523D02*
X118954819Y-75276190D01*
X119383390Y-74799999D02*
X119335771Y-74895237D01*
X119335771Y-74895237D02*
X119288152Y-74942856D01*
X119288152Y-74942856D02*
X119192914Y-74990475D01*
X119192914Y-74990475D02*
X119145295Y-74990475D01*
X119145295Y-74990475D02*
X119050057Y-74942856D01*
X119050057Y-74942856D02*
X119002438Y-74895237D01*
X119002438Y-74895237D02*
X118954819Y-74799999D01*
X118954819Y-74799999D02*
X118954819Y-74609523D01*
X118954819Y-74609523D02*
X119002438Y-74514285D01*
X119002438Y-74514285D02*
X119050057Y-74466666D01*
X119050057Y-74466666D02*
X119145295Y-74419047D01*
X119145295Y-74419047D02*
X119192914Y-74419047D01*
X119192914Y-74419047D02*
X119288152Y-74466666D01*
X119288152Y-74466666D02*
X119335771Y-74514285D01*
X119335771Y-74514285D02*
X119383390Y-74609523D01*
X119383390Y-74609523D02*
X119383390Y-74799999D01*
X119383390Y-74799999D02*
X119431009Y-74895237D01*
X119431009Y-74895237D02*
X119478628Y-74942856D01*
X119478628Y-74942856D02*
X119573866Y-74990475D01*
X119573866Y-74990475D02*
X119764342Y-74990475D01*
X119764342Y-74990475D02*
X119859580Y-74942856D01*
X119859580Y-74942856D02*
X119907200Y-74895237D01*
X119907200Y-74895237D02*
X119954819Y-74799999D01*
X119954819Y-74799999D02*
X119954819Y-74609523D01*
X119954819Y-74609523D02*
X119907200Y-74514285D01*
X119907200Y-74514285D02*
X119859580Y-74466666D01*
X119859580Y-74466666D02*
X119764342Y-74419047D01*
X119764342Y-74419047D02*
X119573866Y-74419047D01*
X119573866Y-74419047D02*
X119478628Y-74466666D01*
X119478628Y-74466666D02*
X119431009Y-74514285D01*
X119431009Y-74514285D02*
X119383390Y-74609523D01*
%TO.C,L7*%
D13*
X170650000Y-75772000D02*
X174930000Y-75772000D01*
X170650000Y-76509000D02*
X170650000Y-75772000D01*
X170650000Y-80052000D02*
X170650000Y-79315000D01*
X174930000Y-75772000D02*
X174930000Y-76509000D01*
X174930000Y-79315000D02*
X174930000Y-80052000D01*
X174930000Y-80052000D02*
X170650000Y-80052000D01*
%TO.C,TH1*%
X144380000Y-70500000D02*
X145000000Y-70500000D01*
X144380000Y-70500000D02*
G75*
G02*
X142540000Y-70500000I-920000J0D01*
G01*
X142540000Y-70500000D02*
G75*
G02*
X144380000Y-70500000I920000J0D01*
G01*
%TO.C,C45*%
X179380000Y-74123252D02*
X179380000Y-72700748D01*
X181200000Y-74123252D02*
X181200000Y-72700748D01*
%TO.C,R3*%
X156562936Y-91677000D02*
X157017064Y-91677000D01*
X156562936Y-93147000D02*
X157017064Y-93147000D01*
%TO.C,C7*%
X140555000Y-96688248D02*
X140555000Y-97210752D01*
X142025000Y-96688248D02*
X142025000Y-97210752D01*
%TO.C,J1*%
D14*
X112770000Y-89435000D02*
X112770000Y-99285000D01*
X112770000Y-99285000D02*
X114170000Y-99285000D01*
X114170000Y-89435000D02*
X112770000Y-89435000D01*
X118570000Y-89435000D02*
X116570000Y-89435000D01*
X118770000Y-99285000D02*
X116570000Y-99285000D01*
X120770000Y-89435000D02*
X122640000Y-89435000D01*
X122640000Y-89435000D02*
X122640000Y-99285000D01*
X122640000Y-99285000D02*
X120570000Y-99285000D01*
D15*
X123105000Y-91610000D02*
X123105000Y-91610000D01*
X123205000Y-91610000D02*
X123205000Y-91610000D01*
X123105000Y-91610000D02*
G75*
G02*
X123205000Y-91610000I50000J0D01*
G01*
X123205000Y-91610000D02*
G75*
G02*
X123105000Y-91610000I-50000J0D01*
G01*
%TO.C,L1*%
D13*
X142379758Y-82852000D02*
X143200242Y-82852000D01*
X142379758Y-83972000D02*
X143200242Y-83972000D01*
%TO.C,Q1*%
X128030000Y-116852000D02*
X129550000Y-116852000D01*
X128030000Y-117852000D02*
X128030000Y-116852000D01*
X128030000Y-119972000D02*
X128030000Y-118972000D01*
X129550000Y-116852000D02*
X129550000Y-116902000D01*
X129550000Y-118022000D02*
X129550000Y-118802000D01*
X129550000Y-119922000D02*
X129550000Y-119972000D01*
X129550000Y-119972000D02*
X128030000Y-119972000D01*
X130090000Y-118792000D02*
X129850000Y-118462000D01*
X130330000Y-118462000D01*
X130090000Y-118792000D01*
G36*
X130090000Y-118792000D02*
G01*
X129850000Y-118462000D01*
X130330000Y-118462000D01*
X130090000Y-118792000D01*
G37*
%TO.C,C18*%
X175880000Y-113200748D02*
X175880000Y-114623252D01*
X177700000Y-113200748D02*
X177700000Y-114623252D01*
%TO.C,C3*%
X128491248Y-91177000D02*
X129013752Y-91177000D01*
X128491248Y-92647000D02*
X129013752Y-92647000D01*
%TO.C,U4*%
D16*
X132858899Y-108896055D02*
X132858899Y-109921345D01*
X135221099Y-109921345D02*
X135221099Y-108896055D01*
X133391599Y-111318400D02*
G75*
G02*
X133188399Y-111318400I-101600J0D01*
G01*
X133188399Y-111318400D02*
G75*
G02*
X133391599Y-111318400I101600J0D01*
G01*
%TO.C,R9*%
D13*
X142562936Y-90177000D02*
X143017064Y-90177000D01*
X142562936Y-91647000D02*
X143017064Y-91647000D01*
%TO.C,C9*%
X144555000Y-116113248D02*
X144555000Y-116635752D01*
X146025000Y-116113248D02*
X146025000Y-116635752D01*
%TO.C,R7*%
X140562936Y-86677000D02*
X141017064Y-86677000D01*
X140562936Y-88147000D02*
X141017064Y-88147000D01*
%TO.C,C14*%
X146765000Y-98688748D02*
X146765000Y-99211252D01*
X148235000Y-98688748D02*
X148235000Y-99211252D01*
%TO.C,C4*%
X126551252Y-98677000D02*
X126028748Y-98677000D01*
X126551252Y-100147000D02*
X126028748Y-100147000D01*
%TO.C,C44*%
X175880000Y-74098252D02*
X175880000Y-72675748D01*
X177700000Y-74098252D02*
X177700000Y-72675748D01*
%TO.C,R8*%
X144562936Y-86677000D02*
X145017064Y-86677000D01*
X144562936Y-88147000D02*
X145017064Y-88147000D01*
%TO.C,C8*%
X131051252Y-84177000D02*
X130528748Y-84177000D01*
X131051252Y-85647000D02*
X130528748Y-85647000D01*
%TO.C,R6*%
X139062936Y-106177000D02*
X139517064Y-106177000D01*
X139062936Y-107647000D02*
X139517064Y-107647000D01*
%TO.C,L8*%
X170650000Y-83272000D02*
X174930000Y-83272000D01*
X170650000Y-84009000D02*
X170650000Y-83272000D01*
X170650000Y-87552000D02*
X170650000Y-86815000D01*
X174930000Y-83272000D02*
X174930000Y-84009000D01*
X174930000Y-86815000D02*
X174930000Y-87552000D01*
X174930000Y-87552000D02*
X170650000Y-87552000D01*
%TO.C,R11*%
X140055000Y-116184936D02*
X140055000Y-116639064D01*
X141525000Y-116184936D02*
X141525000Y-116639064D01*
%TO.C,C46*%
X175880000Y-89675748D02*
X175880000Y-91098252D01*
X177700000Y-89675748D02*
X177700000Y-91098252D01*
%TO.C,C43*%
X179380000Y-96123252D02*
X179380000Y-94700748D01*
X181200000Y-96123252D02*
X181200000Y-94700748D01*
%TO.C,R1*%
X139062936Y-108677000D02*
X139517064Y-108677000D01*
X139062936Y-110147000D02*
X139517064Y-110147000D01*
%TO.C,C6*%
X149055000Y-116150748D02*
X149055000Y-116673252D01*
X150525000Y-116150748D02*
X150525000Y-116673252D01*
%TO.C,U2*%
D14*
X131565002Y-92137001D02*
X132190002Y-92137001D01*
X131565002Y-92762001D02*
X131565002Y-92137001D01*
X131565002Y-96586999D02*
X131565002Y-96362001D01*
X131565002Y-96586999D02*
X131790000Y-96586999D01*
X135790002Y-92137001D02*
X136015000Y-92137001D01*
X135790002Y-96586999D02*
X136015000Y-96586999D01*
X136015000Y-92361999D02*
X136015000Y-92137001D01*
X136015000Y-96586999D02*
X136015000Y-96362001D01*
%TO.C,U1*%
D13*
X131480000Y-99027000D02*
X136100000Y-99027000D01*
X136100000Y-105797000D02*
X131480000Y-105797000D01*
X137650000Y-105342000D02*
X137980000Y-105102000D01*
X137980000Y-105582000D01*
X137650000Y-105342000D01*
G36*
X137980000Y-105582000D02*
G01*
X137650000Y-105342000D01*
X137980000Y-105102000D01*
X137980000Y-105582000D01*
G37*
%TO.C,C19*%
X175880000Y-96123252D02*
X175880000Y-94700748D01*
X177700000Y-96123252D02*
X177700000Y-94700748D01*
%TO.C,U5*%
X142090000Y-106740000D02*
X143350000Y-106740000D01*
X142090000Y-110500000D02*
X142090000Y-106740000D01*
X148910000Y-106740000D02*
X147650000Y-106740000D01*
X148910000Y-110500000D02*
X148910000Y-106740000D01*
X142190000Y-111780000D02*
X141860000Y-112020000D01*
X141860000Y-111540000D01*
X142190000Y-111780000D01*
G36*
X142190000Y-111780000D02*
G01*
X141860000Y-112020000D01*
X141860000Y-111540000D01*
X142190000Y-111780000D01*
G37*
%TO.C,R2*%
X134517064Y-115677000D02*
X134062936Y-115677000D01*
X134517064Y-117147000D02*
X134062936Y-117147000D01*
%TO.C,U3*%
X132930000Y-122312000D02*
X134500000Y-122312000D01*
X133135000Y-120512000D02*
X134495000Y-120512000D01*
X132815000Y-120512000D02*
X132535000Y-120512000D01*
X132815000Y-120232000D01*
X132815000Y-120512000D01*
G36*
X132815000Y-120512000D02*
G01*
X132535000Y-120512000D01*
X132815000Y-120232000D01*
X132815000Y-120512000D01*
G37*
%TO.C,C5*%
X144555000Y-80373252D02*
X144555000Y-79850748D01*
X146025000Y-80373252D02*
X146025000Y-79850748D01*
%TO.C,C2*%
X136028748Y-89177000D02*
X136551252Y-89177000D01*
X136028748Y-90647000D02*
X136551252Y-90647000D01*
%TO.C,IC2*%
D14*
X145940001Y-90537000D02*
X146665001Y-90537000D01*
X145940001Y-91262000D02*
X145940001Y-90537000D01*
X145940001Y-95937000D02*
X145940001Y-95687000D01*
X145940001Y-95937000D02*
X146190000Y-95937000D01*
X150590002Y-90537000D02*
X150840001Y-90537000D01*
X150590002Y-95937000D02*
X150840001Y-95937000D01*
X150840001Y-90787000D02*
X150840001Y-90537000D01*
X150840001Y-95937000D02*
X150840001Y-95687000D01*
%TO.C,C17*%
D13*
X157938748Y-82565000D02*
X158461252Y-82565000D01*
X157938748Y-84035000D02*
X158461252Y-84035000D01*
%TO.C,C15*%
X153028748Y-89177000D02*
X153551252Y-89177000D01*
X153028748Y-90647000D02*
X153551252Y-90647000D01*
%TO.C,R5*%
X134062936Y-113177000D02*
X134517064Y-113177000D01*
X134062936Y-114647000D02*
X134517064Y-114647000D01*
%TO.C,R10*%
X134017064Y-118177000D02*
X133562936Y-118177000D01*
X134017064Y-119647000D02*
X133562936Y-119647000D01*
%TO.C,C47*%
X179380000Y-89675748D02*
X179380000Y-91098252D01*
X181200000Y-89675748D02*
X181200000Y-91098252D01*
%TO.C,Q2*%
X128092500Y-122302000D02*
X129612500Y-122302000D01*
X128092500Y-123302000D02*
X128092500Y-122302000D01*
X128092500Y-125422000D02*
X128092500Y-124422000D01*
X129612500Y-122302000D02*
X129612500Y-122352000D01*
X129612500Y-123472000D02*
X129612500Y-124252000D01*
X129612500Y-125372000D02*
X129612500Y-125422000D01*
X129612500Y-125422000D02*
X128092500Y-125422000D01*
X130152500Y-124242000D02*
X129912500Y-123912000D01*
X130392500Y-123912000D01*
X130152500Y-124242000D01*
G36*
X130152500Y-124242000D02*
G01*
X129912500Y-123912000D01*
X130392500Y-123912000D01*
X130152500Y-124242000D01*
G37*
%TO.C,L6*%
X170650000Y-98272000D02*
X174930000Y-98272000D01*
X170650000Y-99009000D02*
X170650000Y-98272000D01*
X170650000Y-102552000D02*
X170650000Y-101815000D01*
X174930000Y-98272000D02*
X174930000Y-99009000D01*
X174930000Y-101815000D02*
X174930000Y-102552000D01*
X174930000Y-102552000D02*
X170650000Y-102552000D01*
%TO.C,C16*%
X153055000Y-97150748D02*
X153055000Y-97673252D01*
X154525000Y-97150748D02*
X154525000Y-97673252D01*
%TO.C,C20*%
X179380000Y-113200748D02*
X179380000Y-114623252D01*
X181200000Y-113200748D02*
X181200000Y-114623252D01*
%TO.C,L5*%
X170650000Y-105772000D02*
X174930000Y-105772000D01*
X170650000Y-106509000D02*
X170650000Y-105772000D01*
X170650000Y-110052000D02*
X170650000Y-109315000D01*
X174930000Y-105772000D02*
X174930000Y-106509000D01*
X174930000Y-109315000D02*
X174930000Y-110052000D01*
X174930000Y-110052000D02*
X170650000Y-110052000D01*
%TO.C,R4*%
X127555000Y-96184936D02*
X127555000Y-96639064D01*
X129025000Y-96184936D02*
X129025000Y-96639064D01*
%TO.C,C1*%
X130491248Y-86677000D02*
X131013752Y-86677000D01*
X130491248Y-88147000D02*
X131013752Y-88147000D01*
%TD*%
M02*
