%TF.GenerationSoftware,KiCad,Pcbnew,10.0.2*%
%TF.CreationDate,2026-07-24T00:13:34-06:00*%
%TF.ProjectId,PRISM_Power,50524953-4d5f-4506-9f77-65722e6b6963,rev?*%
%TF.SameCoordinates,Original*%
%TF.FileFunction,Copper,L2,Bot*%
%TF.FilePolarity,Positive*%
%FSLAX46Y46*%
G04 Gerber Fmt 4.6, Leading zero omitted, Abs format (unit mm)*
G04 Created by KiCad (PCBNEW 10.0.2) date 2026-07-24 00:13:34*
%MOMM*%
%LPD*%
G01*
G04 APERTURE LIST*
G04 Aperture macros list*
%AMRoundRect*
0 Rectangle with rounded corners*
0 $1 Rounding radius*
0 $2 $3 $4 $5 $6 $7 $8 $9 X,Y pos of 4 corners*
0 Add a 4 corners polygon primitive as box body*
4,1,4,$2,$3,$4,$5,$6,$7,$8,$9,$2,$3,0*
0 Add four circle primitives for the rounded corners*
1,1,$1+$1,$2,$3*
1,1,$1+$1,$4,$5*
1,1,$1+$1,$6,$7*
1,1,$1+$1,$8,$9*
0 Add four rect primitives between the rounded corners*
20,1,$1+$1,$2,$3,$4,$5,0*
20,1,$1+$1,$4,$5,$6,$7,0*
20,1,$1+$1,$6,$7,$8,$9,0*
20,1,$1+$1,$8,$9,$2,$3,0*%
G04 Aperture macros list end*
%TA.AperFunction,SMDPad,CuDef*%
%ADD10RoundRect,1.000000X1.000000X3.000000X-1.000000X3.000000X-1.000000X-3.000000X1.000000X-3.000000X0*%
%TD*%
%TA.AperFunction,ComponentPad*%
%ADD11C,1.400000*%
%TD*%
%TA.AperFunction,ComponentPad*%
%ADD12C,0.560000*%
%TD*%
%TA.AperFunction,ComponentPad*%
%ADD13C,1.500000*%
%TD*%
%TA.AperFunction,ComponentPad*%
%ADD14C,1.815000*%
%TD*%
%TA.AperFunction,ComponentPad*%
%ADD15C,0.499999*%
%TD*%
%TA.AperFunction,SMDPad,CuDef*%
%ADD16RoundRect,1.250000X1.250000X3.750000X-1.250000X3.750000X-1.250000X-3.750000X1.250000X-3.750000X0*%
%TD*%
%TA.AperFunction,SMDPad,CuDef*%
%ADD17RoundRect,0.750000X2.250000X-0.750000X2.250000X0.750000X-2.250000X0.750000X-2.250000X-0.750000X0*%
%TD*%
%TA.AperFunction,ViaPad*%
%ADD18C,0.700000*%
%TD*%
%TA.AperFunction,ViaPad*%
%ADD19C,0.600000*%
%TD*%
%TA.AperFunction,ViaPad*%
%ADD20C,1.250000*%
%TD*%
%TA.AperFunction,Conductor*%
%ADD21C,0.200000*%
%TD*%
%TA.AperFunction,Conductor*%
%ADD22C,0.500000*%
%TD*%
%TA.AperFunction,Conductor*%
%ADD23C,0.300000*%
%TD*%
%TA.AperFunction,Conductor*%
%ADD24C,1.250000*%
%TD*%
G04 APERTURE END LIST*
D10*
%TO.P,NSS_1V8,1*%
%TO.N,SPI_NSS_1V8*%
X130000000Y-70000000D03*
%TD*%
%TO.P,MISO_1V8,1*%
%TO.N,SPI_MISO_1V8*%
X124500000Y-70000000D03*
%TD*%
D11*
%TO.P,TH1,1*%
%TO.N,Net-(U2-TS)*%
X143460000Y-70500000D03*
%TO.P,TH1,2*%
%TO.N,GND*%
X146000000Y-70500000D03*
%TD*%
D12*
%TO.P,J1,B1,GND_3_B1*%
%TO.N,GND*%
X120290000Y-97160000D03*
%TO.P,J1,B2,SSTXP2_B2*%
%TO.N,unconnected-(J1-SSTXP2-PadB2)*%
X119590000Y-96760000D03*
%TO.P,J1,B3,SSTXN2_B3*%
%TO.N,unconnected-(J1-SSTXN2-PadB3)*%
X119590000Y-95960000D03*
%TO.P,J1,B4,VBUS_3_B4*%
%TO.N,USB_VCC*%
X120290000Y-95560000D03*
%TO.P,J1,B5,CC2_B5*%
%TO.N,unconnected-(J1-CC2-PadB5)*%
X119590000Y-95160000D03*
%TO.P,J1,B6,DP2_B6*%
%TO.N,unconnected-(J1-DP2-PadB6)*%
X120290000Y-94760000D03*
%TO.P,J1,B7,DN2_B7*%
%TO.N,unconnected-(J1-DN2-PadB7)*%
X120290000Y-93960000D03*
%TO.P,J1,B8,SBU2_B8*%
%TO.N,unconnected-(J1-SBU2-PadB8)*%
X119590000Y-93560000D03*
%TO.P,J1,B9,VBUS_4_B9*%
%TO.N,USB_VCC*%
X120290000Y-93160000D03*
%TO.P,J1,B10,SSRXN1_B10*%
%TO.N,unconnected-(J1-SSRXN1-PadB10)*%
X119590000Y-92760000D03*
%TO.P,J1,B11,SSRXP1_B11*%
%TO.N,unconnected-(J1-SSRXP1-PadB11)*%
X119590000Y-91960000D03*
%TO.P,J1,B12,GND_4_B12*%
%TO.N,GND*%
X120290000Y-91560000D03*
D13*
%TO.P,J1,MH1,MH1_MH1*%
%TO.N,unconnected-(J1-PadMH1)*%
X119700000Y-98490000D03*
D14*
%TO.P,J1,MH2,MH2_MH2*%
%TO.N,unconnected-(J1-PadMH2)*%
X119700000Y-90230000D03*
%TO.P,J1,MH3,MH3_MH3*%
%TO.N,unconnected-(J1-PadMH3)*%
X115300000Y-98850000D03*
%TO.P,J1,MH4,MH4_MH4*%
%TO.N,unconnected-(J1-PadMH4)*%
X115300000Y-89870000D03*
%TD*%
D10*
%TO.P,SCK_1V8,1*%
%TO.N,SPI_SCK_1V8*%
X135500000Y-70000000D03*
%TD*%
D15*
%TO.P,U2,V*%
%TO.N,GND*%
X132690001Y-94362000D03*
X133790001Y-93262000D03*
X133790001Y-94362000D03*
X133790001Y-95462000D03*
X134890001Y-94362000D03*
%TD*%
%TO.P,IC2,V*%
%TO.N,GND*%
X147520000Y-93237000D03*
X148390001Y-93237000D03*
X149260002Y-93237000D03*
%TD*%
D16*
%TO.P,REF\u002A\u002A,1*%
%TO.N,FB_B3*%
X190000000Y-87000000D03*
%TD*%
D17*
%TO.P,REF\u002A\u002A,1*%
%TO.N,NRST*%
X135000000Y-127500000D03*
%TD*%
D16*
%TO.P,REF\u002A\u002A,1*%
%TO.N,FB_B2*%
X190000000Y-75500000D03*
%TD*%
D10*
%TO.P,MOSI_1V8,1*%
%TO.N,SPI_MOSI_1V8*%
X119000000Y-70000000D03*
%TD*%
D16*
%TO.P,REF\u002A\u002A,1*%
%TO.N,FB_B0*%
X190000000Y-111500000D03*
%TD*%
%TO.P,REF\u002A\u002A,1*%
%TO.N,FB_B1*%
X190000000Y-99500000D03*
%TD*%
D18*
%TO.N,FB_B2*%
X190000000Y-75500000D03*
D19*
%TO.N,Net-(U2-TS)*%
X138790000Y-91912000D03*
X138000000Y-93912000D03*
X143790000Y-87412000D03*
%TO.N,GND*%
X159150000Y-83300000D03*
X153790000Y-98362000D03*
X154500000Y-79500000D03*
X132790000Y-118912000D03*
X143200000Y-111800000D03*
X148500000Y-101412000D03*
X154240000Y-89912000D03*
X141290000Y-101412000D03*
X168500000Y-120000000D03*
X143790000Y-90912000D03*
X131290000Y-109412000D03*
X127290000Y-102412000D03*
X135500000Y-106500000D03*
X161900000Y-92912000D03*
%TO.N,SWDIO*%
X125500000Y-104400000D03*
X127790000Y-104412000D03*
%TO.N,+BATT*%
X134290000Y-111412000D03*
D20*
X162500000Y-115500000D03*
D19*
X136246000Y-95456000D03*
X139790000Y-95912000D03*
X138290000Y-113412000D03*
D20*
X182000000Y-69000000D03*
D19*
%TO.N,USB_VCC*%
X123200000Y-96300000D03*
X129790000Y-91912000D03*
X126800000Y-95400000D03*
%TO.N,Net-(C2-Pad2)*%
X137290000Y-87912000D03*
X139290000Y-84412000D03*
%TO.N,SYS_3V5*%
X139100000Y-96950000D03*
X137650000Y-98250000D03*
X130290000Y-96412000D03*
X136500000Y-94500000D03*
X149290000Y-87412000D03*
X147790000Y-85912000D03*
X152290000Y-96412000D03*
X146950000Y-96412000D03*
X150540000Y-90162000D03*
X155790000Y-93912000D03*
%TO.N,NRST*%
X135000000Y-127500000D03*
X134500000Y-103000000D03*
D20*
%TO.N,FB_B0*%
X190000000Y-111500000D03*
D19*
%TO.N,-BATT*%
X140790000Y-121912000D03*
X131290000Y-121912000D03*
%TO.N,I2C_SCL_1V8*%
X134390000Y-99412000D03*
X133190000Y-99412000D03*
%TO.N,I2C_SDA_1V8*%
X133189999Y-106412000D03*
X135390001Y-104811999D03*
%TO.N,Net-(U2-ILIM)*%
X140290000Y-91912000D03*
X139000000Y-93912000D03*
%TO.N,SPI_MISO_1V8*%
X127764753Y-101023631D03*
D18*
%TO.N,FB_B3*%
X190000000Y-87000000D03*
D19*
%TO.N,SPI_SCK_1V8*%
X138500000Y-100500000D03*
D18*
%TO.N,FB_B1*%
X190000000Y-99500000D03*
D19*
%TO.N,INT_CHRG*%
X132490002Y-97022911D03*
X131049963Y-98152035D03*
%TO.N,CE_CHRG*%
X132881336Y-97720664D03*
X128849997Y-102812000D03*
%TO.N,EN3*%
X145290000Y-91912000D03*
X143150000Y-98800000D03*
X143750000Y-95750000D03*
X144268119Y-94613975D03*
%TO.N,EN2*%
X169450000Y-94700000D03*
X142000000Y-103500000D03*
%TO.N,Net-(U1-VDD)*%
X141500000Y-102500000D03*
X144000000Y-102500000D03*
%TO.N,SPI_NSS_1V8*%
X128650000Y-99650000D03*
%TO.N,PGD_S*%
X151790000Y-93912000D03*
X129400000Y-99950000D03*
X135000000Y-87500000D03*
X140000000Y-89500000D03*
%TO.N,SPI_MOSI_1V8*%
X128100000Y-101750000D03*
%TO.N,EN1*%
X129650000Y-102812000D03*
X144600000Y-98100000D03*
%TO.N,SWCLK*%
X125500000Y-105450000D03*
X128290000Y-105412000D03*
%TO.N,PMIC_RST*%
X154290000Y-92412000D03*
X140550000Y-99700000D03*
%TD*%
%TO.N,Net-(U2-TS)*%
D21*
X143790000Y-70830000D02*
X143460000Y-70500000D01*
X143790000Y-87412000D02*
X143790000Y-70830000D01*
X138000000Y-92702000D02*
X138790000Y-91912000D01*
X138000000Y-93912000D02*
X138000000Y-92702000D01*
%TO.N,GND*%
X127290000Y-102412000D02*
X131290000Y-106412000D01*
D22*
X133878000Y-120000000D02*
X132790000Y-118912000D01*
D21*
X154538000Y-98362000D02*
X153790000Y-98362000D01*
X161900000Y-92912000D02*
X159988000Y-92912000D01*
X131290000Y-106412000D02*
X131290000Y-109412000D01*
X151290000Y-101912000D02*
X150790000Y-101912000D01*
X153790000Y-98362000D02*
X153790000Y-99412000D01*
X159988000Y-92912000D02*
X154538000Y-98362000D01*
X136202000Y-106500000D02*
X135500000Y-106500000D01*
X141290000Y-101412000D02*
X136202000Y-106500000D01*
X153790000Y-99412000D02*
X151290000Y-101912000D01*
X147520000Y-93237000D02*
X145195000Y-90912000D01*
D22*
X131290000Y-109412000D02*
X131290000Y-117412000D01*
D21*
X150790000Y-101912000D02*
X150290000Y-101412000D01*
D22*
X168500000Y-120000000D02*
X133878000Y-120000000D01*
D21*
X150290000Y-101412000D02*
X148500000Y-101412000D01*
X145195000Y-90912000D02*
X143790000Y-90912000D01*
X131290000Y-117412000D02*
X131340000Y-117462000D01*
X141290000Y-101412000D02*
X148500000Y-101412000D01*
%TO.N,SWDIO*%
X127790000Y-104412000D02*
X125512000Y-104412000D01*
X125512000Y-104412000D02*
X125500000Y-104400000D01*
%TO.N,+BATT*%
D23*
X136290000Y-111412000D02*
X134290000Y-111412000D01*
D24*
X182000000Y-96000000D02*
X162500000Y-115500000D01*
D23*
X136500000Y-95622000D02*
X136334000Y-95456000D01*
X137500000Y-101500000D02*
X136500000Y-100500000D01*
X139000000Y-101500000D02*
X137500000Y-101500000D01*
X138290000Y-113412000D02*
X136290000Y-111412000D01*
D21*
X136334000Y-95456000D02*
X136246000Y-95456000D01*
D24*
X182000000Y-69000000D02*
X182000000Y-96000000D01*
D23*
X139790000Y-95912000D02*
X139790000Y-100710000D01*
X139790000Y-100710000D02*
X139000000Y-101500000D01*
X136500000Y-100500000D02*
X136500000Y-95622000D01*
%TO.N,USB_VCC*%
D21*
X126800000Y-95400000D02*
X126800000Y-94902000D01*
X120290000Y-95560000D02*
X121030000Y-96300000D01*
X126800000Y-94902000D02*
X129790000Y-91912000D01*
X121030000Y-96300000D02*
X123200000Y-96300000D01*
%TO.N,Net-(C2-Pad2)*%
X137290000Y-86412000D02*
X137290000Y-87912000D01*
X139290000Y-84412000D02*
X137290000Y-86412000D01*
%TO.N,SYS_3V5*%
X153290000Y-96412000D02*
X155790000Y-93912000D01*
X139100000Y-95753471D02*
X139100000Y-96950000D01*
X147790000Y-85912000D02*
X147790000Y-87412000D01*
X137000000Y-97600000D02*
X137000000Y-95000000D01*
X143501471Y-95150000D02*
X143301471Y-95350000D01*
X155790000Y-93912000D02*
X154290000Y-93912000D01*
X146950000Y-96412000D02*
X145260529Y-96412000D01*
X136000000Y-94500000D02*
X134088000Y-96412000D01*
X154290000Y-93912000D02*
X150540000Y-90162000D01*
X140076529Y-95350000D02*
X140038529Y-95312000D01*
X150540000Y-90162000D02*
X147790000Y-87412000D01*
X137650000Y-98250000D02*
X137000000Y-97600000D01*
X139541471Y-95312000D02*
X139100000Y-95753471D01*
X140038529Y-95312000D02*
X139541471Y-95312000D01*
X143998529Y-95150000D02*
X143501471Y-95150000D01*
X143301471Y-95350000D02*
X140076529Y-95350000D01*
X146950000Y-96412000D02*
X153290000Y-96412000D01*
X137000000Y-95000000D02*
X136500000Y-94500000D01*
X145260529Y-96412000D02*
X143998529Y-95150000D01*
X136500000Y-94500000D02*
X136000000Y-94500000D01*
X147790000Y-85912000D02*
X149290000Y-87412000D01*
X134088000Y-96412000D02*
X130290000Y-96412000D01*
%TO.N,NRST*%
X129500000Y-122000000D02*
X135000000Y-127500000D01*
X134500000Y-103500000D02*
X132000000Y-106000000D01*
X129500000Y-121000000D02*
X129500000Y-122000000D01*
X132000000Y-118500000D02*
X129500000Y-121000000D01*
X134500000Y-103000000D02*
X134500000Y-103500000D01*
X132000000Y-106000000D02*
X132000000Y-118500000D01*
%TO.N,-BATT*%
D22*
X131290000Y-121912000D02*
X140790000Y-121912000D01*
%TO.N,I2C_SCL_1V8*%
D21*
X134390000Y-99412000D02*
X133190000Y-99412000D01*
%TO.N,I2C_SDA_1V8*%
X133189999Y-106412000D02*
X133790000Y-106412000D01*
X133790000Y-106412000D02*
X135390001Y-104811999D01*
%TO.N,Net-(U2-ILIM)*%
X139000000Y-93202000D02*
X140290000Y-91912000D01*
X139000000Y-93912000D02*
X139000000Y-93202000D01*
%TO.N,SPI_MISO_1V8*%
X124900000Y-70400000D02*
X124500000Y-70000000D01*
X127764753Y-101023631D02*
X124900000Y-98158878D01*
X124900000Y-98158878D02*
X124900000Y-70400000D01*
%TO.N,SPI_SCK_1V8*%
X136000000Y-70500000D02*
X135500000Y-70000000D01*
X136500000Y-71000000D02*
X135500000Y-70000000D01*
X138500000Y-100500000D02*
X138500000Y-95500000D01*
X138500000Y-95500000D02*
X136000000Y-93000000D01*
X136000000Y-93000000D02*
X136000000Y-70500000D01*
%TO.N,INT_CHRG*%
X131360878Y-98152035D02*
X132490002Y-97022911D01*
X131049963Y-98152035D02*
X131360878Y-98152035D01*
%TO.N,CE_CHRG*%
X129000175Y-101201825D02*
X132481336Y-97720664D01*
X132481336Y-97720664D02*
X132881336Y-97720664D01*
X128849997Y-102812000D02*
X129000175Y-102661822D01*
X129000175Y-102661822D02*
X129000175Y-101201825D01*
%TO.N,EN3*%
X145290000Y-93592094D02*
X145290000Y-91912000D01*
X144268119Y-94613975D02*
X145290000Y-93592094D01*
X143750000Y-98200000D02*
X143750000Y-95750000D01*
X143150000Y-98800000D02*
X143750000Y-98200000D01*
%TO.N,EN2*%
X160650000Y-103500000D02*
X169450000Y-94700000D01*
X142000000Y-103500000D02*
X160650000Y-103500000D01*
%TO.N,Net-(U1-VDD)*%
X144000000Y-102500000D02*
X141500000Y-102500000D01*
%TO.N,SPI_NSS_1V8*%
X130000000Y-78000000D02*
X130000000Y-70000000D01*
X126000000Y-82000000D02*
X130000000Y-78000000D01*
X126000000Y-97000000D02*
X126000000Y-82000000D01*
X128650000Y-99650000D02*
X126000000Y-97000000D01*
%TO.N,PGD_S*%
X140000000Y-89500000D02*
X147378000Y-89500000D01*
X129400000Y-96453471D02*
X135000000Y-90853471D01*
X147378000Y-89500000D02*
X151790000Y-93912000D01*
X129400000Y-99950000D02*
X129400000Y-96453471D01*
X135000000Y-90853471D02*
X135000000Y-87500000D01*
%TO.N,SPI_MOSI_1V8*%
X124050000Y-86050000D02*
X118500000Y-80500000D01*
X118500000Y-80500000D02*
X118500000Y-70500000D01*
X124050000Y-100550000D02*
X124050000Y-86050000D01*
X118500000Y-70500000D02*
X119000000Y-70000000D01*
X125250000Y-101750000D02*
X124050000Y-100550000D01*
X128100000Y-101750000D02*
X125250000Y-101750000D01*
%TO.N,EN1*%
X142298528Y-100500000D02*
X144600000Y-98198529D01*
X129650000Y-102812000D02*
X130462000Y-102000000D01*
X130462000Y-102000000D02*
X139500000Y-102000000D01*
X144600000Y-98198529D02*
X144600000Y-98100000D01*
X140500000Y-101000000D02*
X140500000Y-100500000D01*
X140500000Y-100500000D02*
X142298528Y-100500000D01*
X139500000Y-102000000D02*
X140500000Y-101000000D01*
%TO.N,SWCLK*%
X128290000Y-105412000D02*
X125538000Y-105412000D01*
X125538000Y-105412000D02*
X125500000Y-105450000D01*
%TD*%
%TA.AperFunction,Conductor*%
%TO.N,GND*%
G36*
X116441840Y-66864230D02*
G01*
X116487947Y-66916727D01*
X116499500Y-66968992D01*
X116499500Y-73082850D01*
X116505918Y-73186235D01*
X116505919Y-73186238D01*
X116556950Y-73429615D01*
X116556953Y-73429625D01*
X116647342Y-73661269D01*
X116774639Y-73874902D01*
X116935348Y-74064649D01*
X116935350Y-74064651D01*
X117125097Y-74225360D01*
X117125103Y-74225363D01*
X117125106Y-74225366D01*
X117338727Y-74352656D01*
X117338730Y-74352657D01*
X117570374Y-74443046D01*
X117570381Y-74443048D01*
X117570386Y-74443050D01*
X117800949Y-74491394D01*
X117862520Y-74524416D01*
X117896465Y-74585486D01*
X117899500Y-74612754D01*
X117899500Y-80413330D01*
X117899499Y-80413348D01*
X117899499Y-80579054D01*
X117899498Y-80579054D01*
X117940423Y-80731785D01*
X117969358Y-80781900D01*
X117969359Y-80781904D01*
X117969360Y-80781904D01*
X118019479Y-80868714D01*
X118019481Y-80868717D01*
X118138349Y-80987585D01*
X118138355Y-80987590D01*
X123413181Y-86262416D01*
X123446666Y-86323739D01*
X123449500Y-86350097D01*
X123449500Y-95382351D01*
X123429815Y-95449390D01*
X123377011Y-95495145D01*
X123307853Y-95505089D01*
X123301310Y-95503969D01*
X123278842Y-95499500D01*
X123121158Y-95499500D01*
X123121155Y-95499500D01*
X122966510Y-95530261D01*
X122966498Y-95530264D01*
X122820827Y-95590602D01*
X122820814Y-95590609D01*
X122689125Y-95678602D01*
X122622447Y-95699480D01*
X122620234Y-95699500D01*
X121330097Y-95699500D01*
X121300656Y-95690855D01*
X121270670Y-95684332D01*
X121265654Y-95680577D01*
X121263058Y-95679815D01*
X121242416Y-95663181D01*
X121099119Y-95519884D01*
X121065634Y-95458561D01*
X121065183Y-95456394D01*
X121040508Y-95332343D01*
X121040505Y-95332334D01*
X121025321Y-95295677D01*
X120988778Y-95207452D01*
X120981309Y-95137983D01*
X120988778Y-95112548D01*
X121002600Y-95079179D01*
X121040506Y-94987664D01*
X121041975Y-94980283D01*
X121070499Y-94836877D01*
X121070500Y-94836874D01*
X121070500Y-94683126D01*
X121070499Y-94683122D01*
X121040508Y-94532343D01*
X121040505Y-94532334D01*
X121037019Y-94523919D01*
X120988778Y-94407452D01*
X120981309Y-94337983D01*
X120988778Y-94312548D01*
X121003757Y-94276385D01*
X121040506Y-94187664D01*
X121044766Y-94166251D01*
X121062279Y-94078205D01*
X121070500Y-94036873D01*
X121070500Y-93883127D01*
X121058715Y-93823879D01*
X121040508Y-93732343D01*
X121040505Y-93732334D01*
X121005118Y-93646902D01*
X120988778Y-93607452D01*
X120981309Y-93537983D01*
X120988778Y-93512548D01*
X121027801Y-93418336D01*
X121040506Y-93387664D01*
X121043296Y-93373641D01*
X121070499Y-93236877D01*
X121070500Y-93236874D01*
X121070500Y-93083126D01*
X121070499Y-93083122D01*
X121040508Y-92932343D01*
X121040505Y-92932334D01*
X121032633Y-92913330D01*
X121000966Y-92836877D01*
X120981673Y-92790298D01*
X120981672Y-92790296D01*
X120930083Y-92713089D01*
X120896254Y-92662460D01*
X120896251Y-92662456D01*
X120787543Y-92553748D01*
X120787539Y-92553745D01*
X120707851Y-92500499D01*
X120659706Y-92468329D01*
X120659704Y-92468328D01*
X120654641Y-92464945D01*
X120655693Y-92463369D01*
X120612136Y-92420580D01*
X120596678Y-92352441D01*
X120620512Y-92286763D01*
X120633848Y-92276307D01*
X120636985Y-92260538D01*
X120406819Y-92030372D01*
X120373334Y-91969049D01*
X120370500Y-91942691D01*
X120370500Y-91883126D01*
X120370499Y-91883122D01*
X120344773Y-91753790D01*
X120403291Y-91729552D01*
X120459552Y-91673291D01*
X120490000Y-91599782D01*
X120490000Y-91520218D01*
X120459552Y-91446709D01*
X120451317Y-91438474D01*
X120459210Y-91439039D01*
X120479168Y-91435280D01*
X120494709Y-91441578D01*
X120509851Y-91442661D01*
X120524569Y-91453679D01*
X120543922Y-91461522D01*
X120554541Y-91470987D01*
X120990538Y-91906985D01*
X121040025Y-91787514D01*
X121040026Y-91787510D01*
X121069999Y-91636827D01*
X121070000Y-91636824D01*
X121070000Y-91483176D01*
X121069999Y-91483175D01*
X121062025Y-91443084D01*
X121068252Y-91373492D01*
X121111115Y-91318315D01*
X121151553Y-91299116D01*
X121162135Y-91296281D01*
X121293365Y-91220515D01*
X121400515Y-91113365D01*
X121476281Y-90982135D01*
X121515500Y-90835766D01*
X121515500Y-90684234D01*
X121476281Y-90537865D01*
X121400515Y-90406635D01*
X121293365Y-90299485D01*
X121191793Y-90240842D01*
X121169999Y-90228259D01*
X121121784Y-90177691D01*
X121108760Y-90124008D01*
X121108382Y-90124038D01*
X121108196Y-90121683D01*
X121108000Y-90120872D01*
X121108000Y-90119182D01*
X121073331Y-89900292D01*
X121035162Y-89782821D01*
X121004845Y-89689516D01*
X121004843Y-89689513D01*
X121004843Y-89689511D01*
X120928812Y-89540292D01*
X120904230Y-89492047D01*
X120773962Y-89312749D01*
X120617251Y-89156038D01*
X120437953Y-89025770D01*
X120425606Y-89019479D01*
X120240488Y-88925156D01*
X120029707Y-88856668D01*
X119810817Y-88822000D01*
X119810812Y-88822000D01*
X119589188Y-88822000D01*
X119589183Y-88822000D01*
X119370292Y-88856668D01*
X119159511Y-88925156D01*
X118962046Y-89025770D01*
X118859750Y-89100092D01*
X118782749Y-89156038D01*
X118782747Y-89156040D01*
X118782746Y-89156040D01*
X118626040Y-89312746D01*
X118626040Y-89312747D01*
X118626038Y-89312749D01*
X118613860Y-89329511D01*
X118495770Y-89492046D01*
X118395156Y-89689511D01*
X118326668Y-89900292D01*
X118292000Y-90119182D01*
X118292000Y-90340817D01*
X118326668Y-90559707D01*
X118395156Y-90770488D01*
X118483546Y-90943962D01*
X118495770Y-90967953D01*
X118626038Y-91147251D01*
X118782749Y-91303962D01*
X118878449Y-91373492D01*
X118892898Y-91383990D01*
X118935564Y-91439320D01*
X118941543Y-91508933D01*
X118923116Y-91553198D01*
X118898326Y-91590298D01*
X118839494Y-91732334D01*
X118839491Y-91732343D01*
X118809500Y-91883122D01*
X118809500Y-92036877D01*
X118839491Y-92187656D01*
X118839493Y-92187660D01*
X118839494Y-92187664D01*
X118869679Y-92260538D01*
X118891222Y-92312549D01*
X118898690Y-92382018D01*
X118891222Y-92407451D01*
X118839493Y-92532339D01*
X118839491Y-92532343D01*
X118809500Y-92683122D01*
X118809500Y-92836877D01*
X118839491Y-92987656D01*
X118839493Y-92987660D01*
X118839494Y-92987664D01*
X118862511Y-93043232D01*
X118891222Y-93112549D01*
X118898690Y-93182018D01*
X118891222Y-93207451D01*
X118873224Y-93250903D01*
X118848125Y-93311500D01*
X118839493Y-93332339D01*
X118839491Y-93332343D01*
X118809500Y-93483122D01*
X118809500Y-93636877D01*
X118839491Y-93787656D01*
X118839494Y-93787665D01*
X118898326Y-93929701D01*
X118898327Y-93929703D01*
X118983745Y-94057539D01*
X118983748Y-94057543D01*
X119092456Y-94166251D01*
X119092460Y-94166254D01*
X119220294Y-94251671D01*
X119220295Y-94251671D01*
X119225359Y-94255055D01*
X119224371Y-94256533D01*
X119268220Y-94299617D01*
X119283672Y-94367757D01*
X119259832Y-94433434D01*
X119224665Y-94463906D01*
X119225359Y-94464945D01*
X119092460Y-94553745D01*
X119092456Y-94553748D01*
X118983748Y-94662456D01*
X118983745Y-94662460D01*
X118898327Y-94790296D01*
X118898326Y-94790298D01*
X118839494Y-94932334D01*
X118839491Y-94932343D01*
X118809500Y-95083122D01*
X118809500Y-95236877D01*
X118839491Y-95387656D01*
X118839493Y-95387660D01*
X118839494Y-95387664D01*
X118865204Y-95449735D01*
X118891222Y-95512549D01*
X118898690Y-95582018D01*
X118891222Y-95607451D01*
X118865375Y-95669853D01*
X118851809Y-95702606D01*
X118839493Y-95732339D01*
X118839491Y-95732343D01*
X118809500Y-95883122D01*
X118809500Y-96036877D01*
X118839491Y-96187656D01*
X118839493Y-96187660D01*
X118839494Y-96187664D01*
X118853587Y-96221687D01*
X118891222Y-96312549D01*
X118898690Y-96382018D01*
X118891222Y-96407451D01*
X118881036Y-96432043D01*
X118841361Y-96527830D01*
X118839493Y-96532339D01*
X118839491Y-96532343D01*
X118809500Y-96683122D01*
X118809500Y-96836877D01*
X118839491Y-96987656D01*
X118839494Y-96987665D01*
X118898326Y-97129701D01*
X118898327Y-97129703D01*
X118983745Y-97257539D01*
X118983748Y-97257543D01*
X119001061Y-97274856D01*
X119034546Y-97336179D01*
X119029562Y-97405871D01*
X118987690Y-97461804D01*
X118986289Y-97462837D01*
X118885354Y-97536172D01*
X118885352Y-97536174D01*
X118885351Y-97536174D01*
X118746174Y-97675351D01*
X118746174Y-97675352D01*
X118746172Y-97675354D01*
X118714476Y-97718980D01*
X118630476Y-97834594D01*
X118541117Y-98009970D01*
X118480290Y-98197173D01*
X118449500Y-98391577D01*
X118449500Y-98588422D01*
X118480290Y-98782826D01*
X118541117Y-98970029D01*
X118596239Y-99078211D01*
X118630476Y-99145405D01*
X118746172Y-99304646D01*
X118885354Y-99443828D01*
X119044595Y-99559524D01*
X119127455Y-99601743D01*
X119219970Y-99648882D01*
X119219972Y-99648882D01*
X119219975Y-99648884D01*
X119320317Y-99681487D01*
X119407173Y-99709709D01*
X119601578Y-99740500D01*
X119601583Y-99740500D01*
X119798422Y-99740500D01*
X119992826Y-99709709D01*
X120026600Y-99698735D01*
X120180025Y-99648884D01*
X120355405Y-99559524D01*
X120514646Y-99443828D01*
X120653828Y-99304646D01*
X120769524Y-99145405D01*
X120841978Y-99003204D01*
X120889952Y-98952409D01*
X120952463Y-98935500D01*
X121021307Y-98935500D01*
X121128598Y-98914157D01*
X121180789Y-98903776D01*
X121331021Y-98841548D01*
X121331023Y-98841547D01*
X121429869Y-98775500D01*
X121466225Y-98751208D01*
X121581208Y-98636225D01*
X121651374Y-98531214D01*
X121671547Y-98501023D01*
X121671549Y-98501019D01*
X121704771Y-98420814D01*
X121733776Y-98350789D01*
X121757613Y-98230956D01*
X121765500Y-98191307D01*
X121765500Y-98028692D01*
X121733777Y-97869216D01*
X121733776Y-97869215D01*
X121733776Y-97869211D01*
X121704904Y-97799508D01*
X121671549Y-97718980D01*
X121671547Y-97718976D01*
X121581211Y-97583779D01*
X121581205Y-97583771D01*
X121466228Y-97468794D01*
X121466220Y-97468788D01*
X121331023Y-97378452D01*
X121331019Y-97378450D01*
X121180791Y-97316224D01*
X121180785Y-97316222D01*
X121169807Y-97314039D01*
X121144579Y-97300842D01*
X121118070Y-97290456D01*
X121114019Y-97284855D01*
X121107897Y-97281653D01*
X121093809Y-97256914D01*
X121077122Y-97233842D01*
X121075586Y-97224912D01*
X121073323Y-97220937D01*
X121070187Y-97199236D01*
X121060945Y-97031314D01*
X121067005Y-97005502D01*
X121069368Y-96979099D01*
X121074867Y-96972020D01*
X121076916Y-96963294D01*
X121095968Y-96944857D01*
X121112232Y-96923922D01*
X121120684Y-96920940D01*
X121127126Y-96914707D01*
X121153121Y-96909497D01*
X121178122Y-96900678D01*
X121184758Y-96900500D01*
X122620234Y-96900500D01*
X122687273Y-96920185D01*
X122689125Y-96921398D01*
X122820814Y-97009390D01*
X122820827Y-97009397D01*
X122950499Y-97063108D01*
X122966503Y-97069737D01*
X123098691Y-97096031D01*
X123121153Y-97100499D01*
X123121156Y-97100500D01*
X123121158Y-97100500D01*
X123278842Y-97100500D01*
X123301308Y-97096031D01*
X123370898Y-97102257D01*
X123426076Y-97145119D01*
X123449322Y-97211008D01*
X123449500Y-97217648D01*
X123449500Y-100463330D01*
X123449499Y-100463348D01*
X123449499Y-100629054D01*
X123449498Y-100629054D01*
X123490423Y-100781786D01*
X123505630Y-100808123D01*
X123505631Y-100808128D01*
X123505633Y-100808128D01*
X123569479Y-100918714D01*
X123569481Y-100918717D01*
X123688349Y-101037585D01*
X123688355Y-101037590D01*
X124765139Y-102114374D01*
X124765149Y-102114385D01*
X124769479Y-102118715D01*
X124769480Y-102118716D01*
X124881284Y-102230520D01*
X124943609Y-102266503D01*
X125018215Y-102309577D01*
X125170942Y-102350500D01*
X125170943Y-102350500D01*
X127520234Y-102350500D01*
X127587273Y-102370185D01*
X127589125Y-102371398D01*
X127720814Y-102459390D01*
X127720827Y-102459397D01*
X127866498Y-102519735D01*
X127866503Y-102519737D01*
X127921311Y-102530639D01*
X127961750Y-102538683D01*
X128023661Y-102571067D01*
X128058235Y-102631783D01*
X128059177Y-102684490D01*
X128049497Y-102733158D01*
X128049497Y-102890846D01*
X128080258Y-103045489D01*
X128080261Y-103045501D01*
X128140599Y-103191172D01*
X128140606Y-103191185D01*
X128228207Y-103322288D01*
X128228210Y-103322292D01*
X128339704Y-103433786D01*
X128339708Y-103433789D01*
X128470811Y-103521390D01*
X128470824Y-103521397D01*
X128610030Y-103579057D01*
X128616500Y-103581737D01*
X128766128Y-103611500D01*
X128771150Y-103612499D01*
X128771153Y-103612500D01*
X128771155Y-103612500D01*
X128928841Y-103612500D01*
X128928842Y-103612499D01*
X129083494Y-103581737D01*
X129202547Y-103532423D01*
X129272014Y-103524955D01*
X129297447Y-103532422D01*
X129416503Y-103581737D01*
X129566131Y-103611500D01*
X129571153Y-103612499D01*
X129571156Y-103612500D01*
X129571158Y-103612500D01*
X129728844Y-103612500D01*
X129728845Y-103612499D01*
X129883497Y-103581737D01*
X130029179Y-103521394D01*
X130160289Y-103433789D01*
X130271789Y-103322289D01*
X130359394Y-103191179D01*
X130419737Y-103045497D01*
X130449342Y-102896666D01*
X130450638Y-102890150D01*
X130483023Y-102828239D01*
X130484518Y-102826716D01*
X130674416Y-102636819D01*
X130735739Y-102603334D01*
X130762097Y-102600500D01*
X133613445Y-102600500D01*
X133680484Y-102620185D01*
X133726239Y-102672989D01*
X133736183Y-102742147D01*
X133731159Y-102760411D01*
X133732031Y-102760676D01*
X133730261Y-102766510D01*
X133699500Y-102921153D01*
X133699500Y-103078846D01*
X133730261Y-103233489D01*
X133730264Y-103233501D01*
X133753328Y-103289182D01*
X133760797Y-103358651D01*
X133729522Y-103421130D01*
X133726448Y-103424315D01*
X131634721Y-105516042D01*
X131634715Y-105516048D01*
X131631286Y-105519478D01*
X131631284Y-105519480D01*
X131519480Y-105631284D01*
X131490324Y-105681785D01*
X131484618Y-105691667D01*
X131484616Y-105691670D01*
X131440423Y-105768214D01*
X131434270Y-105791179D01*
X131399499Y-105920943D01*
X131399499Y-105920945D01*
X131399499Y-106089046D01*
X131399500Y-106089059D01*
X131399500Y-118199902D01*
X131379815Y-118266941D01*
X131363181Y-118287583D01*
X129019481Y-120631282D01*
X129019479Y-120631285D01*
X128969361Y-120718094D01*
X128969359Y-120718096D01*
X128940425Y-120768209D01*
X128940424Y-120768210D01*
X128940423Y-120768215D01*
X128899499Y-120920943D01*
X128899499Y-120920945D01*
X128899499Y-121089046D01*
X128899500Y-121089059D01*
X128899500Y-121913330D01*
X128899499Y-121913348D01*
X128899499Y-122079054D01*
X128899498Y-122079054D01*
X128940423Y-122231785D01*
X128969358Y-122281900D01*
X128969359Y-122281904D01*
X128969360Y-122281904D01*
X129019479Y-122368714D01*
X129019481Y-122368717D01*
X129138349Y-122487585D01*
X129138355Y-122487590D01*
X132130726Y-125479961D01*
X132164211Y-125541284D01*
X132159227Y-125610976D01*
X132117355Y-125666909D01*
X132113662Y-125669570D01*
X131945350Y-125786178D01*
X131945342Y-125786184D01*
X131786184Y-125945342D01*
X131786174Y-125945354D01*
X131657997Y-126130367D01*
X131657991Y-126130377D01*
X131564903Y-126335318D01*
X131564902Y-126335321D01*
X131509905Y-126553579D01*
X131509904Y-126553586D01*
X131499500Y-126685777D01*
X131499500Y-127418657D01*
X131479815Y-127485696D01*
X131427011Y-127531451D01*
X131376301Y-127542654D01*
X114685305Y-127650523D01*
X114618140Y-127631273D01*
X114572045Y-127578765D01*
X114560507Y-127527382D01*
X114400934Y-104321153D01*
X124699500Y-104321153D01*
X124699500Y-104478846D01*
X124730261Y-104633489D01*
X124730264Y-104633501D01*
X124790602Y-104779172D01*
X124790612Y-104779190D01*
X124842008Y-104856110D01*
X124862886Y-104922787D01*
X124844401Y-104990167D01*
X124842008Y-104993890D01*
X124790612Y-105070809D01*
X124790602Y-105070827D01*
X124730264Y-105216498D01*
X124730261Y-105216510D01*
X124699500Y-105371153D01*
X124699500Y-105528846D01*
X124730261Y-105683489D01*
X124730264Y-105683501D01*
X124790602Y-105829172D01*
X124790609Y-105829185D01*
X124878210Y-105960288D01*
X124878213Y-105960292D01*
X124989707Y-106071786D01*
X124989711Y-106071789D01*
X125120814Y-106159390D01*
X125120827Y-106159397D01*
X125249031Y-106212500D01*
X125266503Y-106219737D01*
X125421153Y-106250499D01*
X125421156Y-106250500D01*
X125421158Y-106250500D01*
X125578844Y-106250500D01*
X125578845Y-106250499D01*
X125733497Y-106219737D01*
X125879179Y-106159394D01*
X126010289Y-106071789D01*
X126010292Y-106071786D01*
X126033260Y-106048819D01*
X126094583Y-106015334D01*
X126120941Y-106012500D01*
X127710234Y-106012500D01*
X127777273Y-106032185D01*
X127779125Y-106033398D01*
X127910814Y-106121390D01*
X127910827Y-106121397D01*
X128056498Y-106181735D01*
X128056503Y-106181737D01*
X128211153Y-106212499D01*
X128211156Y-106212500D01*
X128211158Y-106212500D01*
X128368844Y-106212500D01*
X128368845Y-106212499D01*
X128523497Y-106181737D01*
X128669179Y-106121394D01*
X128800289Y-106033789D01*
X128911789Y-105922289D01*
X128999394Y-105791179D01*
X129059737Y-105645497D01*
X129090500Y-105490842D01*
X129090500Y-105333158D01*
X129090500Y-105333155D01*
X129090499Y-105333153D01*
X129067297Y-105216510D01*
X129059737Y-105178503D01*
X129059735Y-105178498D01*
X128999397Y-105032827D01*
X128999390Y-105032814D01*
X128911789Y-104901711D01*
X128911786Y-104901707D01*
X128800292Y-104790213D01*
X128800288Y-104790210D01*
X128669185Y-104702609D01*
X128669179Y-104702606D01*
X128651589Y-104695320D01*
X128597186Y-104651478D01*
X128575122Y-104585184D01*
X128577425Y-104556571D01*
X128590500Y-104490842D01*
X128590500Y-104333158D01*
X128590500Y-104333155D01*
X128590499Y-104333153D01*
X128588112Y-104321153D01*
X128559737Y-104178503D01*
X128554769Y-104166510D01*
X128499397Y-104032827D01*
X128499390Y-104032814D01*
X128411789Y-103901711D01*
X128411786Y-103901707D01*
X128300292Y-103790213D01*
X128300288Y-103790210D01*
X128169185Y-103702609D01*
X128169172Y-103702602D01*
X128023501Y-103642264D01*
X128023489Y-103642261D01*
X127868845Y-103611500D01*
X127868842Y-103611500D01*
X127711158Y-103611500D01*
X127711155Y-103611500D01*
X127556510Y-103642261D01*
X127556498Y-103642264D01*
X127410827Y-103702602D01*
X127410814Y-103702609D01*
X127279125Y-103790602D01*
X127212447Y-103811480D01*
X127210234Y-103811500D01*
X126094941Y-103811500D01*
X126027902Y-103791815D01*
X126015324Y-103781679D01*
X126014999Y-103782076D01*
X126010288Y-103778210D01*
X125879185Y-103690609D01*
X125879172Y-103690602D01*
X125733501Y-103630264D01*
X125733489Y-103630261D01*
X125578845Y-103599500D01*
X125578842Y-103599500D01*
X125421158Y-103599500D01*
X125421155Y-103599500D01*
X125266510Y-103630261D01*
X125266498Y-103630264D01*
X125120827Y-103690602D01*
X125120814Y-103690609D01*
X124989711Y-103778210D01*
X124989707Y-103778213D01*
X124878213Y-103889707D01*
X124878210Y-103889711D01*
X124790609Y-104020814D01*
X124790602Y-104020827D01*
X124730264Y-104166498D01*
X124730261Y-104166510D01*
X124699500Y-104321153D01*
X114400934Y-104321153D01*
X114372322Y-100160233D01*
X114391545Y-100093061D01*
X114444033Y-100046945D01*
X114513122Y-100036526D01*
X114557523Y-100052376D01*
X114557706Y-100052018D01*
X114560485Y-100053434D01*
X114561118Y-100053660D01*
X114562043Y-100054227D01*
X114562047Y-100054230D01*
X114562051Y-100054232D01*
X114759511Y-100154843D01*
X114759513Y-100154843D01*
X114759516Y-100154845D01*
X114842281Y-100181737D01*
X114970292Y-100223331D01*
X115189183Y-100258000D01*
X115189188Y-100258000D01*
X115410817Y-100258000D01*
X115629707Y-100223331D01*
X115663044Y-100212499D01*
X115840484Y-100154845D01*
X116037953Y-100054230D01*
X116217251Y-99923962D01*
X116373962Y-99767251D01*
X116504230Y-99587953D01*
X116604845Y-99390484D01*
X116673331Y-99179707D01*
X116674224Y-99174068D01*
X116708000Y-98960817D01*
X116708000Y-98739182D01*
X116673331Y-98520292D01*
X116631508Y-98391577D01*
X116604845Y-98309516D01*
X116604843Y-98309513D01*
X116604843Y-98309511D01*
X116544614Y-98191305D01*
X116504230Y-98112047D01*
X116373962Y-97932749D01*
X116217251Y-97776038D01*
X116037953Y-97645770D01*
X116030048Y-97641742D01*
X115840488Y-97545156D01*
X115629707Y-97476668D01*
X115410817Y-97442000D01*
X115410812Y-97442000D01*
X115189188Y-97442000D01*
X115189183Y-97442000D01*
X114970292Y-97476668D01*
X114759511Y-97545156D01*
X114562044Y-97645771D01*
X114551276Y-97653594D01*
X114485468Y-97677069D01*
X114417415Y-97661239D01*
X114368723Y-97611130D01*
X114354401Y-97554131D01*
X114310265Y-91135512D01*
X114329488Y-91068340D01*
X114381976Y-91022223D01*
X114451065Y-91011805D01*
X114507146Y-91034342D01*
X114562047Y-91074230D01*
X114635194Y-91111500D01*
X114759511Y-91174843D01*
X114759513Y-91174843D01*
X114759516Y-91174845D01*
X114850252Y-91204327D01*
X114970292Y-91243331D01*
X115189183Y-91278000D01*
X115189188Y-91278000D01*
X115410817Y-91278000D01*
X115629707Y-91243331D01*
X115840484Y-91174845D01*
X116037953Y-91074230D01*
X116217251Y-90943962D01*
X116373962Y-90787251D01*
X116504230Y-90607953D01*
X116604845Y-90410484D01*
X116673331Y-90199707D01*
X116681625Y-90147339D01*
X116708000Y-89980817D01*
X116708000Y-89759182D01*
X116673331Y-89540292D01*
X116604843Y-89329511D01*
X116507444Y-89138355D01*
X116504230Y-89132047D01*
X116373962Y-88952749D01*
X116217251Y-88796038D01*
X116037953Y-88665770D01*
X115999215Y-88646032D01*
X115840488Y-88565156D01*
X115629707Y-88496668D01*
X115410817Y-88462000D01*
X115410812Y-88462000D01*
X115189188Y-88462000D01*
X115189183Y-88462000D01*
X114970292Y-88496668D01*
X114759511Y-88565156D01*
X114562043Y-88665772D01*
X114489841Y-88718230D01*
X114424035Y-88741710D01*
X114355981Y-88725884D01*
X114307286Y-88675779D01*
X114292959Y-88618765D01*
X114292590Y-88565156D01*
X114200000Y-75100000D01*
X114139905Y-66984032D01*
X114159093Y-66916852D01*
X114211557Y-66870707D01*
X114263068Y-66859120D01*
X116374674Y-66844995D01*
X116441840Y-66864230D01*
G37*
%TD.AperFunction*%
%TA.AperFunction,Conductor*%
G36*
X191841037Y-66370185D02*
G01*
X191886792Y-66422989D01*
X191897994Y-66473668D01*
X191906149Y-67692801D01*
X191921279Y-69954729D01*
X191902044Y-70021898D01*
X191849547Y-70068005D01*
X191780456Y-70078411D01*
X191756330Y-70072600D01*
X191742623Y-70067804D01*
X191704332Y-70054405D01*
X191704322Y-70054403D01*
X191446554Y-70005631D01*
X191446544Y-70005630D01*
X191446543Y-70005630D01*
X191337392Y-69999500D01*
X188662608Y-69999500D01*
X188553457Y-70005630D01*
X188553456Y-70005630D01*
X188553445Y-70005631D01*
X188295677Y-70054403D01*
X188295672Y-70054404D01*
X188256803Y-70068005D01*
X188048026Y-70141059D01*
X188048024Y-70141059D01*
X188048021Y-70141061D01*
X187816071Y-70263651D01*
X187604968Y-70419450D01*
X187419450Y-70604968D01*
X187263651Y-70816071D01*
X187141061Y-71048021D01*
X187141059Y-71048024D01*
X187141059Y-71048026D01*
X187097732Y-71171846D01*
X187054404Y-71295672D01*
X187054403Y-71295677D01*
X187005631Y-71553445D01*
X187005630Y-71553456D01*
X187005630Y-71553457D01*
X187002312Y-71612547D01*
X186999500Y-71662610D01*
X186999500Y-79337389D01*
X187005630Y-79446541D01*
X187005631Y-79446554D01*
X187054403Y-79704322D01*
X187054404Y-79704327D01*
X187054405Y-79704332D01*
X187054406Y-79704333D01*
X187141059Y-79951974D01*
X187263654Y-80183933D01*
X187419450Y-80395031D01*
X187604969Y-80580550D01*
X187816067Y-80736346D01*
X188048026Y-80858941D01*
X188295667Y-80945594D01*
X188295671Y-80945594D01*
X188295672Y-80945595D01*
X188295677Y-80945596D01*
X188553445Y-80994368D01*
X188553447Y-80994368D01*
X188553457Y-80994370D01*
X188662608Y-81000500D01*
X188662625Y-81000500D01*
X191337375Y-81000500D01*
X191337392Y-81000500D01*
X191446543Y-80994370D01*
X191519738Y-80980521D01*
X191704322Y-80945596D01*
X191704333Y-80945594D01*
X191830333Y-80901504D01*
X191900109Y-80897944D01*
X191960736Y-80932673D01*
X191992964Y-80994666D01*
X191995282Y-81017717D01*
X191998386Y-81481709D01*
X191979151Y-81548879D01*
X191926654Y-81594986D01*
X191857563Y-81605392D01*
X191833441Y-81599582D01*
X191704333Y-81554406D01*
X191704332Y-81554405D01*
X191704327Y-81554404D01*
X191704322Y-81554403D01*
X191446554Y-81505631D01*
X191446544Y-81505630D01*
X191446543Y-81505630D01*
X191337392Y-81499500D01*
X188662608Y-81499500D01*
X188553457Y-81505630D01*
X188553456Y-81505630D01*
X188553445Y-81505631D01*
X188295677Y-81554403D01*
X188295672Y-81554404D01*
X188179696Y-81594986D01*
X188048026Y-81641059D01*
X188048024Y-81641059D01*
X188048021Y-81641061D01*
X187816071Y-81763651D01*
X187604968Y-81919450D01*
X187419450Y-82104968D01*
X187263651Y-82316071D01*
X187141061Y-82548021D01*
X187054404Y-82795672D01*
X187054403Y-82795677D01*
X187005631Y-83053445D01*
X187005630Y-83053456D01*
X187005630Y-83053457D01*
X186999500Y-83162608D01*
X186999500Y-90837392D01*
X187004799Y-90931738D01*
X187005630Y-90946541D01*
X187005631Y-90946554D01*
X187054403Y-91204322D01*
X187054404Y-91204327D01*
X187054405Y-91204332D01*
X187054406Y-91204333D01*
X187141059Y-91451974D01*
X187141060Y-91451977D01*
X187141061Y-91451978D01*
X187260787Y-91678510D01*
X187263654Y-91683933D01*
X187419450Y-91895031D01*
X187604969Y-92080550D01*
X187816067Y-92236346D01*
X188048026Y-92358941D01*
X188295667Y-92445594D01*
X188295671Y-92445594D01*
X188295672Y-92445595D01*
X188295677Y-92445596D01*
X188553445Y-92494368D01*
X188553447Y-92494368D01*
X188553457Y-92494370D01*
X188662608Y-92500500D01*
X188662625Y-92500500D01*
X191337375Y-92500500D01*
X191337392Y-92500500D01*
X191446543Y-92494370D01*
X191472013Y-92489551D01*
X191704322Y-92445596D01*
X191704333Y-92445594D01*
X191907080Y-92374649D01*
X191976856Y-92371089D01*
X192037484Y-92405818D01*
X192069711Y-92467811D01*
X192072029Y-92490863D01*
X192082198Y-94011036D01*
X192062963Y-94078205D01*
X192010466Y-94124312D01*
X191941375Y-94134718D01*
X191917247Y-94128907D01*
X191760524Y-94074068D01*
X191704333Y-94054406D01*
X191704330Y-94054405D01*
X191704322Y-94054403D01*
X191446554Y-94005631D01*
X191446544Y-94005630D01*
X191446543Y-94005630D01*
X191337392Y-93999500D01*
X188662608Y-93999500D01*
X188553457Y-94005630D01*
X188553456Y-94005630D01*
X188553445Y-94005631D01*
X188295677Y-94054403D01*
X188295672Y-94054404D01*
X188227636Y-94078211D01*
X188048026Y-94141059D01*
X188048024Y-94141059D01*
X188048021Y-94141061D01*
X187816071Y-94263651D01*
X187604968Y-94419450D01*
X187419450Y-94604968D01*
X187263651Y-94816071D01*
X187141061Y-95048021D01*
X187141059Y-95048024D01*
X187141059Y-95048026D01*
X187118482Y-95112548D01*
X187054404Y-95295672D01*
X187054403Y-95295677D01*
X187005631Y-95553445D01*
X187005630Y-95553456D01*
X187005630Y-95553457D01*
X186999500Y-95662608D01*
X186999500Y-103337392D01*
X187001847Y-103379179D01*
X187005630Y-103446541D01*
X187005631Y-103446554D01*
X187054403Y-103704322D01*
X187054404Y-103704327D01*
X187054405Y-103704332D01*
X187054406Y-103704333D01*
X187141059Y-103951974D01*
X187141060Y-103951977D01*
X187141061Y-103951978D01*
X187260787Y-104178510D01*
X187263654Y-104183933D01*
X187419450Y-104395031D01*
X187604969Y-104580550D01*
X187816067Y-104736346D01*
X188048026Y-104858941D01*
X188295667Y-104945594D01*
X188295671Y-104945594D01*
X188295672Y-104945595D01*
X188295677Y-104945596D01*
X188553445Y-104994368D01*
X188553447Y-104994368D01*
X188553457Y-104994370D01*
X188662608Y-105000500D01*
X188662625Y-105000500D01*
X191337375Y-105000500D01*
X191337392Y-105000500D01*
X191446543Y-104994370D01*
X191704333Y-104945594D01*
X191951974Y-104858941D01*
X191973474Y-104847577D01*
X192041940Y-104833654D01*
X192107067Y-104858957D01*
X192148175Y-104915454D01*
X192155413Y-104956378D01*
X192162700Y-106045815D01*
X192143465Y-106112984D01*
X192090968Y-106159091D01*
X192021877Y-106169497D01*
X191980763Y-106156274D01*
X191951974Y-106141059D01*
X191704333Y-106054406D01*
X191704332Y-106054405D01*
X191704327Y-106054404D01*
X191704322Y-106054403D01*
X191446554Y-106005631D01*
X191446544Y-106005630D01*
X191446543Y-106005630D01*
X191337392Y-105999500D01*
X188662608Y-105999500D01*
X188553457Y-106005630D01*
X188553456Y-106005630D01*
X188553445Y-106005631D01*
X188295677Y-106054403D01*
X188295672Y-106054404D01*
X188196671Y-106089046D01*
X188048026Y-106141059D01*
X188048024Y-106141059D01*
X188048021Y-106141061D01*
X187816071Y-106263651D01*
X187604968Y-106419450D01*
X187419450Y-106604968D01*
X187263651Y-106816071D01*
X187141061Y-107048021D01*
X187141059Y-107048024D01*
X187141059Y-107048026D01*
X187106843Y-107145811D01*
X187054404Y-107295672D01*
X187054403Y-107295677D01*
X187005631Y-107553445D01*
X187005630Y-107553458D01*
X186999500Y-107662610D01*
X186999500Y-115337389D01*
X187005630Y-115446541D01*
X187005631Y-115446554D01*
X187054403Y-115704322D01*
X187054404Y-115704327D01*
X187054405Y-115704332D01*
X187054406Y-115704333D01*
X187141059Y-115951974D01*
X187263654Y-116183933D01*
X187419450Y-116395031D01*
X187604969Y-116580550D01*
X187816067Y-116736346D01*
X188048026Y-116858941D01*
X188295667Y-116945594D01*
X188295671Y-116945594D01*
X188295672Y-116945595D01*
X188295677Y-116945596D01*
X188553445Y-116994368D01*
X188553447Y-116994368D01*
X188553457Y-116994370D01*
X188662608Y-117000500D01*
X188662625Y-117000500D01*
X191337375Y-117000500D01*
X191337392Y-117000500D01*
X191446543Y-116994370D01*
X191704333Y-116945594D01*
X191951974Y-116858941D01*
X192053466Y-116805300D01*
X192121931Y-116791379D01*
X192187057Y-116816683D01*
X192228165Y-116873180D01*
X192235402Y-116914102D01*
X192303035Y-127024874D01*
X192283800Y-127092043D01*
X192231303Y-127138150D01*
X192179839Y-127149700D01*
X138625300Y-127495806D01*
X138558135Y-127476556D01*
X138512040Y-127424048D01*
X138500499Y-127371809D01*
X138500499Y-126685791D01*
X138500498Y-126685783D01*
X138490096Y-126553588D01*
X138435096Y-126335317D01*
X138342007Y-126130374D01*
X138213819Y-125945346D01*
X138054654Y-125786181D01*
X138054650Y-125786178D01*
X138054645Y-125786174D01*
X137869632Y-125657997D01*
X137869630Y-125657995D01*
X137869626Y-125657993D01*
X137766114Y-125610976D01*
X137664681Y-125564903D01*
X137664678Y-125564902D01*
X137446420Y-125509905D01*
X137446413Y-125509904D01*
X137314222Y-125499500D01*
X137314217Y-125499500D01*
X133900098Y-125499500D01*
X133833059Y-125479815D01*
X133812417Y-125463181D01*
X131273416Y-122924181D01*
X131239931Y-122862858D01*
X131244915Y-122793166D01*
X131286787Y-122737233D01*
X131335134Y-122715249D01*
X131347972Y-122712500D01*
X131368842Y-122712500D01*
X131523497Y-122681737D01*
X131557590Y-122667615D01*
X131568641Y-122665249D01*
X131577464Y-122665908D01*
X131594604Y-122662500D01*
X140485396Y-122662500D01*
X140532844Y-122671937D01*
X140556503Y-122681737D01*
X140556508Y-122681738D01*
X140556511Y-122681739D01*
X140711153Y-122712499D01*
X140711156Y-122712500D01*
X140711158Y-122712500D01*
X140868844Y-122712500D01*
X140868845Y-122712499D01*
X141023497Y-122681737D01*
X141169179Y-122621394D01*
X141300289Y-122533789D01*
X141411789Y-122422289D01*
X141499394Y-122291179D01*
X141503238Y-122281900D01*
X141559735Y-122145501D01*
X141559737Y-122145497D01*
X141590500Y-121990842D01*
X141590500Y-121833158D01*
X141590500Y-121833155D01*
X141590499Y-121833153D01*
X141559737Y-121678503D01*
X141559735Y-121678498D01*
X141499397Y-121532827D01*
X141499390Y-121532814D01*
X141411789Y-121401711D01*
X141411786Y-121401707D01*
X141300292Y-121290213D01*
X141300288Y-121290210D01*
X141169185Y-121202609D01*
X141169172Y-121202602D01*
X141023501Y-121142264D01*
X141023489Y-121142261D01*
X140868845Y-121111500D01*
X140868842Y-121111500D01*
X140711158Y-121111500D01*
X140711155Y-121111500D01*
X140556511Y-121142260D01*
X140556506Y-121142262D01*
X140556504Y-121142262D01*
X140556503Y-121142263D01*
X140532844Y-121152062D01*
X140485396Y-121161500D01*
X131594604Y-121161500D01*
X131547155Y-121152062D01*
X131523497Y-121142263D01*
X131523493Y-121142262D01*
X131523488Y-121142260D01*
X131368845Y-121111500D01*
X131368842Y-121111500D01*
X131211158Y-121111500D01*
X131211155Y-121111500D01*
X131056510Y-121142261D01*
X131056498Y-121142264D01*
X130910827Y-121202602D01*
X130910814Y-121202609D01*
X130779711Y-121290210D01*
X130779707Y-121290213D01*
X130668213Y-121401707D01*
X130668210Y-121401711D01*
X130580609Y-121532814D01*
X130580602Y-121532827D01*
X130520264Y-121678498D01*
X130520261Y-121678510D01*
X130489500Y-121833153D01*
X130489500Y-121840902D01*
X130483261Y-121862147D01*
X130481682Y-121884236D01*
X130473609Y-121895019D01*
X130469815Y-121907941D01*
X130453081Y-121922440D01*
X130439810Y-121940169D01*
X130427189Y-121944876D01*
X130417011Y-121953696D01*
X130395093Y-121956847D01*
X130374346Y-121964586D01*
X130361185Y-121961723D01*
X130347853Y-121963640D01*
X130327709Y-121954440D01*
X130306073Y-121949734D01*
X130288347Y-121936465D01*
X130284297Y-121934615D01*
X130277819Y-121928583D01*
X130136819Y-121787583D01*
X130103334Y-121726260D01*
X130100500Y-121699902D01*
X130100500Y-121300096D01*
X130120185Y-121233057D01*
X130136814Y-121212420D01*
X132368713Y-118980521D01*
X132368716Y-118980520D01*
X132480520Y-118868716D01*
X132530639Y-118781904D01*
X132559577Y-118731785D01*
X132600501Y-118579057D01*
X132600501Y-118420943D01*
X132600501Y-118413348D01*
X132600500Y-118413330D01*
X132600500Y-115411421D01*
X161374500Y-115411421D01*
X161374500Y-115588578D01*
X161402214Y-115763556D01*
X161456956Y-115932039D01*
X161456957Y-115932042D01*
X161537386Y-116089890D01*
X161641517Y-116233214D01*
X161766786Y-116358483D01*
X161910110Y-116462614D01*
X161987529Y-116502061D01*
X162067957Y-116543042D01*
X162067960Y-116543043D01*
X162152201Y-116570414D01*
X162236444Y-116597786D01*
X162411421Y-116625500D01*
X162411422Y-116625500D01*
X162588578Y-116625500D01*
X162588579Y-116625500D01*
X162763556Y-116597786D01*
X162932042Y-116543042D01*
X163089890Y-116462614D01*
X163233214Y-116358483D01*
X163358483Y-116233214D01*
X182858483Y-96733214D01*
X182889148Y-96691007D01*
X182962614Y-96589890D01*
X183020609Y-96476069D01*
X183043042Y-96432043D01*
X183076993Y-96327551D01*
X183097784Y-96263563D01*
X183097785Y-96263558D01*
X183097786Y-96263556D01*
X183104417Y-96221687D01*
X183125500Y-96088579D01*
X183125500Y-68911421D01*
X183097786Y-68736445D01*
X183043042Y-68567958D01*
X183043042Y-68567957D01*
X182962613Y-68410109D01*
X182858483Y-68266786D01*
X182733214Y-68141517D01*
X182589890Y-68037386D01*
X182432042Y-67956957D01*
X182432039Y-67956956D01*
X182263556Y-67902214D01*
X182176067Y-67888357D01*
X182088579Y-67874500D01*
X181911421Y-67874500D01*
X181853095Y-67883738D01*
X181736443Y-67902214D01*
X181567960Y-67956956D01*
X181567957Y-67956957D01*
X181410109Y-68037386D01*
X181328338Y-68096796D01*
X181266786Y-68141517D01*
X181266784Y-68141519D01*
X181266783Y-68141519D01*
X181141519Y-68266783D01*
X181141519Y-68266784D01*
X181141517Y-68266786D01*
X181096796Y-68328338D01*
X181037386Y-68410109D01*
X180956957Y-68567957D01*
X180956956Y-68567960D01*
X180902214Y-68736443D01*
X180874500Y-68911421D01*
X180874500Y-95482441D01*
X180854815Y-95549480D01*
X180838181Y-95570122D01*
X161641519Y-114766783D01*
X161641519Y-114766784D01*
X161641517Y-114766786D01*
X161596796Y-114828338D01*
X161537386Y-114910109D01*
X161456957Y-115067957D01*
X161456956Y-115067960D01*
X161402214Y-115236443D01*
X161374500Y-115411421D01*
X132600500Y-115411421D01*
X132600500Y-111333153D01*
X133489500Y-111333153D01*
X133489500Y-111490846D01*
X133520261Y-111645489D01*
X133520264Y-111645501D01*
X133580602Y-111791172D01*
X133580609Y-111791185D01*
X133668210Y-111922288D01*
X133668213Y-111922292D01*
X133779707Y-112033786D01*
X133779711Y-112033789D01*
X133910814Y-112121390D01*
X133910827Y-112121397D01*
X134056498Y-112181735D01*
X134056503Y-112181737D01*
X134211153Y-112212499D01*
X134211156Y-112212500D01*
X134211158Y-112212500D01*
X134368844Y-112212500D01*
X134368845Y-112212499D01*
X134523497Y-112181737D01*
X134669179Y-112121394D01*
X134726044Y-112083397D01*
X134792721Y-112062520D01*
X134794935Y-112062500D01*
X135969192Y-112062500D01*
X136036231Y-112082185D01*
X136056873Y-112098819D01*
X137472983Y-113514929D01*
X137506468Y-113576252D01*
X137506919Y-113578418D01*
X137520261Y-113645491D01*
X137520263Y-113645499D01*
X137580602Y-113791172D01*
X137580609Y-113791185D01*
X137668210Y-113922288D01*
X137668213Y-113922292D01*
X137779707Y-114033786D01*
X137779711Y-114033789D01*
X137910814Y-114121390D01*
X137910827Y-114121397D01*
X138056498Y-114181735D01*
X138056503Y-114181737D01*
X138211153Y-114212499D01*
X138211156Y-114212500D01*
X138211158Y-114212500D01*
X138368844Y-114212500D01*
X138368845Y-114212499D01*
X138523497Y-114181737D01*
X138669179Y-114121394D01*
X138800289Y-114033789D01*
X138911789Y-113922289D01*
X138999394Y-113791179D01*
X139059737Y-113645497D01*
X139090500Y-113490842D01*
X139090500Y-113333158D01*
X139090500Y-113333155D01*
X139090499Y-113333153D01*
X139059738Y-113178510D01*
X139059737Y-113178503D01*
X139059735Y-113178498D01*
X138999397Y-113032827D01*
X138999390Y-113032814D01*
X138911789Y-112901711D01*
X138911786Y-112901707D01*
X138800292Y-112790213D01*
X138800288Y-112790210D01*
X138669185Y-112702609D01*
X138669172Y-112702602D01*
X138523499Y-112642263D01*
X138523491Y-112642261D01*
X138456418Y-112628919D01*
X138394507Y-112596534D01*
X138392929Y-112594983D01*
X136704674Y-110906727D01*
X136704673Y-110906726D01*
X136704669Y-110906723D01*
X136598127Y-110835535D01*
X136479744Y-110786499D01*
X136479738Y-110786497D01*
X136354071Y-110761500D01*
X136354069Y-110761500D01*
X134794935Y-110761500D01*
X134727896Y-110741815D01*
X134726090Y-110740633D01*
X134669179Y-110702606D01*
X134669172Y-110702602D01*
X134523501Y-110642264D01*
X134523489Y-110642261D01*
X134368845Y-110611500D01*
X134368842Y-110611500D01*
X134211158Y-110611500D01*
X134211155Y-110611500D01*
X134056510Y-110642261D01*
X134056498Y-110642264D01*
X133910827Y-110702602D01*
X133910814Y-110702609D01*
X133779711Y-110790210D01*
X133779707Y-110790213D01*
X133668213Y-110901707D01*
X133668210Y-110901711D01*
X133580609Y-111032814D01*
X133580602Y-111032827D01*
X133520264Y-111178498D01*
X133520261Y-111178510D01*
X133489500Y-111333153D01*
X132600500Y-111333153D01*
X132600500Y-107212850D01*
X132620185Y-107145811D01*
X132672989Y-107100056D01*
X132742147Y-107090112D01*
X132793394Y-107109750D01*
X132810815Y-107121391D01*
X132810826Y-107121397D01*
X132956497Y-107181735D01*
X132956502Y-107181737D01*
X133111152Y-107212499D01*
X133111155Y-107212500D01*
X133111157Y-107212500D01*
X133268843Y-107212500D01*
X133268844Y-107212499D01*
X133423496Y-107181737D01*
X133569178Y-107121394D01*
X133569184Y-107121390D01*
X133700872Y-107033399D01*
X133767549Y-107012521D01*
X133769763Y-107012501D01*
X133869054Y-107012501D01*
X133869057Y-107012501D01*
X134021785Y-106971577D01*
X134071904Y-106942639D01*
X134158716Y-106892520D01*
X134270520Y-106780716D01*
X134270520Y-106780714D01*
X134280728Y-106770507D01*
X134280729Y-106770504D01*
X135404663Y-105646571D01*
X135465984Y-105613088D01*
X135468151Y-105612637D01*
X135526086Y-105601112D01*
X135623498Y-105581736D01*
X135769180Y-105521393D01*
X135900290Y-105433788D01*
X136011790Y-105322288D01*
X136099395Y-105191178D01*
X136159738Y-105045496D01*
X136190501Y-104890841D01*
X136190501Y-104733157D01*
X136190501Y-104733154D01*
X136190500Y-104733152D01*
X136170677Y-104633497D01*
X136159738Y-104578502D01*
X136123429Y-104490843D01*
X136099398Y-104432826D01*
X136099391Y-104432813D01*
X136011790Y-104301710D01*
X136011787Y-104301706D01*
X135900293Y-104190212D01*
X135900289Y-104190209D01*
X135769186Y-104102608D01*
X135769173Y-104102601D01*
X135623502Y-104042263D01*
X135623490Y-104042260D01*
X135468846Y-104011499D01*
X135468843Y-104011499D01*
X135311159Y-104011499D01*
X135311156Y-104011499D01*
X135156511Y-104042260D01*
X135156504Y-104042262D01*
X135130856Y-104052885D01*
X135101015Y-104056091D01*
X135071542Y-104061753D01*
X135066638Y-104059786D01*
X135061386Y-104060351D01*
X135034549Y-104046916D01*
X135006693Y-104035744D01*
X135003631Y-104031438D01*
X134998908Y-104029074D01*
X134983596Y-104003265D01*
X134966201Y-103978804D01*
X134965952Y-103973526D01*
X134963258Y-103968984D01*
X134964330Y-103938993D01*
X134962921Y-103909011D01*
X134965601Y-103903421D01*
X134965754Y-103899159D01*
X134976059Y-103876254D01*
X134980276Y-103868959D01*
X134980520Y-103868716D01*
X135049349Y-103749500D01*
X135059577Y-103731785D01*
X135100501Y-103579057D01*
X135100501Y-103579054D01*
X135101562Y-103570997D01*
X135103018Y-103571188D01*
X135120186Y-103512725D01*
X135121399Y-103510873D01*
X135209390Y-103379185D01*
X135209390Y-103379184D01*
X135209394Y-103379179D01*
X135269737Y-103233497D01*
X135300500Y-103078842D01*
X135300500Y-102921158D01*
X135300500Y-102921155D01*
X135300499Y-102921153D01*
X135295628Y-102896666D01*
X135269737Y-102766503D01*
X135269732Y-102766492D01*
X135267969Y-102760676D01*
X135270720Y-102759841D01*
X135264497Y-102702641D01*
X135295691Y-102640122D01*
X135355734Y-102604392D01*
X135386555Y-102600500D01*
X139413331Y-102600500D01*
X139413347Y-102600501D01*
X139420943Y-102600501D01*
X139579054Y-102600501D01*
X139579057Y-102600501D01*
X139731785Y-102559577D01*
X139781904Y-102530639D01*
X139868716Y-102480520D01*
X139928083Y-102421153D01*
X140699500Y-102421153D01*
X140699500Y-102578846D01*
X140730261Y-102733489D01*
X140730264Y-102733501D01*
X140790602Y-102879172D01*
X140790609Y-102879185D01*
X140878210Y-103010288D01*
X140878213Y-103010292D01*
X140989707Y-103121786D01*
X140989711Y-103121789D01*
X141120817Y-103209392D01*
X141120819Y-103209393D01*
X141120821Y-103209394D01*
X141138409Y-103216679D01*
X141192812Y-103260520D01*
X141214877Y-103326814D01*
X141212573Y-103355431D01*
X141199500Y-103421153D01*
X141199500Y-103578846D01*
X141230261Y-103733489D01*
X141230264Y-103733501D01*
X141290602Y-103879172D01*
X141290609Y-103879185D01*
X141378210Y-104010288D01*
X141378213Y-104010292D01*
X141489707Y-104121786D01*
X141489711Y-104121789D01*
X141620814Y-104209390D01*
X141620827Y-104209397D01*
X141766498Y-104269735D01*
X141766503Y-104269737D01*
X141921153Y-104300499D01*
X141921156Y-104300500D01*
X141921158Y-104300500D01*
X142078844Y-104300500D01*
X142078845Y-104300499D01*
X142233497Y-104269737D01*
X142379179Y-104209394D01*
X142407890Y-104190210D01*
X142510875Y-104121398D01*
X142577553Y-104100520D01*
X142579766Y-104100500D01*
X160563331Y-104100500D01*
X160563347Y-104100501D01*
X160570943Y-104100501D01*
X160729054Y-104100501D01*
X160729057Y-104100501D01*
X160881785Y-104059577D01*
X160965058Y-104011499D01*
X161018716Y-103980520D01*
X161130520Y-103868716D01*
X161130520Y-103868714D01*
X161140724Y-103858511D01*
X161140727Y-103858506D01*
X169464662Y-95534572D01*
X169525983Y-95501089D01*
X169528150Y-95500638D01*
X169586085Y-95489113D01*
X169683497Y-95469737D01*
X169829179Y-95409394D01*
X169960289Y-95321789D01*
X170071789Y-95210289D01*
X170159394Y-95079179D01*
X170160090Y-95077500D01*
X170184123Y-95019478D01*
X170219737Y-94933497D01*
X170250500Y-94778842D01*
X170250500Y-94621158D01*
X170250500Y-94621155D01*
X170250499Y-94621153D01*
X170237091Y-94553746D01*
X170219737Y-94466503D01*
X170207074Y-94435931D01*
X170159397Y-94320827D01*
X170159390Y-94320814D01*
X170071789Y-94189711D01*
X170071786Y-94189707D01*
X169960292Y-94078213D01*
X169960288Y-94078210D01*
X169829185Y-93990609D01*
X169829172Y-93990602D01*
X169683501Y-93930264D01*
X169683489Y-93930261D01*
X169528845Y-93899500D01*
X169528842Y-93899500D01*
X169371158Y-93899500D01*
X169371155Y-93899500D01*
X169216510Y-93930261D01*
X169216498Y-93930264D01*
X169070827Y-93990602D01*
X169070814Y-93990609D01*
X168939711Y-94078210D01*
X168939707Y-94078213D01*
X168828213Y-94189707D01*
X168828210Y-94189711D01*
X168740609Y-94320814D01*
X168740602Y-94320827D01*
X168680264Y-94466498D01*
X168680261Y-94466508D01*
X168649361Y-94621850D01*
X168616976Y-94683761D01*
X168615425Y-94685339D01*
X160437584Y-102863181D01*
X160376261Y-102896666D01*
X160349903Y-102899500D01*
X144886555Y-102899500D01*
X144819516Y-102879815D01*
X144773761Y-102827011D01*
X144763817Y-102757853D01*
X144768840Y-102739588D01*
X144767969Y-102739324D01*
X144769731Y-102733509D01*
X144769737Y-102733497D01*
X144800500Y-102578842D01*
X144800500Y-102421158D01*
X144800500Y-102421155D01*
X144800499Y-102421153D01*
X144790361Y-102370185D01*
X144769737Y-102266503D01*
X144754833Y-102230521D01*
X144709397Y-102120827D01*
X144709390Y-102120814D01*
X144621789Y-101989711D01*
X144621786Y-101989707D01*
X144510292Y-101878213D01*
X144510288Y-101878210D01*
X144379185Y-101790609D01*
X144379172Y-101790602D01*
X144233501Y-101730264D01*
X144233489Y-101730261D01*
X144078845Y-101699500D01*
X144078842Y-101699500D01*
X143921158Y-101699500D01*
X143921155Y-101699500D01*
X143766510Y-101730261D01*
X143766498Y-101730264D01*
X143620827Y-101790602D01*
X143620814Y-101790609D01*
X143489125Y-101878602D01*
X143422447Y-101899480D01*
X143420234Y-101899500D01*
X142079766Y-101899500D01*
X142012727Y-101879815D01*
X142010875Y-101878602D01*
X141879185Y-101790609D01*
X141879172Y-101790602D01*
X141733501Y-101730264D01*
X141733489Y-101730261D01*
X141578845Y-101699500D01*
X141578842Y-101699500D01*
X141421158Y-101699500D01*
X141421155Y-101699500D01*
X141266510Y-101730261D01*
X141266498Y-101730264D01*
X141120827Y-101790602D01*
X141120814Y-101790609D01*
X140989711Y-101878210D01*
X140989707Y-101878213D01*
X140878213Y-101989707D01*
X140878210Y-101989711D01*
X140790609Y-102120814D01*
X140790602Y-102120827D01*
X140730264Y-102266498D01*
X140730261Y-102266510D01*
X140699500Y-102421153D01*
X139928083Y-102421153D01*
X139980520Y-102368716D01*
X139980520Y-102368714D01*
X139990728Y-102358507D01*
X139990729Y-102358504D01*
X140980520Y-101368716D01*
X141059577Y-101231784D01*
X141070128Y-101192404D01*
X141106494Y-101132746D01*
X141169341Y-101102217D01*
X141189903Y-101100500D01*
X142211859Y-101100500D01*
X142211875Y-101100501D01*
X142219471Y-101100501D01*
X142377582Y-101100501D01*
X142377585Y-101100501D01*
X142530313Y-101059577D01*
X142602106Y-101018127D01*
X142667244Y-100980520D01*
X142779048Y-100868716D01*
X142779048Y-100868714D01*
X142789252Y-100858511D01*
X142789255Y-100858506D01*
X144737656Y-98910106D01*
X144798977Y-98876623D01*
X144801063Y-98876188D01*
X144833497Y-98869737D01*
X144979179Y-98809394D01*
X145110289Y-98721789D01*
X145221789Y-98610289D01*
X145309394Y-98479179D01*
X145315302Y-98464917D01*
X145339101Y-98407459D01*
X145369737Y-98333497D01*
X145400500Y-98178842D01*
X145400500Y-98021158D01*
X145400500Y-98021155D01*
X145400499Y-98021153D01*
X145382914Y-97932747D01*
X145369737Y-97866503D01*
X145366538Y-97858780D01*
X145309397Y-97720827D01*
X145309390Y-97720814D01*
X145221789Y-97589711D01*
X145221786Y-97589707D01*
X145110292Y-97478213D01*
X145110288Y-97478210D01*
X144979185Y-97390609D01*
X144979172Y-97390602D01*
X144833501Y-97330264D01*
X144833489Y-97330261D01*
X144678845Y-97299500D01*
X144678842Y-97299500D01*
X144521158Y-97299500D01*
X144498690Y-97303969D01*
X144429099Y-97297740D01*
X144373922Y-97254877D01*
X144350678Y-97188987D01*
X144350500Y-97182351D01*
X144350500Y-96650568D01*
X144370185Y-96583529D01*
X144422989Y-96537774D01*
X144492147Y-96527830D01*
X144555703Y-96556855D01*
X144562175Y-96562881D01*
X144891813Y-96892520D01*
X144891815Y-96892521D01*
X144891819Y-96892524D01*
X145028738Y-96971573D01*
X145028741Y-96971575D01*
X145028745Y-96971577D01*
X145181472Y-97012501D01*
X145181474Y-97012501D01*
X145347183Y-97012501D01*
X145347199Y-97012500D01*
X146370234Y-97012500D01*
X146437273Y-97032185D01*
X146439125Y-97033398D01*
X146570814Y-97121390D01*
X146570827Y-97121397D01*
X146698524Y-97174290D01*
X146716503Y-97181737D01*
X146835419Y-97205391D01*
X146871153Y-97212499D01*
X146871156Y-97212500D01*
X146871158Y-97212500D01*
X147028844Y-97212500D01*
X147028845Y-97212499D01*
X147183497Y-97181737D01*
X147329179Y-97121394D01*
X147362881Y-97098875D01*
X147460875Y-97033398D01*
X147527553Y-97012520D01*
X147529766Y-97012500D01*
X151710234Y-97012500D01*
X151777273Y-97032185D01*
X151779125Y-97033398D01*
X151910814Y-97121390D01*
X151910827Y-97121397D01*
X152038524Y-97174290D01*
X152056503Y-97181737D01*
X152175419Y-97205391D01*
X152211153Y-97212499D01*
X152211156Y-97212500D01*
X152211158Y-97212500D01*
X152368844Y-97212500D01*
X152368845Y-97212499D01*
X152523497Y-97181737D01*
X152669179Y-97121394D01*
X152702881Y-97098875D01*
X152800875Y-97033398D01*
X152867553Y-97012520D01*
X152869766Y-97012500D01*
X153203331Y-97012500D01*
X153203347Y-97012501D01*
X153210943Y-97012501D01*
X153369054Y-97012501D01*
X153369057Y-97012501D01*
X153521785Y-96971577D01*
X153586887Y-96933990D01*
X153658716Y-96892520D01*
X153770520Y-96780716D01*
X153770520Y-96780714D01*
X153780724Y-96770511D01*
X153780727Y-96770506D01*
X155804662Y-94746572D01*
X155865983Y-94713089D01*
X155868150Y-94712638D01*
X155926085Y-94701113D01*
X156023497Y-94681737D01*
X156136166Y-94635067D01*
X156169172Y-94621397D01*
X156169172Y-94621396D01*
X156169179Y-94621394D01*
X156300289Y-94533789D01*
X156411789Y-94422289D01*
X156499394Y-94291179D01*
X156559737Y-94145497D01*
X156590500Y-93990842D01*
X156590500Y-93833158D01*
X156590500Y-93833155D01*
X156590499Y-93833153D01*
X156579807Y-93779400D01*
X156559737Y-93678503D01*
X156556692Y-93671151D01*
X156499397Y-93532827D01*
X156499390Y-93532814D01*
X156411789Y-93401711D01*
X156411786Y-93401707D01*
X156300292Y-93290213D01*
X156300288Y-93290210D01*
X156169185Y-93202609D01*
X156169172Y-93202602D01*
X156023501Y-93142264D01*
X156023489Y-93142261D01*
X155868845Y-93111500D01*
X155868842Y-93111500D01*
X155711158Y-93111500D01*
X155711155Y-93111500D01*
X155556510Y-93142261D01*
X155556498Y-93142264D01*
X155410827Y-93202602D01*
X155410814Y-93202609D01*
X155279125Y-93290602D01*
X155212447Y-93311480D01*
X155210234Y-93311500D01*
X154793439Y-93311500D01*
X154726400Y-93291815D01*
X154680645Y-93239011D01*
X154670701Y-93169853D01*
X154699726Y-93106297D01*
X154724548Y-93084398D01*
X154753981Y-93064730D01*
X154800289Y-93033789D01*
X154911789Y-92922289D01*
X154999394Y-92791179D01*
X155059737Y-92645497D01*
X155090500Y-92490842D01*
X155090500Y-92333158D01*
X155090500Y-92333155D01*
X155090499Y-92333153D01*
X155081271Y-92286763D01*
X155059737Y-92178503D01*
X155059735Y-92178498D01*
X154999397Y-92032827D01*
X154999390Y-92032814D01*
X154911789Y-91901711D01*
X154911786Y-91901707D01*
X154800292Y-91790213D01*
X154800288Y-91790210D01*
X154669185Y-91702609D01*
X154669172Y-91702602D01*
X154523501Y-91642264D01*
X154523489Y-91642261D01*
X154368845Y-91611500D01*
X154368842Y-91611500D01*
X154211158Y-91611500D01*
X154211155Y-91611500D01*
X154056510Y-91642261D01*
X154056498Y-91642264D01*
X153910827Y-91702602D01*
X153910814Y-91702609D01*
X153779711Y-91790210D01*
X153779707Y-91790213D01*
X153668213Y-91901707D01*
X153668210Y-91901711D01*
X153580609Y-92032814D01*
X153580601Y-92032829D01*
X153557735Y-92088032D01*
X153513893Y-92142435D01*
X153447599Y-92164499D01*
X153379900Y-92147219D01*
X153355494Y-92128259D01*
X151374574Y-90147339D01*
X151341089Y-90086016D01*
X151340638Y-90083849D01*
X151309738Y-89928510D01*
X151309737Y-89928503D01*
X151289309Y-89879185D01*
X151249397Y-89782827D01*
X151249390Y-89782814D01*
X151161789Y-89651711D01*
X151161786Y-89651707D01*
X151050292Y-89540213D01*
X151050288Y-89540210D01*
X150919185Y-89452609D01*
X150919172Y-89452602D01*
X150773501Y-89392264D01*
X150773491Y-89392261D01*
X150618149Y-89361361D01*
X150556238Y-89328976D01*
X150554660Y-89327425D01*
X149573740Y-88346505D01*
X149540255Y-88285182D01*
X149545239Y-88215490D01*
X149587111Y-88159557D01*
X149613969Y-88144263D01*
X149669172Y-88121397D01*
X149669172Y-88121396D01*
X149669179Y-88121394D01*
X149800289Y-88033789D01*
X149911789Y-87922289D01*
X149999394Y-87791179D01*
X150059737Y-87645497D01*
X150090500Y-87490842D01*
X150090500Y-87333158D01*
X150090500Y-87333155D01*
X150090499Y-87333153D01*
X150059738Y-87178510D01*
X150059737Y-87178503D01*
X150035842Y-87120814D01*
X149999397Y-87032827D01*
X149999390Y-87032814D01*
X149911789Y-86901711D01*
X149911786Y-86901707D01*
X149800292Y-86790213D01*
X149800288Y-86790210D01*
X149669185Y-86702609D01*
X149669172Y-86702602D01*
X149523501Y-86642264D01*
X149523491Y-86642261D01*
X149368149Y-86611361D01*
X149306238Y-86578976D01*
X149304660Y-86577425D01*
X148624574Y-85897339D01*
X148591089Y-85836016D01*
X148590638Y-85833849D01*
X148559738Y-85678510D01*
X148559737Y-85678503D01*
X148559735Y-85678498D01*
X148499397Y-85532827D01*
X148499390Y-85532814D01*
X148411789Y-85401711D01*
X148411786Y-85401707D01*
X148300292Y-85290213D01*
X148300288Y-85290210D01*
X148169185Y-85202609D01*
X148169172Y-85202602D01*
X148023501Y-85142264D01*
X148023489Y-85142261D01*
X147868845Y-85111500D01*
X147868842Y-85111500D01*
X147711158Y-85111500D01*
X147711155Y-85111500D01*
X147556510Y-85142261D01*
X147556498Y-85142264D01*
X147410827Y-85202602D01*
X147410814Y-85202609D01*
X147279711Y-85290210D01*
X147279707Y-85290213D01*
X147168213Y-85401707D01*
X147168210Y-85401711D01*
X147080609Y-85532814D01*
X147080602Y-85532827D01*
X147020264Y-85678498D01*
X147020261Y-85678510D01*
X146989500Y-85833153D01*
X146989500Y-85990846D01*
X147020261Y-86145489D01*
X147020264Y-86145501D01*
X147080602Y-86291172D01*
X147080609Y-86291185D01*
X147168602Y-86422874D01*
X147189480Y-86489551D01*
X147189500Y-86491765D01*
X147189500Y-87325330D01*
X147189499Y-87325348D01*
X147189499Y-87491054D01*
X147189498Y-87491054D01*
X147189499Y-87491057D01*
X147230423Y-87643785D01*
X147250468Y-87678503D01*
X147282221Y-87733501D01*
X147309479Y-87780715D01*
X147428349Y-87899585D01*
X147428355Y-87899590D01*
X149705425Y-90176660D01*
X149738910Y-90237983D01*
X149739361Y-90240149D01*
X149770261Y-90395491D01*
X149770264Y-90395501D01*
X149830602Y-90541172D01*
X149830609Y-90541185D01*
X149918210Y-90672288D01*
X149918213Y-90672292D01*
X150029707Y-90783786D01*
X150029711Y-90783789D01*
X150160814Y-90871390D01*
X150160827Y-90871397D01*
X150306498Y-90931735D01*
X150306503Y-90931737D01*
X150367947Y-90943959D01*
X150461849Y-90962638D01*
X150523760Y-90995023D01*
X150525339Y-90996574D01*
X153805139Y-94276374D01*
X153805149Y-94276385D01*
X153809479Y-94280715D01*
X153809480Y-94280716D01*
X153921284Y-94392520D01*
X153996475Y-94435931D01*
X154058215Y-94471577D01*
X154114491Y-94486656D01*
X154123036Y-94490390D01*
X154142950Y-94507080D01*
X154165140Y-94520606D01*
X154169296Y-94529162D01*
X154176585Y-94535271D01*
X154184313Y-94560076D01*
X154195669Y-94583452D01*
X154194539Y-94592896D01*
X154197369Y-94601977D01*
X154190459Y-94627024D01*
X154187375Y-94652828D01*
X154180568Y-94662884D01*
X154178790Y-94669331D01*
X154172225Y-94675210D01*
X154161067Y-94691697D01*
X153077584Y-95775181D01*
X153016261Y-95808666D01*
X152989903Y-95811500D01*
X152869766Y-95811500D01*
X152802727Y-95791815D01*
X152800875Y-95790602D01*
X152669185Y-95702609D01*
X152669172Y-95702602D01*
X152523501Y-95642264D01*
X152523489Y-95642261D01*
X152368845Y-95611500D01*
X152368842Y-95611500D01*
X152211158Y-95611500D01*
X152211155Y-95611500D01*
X152056510Y-95642261D01*
X152056498Y-95642264D01*
X151910827Y-95702602D01*
X151910814Y-95702609D01*
X151779125Y-95790602D01*
X151712447Y-95811480D01*
X151710234Y-95811500D01*
X147529766Y-95811500D01*
X147462727Y-95791815D01*
X147460875Y-95790602D01*
X147329185Y-95702609D01*
X147329172Y-95702602D01*
X147183501Y-95642264D01*
X147183489Y-95642261D01*
X147028845Y-95611500D01*
X147028842Y-95611500D01*
X146871158Y-95611500D01*
X146871155Y-95611500D01*
X146716510Y-95642261D01*
X146716498Y-95642264D01*
X146570827Y-95702602D01*
X146570814Y-95702609D01*
X146439125Y-95790602D01*
X146372447Y-95811480D01*
X146370234Y-95811500D01*
X145560627Y-95811500D01*
X145493588Y-95791815D01*
X145472946Y-95775181D01*
X144934677Y-95236912D01*
X144901192Y-95175589D01*
X144906176Y-95105897D01*
X144919254Y-95080343D01*
X144977513Y-94993154D01*
X145037856Y-94847472D01*
X145064097Y-94715552D01*
X145068757Y-94692125D01*
X145101142Y-94630214D01*
X145102640Y-94628688D01*
X145658713Y-94072615D01*
X145658716Y-94072614D01*
X145770520Y-93960810D01*
X145820639Y-93873998D01*
X145849577Y-93823879D01*
X145890501Y-93671151D01*
X145890501Y-93513037D01*
X145890501Y-93505442D01*
X145890500Y-93505424D01*
X145890500Y-92491765D01*
X145910185Y-92424726D01*
X145911398Y-92422874D01*
X145922795Y-92405818D01*
X145999394Y-92291179D01*
X146059737Y-92145497D01*
X146090500Y-91990842D01*
X146090500Y-91833158D01*
X146090500Y-91833155D01*
X146090499Y-91833153D01*
X146075948Y-91760000D01*
X146059737Y-91678503D01*
X146048473Y-91651309D01*
X145999397Y-91532827D01*
X145999390Y-91532814D01*
X145911789Y-91401711D01*
X145911786Y-91401707D01*
X145800292Y-91290213D01*
X145800288Y-91290210D01*
X145669185Y-91202609D01*
X145669172Y-91202602D01*
X145523501Y-91142264D01*
X145523489Y-91142261D01*
X145368845Y-91111500D01*
X145368842Y-91111500D01*
X145211158Y-91111500D01*
X145211155Y-91111500D01*
X145056510Y-91142261D01*
X145056498Y-91142264D01*
X144910827Y-91202602D01*
X144910814Y-91202609D01*
X144779711Y-91290210D01*
X144779707Y-91290213D01*
X144668213Y-91401707D01*
X144668210Y-91401711D01*
X144580609Y-91532814D01*
X144580602Y-91532827D01*
X144520264Y-91678498D01*
X144520261Y-91678510D01*
X144489500Y-91833153D01*
X144489500Y-91990846D01*
X144520261Y-92145489D01*
X144520264Y-92145501D01*
X144580602Y-92291172D01*
X144580609Y-92291185D01*
X144668602Y-92422874D01*
X144689480Y-92489551D01*
X144689500Y-92491765D01*
X144689500Y-93291997D01*
X144669815Y-93359036D01*
X144653181Y-93379678D01*
X144253458Y-93779400D01*
X144192135Y-93812885D01*
X144189969Y-93813336D01*
X144034627Y-93844236D01*
X144034617Y-93844239D01*
X143888946Y-93904577D01*
X143888933Y-93904584D01*
X143757830Y-93992185D01*
X143757826Y-93992188D01*
X143646332Y-94103682D01*
X143646329Y-94103686D01*
X143558728Y-94234789D01*
X143558721Y-94234802D01*
X143498383Y-94380473D01*
X143498380Y-94380483D01*
X143482188Y-94461887D01*
X143449803Y-94523798D01*
X143392666Y-94557469D01*
X143269691Y-94590421D01*
X143269680Y-94590426D01*
X143132761Y-94669475D01*
X143132753Y-94669481D01*
X143089054Y-94713181D01*
X143027731Y-94746666D01*
X143001373Y-94749500D01*
X140275731Y-94749500D01*
X140243637Y-94745275D01*
X140117586Y-94711499D01*
X139959472Y-94711499D01*
X139951876Y-94711499D01*
X139951860Y-94711500D01*
X139631941Y-94711500D01*
X139564902Y-94691815D01*
X139519147Y-94639011D01*
X139509203Y-94569853D01*
X139538228Y-94506297D01*
X139544260Y-94499819D01*
X139621786Y-94422292D01*
X139621789Y-94422289D01*
X139709394Y-94291179D01*
X139769737Y-94145497D01*
X139800500Y-93990842D01*
X139800500Y-93833158D01*
X139800500Y-93833155D01*
X139800499Y-93833153D01*
X139789807Y-93779400D01*
X139769737Y-93678503D01*
X139766692Y-93671151D01*
X139709397Y-93532828D01*
X139709396Y-93532827D01*
X139709394Y-93532821D01*
X139689434Y-93502949D01*
X139668556Y-93436274D01*
X139687040Y-93368894D01*
X139704850Y-93346383D01*
X140304662Y-92746572D01*
X140365983Y-92713089D01*
X140368150Y-92712638D01*
X140432171Y-92699903D01*
X140523497Y-92681737D01*
X140665435Y-92622945D01*
X140669172Y-92621397D01*
X140669172Y-92621396D01*
X140669179Y-92621394D01*
X140800289Y-92533789D01*
X140911789Y-92422289D01*
X140999394Y-92291179D01*
X141059737Y-92145497D01*
X141090500Y-91990842D01*
X141090500Y-91833158D01*
X141090500Y-91833155D01*
X141090499Y-91833153D01*
X141075948Y-91760000D01*
X141059737Y-91678503D01*
X141048473Y-91651309D01*
X140999397Y-91532827D01*
X140999390Y-91532814D01*
X140911789Y-91401711D01*
X140911786Y-91401707D01*
X140800292Y-91290213D01*
X140800288Y-91290210D01*
X140669185Y-91202609D01*
X140669172Y-91202602D01*
X140523501Y-91142264D01*
X140523489Y-91142261D01*
X140368845Y-91111500D01*
X140368842Y-91111500D01*
X140211158Y-91111500D01*
X140211155Y-91111500D01*
X140056510Y-91142261D01*
X140056498Y-91142264D01*
X139910827Y-91202602D01*
X139910814Y-91202609D01*
X139779711Y-91290210D01*
X139779707Y-91290213D01*
X139668213Y-91401707D01*
X139643102Y-91439289D01*
X139589489Y-91484093D01*
X139520164Y-91492800D01*
X139457137Y-91462645D01*
X139436898Y-91439289D01*
X139411786Y-91401707D01*
X139300292Y-91290213D01*
X139300288Y-91290210D01*
X139169185Y-91202609D01*
X139169172Y-91202602D01*
X139023501Y-91142264D01*
X139023489Y-91142261D01*
X138868845Y-91111500D01*
X138868842Y-91111500D01*
X138711158Y-91111500D01*
X138711155Y-91111500D01*
X138556510Y-91142261D01*
X138556498Y-91142264D01*
X138410827Y-91202602D01*
X138410814Y-91202609D01*
X138279711Y-91290210D01*
X138279707Y-91290213D01*
X138168213Y-91401707D01*
X138168210Y-91401711D01*
X138080609Y-91532814D01*
X138080602Y-91532827D01*
X138020264Y-91678498D01*
X138020261Y-91678508D01*
X137989362Y-91833848D01*
X137956977Y-91895759D01*
X137955426Y-91897337D01*
X137631286Y-92221478D01*
X137519481Y-92333282D01*
X137519479Y-92333285D01*
X137486567Y-92390292D01*
X137486566Y-92390294D01*
X137440423Y-92470214D01*
X137432308Y-92500499D01*
X137399499Y-92622943D01*
X137399499Y-92622945D01*
X137399499Y-92791046D01*
X137399500Y-92791059D01*
X137399500Y-93250903D01*
X137379815Y-93317942D01*
X137327011Y-93363697D01*
X137257853Y-93373641D01*
X137194297Y-93344616D01*
X137187819Y-93338584D01*
X136636819Y-92787584D01*
X136603334Y-92726261D01*
X136600500Y-92699903D01*
X136600500Y-89421153D01*
X139199500Y-89421153D01*
X139199500Y-89578846D01*
X139230261Y-89733489D01*
X139230264Y-89733501D01*
X139290602Y-89879172D01*
X139290609Y-89879185D01*
X139378210Y-90010288D01*
X139378213Y-90010292D01*
X139489707Y-90121786D01*
X139489711Y-90121789D01*
X139620814Y-90209390D01*
X139620827Y-90209397D01*
X139766498Y-90269735D01*
X139766503Y-90269737D01*
X139916055Y-90299485D01*
X139921153Y-90300499D01*
X139921156Y-90300500D01*
X139921158Y-90300500D01*
X140078844Y-90300500D01*
X140078845Y-90300499D01*
X140233497Y-90269737D01*
X140379179Y-90209394D01*
X140472051Y-90147339D01*
X140510875Y-90121398D01*
X140577553Y-90100520D01*
X140579766Y-90100500D01*
X147077903Y-90100500D01*
X147144942Y-90120185D01*
X147165584Y-90136819D01*
X150955425Y-93926660D01*
X150988910Y-93987983D01*
X150989361Y-93990149D01*
X151020261Y-94145491D01*
X151020264Y-94145501D01*
X151080602Y-94291172D01*
X151080609Y-94291185D01*
X151168210Y-94422288D01*
X151168213Y-94422292D01*
X151279707Y-94533786D01*
X151279711Y-94533789D01*
X151410814Y-94621390D01*
X151410827Y-94621397D01*
X151526914Y-94669481D01*
X151556503Y-94681737D01*
X151706126Y-94711499D01*
X151711153Y-94712499D01*
X151711156Y-94712500D01*
X151711158Y-94712500D01*
X151868844Y-94712500D01*
X151868845Y-94712499D01*
X152023497Y-94681737D01*
X152136166Y-94635067D01*
X152169172Y-94621397D01*
X152169172Y-94621396D01*
X152169179Y-94621394D01*
X152300289Y-94533789D01*
X152411789Y-94422289D01*
X152499394Y-94291179D01*
X152559737Y-94145497D01*
X152590500Y-93990842D01*
X152590500Y-93833158D01*
X152590500Y-93833155D01*
X152590499Y-93833153D01*
X152579807Y-93779400D01*
X152559737Y-93678503D01*
X152556692Y-93671151D01*
X152499397Y-93532827D01*
X152499390Y-93532814D01*
X152411789Y-93401711D01*
X152411786Y-93401707D01*
X152300292Y-93290213D01*
X152300288Y-93290210D01*
X152169185Y-93202609D01*
X152169172Y-93202602D01*
X152023501Y-93142264D01*
X152023491Y-93142261D01*
X151868149Y-93111361D01*
X151806238Y-93078976D01*
X151804660Y-93077425D01*
X147865590Y-89138355D01*
X147865588Y-89138352D01*
X147746717Y-89019481D01*
X147746716Y-89019480D01*
X147659904Y-88969360D01*
X147659904Y-88969359D01*
X147659900Y-88969358D01*
X147609785Y-88940423D01*
X147457057Y-88899499D01*
X147298943Y-88899499D01*
X147291347Y-88899499D01*
X147291331Y-88899500D01*
X140579766Y-88899500D01*
X140512727Y-88879815D01*
X140510875Y-88878602D01*
X140379185Y-88790609D01*
X140379172Y-88790602D01*
X140233501Y-88730264D01*
X140233489Y-88730261D01*
X140078845Y-88699500D01*
X140078842Y-88699500D01*
X139921158Y-88699500D01*
X139921155Y-88699500D01*
X139766510Y-88730261D01*
X139766498Y-88730264D01*
X139620827Y-88790602D01*
X139620814Y-88790609D01*
X139489711Y-88878210D01*
X139489707Y-88878213D01*
X139378213Y-88989707D01*
X139378210Y-88989711D01*
X139290609Y-89120814D01*
X139290602Y-89120827D01*
X139230264Y-89266498D01*
X139230261Y-89266510D01*
X139199500Y-89421153D01*
X136600500Y-89421153D01*
X136600500Y-88646032D01*
X136620185Y-88578993D01*
X136672989Y-88533238D01*
X136742147Y-88523294D01*
X136793391Y-88542930D01*
X136910814Y-88621390D01*
X136910827Y-88621397D01*
X137042119Y-88675779D01*
X137056503Y-88681737D01*
X137211153Y-88712499D01*
X137211156Y-88712500D01*
X137211158Y-88712500D01*
X137368844Y-88712500D01*
X137368845Y-88712499D01*
X137523497Y-88681737D01*
X137669179Y-88621394D01*
X137800289Y-88533789D01*
X137911789Y-88422289D01*
X137999394Y-88291179D01*
X138059737Y-88145497D01*
X138090500Y-87990842D01*
X138090500Y-87833158D01*
X138090500Y-87833155D01*
X138090499Y-87833153D01*
X138082148Y-87791172D01*
X138059737Y-87678503D01*
X138046062Y-87645489D01*
X137999397Y-87532827D01*
X137999390Y-87532814D01*
X137911398Y-87401125D01*
X137890520Y-87334447D01*
X137890500Y-87332234D01*
X137890500Y-86712097D01*
X137910185Y-86645058D01*
X137926819Y-86624416D01*
X138598333Y-85952902D01*
X139304662Y-85246572D01*
X139365983Y-85213089D01*
X139368150Y-85212638D01*
X139426085Y-85201113D01*
X139523497Y-85181737D01*
X139669179Y-85121394D01*
X139800289Y-85033789D01*
X139911789Y-84922289D01*
X139999394Y-84791179D01*
X140059737Y-84645497D01*
X140090500Y-84490842D01*
X140090500Y-84333158D01*
X140090500Y-84333155D01*
X140090499Y-84333153D01*
X140059738Y-84178510D01*
X140059738Y-84178508D01*
X140059737Y-84178503D01*
X140059735Y-84178498D01*
X139999397Y-84032827D01*
X139999390Y-84032814D01*
X139911789Y-83901711D01*
X139911786Y-83901707D01*
X139800292Y-83790213D01*
X139800288Y-83790210D01*
X139669185Y-83702609D01*
X139669172Y-83702602D01*
X139523501Y-83642264D01*
X139523489Y-83642261D01*
X139368845Y-83611500D01*
X139368842Y-83611500D01*
X139211158Y-83611500D01*
X139211155Y-83611500D01*
X139056510Y-83642261D01*
X139056498Y-83642264D01*
X138910827Y-83702602D01*
X138910814Y-83702609D01*
X138779711Y-83790210D01*
X138779707Y-83790213D01*
X138668213Y-83901707D01*
X138668210Y-83901711D01*
X138580609Y-84032814D01*
X138580602Y-84032827D01*
X138520264Y-84178498D01*
X138520261Y-84178508D01*
X138489361Y-84333850D01*
X138456976Y-84395761D01*
X138455425Y-84397339D01*
X136812181Y-86040583D01*
X136750858Y-86074068D01*
X136681166Y-86069084D01*
X136625233Y-86027212D01*
X136600816Y-85961748D01*
X136600500Y-85952902D01*
X136600500Y-74612754D01*
X136620185Y-74545715D01*
X136672989Y-74499960D01*
X136699046Y-74491395D01*
X136929614Y-74443050D01*
X136929621Y-74443046D01*
X136929625Y-74443046D01*
X137008980Y-74412080D01*
X137161273Y-74352656D01*
X137374894Y-74225366D01*
X137374898Y-74225361D01*
X137374902Y-74225360D01*
X137564649Y-74064651D01*
X137564651Y-74064649D01*
X137725360Y-73874902D01*
X137725361Y-73874898D01*
X137725366Y-73874894D01*
X137852656Y-73661273D01*
X137943050Y-73429614D01*
X137994081Y-73186237D01*
X138000500Y-73082842D01*
X138000500Y-70405513D01*
X142259500Y-70405513D01*
X142259500Y-70594486D01*
X142289059Y-70781118D01*
X142347454Y-70960836D01*
X142391880Y-71048026D01*
X142433240Y-71129199D01*
X142544310Y-71282073D01*
X142677927Y-71415690D01*
X142830801Y-71526760D01*
X142999168Y-71612547D01*
X143103820Y-71646551D01*
X143161493Y-71685986D01*
X143188692Y-71750345D01*
X143189500Y-71764480D01*
X143189500Y-86832234D01*
X143169815Y-86899273D01*
X143168602Y-86901125D01*
X143080609Y-87032814D01*
X143080602Y-87032827D01*
X143020264Y-87178498D01*
X143020261Y-87178510D01*
X142989500Y-87333153D01*
X142989500Y-87490846D01*
X143020261Y-87645489D01*
X143020264Y-87645501D01*
X143080602Y-87791172D01*
X143080609Y-87791185D01*
X143168210Y-87922288D01*
X143168213Y-87922292D01*
X143279707Y-88033786D01*
X143279711Y-88033789D01*
X143410814Y-88121390D01*
X143410827Y-88121397D01*
X143502955Y-88159557D01*
X143556503Y-88181737D01*
X143711153Y-88212499D01*
X143711156Y-88212500D01*
X143711158Y-88212500D01*
X143868844Y-88212500D01*
X143868845Y-88212499D01*
X144023497Y-88181737D01*
X144169179Y-88121394D01*
X144300289Y-88033789D01*
X144411789Y-87922289D01*
X144499394Y-87791179D01*
X144559737Y-87645497D01*
X144590500Y-87490842D01*
X144590500Y-87333158D01*
X144590500Y-87333155D01*
X144590499Y-87333153D01*
X144559738Y-87178510D01*
X144559737Y-87178503D01*
X144535842Y-87120814D01*
X144499397Y-87032827D01*
X144499390Y-87032814D01*
X144411398Y-86901125D01*
X144390520Y-86834447D01*
X144390500Y-86832234D01*
X144390500Y-71507882D01*
X145345669Y-71507882D01*
X145345670Y-71507883D01*
X145371059Y-71526329D01*
X145539362Y-71612085D01*
X145718997Y-71670451D01*
X145905553Y-71700000D01*
X146094447Y-71700000D01*
X146281002Y-71670451D01*
X146460637Y-71612085D01*
X146628937Y-71526331D01*
X146654328Y-71507883D01*
X146654328Y-71507882D01*
X146000001Y-70853554D01*
X146000000Y-70853554D01*
X145345669Y-71507882D01*
X144390500Y-71507882D01*
X144390500Y-71301978D01*
X144410185Y-71234939D01*
X144414183Y-71229092D01*
X144486757Y-71129203D01*
X144486756Y-71129203D01*
X144486760Y-71129199D01*
X144572547Y-70960832D01*
X144612332Y-70838385D01*
X144651768Y-70780713D01*
X144716127Y-70753514D01*
X144784973Y-70765429D01*
X144836449Y-70812673D01*
X144848193Y-70838388D01*
X144887914Y-70960637D01*
X144973666Y-71128933D01*
X144992116Y-71154328D01*
X145646446Y-70500000D01*
X145646446Y-70499999D01*
X145600369Y-70453922D01*
X145650000Y-70453922D01*
X145650000Y-70546078D01*
X145673852Y-70635095D01*
X145719930Y-70714905D01*
X145785095Y-70780070D01*
X145864905Y-70826148D01*
X145953922Y-70850000D01*
X146046078Y-70850000D01*
X146135095Y-70826148D01*
X146214905Y-70780070D01*
X146280070Y-70714905D01*
X146326148Y-70635095D01*
X146350000Y-70546078D01*
X146350000Y-70499999D01*
X146353554Y-70499999D01*
X146353554Y-70500000D01*
X147007882Y-71154328D01*
X147007883Y-71154328D01*
X147026331Y-71128937D01*
X147112085Y-70960637D01*
X147170451Y-70781002D01*
X147200000Y-70594447D01*
X147200000Y-70405552D01*
X147170451Y-70218997D01*
X147112085Y-70039362D01*
X147026329Y-69871059D01*
X147007883Y-69845670D01*
X147007882Y-69845669D01*
X146353554Y-70499999D01*
X146350000Y-70499999D01*
X146350000Y-70453922D01*
X146326148Y-70364905D01*
X146280070Y-70285095D01*
X146214905Y-70219930D01*
X146135095Y-70173852D01*
X146046078Y-70150000D01*
X145953922Y-70150000D01*
X145864905Y-70173852D01*
X145785095Y-70219930D01*
X145719930Y-70285095D01*
X145673852Y-70364905D01*
X145650000Y-70453922D01*
X145600369Y-70453922D01*
X144992116Y-69845669D01*
X144992116Y-69845670D01*
X144973669Y-69871060D01*
X144887915Y-70039361D01*
X144848193Y-70161612D01*
X144808755Y-70219287D01*
X144744396Y-70246485D01*
X144675550Y-70234570D01*
X144624074Y-70187326D01*
X144612332Y-70161614D01*
X144572547Y-70039168D01*
X144486760Y-69870801D01*
X144375690Y-69717927D01*
X144242073Y-69584310D01*
X144115179Y-69492116D01*
X145345669Y-69492116D01*
X146000000Y-70146446D01*
X146000001Y-70146446D01*
X146654328Y-69492116D01*
X146628933Y-69473666D01*
X146460637Y-69387914D01*
X146281002Y-69329548D01*
X146094447Y-69300000D01*
X145905553Y-69300000D01*
X145718997Y-69329548D01*
X145539362Y-69387914D01*
X145371060Y-69473669D01*
X145345670Y-69492116D01*
X145345669Y-69492116D01*
X144115179Y-69492116D01*
X144089199Y-69473240D01*
X143920836Y-69387454D01*
X143741118Y-69329059D01*
X143554486Y-69299500D01*
X143554481Y-69299500D01*
X143365519Y-69299500D01*
X143365514Y-69299500D01*
X143178881Y-69329059D01*
X142999163Y-69387454D01*
X142830800Y-69473240D01*
X142743579Y-69536610D01*
X142677927Y-69584310D01*
X142677925Y-69584312D01*
X142677924Y-69584312D01*
X142544312Y-69717924D01*
X142544312Y-69717925D01*
X142544310Y-69717927D01*
X142496610Y-69783579D01*
X142433240Y-69870800D01*
X142347454Y-70039163D01*
X142289059Y-70218881D01*
X142259500Y-70405513D01*
X138000500Y-70405513D01*
X138000500Y-66917158D01*
X137995165Y-66831227D01*
X138010658Y-66763098D01*
X138060525Y-66714159D01*
X138118094Y-66699548D01*
X190298264Y-66350503D01*
X190299093Y-66350500D01*
X191773998Y-66350500D01*
X191841037Y-66370185D01*
G37*
%TD.AperFunction*%
%TA.AperFunction,Conductor*%
G36*
X135318834Y-91486385D02*
G01*
X135374767Y-91528257D01*
X135399184Y-91593721D01*
X135399500Y-91602567D01*
X135399500Y-92913330D01*
X135399499Y-92913348D01*
X135399499Y-93079054D01*
X135399498Y-93079054D01*
X135440424Y-93231789D01*
X135440425Y-93231790D01*
X135457578Y-93261499D01*
X135457579Y-93261500D01*
X135519477Y-93368712D01*
X135519481Y-93368717D01*
X135638349Y-93487585D01*
X135638355Y-93487590D01*
X135871067Y-93720302D01*
X135904552Y-93781625D01*
X135899568Y-93851317D01*
X135857696Y-93907250D01*
X135837601Y-93919503D01*
X135826930Y-93924690D01*
X135768216Y-93940423D01*
X135631284Y-94019480D01*
X135630656Y-94020107D01*
X135623767Y-94023457D01*
X135593492Y-94028557D01*
X135571710Y-94033841D01*
X135066777Y-94538776D01*
X134531045Y-95074505D01*
X134515935Y-95096392D01*
X134442407Y-95163145D01*
X134054458Y-95551095D01*
X133993135Y-95584580D01*
X133923443Y-95579596D01*
X133879096Y-95551095D01*
X133861843Y-95533842D01*
X133876133Y-95519552D01*
X133891601Y-95482209D01*
X133891601Y-95441791D01*
X133876133Y-95404448D01*
X133847553Y-95375868D01*
X133810210Y-95360400D01*
X133769792Y-95360400D01*
X133732449Y-95375868D01*
X133703869Y-95404448D01*
X133688401Y-95441791D01*
X133688401Y-95482209D01*
X133703869Y-95519552D01*
X133718159Y-95533842D01*
X133700906Y-95551095D01*
X133639583Y-95584580D01*
X133569891Y-95579596D01*
X133525544Y-95551095D01*
X133078785Y-95104336D01*
X133057583Y-95090059D01*
X132921677Y-94947227D01*
X132886450Y-94912000D01*
X133593553Y-94912000D01*
X133790001Y-95108448D01*
X133986449Y-94912000D01*
X133790001Y-94715552D01*
X133593553Y-94912000D01*
X132886450Y-94912000D01*
X132690002Y-94715552D01*
X132690001Y-94715552D01*
X132365974Y-95039576D01*
X132471233Y-95083176D01*
X132471241Y-95083178D01*
X132616128Y-95111998D01*
X132616132Y-95111999D01*
X132763870Y-95111999D01*
X132763873Y-95111998D01*
X132908760Y-95083178D01*
X132914595Y-95081409D01*
X132915234Y-95083516D01*
X132974845Y-95077082D01*
X133037337Y-95108331D01*
X133073015Y-95168405D01*
X133070579Y-95237406D01*
X133070591Y-95237410D01*
X133070577Y-95237454D01*
X133070550Y-95238231D01*
X133069429Y-95241238D01*
X133068821Y-95243240D01*
X133040002Y-95388127D01*
X133040002Y-95535872D01*
X133065351Y-95663309D01*
X133059124Y-95732900D01*
X133016261Y-95788078D01*
X132950371Y-95811322D01*
X132943734Y-95811500D01*
X131190568Y-95811500D01*
X131123529Y-95791815D01*
X131077774Y-95739011D01*
X131067830Y-95669853D01*
X131096855Y-95606297D01*
X131102887Y-95599819D01*
X131790706Y-94912000D01*
X132360915Y-94341791D01*
X132588401Y-94341791D01*
X132588401Y-94382209D01*
X132603869Y-94419552D01*
X132632449Y-94448132D01*
X132669792Y-94463600D01*
X132710210Y-94463600D01*
X132747553Y-94448132D01*
X132776133Y-94419552D01*
X132791601Y-94382209D01*
X132791601Y-94362000D01*
X133043553Y-94362000D01*
X133240001Y-94558448D01*
X133436449Y-94362000D01*
X133416240Y-94341791D01*
X133688401Y-94341791D01*
X133688401Y-94382209D01*
X133703869Y-94419552D01*
X133732449Y-94448132D01*
X133769792Y-94463600D01*
X133810210Y-94463600D01*
X133847553Y-94448132D01*
X133876133Y-94419552D01*
X133891601Y-94382209D01*
X133891601Y-94362000D01*
X134143553Y-94362000D01*
X134340001Y-94558448D01*
X134536449Y-94362000D01*
X134516240Y-94341791D01*
X134788401Y-94341791D01*
X134788401Y-94382209D01*
X134803869Y-94419552D01*
X134832449Y-94448132D01*
X134869792Y-94463600D01*
X134910210Y-94463600D01*
X134947553Y-94448132D01*
X134976133Y-94419552D01*
X134991601Y-94382209D01*
X134991601Y-94341791D01*
X134976133Y-94304448D01*
X134947553Y-94275868D01*
X134910210Y-94260400D01*
X134869792Y-94260400D01*
X134832449Y-94275868D01*
X134803869Y-94304448D01*
X134788401Y-94341791D01*
X134516240Y-94341791D01*
X134340001Y-94165552D01*
X134143553Y-94362000D01*
X133891601Y-94362000D01*
X133891601Y-94341791D01*
X133876133Y-94304448D01*
X133847553Y-94275868D01*
X133810210Y-94260400D01*
X133769792Y-94260400D01*
X133732449Y-94275868D01*
X133703869Y-94304448D01*
X133688401Y-94341791D01*
X133416240Y-94341791D01*
X133240001Y-94165552D01*
X133043553Y-94362000D01*
X132791601Y-94362000D01*
X132791601Y-94341791D01*
X132776133Y-94304448D01*
X132747553Y-94275868D01*
X132710210Y-94260400D01*
X132669792Y-94260400D01*
X132632449Y-94275868D01*
X132603869Y-94304448D01*
X132588401Y-94341791D01*
X132360915Y-94341791D01*
X132890706Y-93812000D01*
X133593553Y-93812000D01*
X133790001Y-94008448D01*
X133986449Y-93812000D01*
X133790001Y-93615552D01*
X133593553Y-93812000D01*
X132890706Y-93812000D01*
X133460915Y-93241791D01*
X133688401Y-93241791D01*
X133688401Y-93282209D01*
X133703869Y-93319552D01*
X133732449Y-93348132D01*
X133769792Y-93363600D01*
X133810210Y-93363600D01*
X133847553Y-93348132D01*
X133876133Y-93319552D01*
X133891601Y-93282209D01*
X133891601Y-93261999D01*
X134143553Y-93261999D01*
X134143553Y-93262000D01*
X134442405Y-93560852D01*
X134515933Y-93627605D01*
X134522775Y-93638813D01*
X134533148Y-93646868D01*
X134535726Y-93654173D01*
X134890001Y-94008448D01*
X134890002Y-94008448D01*
X135214026Y-93684422D01*
X135108769Y-93640823D01*
X135108760Y-93640820D01*
X134963873Y-93612001D01*
X134816128Y-93612001D01*
X134671241Y-93640820D01*
X134665411Y-93642590D01*
X134664776Y-93640499D01*
X134605073Y-93646902D01*
X134542602Y-93615610D01*
X134506966Y-93555512D01*
X134509444Y-93486604D01*
X134509410Y-93486594D01*
X134509450Y-93486461D01*
X134509478Y-93485687D01*
X134510581Y-93482730D01*
X134511179Y-93480759D01*
X134539999Y-93335872D01*
X134540000Y-93335869D01*
X134540000Y-93188131D01*
X134539999Y-93188127D01*
X134511179Y-93043240D01*
X134511177Y-93043232D01*
X134467577Y-92937973D01*
X134143553Y-93261999D01*
X133891601Y-93261999D01*
X133891601Y-93241791D01*
X133876133Y-93204448D01*
X133847553Y-93175868D01*
X133810210Y-93160400D01*
X133769792Y-93160400D01*
X133732449Y-93175868D01*
X133703869Y-93204448D01*
X133688401Y-93241791D01*
X133460915Y-93241791D01*
X135187819Y-91514885D01*
X135249142Y-91481401D01*
X135318834Y-91486385D01*
G37*
%TD.AperFunction*%
%TD*%
M02*
