M48
; DRILL file KiCad 10.0.2 date 2026-07-24T00:13:40
; FORMAT={-:-/ absolute / metric / decimal}
; #@! TF.CreationDate,2026-07-24T00:13:40-06:00
; #@! TF.GenerationSoftware,Kicad,Pcbnew,10.0.2
; #@! TF.FileFunction,Plated,1,2,PTH
FMAT,2
METRIC
; #@! TA.AperFunction,Plated,PTH,ComponentDrill
T1C0.203
; #@! TA.AperFunction,Plated,PTH,ViaDrill
T2C0.300
; #@! TA.AperFunction,Plated,PTH,ComponentDrill
T3C0.400
; #@! TA.AperFunction,Plated,PTH,ViaDrill
T4C0.700
; #@! TA.AperFunction,Plated,PTH,ComponentDrill
T5C0.700
; #@! TA.AperFunction,Plated,PTH,ViaDrill
T6C1.000
; #@! TA.AperFunction,Plated,PTH,ComponentDrill
T7C1.210
%
G90
G05
T1
X132.69Y-94.362
X133.79Y-93.262
X133.79Y-94.362
X133.79Y-95.462
X134.89Y-94.362
X147.52Y-93.237
X148.39Y-93.237
X149.26Y-93.237
T2
X123.2Y-96.3
X125.5Y-104.4
X125.5Y-105.45
X126.8Y-95.4
X127.29Y-102.412
X127.765Y-101.024
X127.79Y-104.412
X128.1Y-101.75
X128.29Y-105.412
X128.65Y-99.65
X128.85Y-102.812
X129.4Y-99.95
X129.65Y-102.812
X129.79Y-91.912
X130.29Y-96.412
X131.05Y-98.152
X131.29Y-109.412
X131.29Y-121.912
X131.34Y-117.462
X132.49Y-97.023
X132.79Y-118.912
X132.881Y-97.721
X133.19Y-106.412
X133.19Y-99.412
X134.29Y-111.412
X134.39Y-99.412
X134.5Y-103.0
X135.0Y-87.5
X135.0Y-127.5
X135.39Y-104.812
X135.5Y-106.5
X136.246Y-95.456
X136.5Y-94.5
X137.29Y-87.912
X137.65Y-98.25
X138.0Y-93.912
X138.29Y-113.412
X138.5Y-100.5
X138.79Y-91.912
X139.0Y-93.912
X139.1Y-96.95
X139.29Y-84.412
X139.79Y-95.912
X140.0Y-89.5
X140.29Y-91.912
X140.55Y-99.7
X140.79Y-121.912
X141.29Y-101.412
X141.5Y-102.5
X142.0Y-103.5
X143.15Y-98.8
X143.2Y-111.8
X143.75Y-95.75
X143.79Y-87.412
X143.79Y-90.912
X144.0Y-102.5
X144.268Y-94.614
X144.6Y-98.1
X145.29Y-91.912
X146.95Y-96.412
X147.79Y-85.912
X148.5Y-101.412
X149.29Y-87.412
X150.54Y-90.162
X151.79Y-93.912
X152.29Y-96.412
X153.79Y-98.362
X154.24Y-89.912
X154.29Y-92.412
X154.5Y-79.5
X155.79Y-93.912
X159.15Y-83.3
X161.9Y-92.912
X168.5Y-120.0
X169.45Y-94.7
X190.0Y-75.5
X190.0Y-87.0
X190.0Y-99.5
T3
X119.59Y-91.96
X119.59Y-92.76
X119.59Y-93.56
X119.59Y-95.16
X119.59Y-95.96
X119.59Y-96.76
X120.29Y-91.56
X120.29Y-93.16
X120.29Y-93.96
X120.29Y-94.76
X120.29Y-95.56
X120.29Y-97.16
T4
X162.5Y-115.5
X182.0Y-69.0
T5
X143.46Y-70.5
X146.0Y-70.5
T6
X190.0Y-111.5
T7
X115.3Y-89.87
X115.3Y-98.85
X119.7Y-90.23
X119.7Y-98.49
M30
