%TF.GenerationSoftware,KiCad,Pcbnew,10.0.4-10.0.4~ubuntu24.04.1*%
%TF.CreationDate,2026-07-22T03:06:05-06:00*%
%TF.ProjectId,PRISM_Power,50524953-4d5f-4506-9f77-65722e6b6963,rev?*%
%TF.SameCoordinates,Original*%
%TF.FileFunction,Copper,L2,Bot*%
%TF.FilePolarity,Positive*%
%FSLAX46Y46*%
G04 Gerber Fmt 4.6, Leading zero omitted, Abs format (unit mm)*
G04 Created by KiCad (PCBNEW 10.0.4-10.0.4~ubuntu24.04.1) date 2026-07-22 03:06:05*
%MOMM*%
%LPD*%
G01*
G04 APERTURE LIST*
G04 Aperture macros list*
%AMRoundRect*
0 Rectangle with rounded corners*
0 $1 Rounding radius*
0 $2 $3 $4 $5 $6 $7 $8 $9 X,Y pos of 4 corners*
0 Add a 4 corners polygon primitive as box body*
4,1,4,$2,$3,$4,$5,$6,$7,$8,$9,$2,$3,0*
0 Add four circle primitives for the rounded corners*
1,1,$1+$1,$2,$3*
1,1,$1+$1,$4,$5*
1,1,$1+$1,$6,$7*
1,1,$1+$1,$8,$9*
0 Add four rect primitives between the rounded corners*
20,1,$1+$1,$2,$3,$4,$5,0*
20,1,$1+$1,$4,$5,$6,$7,0*
20,1,$1+$1,$6,$7,$8,$9,0*
20,1,$1+$1,$8,$9,$2,$3,0*%
G04 Aperture macros list end*
%TA.AperFunction,ComponentPad*%
%ADD10C,1.400000*%
%TD*%
%TA.AperFunction,ComponentPad*%
%ADD11C,0.560000*%
%TD*%
%TA.AperFunction,ComponentPad*%
%ADD12C,1.500000*%
%TD*%
%TA.AperFunction,ComponentPad*%
%ADD13C,1.815000*%
%TD*%
%TA.AperFunction,SMDPad,CuDef*%
%ADD14RoundRect,1.000000X1.000000X3.000000X-1.000000X3.000000X-1.000000X-3.000000X1.000000X-3.000000X0*%
%TD*%
%TA.AperFunction,ComponentPad*%
%ADD15C,0.499999*%
%TD*%
%TA.AperFunction,SMDPad,CuDef*%
%ADD16RoundRect,1.250000X1.250000X3.750000X-1.250000X3.750000X-1.250000X-3.750000X1.250000X-3.750000X0*%
%TD*%
%TA.AperFunction,SMDPad,CuDef*%
%ADD17RoundRect,0.750000X2.250000X-0.750000X2.250000X0.750000X-2.250000X0.750000X-2.250000X-0.750000X0*%
%TD*%
%TA.AperFunction,ViaPad*%
%ADD18C,0.600000*%
%TD*%
%TA.AperFunction,ViaPad*%
%ADD19C,0.700000*%
%TD*%
%TA.AperFunction,ViaPad*%
%ADD20C,0.350000*%
%TD*%
%TA.AperFunction,ViaPad*%
%ADD21C,1.250000*%
%TD*%
%TA.AperFunction,Conductor*%
%ADD22C,0.200000*%
%TD*%
%TA.AperFunction,Conductor*%
%ADD23C,0.500000*%
%TD*%
%TA.AperFunction,Conductor*%
%ADD24C,0.300000*%
%TD*%
%TA.AperFunction,Conductor*%
%ADD25C,1.250000*%
%TD*%
G04 APERTURE END LIST*
D10*
%TO.P,TH1,1*%
%TO.N,Net-(U2-TS)*%
X143460000Y-70500000D03*
%TO.P,TH1,2*%
%TO.N,GND*%
X146000000Y-70500000D03*
%TD*%
D11*
%TO.P,J1,B1,GND_3_B1*%
%TO.N,unconnected-(J1-GND_3-PadB1)*%
X120290000Y-97160000D03*
%TO.P,J1,B2,SSTXP2_B2*%
%TO.N,unconnected-(J1-SSTXP2-PadB2)*%
X119590000Y-96760000D03*
%TO.P,J1,B3,SSTXN2_B3*%
%TO.N,unconnected-(J1-SSTXN2-PadB3)*%
X119590000Y-95960000D03*
%TO.P,J1,B4,VBUS_3_B4*%
%TO.N,unconnected-(J1-VBUS_3-PadB4)*%
X120290000Y-95560000D03*
%TO.P,J1,B5,CC2_B5*%
%TO.N,unconnected-(J1-CC2-PadB5)*%
X119590000Y-95160000D03*
%TO.P,J1,B6,DP2_B6*%
%TO.N,unconnected-(J1-DP2-PadB6)*%
X120290000Y-94760000D03*
%TO.P,J1,B7,DN2_B7*%
%TO.N,unconnected-(J1-DN2-PadB7)*%
X120290000Y-93960000D03*
%TO.P,J1,B8,SBU2_B8*%
%TO.N,unconnected-(J1-SBU2-PadB8)*%
X119590000Y-93560000D03*
%TO.P,J1,B9,VBUS_4_B9*%
%TO.N,unconnected-(J1-VBUS_4-PadB9)*%
X120290000Y-93160000D03*
%TO.P,J1,B10,SSRXN1_B10*%
%TO.N,unconnected-(J1-SSRXN1-PadB10)*%
X119590000Y-92760000D03*
%TO.P,J1,B11,SSRXP1_B11*%
%TO.N,unconnected-(J1-SSRXP1-PadB11)*%
X119590000Y-91960000D03*
%TO.P,J1,B12,GND_4_B12*%
%TO.N,unconnected-(J1-GND_4-PadB12)*%
X120290000Y-91560000D03*
D12*
%TO.P,J1,MH1,MH1_MH1*%
%TO.N,unconnected-(J1-PadMH1)*%
X119700000Y-98490000D03*
D13*
%TO.P,J1,MH2,MH2_MH2*%
%TO.N,unconnected-(J1-PadMH2)*%
X119700000Y-90230000D03*
%TO.P,J1,MH3,MH3_MH3*%
%TO.N,unconnected-(J1-PadMH3)*%
X115300000Y-98850000D03*
%TO.P,J1,MH4,MH4_MH4*%
%TO.N,unconnected-(J1-PadMH4)*%
X115300000Y-89870000D03*
%TD*%
D14*
%TO.P,,1*%
%TO.N,SPI_MISO_1V8*%
X124500000Y-70000000D03*
%TD*%
%TO.P,,1*%
%TO.N,SPI_SCK_1V8*%
X135500000Y-70000000D03*
%TD*%
D15*
%TO.P,U2,V*%
%TO.N,GND*%
X132690001Y-94362000D03*
X133790001Y-93262000D03*
X133790001Y-94362000D03*
X133790001Y-95462000D03*
X134890001Y-94362000D03*
%TD*%
D14*
%TO.P,,1*%
%TO.N,SPI_NSS_1V8*%
X130000000Y-70000000D03*
%TD*%
D15*
%TO.P,IC2,V*%
%TO.N,GND*%
X147520000Y-93237000D03*
X148390001Y-93237000D03*
X149260002Y-93237000D03*
%TD*%
D16*
%TO.P,REF\u002A\u002A,1*%
%TO.N,FB_B3*%
X190000000Y-87000000D03*
%TD*%
D17*
%TO.P,REF\u002A\u002A,1*%
%TO.N,NRST*%
X135000000Y-127500000D03*
%TD*%
D16*
%TO.P,REF\u002A\u002A,1*%
%TO.N,FB_B2*%
X190000000Y-75500000D03*
%TD*%
D14*
%TO.P,REF\u002A\u002A,1*%
%TO.N,SPI_MOSI_1V8*%
X119000000Y-70000000D03*
%TD*%
D16*
%TO.P,REF\u002A\u002A,1*%
%TO.N,FB_B0*%
X190000000Y-111500000D03*
%TD*%
%TO.P,REF\u002A\u002A,1*%
%TO.N,FB_B1*%
X190000000Y-99500000D03*
%TD*%
D18*
%TO.N,GND*%
X143790000Y-90912000D03*
%TO.N,Net-(U2-TS)*%
X143790000Y-87412000D03*
%TO.N,PGD_S*%
X151790000Y-93912000D03*
X129400000Y-99950000D03*
X135000000Y-87500000D03*
X140000000Y-89500000D03*
D19*
%TO.N,FB_B2*%
X190000000Y-75500000D03*
D18*
%TO.N,Net-(U2-TS)*%
X138790000Y-91912000D03*
X138000000Y-93912000D03*
%TO.N,GND*%
X159150000Y-83300000D03*
X153790000Y-99412000D03*
X154500000Y-79500000D03*
X132790000Y-118912000D03*
D20*
X148500000Y-101412000D03*
D18*
X156290000Y-89912000D03*
X141290000Y-101412000D03*
X168500000Y-120000000D03*
X131290000Y-109412000D03*
X127290000Y-102412000D03*
X135500000Y-106500000D03*
X163000000Y-92912000D03*
%TO.N,SWDIO*%
X125500000Y-104400000D03*
X127790000Y-104412000D03*
%TO.N,+BATT*%
X134290000Y-111412000D03*
D21*
X162500000Y-115500000D03*
D18*
X136246000Y-95456000D03*
X139790000Y-95912000D03*
X138290000Y-113412000D03*
D21*
X182000000Y-69000000D03*
D18*
%TO.N,Net-(C2-Pad2)*%
X137290000Y-87912000D03*
X139290000Y-84412000D03*
%TO.N,SYS_3V5*%
X130290000Y-96412000D03*
X136500000Y-94500000D03*
X149290000Y-87412000D03*
X147790000Y-85912000D03*
X152290000Y-96412000D03*
X147290000Y-96412000D03*
X150540000Y-90162000D03*
X155790000Y-93912000D03*
D21*
%TO.N,FB_B0*%
X190000000Y-111500000D03*
D18*
%TO.N,-BATT*%
X145290000Y-117412000D03*
X140790000Y-121912000D03*
X131290000Y-121912000D03*
X143500000Y-114000000D03*
%TO.N,I2C_SCL_1V8*%
X134390000Y-99412000D03*
X133190000Y-99412000D03*
%TO.N,I2C_SDA_1V8*%
X133189999Y-106412000D03*
X135390001Y-104811999D03*
%TO.N,Net-(U2-ILIM)*%
X140290000Y-91912000D03*
X139000000Y-93912000D03*
%TO.N,SPI_MISO_1V8*%
X127764753Y-101023631D03*
D19*
%TO.N,FB_B3*%
X190000000Y-87000000D03*
D18*
%TO.N,SPI_SCK_1V8*%
X138500000Y-100500000D03*
D19*
%TO.N,FB_B1*%
X190000000Y-99500000D03*
D18*
%TO.N,INT_CHRG*%
X132490002Y-97022911D03*
X131049963Y-98152035D03*
%TO.N,CE_CHRG*%
X132881336Y-97720664D03*
X128849997Y-102812000D03*
%TO.N,NRST*%
X135000000Y-127500000D03*
X134500000Y-103000000D03*
%TO.N,SPI_NSS_1V8*%
X128650000Y-99650000D03*
%TO.N,SPI_MOSI_1V8*%
X128100000Y-101750000D03*
%TO.N,SWCLK*%
X125500000Y-105450000D03*
X128290000Y-105412000D03*
%TO.N,EN3*%
X145290000Y-91912000D03*
X143150000Y-98800000D03*
X143750000Y-95750000D03*
X144268119Y-94613975D03*
%TO.N,EN1*%
X129650000Y-102812000D03*
X145290000Y-94912000D03*
X144600000Y-98100000D03*
%TO.N,EN2*%
X169450000Y-94700000D03*
X142000000Y-103500000D03*
%TO.N,PMIC_RST*%
X154290000Y-92412000D03*
%TO.N,Net-(U1-VDD)*%
X141500000Y-102500000D03*
X144000000Y-102500000D03*
%TD*%
%TO.N,GND*%
D22*
X147520000Y-93237000D02*
X145195000Y-90912000D01*
X145195000Y-90912000D02*
X143790000Y-90912000D01*
%TO.N,Net-(U2-TS)*%
X143790000Y-87412000D02*
X143790000Y-70830000D01*
X143790000Y-70830000D02*
X143460000Y-70500000D01*
%TO.N,PGD_S*%
X140000000Y-89500000D02*
X147378000Y-89500000D01*
X129400000Y-96453471D02*
X135000000Y-90853471D01*
X147378000Y-89500000D02*
X151790000Y-93912000D01*
X129400000Y-99950000D02*
X129400000Y-96453471D01*
X135000000Y-90853471D02*
X135000000Y-87500000D01*
%TO.N,Net-(U2-TS)*%
X138000000Y-92702000D02*
X138790000Y-91912000D01*
X138000000Y-93912000D02*
X138000000Y-92702000D01*
%TO.N,GND*%
X127290000Y-102412000D02*
X131290000Y-106412000D01*
X156290000Y-86160000D02*
X156290000Y-89912000D01*
D23*
X133878000Y-120000000D02*
X132790000Y-118912000D01*
D22*
X154500000Y-79500000D02*
X158300000Y-83300000D01*
X163000000Y-92912000D02*
X160000000Y-89912000D01*
X131290000Y-106412000D02*
X131290000Y-109412000D01*
X150290000Y-101412000D02*
X150790000Y-101912000D01*
X158300000Y-83300000D02*
X159150000Y-83300000D01*
X150790000Y-101912000D02*
X151290000Y-101912000D01*
X156500000Y-99412000D02*
X153790000Y-99412000D01*
X148500000Y-101412000D02*
X150290000Y-101412000D01*
X159150000Y-83300000D02*
X156290000Y-86160000D01*
X136202000Y-106500000D02*
X135500000Y-106500000D01*
X141290000Y-101412000D02*
X136202000Y-106500000D01*
D23*
X131290000Y-109412000D02*
X131290000Y-117412000D01*
X168500000Y-120000000D02*
X133878000Y-120000000D01*
D22*
X151290000Y-101912000D02*
X153790000Y-99412000D01*
X163000000Y-92912000D02*
X156500000Y-99412000D01*
X160000000Y-89912000D02*
X156290000Y-89912000D01*
X131290000Y-117412000D02*
X131340000Y-117462000D01*
X141290000Y-101412000D02*
X148500000Y-101412000D01*
%TO.N,SWDIO*%
X127790000Y-104412000D02*
X125512000Y-104412000D01*
X125512000Y-104412000D02*
X125500000Y-104400000D01*
%TO.N,+BATT*%
D24*
X136290000Y-111412000D02*
X134290000Y-111412000D01*
D25*
X182000000Y-96000000D02*
X162500000Y-115500000D01*
D24*
X136500000Y-95622000D02*
X136334000Y-95456000D01*
X137500000Y-101500000D02*
X136500000Y-100500000D01*
X139000000Y-101500000D02*
X137500000Y-101500000D01*
X138290000Y-113412000D02*
X136290000Y-111412000D01*
D22*
X136334000Y-95456000D02*
X136246000Y-95456000D01*
D25*
X182000000Y-69000000D02*
X182000000Y-96000000D01*
D24*
X139790000Y-95912000D02*
X139790000Y-100710000D01*
X139790000Y-100710000D02*
X139000000Y-101500000D01*
X136500000Y-100500000D02*
X136500000Y-95622000D01*
%TO.N,Net-(C2-Pad2)*%
D22*
X137290000Y-86412000D02*
X137290000Y-87912000D01*
X139290000Y-84412000D02*
X137290000Y-86412000D01*
%TO.N,SYS_3V5*%
X153290000Y-96412000D02*
X155790000Y-93912000D01*
X147790000Y-85912000D02*
X147790000Y-87412000D01*
X143501471Y-95150000D02*
X143301471Y-95350000D01*
X143301471Y-95350000D02*
X140076529Y-95350000D01*
X143998529Y-95150000D02*
X143501471Y-95150000D01*
X147290000Y-96412000D02*
X145790000Y-96412000D01*
X155790000Y-93912000D02*
X154290000Y-93912000D01*
X136000000Y-94500000D02*
X134088000Y-96412000D01*
X154290000Y-93912000D02*
X150540000Y-90162000D01*
X145790000Y-96412000D02*
X144728000Y-95350000D01*
X150540000Y-90162000D02*
X147790000Y-87412000D01*
X144198529Y-95350000D02*
X143998529Y-95150000D01*
X144728000Y-95350000D02*
X144198529Y-95350000D01*
X147290000Y-96412000D02*
X153290000Y-96412000D01*
X136500000Y-94500000D02*
X136000000Y-94500000D01*
X147790000Y-85912000D02*
X149290000Y-87412000D01*
X134088000Y-96412000D02*
X130290000Y-96412000D01*
%TO.N,-BATT*%
D23*
X131290000Y-121912000D02*
X140790000Y-121912000D01*
D22*
X143500000Y-114000000D02*
X143500000Y-115622000D01*
X143500000Y-115622000D02*
X145290000Y-117412000D01*
%TO.N,I2C_SCL_1V8*%
X134390000Y-99412000D02*
X133190000Y-99412000D01*
%TO.N,I2C_SDA_1V8*%
X133189999Y-106412000D02*
X133790000Y-106412000D01*
X133790000Y-106412000D02*
X135390001Y-104811999D01*
%TO.N,Net-(U2-ILIM)*%
X139000000Y-93202000D02*
X140290000Y-91912000D01*
X139000000Y-93912000D02*
X139000000Y-93202000D01*
%TO.N,SPI_MISO_1V8*%
X124000000Y-70500000D02*
X124500000Y-70000000D01*
X124000000Y-97258878D02*
X127764753Y-101023631D01*
X124000000Y-97258878D02*
X124000000Y-70500000D01*
%TO.N,SPI_SCK_1V8*%
X136000000Y-70500000D02*
X135500000Y-70000000D01*
X136500000Y-71000000D02*
X135500000Y-70000000D01*
X138500000Y-100500000D02*
X138500000Y-95500000D01*
X138500000Y-95500000D02*
X136000000Y-93000000D01*
X136000000Y-93000000D02*
X136000000Y-70500000D01*
%TO.N,INT_CHRG*%
X131360878Y-98152035D02*
X132490002Y-97022911D01*
X131049963Y-98152035D02*
X131360878Y-98152035D01*
%TO.N,CE_CHRG*%
X129000175Y-101201825D02*
X132481336Y-97720664D01*
X132481336Y-97720664D02*
X132881336Y-97720664D01*
X128849997Y-102812000D02*
X129000175Y-102661822D01*
X129000175Y-102661822D02*
X129000175Y-101201825D01*
%TO.N,NRST*%
X129500000Y-122000000D02*
X135000000Y-127500000D01*
X134500000Y-103500000D02*
X132000000Y-106000000D01*
X129500000Y-121000000D02*
X129500000Y-122000000D01*
X132000000Y-118500000D02*
X129500000Y-121000000D01*
X134500000Y-103000000D02*
X134500000Y-103500000D01*
X132000000Y-106000000D02*
X132000000Y-118500000D01*
%TO.N,SPI_NSS_1V8*%
X130000000Y-78000000D02*
X130000000Y-70000000D01*
X126000000Y-82000000D02*
X130000000Y-78000000D01*
X126000000Y-97000000D02*
X126000000Y-82000000D01*
X128650000Y-99650000D02*
X126000000Y-97000000D01*
%TO.N,SPI_MOSI_1V8*%
X128100000Y-101750000D02*
X125250000Y-101750000D01*
X123000000Y-99500000D02*
X123000000Y-85000000D01*
X123000000Y-85000000D02*
X118500000Y-80500000D01*
X118500000Y-70500000D02*
X119000000Y-70000000D01*
X125250000Y-101750000D02*
X123000000Y-99500000D01*
X118500000Y-80500000D02*
X118500000Y-70500000D01*
%TO.N,SWCLK*%
X128290000Y-105412000D02*
X125538000Y-105412000D01*
X125538000Y-105412000D02*
X125500000Y-105450000D01*
%TO.N,EN3*%
X145290000Y-93592094D02*
X145290000Y-91912000D01*
X144268119Y-94613975D02*
X145290000Y-93592094D01*
X143750000Y-98200000D02*
X143750000Y-95750000D01*
X143150000Y-98800000D02*
X143750000Y-98200000D01*
%TO.N,EN1*%
X142298528Y-100500000D02*
X144600000Y-98198529D01*
X129650000Y-102812000D02*
X130462000Y-102000000D01*
X130462000Y-102000000D02*
X139500000Y-102000000D01*
X144600000Y-98198529D02*
X144600000Y-98100000D01*
X140500000Y-101000000D02*
X140500000Y-100500000D01*
X140500000Y-100500000D02*
X142298528Y-100500000D01*
X139500000Y-102000000D02*
X140500000Y-101000000D01*
%TO.N,EN2*%
X160650000Y-103500000D02*
X169450000Y-94700000D01*
X142000000Y-103500000D02*
X160650000Y-103500000D01*
%TO.N,Net-(U1-VDD)*%
X144000000Y-102500000D02*
X141500000Y-102500000D01*
%TD*%
M02*
