%TF.GenerationSoftware,KiCad,Pcbnew,10.0.4-10.0.4~ubuntu24.04.1*%
%TF.CreationDate,2026-07-22T03:06:05-06:00*%
%TF.ProjectId,PRISM_Power,50524953-4d5f-4506-9f77-65722e6b6963,rev?*%
%TF.SameCoordinates,Original*%
%TF.FileFunction,Legend,Top*%
%TF.FilePolarity,Positive*%
%FSLAX46Y46*%
G04 Gerber Fmt 4.6, Leading zero omitted, Abs format (unit mm)*
G04 Created by KiCad (PCBNEW 10.0.4-10.0.4~ubuntu24.04.1) date 2026-07-22 03:06:05*
%MOMM*%
%LPD*%
G01*
G04 APERTURE LIST*
%ADD10C,0.150000*%
%ADD11C,0.254000*%
%ADD12C,0.120000*%
%ADD13C,0.200000*%
%ADD14C,0.100000*%
%ADD15C,0.152400*%
G04 APERTURE END LIST*
D10*
X172623333Y-75386819D02*
X172147143Y-75386819D01*
X172147143Y-75386819D02*
X172147143Y-74386819D01*
X172861429Y-74386819D02*
X173528095Y-74386819D01*
X173528095Y-74386819D02*
X173099524Y-75386819D01*
X143444286Y-68034819D02*
X144015714Y-68034819D01*
X143730000Y-69034819D02*
X143730000Y-68034819D01*
X144349048Y-69034819D02*
X144349048Y-68034819D01*
X144349048Y-68511009D02*
X144920476Y-68511009D01*
X144920476Y-69034819D02*
X144920476Y-68034819D01*
X145920476Y-69034819D02*
X145349048Y-69034819D01*
X145634762Y-69034819D02*
X145634762Y-68034819D01*
X145634762Y-68034819D02*
X145539524Y-68177676D01*
X145539524Y-68177676D02*
X145444286Y-68272914D01*
X145444286Y-68272914D02*
X145349048Y-68320533D01*
X178799580Y-74054857D02*
X178847200Y-74102476D01*
X178847200Y-74102476D02*
X178894819Y-74245333D01*
X178894819Y-74245333D02*
X178894819Y-74340571D01*
X178894819Y-74340571D02*
X178847200Y-74483428D01*
X178847200Y-74483428D02*
X178751961Y-74578666D01*
X178751961Y-74578666D02*
X178656723Y-74626285D01*
X178656723Y-74626285D02*
X178466247Y-74673904D01*
X178466247Y-74673904D02*
X178323390Y-74673904D01*
X178323390Y-74673904D02*
X178132914Y-74626285D01*
X178132914Y-74626285D02*
X178037676Y-74578666D01*
X178037676Y-74578666D02*
X177942438Y-74483428D01*
X177942438Y-74483428D02*
X177894819Y-74340571D01*
X177894819Y-74340571D02*
X177894819Y-74245333D01*
X177894819Y-74245333D02*
X177942438Y-74102476D01*
X177942438Y-74102476D02*
X177990057Y-74054857D01*
X178228152Y-73197714D02*
X178894819Y-73197714D01*
X177847200Y-73435809D02*
X178561485Y-73673904D01*
X178561485Y-73673904D02*
X178561485Y-73054857D01*
X177894819Y-72197714D02*
X177894819Y-72673904D01*
X177894819Y-72673904D02*
X178371009Y-72721523D01*
X178371009Y-72721523D02*
X178323390Y-72673904D01*
X178323390Y-72673904D02*
X178275771Y-72578666D01*
X178275771Y-72578666D02*
X178275771Y-72340571D01*
X178275771Y-72340571D02*
X178323390Y-72245333D01*
X178323390Y-72245333D02*
X178371009Y-72197714D01*
X178371009Y-72197714D02*
X178466247Y-72150095D01*
X178466247Y-72150095D02*
X178704342Y-72150095D01*
X178704342Y-72150095D02*
X178799580Y-72197714D01*
X178799580Y-72197714D02*
X178847200Y-72245333D01*
X178847200Y-72245333D02*
X178894819Y-72340571D01*
X178894819Y-72340571D02*
X178894819Y-72578666D01*
X178894819Y-72578666D02*
X178847200Y-72673904D01*
X178847200Y-72673904D02*
X178799580Y-72721523D01*
X156623333Y-91216819D02*
X156290000Y-90740628D01*
X156051905Y-91216819D02*
X156051905Y-90216819D01*
X156051905Y-90216819D02*
X156432857Y-90216819D01*
X156432857Y-90216819D02*
X156528095Y-90264438D01*
X156528095Y-90264438D02*
X156575714Y-90312057D01*
X156575714Y-90312057D02*
X156623333Y-90407295D01*
X156623333Y-90407295D02*
X156623333Y-90550152D01*
X156623333Y-90550152D02*
X156575714Y-90645390D01*
X156575714Y-90645390D02*
X156528095Y-90693009D01*
X156528095Y-90693009D02*
X156432857Y-90740628D01*
X156432857Y-90740628D02*
X156051905Y-90740628D01*
X156956667Y-90216819D02*
X157575714Y-90216819D01*
X157575714Y-90216819D02*
X157242381Y-90597771D01*
X157242381Y-90597771D02*
X157385238Y-90597771D01*
X157385238Y-90597771D02*
X157480476Y-90645390D01*
X157480476Y-90645390D02*
X157528095Y-90693009D01*
X157528095Y-90693009D02*
X157575714Y-90788247D01*
X157575714Y-90788247D02*
X157575714Y-91026342D01*
X157575714Y-91026342D02*
X157528095Y-91121580D01*
X157528095Y-91121580D02*
X157480476Y-91169200D01*
X157480476Y-91169200D02*
X157385238Y-91216819D01*
X157385238Y-91216819D02*
X157099524Y-91216819D01*
X157099524Y-91216819D02*
X157004286Y-91169200D01*
X157004286Y-91169200D02*
X156956667Y-91121580D01*
X143329580Y-97116166D02*
X143377200Y-97163785D01*
X143377200Y-97163785D02*
X143424819Y-97306642D01*
X143424819Y-97306642D02*
X143424819Y-97401880D01*
X143424819Y-97401880D02*
X143377200Y-97544737D01*
X143377200Y-97544737D02*
X143281961Y-97639975D01*
X143281961Y-97639975D02*
X143186723Y-97687594D01*
X143186723Y-97687594D02*
X142996247Y-97735213D01*
X142996247Y-97735213D02*
X142853390Y-97735213D01*
X142853390Y-97735213D02*
X142662914Y-97687594D01*
X142662914Y-97687594D02*
X142567676Y-97639975D01*
X142567676Y-97639975D02*
X142472438Y-97544737D01*
X142472438Y-97544737D02*
X142424819Y-97401880D01*
X142424819Y-97401880D02*
X142424819Y-97306642D01*
X142424819Y-97306642D02*
X142472438Y-97163785D01*
X142472438Y-97163785D02*
X142520057Y-97116166D01*
X142424819Y-96782832D02*
X142424819Y-96116166D01*
X142424819Y-96116166D02*
X143424819Y-96544737D01*
D11*
X117009318Y-94783332D02*
X117916461Y-94783332D01*
X117916461Y-94783332D02*
X118097889Y-94843809D01*
X118097889Y-94843809D02*
X118218842Y-94964761D01*
X118218842Y-94964761D02*
X118279318Y-95146190D01*
X118279318Y-95146190D02*
X118279318Y-95267142D01*
X118279318Y-93513332D02*
X118279318Y-94239047D01*
X118279318Y-93876190D02*
X117009318Y-93876190D01*
X117009318Y-93876190D02*
X117190746Y-93997142D01*
X117190746Y-93997142D02*
X117311699Y-94118094D01*
X117311699Y-94118094D02*
X117372175Y-94239047D01*
D10*
X142623333Y-82316819D02*
X142147143Y-82316819D01*
X142147143Y-82316819D02*
X142147143Y-81316819D01*
X143480476Y-82316819D02*
X142909048Y-82316819D01*
X143194762Y-82316819D02*
X143194762Y-81316819D01*
X143194762Y-81316819D02*
X143099524Y-81459676D01*
X143099524Y-81459676D02*
X143004286Y-81554914D01*
X143004286Y-81554914D02*
X142909048Y-81602533D01*
X128694761Y-121362057D02*
X128599523Y-121314438D01*
X128599523Y-121314438D02*
X128504285Y-121219200D01*
X128504285Y-121219200D02*
X128361428Y-121076342D01*
X128361428Y-121076342D02*
X128266190Y-121028723D01*
X128266190Y-121028723D02*
X128170952Y-121028723D01*
X128218571Y-121266819D02*
X128123333Y-121219200D01*
X128123333Y-121219200D02*
X128028095Y-121123961D01*
X128028095Y-121123961D02*
X127980476Y-120933485D01*
X127980476Y-120933485D02*
X127980476Y-120600152D01*
X127980476Y-120600152D02*
X128028095Y-120409676D01*
X128028095Y-120409676D02*
X128123333Y-120314438D01*
X128123333Y-120314438D02*
X128218571Y-120266819D01*
X128218571Y-120266819D02*
X128409047Y-120266819D01*
X128409047Y-120266819D02*
X128504285Y-120314438D01*
X128504285Y-120314438D02*
X128599523Y-120409676D01*
X128599523Y-120409676D02*
X128647142Y-120600152D01*
X128647142Y-120600152D02*
X128647142Y-120933485D01*
X128647142Y-120933485D02*
X128599523Y-121123961D01*
X128599523Y-121123961D02*
X128504285Y-121219200D01*
X128504285Y-121219200D02*
X128409047Y-121266819D01*
X128409047Y-121266819D02*
X128218571Y-121266819D01*
X129599523Y-121266819D02*
X129028095Y-121266819D01*
X129313809Y-121266819D02*
X129313809Y-120266819D01*
X129313809Y-120266819D02*
X129218571Y-120409676D01*
X129218571Y-120409676D02*
X129123333Y-120504914D01*
X129123333Y-120504914D02*
X129028095Y-120552533D01*
X158509580Y-93792857D02*
X158557200Y-93840476D01*
X158557200Y-93840476D02*
X158604819Y-93983333D01*
X158604819Y-93983333D02*
X158604819Y-94078571D01*
X158604819Y-94078571D02*
X158557200Y-94221428D01*
X158557200Y-94221428D02*
X158461961Y-94316666D01*
X158461961Y-94316666D02*
X158366723Y-94364285D01*
X158366723Y-94364285D02*
X158176247Y-94411904D01*
X158176247Y-94411904D02*
X158033390Y-94411904D01*
X158033390Y-94411904D02*
X157842914Y-94364285D01*
X157842914Y-94364285D02*
X157747676Y-94316666D01*
X157747676Y-94316666D02*
X157652438Y-94221428D01*
X157652438Y-94221428D02*
X157604819Y-94078571D01*
X157604819Y-94078571D02*
X157604819Y-93983333D01*
X157604819Y-93983333D02*
X157652438Y-93840476D01*
X157652438Y-93840476D02*
X157700057Y-93792857D01*
X157938152Y-92935714D02*
X158604819Y-92935714D01*
X157557200Y-93173809D02*
X158271485Y-93411904D01*
X158271485Y-93411904D02*
X158271485Y-92792857D01*
X158604819Y-91888095D02*
X158604819Y-92459523D01*
X158604819Y-92173809D02*
X157604819Y-92173809D01*
X157604819Y-92173809D02*
X157747676Y-92269047D01*
X157747676Y-92269047D02*
X157842914Y-92364285D01*
X157842914Y-92364285D02*
X157890533Y-92459523D01*
X178999580Y-114554857D02*
X179047200Y-114602476D01*
X179047200Y-114602476D02*
X179094819Y-114745333D01*
X179094819Y-114745333D02*
X179094819Y-114840571D01*
X179094819Y-114840571D02*
X179047200Y-114983428D01*
X179047200Y-114983428D02*
X178951961Y-115078666D01*
X178951961Y-115078666D02*
X178856723Y-115126285D01*
X178856723Y-115126285D02*
X178666247Y-115173904D01*
X178666247Y-115173904D02*
X178523390Y-115173904D01*
X178523390Y-115173904D02*
X178332914Y-115126285D01*
X178332914Y-115126285D02*
X178237676Y-115078666D01*
X178237676Y-115078666D02*
X178142438Y-114983428D01*
X178142438Y-114983428D02*
X178094819Y-114840571D01*
X178094819Y-114840571D02*
X178094819Y-114745333D01*
X178094819Y-114745333D02*
X178142438Y-114602476D01*
X178142438Y-114602476D02*
X178190057Y-114554857D01*
X179094819Y-113602476D02*
X179094819Y-114173904D01*
X179094819Y-113888190D02*
X178094819Y-113888190D01*
X178094819Y-113888190D02*
X178237676Y-113983428D01*
X178237676Y-113983428D02*
X178332914Y-114078666D01*
X178332914Y-114078666D02*
X178380533Y-114173904D01*
X178523390Y-113031047D02*
X178475771Y-113126285D01*
X178475771Y-113126285D02*
X178428152Y-113173904D01*
X178428152Y-113173904D02*
X178332914Y-113221523D01*
X178332914Y-113221523D02*
X178285295Y-113221523D01*
X178285295Y-113221523D02*
X178190057Y-113173904D01*
X178190057Y-113173904D02*
X178142438Y-113126285D01*
X178142438Y-113126285D02*
X178094819Y-113031047D01*
X178094819Y-113031047D02*
X178094819Y-112840571D01*
X178094819Y-112840571D02*
X178142438Y-112745333D01*
X178142438Y-112745333D02*
X178190057Y-112697714D01*
X178190057Y-112697714D02*
X178285295Y-112650095D01*
X178285295Y-112650095D02*
X178332914Y-112650095D01*
X178332914Y-112650095D02*
X178428152Y-112697714D01*
X178428152Y-112697714D02*
X178475771Y-112745333D01*
X178475771Y-112745333D02*
X178523390Y-112840571D01*
X178523390Y-112840571D02*
X178523390Y-113031047D01*
X178523390Y-113031047D02*
X178571009Y-113126285D01*
X178571009Y-113126285D02*
X178618628Y-113173904D01*
X178618628Y-113173904D02*
X178713866Y-113221523D01*
X178713866Y-113221523D02*
X178904342Y-113221523D01*
X178904342Y-113221523D02*
X178999580Y-113173904D01*
X178999580Y-113173904D02*
X179047200Y-113126285D01*
X179047200Y-113126285D02*
X179094819Y-113031047D01*
X179094819Y-113031047D02*
X179094819Y-112840571D01*
X179094819Y-112840571D02*
X179047200Y-112745333D01*
X179047200Y-112745333D02*
X178999580Y-112697714D01*
X178999580Y-112697714D02*
X178904342Y-112650095D01*
X178904342Y-112650095D02*
X178713866Y-112650095D01*
X178713866Y-112650095D02*
X178618628Y-112697714D01*
X178618628Y-112697714D02*
X178571009Y-112745333D01*
X178571009Y-112745333D02*
X178523390Y-112840571D01*
X128585833Y-90591580D02*
X128538214Y-90639200D01*
X128538214Y-90639200D02*
X128395357Y-90686819D01*
X128395357Y-90686819D02*
X128300119Y-90686819D01*
X128300119Y-90686819D02*
X128157262Y-90639200D01*
X128157262Y-90639200D02*
X128062024Y-90543961D01*
X128062024Y-90543961D02*
X128014405Y-90448723D01*
X128014405Y-90448723D02*
X127966786Y-90258247D01*
X127966786Y-90258247D02*
X127966786Y-90115390D01*
X127966786Y-90115390D02*
X128014405Y-89924914D01*
X128014405Y-89924914D02*
X128062024Y-89829676D01*
X128062024Y-89829676D02*
X128157262Y-89734438D01*
X128157262Y-89734438D02*
X128300119Y-89686819D01*
X128300119Y-89686819D02*
X128395357Y-89686819D01*
X128395357Y-89686819D02*
X128538214Y-89734438D01*
X128538214Y-89734438D02*
X128585833Y-89782057D01*
X128919167Y-89686819D02*
X129538214Y-89686819D01*
X129538214Y-89686819D02*
X129204881Y-90067771D01*
X129204881Y-90067771D02*
X129347738Y-90067771D01*
X129347738Y-90067771D02*
X129442976Y-90115390D01*
X129442976Y-90115390D02*
X129490595Y-90163009D01*
X129490595Y-90163009D02*
X129538214Y-90258247D01*
X129538214Y-90258247D02*
X129538214Y-90496342D01*
X129538214Y-90496342D02*
X129490595Y-90591580D01*
X129490595Y-90591580D02*
X129442976Y-90639200D01*
X129442976Y-90639200D02*
X129347738Y-90686819D01*
X129347738Y-90686819D02*
X129062024Y-90686819D01*
X129062024Y-90686819D02*
X128966786Y-90639200D01*
X128966786Y-90639200D02*
X128919167Y-90591580D01*
X133494818Y-110170604D02*
X134304341Y-110170604D01*
X134304341Y-110170604D02*
X134399579Y-110122985D01*
X134399579Y-110122985D02*
X134447199Y-110075366D01*
X134447199Y-110075366D02*
X134494818Y-109980128D01*
X134494818Y-109980128D02*
X134494818Y-109789652D01*
X134494818Y-109789652D02*
X134447199Y-109694414D01*
X134447199Y-109694414D02*
X134399579Y-109646795D01*
X134399579Y-109646795D02*
X134304341Y-109599176D01*
X134304341Y-109599176D02*
X133494818Y-109599176D01*
X133828151Y-108694414D02*
X134494818Y-108694414D01*
X133447199Y-108932509D02*
X134161484Y-109170604D01*
X134161484Y-109170604D02*
X134161484Y-108551557D01*
X142623333Y-89716819D02*
X142290000Y-89240628D01*
X142051905Y-89716819D02*
X142051905Y-88716819D01*
X142051905Y-88716819D02*
X142432857Y-88716819D01*
X142432857Y-88716819D02*
X142528095Y-88764438D01*
X142528095Y-88764438D02*
X142575714Y-88812057D01*
X142575714Y-88812057D02*
X142623333Y-88907295D01*
X142623333Y-88907295D02*
X142623333Y-89050152D01*
X142623333Y-89050152D02*
X142575714Y-89145390D01*
X142575714Y-89145390D02*
X142528095Y-89193009D01*
X142528095Y-89193009D02*
X142432857Y-89240628D01*
X142432857Y-89240628D02*
X142051905Y-89240628D01*
X143099524Y-89716819D02*
X143290000Y-89716819D01*
X143290000Y-89716819D02*
X143385238Y-89669200D01*
X143385238Y-89669200D02*
X143432857Y-89621580D01*
X143432857Y-89621580D02*
X143528095Y-89478723D01*
X143528095Y-89478723D02*
X143575714Y-89288247D01*
X143575714Y-89288247D02*
X143575714Y-88907295D01*
X143575714Y-88907295D02*
X143528095Y-88812057D01*
X143528095Y-88812057D02*
X143480476Y-88764438D01*
X143480476Y-88764438D02*
X143385238Y-88716819D01*
X143385238Y-88716819D02*
X143194762Y-88716819D01*
X143194762Y-88716819D02*
X143099524Y-88764438D01*
X143099524Y-88764438D02*
X143051905Y-88812057D01*
X143051905Y-88812057D02*
X143004286Y-88907295D01*
X143004286Y-88907295D02*
X143004286Y-89145390D01*
X143004286Y-89145390D02*
X143051905Y-89240628D01*
X143051905Y-89240628D02*
X143099524Y-89288247D01*
X143099524Y-89288247D02*
X143194762Y-89335866D01*
X143194762Y-89335866D02*
X143385238Y-89335866D01*
X143385238Y-89335866D02*
X143480476Y-89288247D01*
X143480476Y-89288247D02*
X143528095Y-89240628D01*
X143528095Y-89240628D02*
X143575714Y-89145390D01*
X147329580Y-116541166D02*
X147377200Y-116588785D01*
X147377200Y-116588785D02*
X147424819Y-116731642D01*
X147424819Y-116731642D02*
X147424819Y-116826880D01*
X147424819Y-116826880D02*
X147377200Y-116969737D01*
X147377200Y-116969737D02*
X147281961Y-117064975D01*
X147281961Y-117064975D02*
X147186723Y-117112594D01*
X147186723Y-117112594D02*
X146996247Y-117160213D01*
X146996247Y-117160213D02*
X146853390Y-117160213D01*
X146853390Y-117160213D02*
X146662914Y-117112594D01*
X146662914Y-117112594D02*
X146567676Y-117064975D01*
X146567676Y-117064975D02*
X146472438Y-116969737D01*
X146472438Y-116969737D02*
X146424819Y-116826880D01*
X146424819Y-116826880D02*
X146424819Y-116731642D01*
X146424819Y-116731642D02*
X146472438Y-116588785D01*
X146472438Y-116588785D02*
X146520057Y-116541166D01*
X147424819Y-116064975D02*
X147424819Y-115874499D01*
X147424819Y-115874499D02*
X147377200Y-115779261D01*
X147377200Y-115779261D02*
X147329580Y-115731642D01*
X147329580Y-115731642D02*
X147186723Y-115636404D01*
X147186723Y-115636404D02*
X146996247Y-115588785D01*
X146996247Y-115588785D02*
X146615295Y-115588785D01*
X146615295Y-115588785D02*
X146520057Y-115636404D01*
X146520057Y-115636404D02*
X146472438Y-115684023D01*
X146472438Y-115684023D02*
X146424819Y-115779261D01*
X146424819Y-115779261D02*
X146424819Y-115969737D01*
X146424819Y-115969737D02*
X146472438Y-116064975D01*
X146472438Y-116064975D02*
X146520057Y-116112594D01*
X146520057Y-116112594D02*
X146615295Y-116160213D01*
X146615295Y-116160213D02*
X146853390Y-116160213D01*
X146853390Y-116160213D02*
X146948628Y-116112594D01*
X146948628Y-116112594D02*
X146996247Y-116064975D01*
X146996247Y-116064975D02*
X147043866Y-115969737D01*
X147043866Y-115969737D02*
X147043866Y-115779261D01*
X147043866Y-115779261D02*
X146996247Y-115684023D01*
X146996247Y-115684023D02*
X146948628Y-115636404D01*
X146948628Y-115636404D02*
X146853390Y-115588785D01*
X140623333Y-86216819D02*
X140290000Y-85740628D01*
X140051905Y-86216819D02*
X140051905Y-85216819D01*
X140051905Y-85216819D02*
X140432857Y-85216819D01*
X140432857Y-85216819D02*
X140528095Y-85264438D01*
X140528095Y-85264438D02*
X140575714Y-85312057D01*
X140575714Y-85312057D02*
X140623333Y-85407295D01*
X140623333Y-85407295D02*
X140623333Y-85550152D01*
X140623333Y-85550152D02*
X140575714Y-85645390D01*
X140575714Y-85645390D02*
X140528095Y-85693009D01*
X140528095Y-85693009D02*
X140432857Y-85740628D01*
X140432857Y-85740628D02*
X140051905Y-85740628D01*
X140956667Y-85216819D02*
X141623333Y-85216819D01*
X141623333Y-85216819D02*
X141194762Y-86216819D01*
X149539580Y-99592857D02*
X149587200Y-99640476D01*
X149587200Y-99640476D02*
X149634819Y-99783333D01*
X149634819Y-99783333D02*
X149634819Y-99878571D01*
X149634819Y-99878571D02*
X149587200Y-100021428D01*
X149587200Y-100021428D02*
X149491961Y-100116666D01*
X149491961Y-100116666D02*
X149396723Y-100164285D01*
X149396723Y-100164285D02*
X149206247Y-100211904D01*
X149206247Y-100211904D02*
X149063390Y-100211904D01*
X149063390Y-100211904D02*
X148872914Y-100164285D01*
X148872914Y-100164285D02*
X148777676Y-100116666D01*
X148777676Y-100116666D02*
X148682438Y-100021428D01*
X148682438Y-100021428D02*
X148634819Y-99878571D01*
X148634819Y-99878571D02*
X148634819Y-99783333D01*
X148634819Y-99783333D02*
X148682438Y-99640476D01*
X148682438Y-99640476D02*
X148730057Y-99592857D01*
X149634819Y-98640476D02*
X149634819Y-99211904D01*
X149634819Y-98926190D02*
X148634819Y-98926190D01*
X148634819Y-98926190D02*
X148777676Y-99021428D01*
X148777676Y-99021428D02*
X148872914Y-99116666D01*
X148872914Y-99116666D02*
X148920533Y-99211904D01*
X148968152Y-97783333D02*
X149634819Y-97783333D01*
X148587200Y-98021428D02*
X149301485Y-98259523D01*
X149301485Y-98259523D02*
X149301485Y-97640476D01*
X126123333Y-101451580D02*
X126075714Y-101499200D01*
X126075714Y-101499200D02*
X125932857Y-101546819D01*
X125932857Y-101546819D02*
X125837619Y-101546819D01*
X125837619Y-101546819D02*
X125694762Y-101499200D01*
X125694762Y-101499200D02*
X125599524Y-101403961D01*
X125599524Y-101403961D02*
X125551905Y-101308723D01*
X125551905Y-101308723D02*
X125504286Y-101118247D01*
X125504286Y-101118247D02*
X125504286Y-100975390D01*
X125504286Y-100975390D02*
X125551905Y-100784914D01*
X125551905Y-100784914D02*
X125599524Y-100689676D01*
X125599524Y-100689676D02*
X125694762Y-100594438D01*
X125694762Y-100594438D02*
X125837619Y-100546819D01*
X125837619Y-100546819D02*
X125932857Y-100546819D01*
X125932857Y-100546819D02*
X126075714Y-100594438D01*
X126075714Y-100594438D02*
X126123333Y-100642057D01*
X126980476Y-100880152D02*
X126980476Y-101546819D01*
X126742381Y-100499200D02*
X126504286Y-101213485D01*
X126504286Y-101213485D02*
X127123333Y-101213485D01*
X175299580Y-74029857D02*
X175347200Y-74077476D01*
X175347200Y-74077476D02*
X175394819Y-74220333D01*
X175394819Y-74220333D02*
X175394819Y-74315571D01*
X175394819Y-74315571D02*
X175347200Y-74458428D01*
X175347200Y-74458428D02*
X175251961Y-74553666D01*
X175251961Y-74553666D02*
X175156723Y-74601285D01*
X175156723Y-74601285D02*
X174966247Y-74648904D01*
X174966247Y-74648904D02*
X174823390Y-74648904D01*
X174823390Y-74648904D02*
X174632914Y-74601285D01*
X174632914Y-74601285D02*
X174537676Y-74553666D01*
X174537676Y-74553666D02*
X174442438Y-74458428D01*
X174442438Y-74458428D02*
X174394819Y-74315571D01*
X174394819Y-74315571D02*
X174394819Y-74220333D01*
X174394819Y-74220333D02*
X174442438Y-74077476D01*
X174442438Y-74077476D02*
X174490057Y-74029857D01*
X174728152Y-73172714D02*
X175394819Y-73172714D01*
X174347200Y-73410809D02*
X175061485Y-73648904D01*
X175061485Y-73648904D02*
X175061485Y-73029857D01*
X174728152Y-72220333D02*
X175394819Y-72220333D01*
X174347200Y-72458428D02*
X175061485Y-72696523D01*
X175061485Y-72696523D02*
X175061485Y-72077476D01*
X144623333Y-86216819D02*
X144290000Y-85740628D01*
X144051905Y-86216819D02*
X144051905Y-85216819D01*
X144051905Y-85216819D02*
X144432857Y-85216819D01*
X144432857Y-85216819D02*
X144528095Y-85264438D01*
X144528095Y-85264438D02*
X144575714Y-85312057D01*
X144575714Y-85312057D02*
X144623333Y-85407295D01*
X144623333Y-85407295D02*
X144623333Y-85550152D01*
X144623333Y-85550152D02*
X144575714Y-85645390D01*
X144575714Y-85645390D02*
X144528095Y-85693009D01*
X144528095Y-85693009D02*
X144432857Y-85740628D01*
X144432857Y-85740628D02*
X144051905Y-85740628D01*
X145194762Y-85645390D02*
X145099524Y-85597771D01*
X145099524Y-85597771D02*
X145051905Y-85550152D01*
X145051905Y-85550152D02*
X145004286Y-85454914D01*
X145004286Y-85454914D02*
X145004286Y-85407295D01*
X145004286Y-85407295D02*
X145051905Y-85312057D01*
X145051905Y-85312057D02*
X145099524Y-85264438D01*
X145099524Y-85264438D02*
X145194762Y-85216819D01*
X145194762Y-85216819D02*
X145385238Y-85216819D01*
X145385238Y-85216819D02*
X145480476Y-85264438D01*
X145480476Y-85264438D02*
X145528095Y-85312057D01*
X145528095Y-85312057D02*
X145575714Y-85407295D01*
X145575714Y-85407295D02*
X145575714Y-85454914D01*
X145575714Y-85454914D02*
X145528095Y-85550152D01*
X145528095Y-85550152D02*
X145480476Y-85597771D01*
X145480476Y-85597771D02*
X145385238Y-85645390D01*
X145385238Y-85645390D02*
X145194762Y-85645390D01*
X145194762Y-85645390D02*
X145099524Y-85693009D01*
X145099524Y-85693009D02*
X145051905Y-85740628D01*
X145051905Y-85740628D02*
X145004286Y-85835866D01*
X145004286Y-85835866D02*
X145004286Y-86026342D01*
X145004286Y-86026342D02*
X145051905Y-86121580D01*
X145051905Y-86121580D02*
X145099524Y-86169200D01*
X145099524Y-86169200D02*
X145194762Y-86216819D01*
X145194762Y-86216819D02*
X145385238Y-86216819D01*
X145385238Y-86216819D02*
X145480476Y-86169200D01*
X145480476Y-86169200D02*
X145528095Y-86121580D01*
X145528095Y-86121580D02*
X145575714Y-86026342D01*
X145575714Y-86026342D02*
X145575714Y-85835866D01*
X145575714Y-85835866D02*
X145528095Y-85740628D01*
X145528095Y-85740628D02*
X145480476Y-85693009D01*
X145480476Y-85693009D02*
X145385238Y-85645390D01*
X130623333Y-86951580D02*
X130575714Y-86999200D01*
X130575714Y-86999200D02*
X130432857Y-87046819D01*
X130432857Y-87046819D02*
X130337619Y-87046819D01*
X130337619Y-87046819D02*
X130194762Y-86999200D01*
X130194762Y-86999200D02*
X130099524Y-86903961D01*
X130099524Y-86903961D02*
X130051905Y-86808723D01*
X130051905Y-86808723D02*
X130004286Y-86618247D01*
X130004286Y-86618247D02*
X130004286Y-86475390D01*
X130004286Y-86475390D02*
X130051905Y-86284914D01*
X130051905Y-86284914D02*
X130099524Y-86189676D01*
X130099524Y-86189676D02*
X130194762Y-86094438D01*
X130194762Y-86094438D02*
X130337619Y-86046819D01*
X130337619Y-86046819D02*
X130432857Y-86046819D01*
X130432857Y-86046819D02*
X130575714Y-86094438D01*
X130575714Y-86094438D02*
X130623333Y-86142057D01*
X131194762Y-86475390D02*
X131099524Y-86427771D01*
X131099524Y-86427771D02*
X131051905Y-86380152D01*
X131051905Y-86380152D02*
X131004286Y-86284914D01*
X131004286Y-86284914D02*
X131004286Y-86237295D01*
X131004286Y-86237295D02*
X131051905Y-86142057D01*
X131051905Y-86142057D02*
X131099524Y-86094438D01*
X131099524Y-86094438D02*
X131194762Y-86046819D01*
X131194762Y-86046819D02*
X131385238Y-86046819D01*
X131385238Y-86046819D02*
X131480476Y-86094438D01*
X131480476Y-86094438D02*
X131528095Y-86142057D01*
X131528095Y-86142057D02*
X131575714Y-86237295D01*
X131575714Y-86237295D02*
X131575714Y-86284914D01*
X131575714Y-86284914D02*
X131528095Y-86380152D01*
X131528095Y-86380152D02*
X131480476Y-86427771D01*
X131480476Y-86427771D02*
X131385238Y-86475390D01*
X131385238Y-86475390D02*
X131194762Y-86475390D01*
X131194762Y-86475390D02*
X131099524Y-86523009D01*
X131099524Y-86523009D02*
X131051905Y-86570628D01*
X131051905Y-86570628D02*
X131004286Y-86665866D01*
X131004286Y-86665866D02*
X131004286Y-86856342D01*
X131004286Y-86856342D02*
X131051905Y-86951580D01*
X131051905Y-86951580D02*
X131099524Y-86999200D01*
X131099524Y-86999200D02*
X131194762Y-87046819D01*
X131194762Y-87046819D02*
X131385238Y-87046819D01*
X131385238Y-87046819D02*
X131480476Y-86999200D01*
X131480476Y-86999200D02*
X131528095Y-86951580D01*
X131528095Y-86951580D02*
X131575714Y-86856342D01*
X131575714Y-86856342D02*
X131575714Y-86665866D01*
X131575714Y-86665866D02*
X131528095Y-86570628D01*
X131528095Y-86570628D02*
X131480476Y-86523009D01*
X131480476Y-86523009D02*
X131385238Y-86475390D01*
X139123333Y-105716819D02*
X138790000Y-105240628D01*
X138551905Y-105716819D02*
X138551905Y-104716819D01*
X138551905Y-104716819D02*
X138932857Y-104716819D01*
X138932857Y-104716819D02*
X139028095Y-104764438D01*
X139028095Y-104764438D02*
X139075714Y-104812057D01*
X139075714Y-104812057D02*
X139123333Y-104907295D01*
X139123333Y-104907295D02*
X139123333Y-105050152D01*
X139123333Y-105050152D02*
X139075714Y-105145390D01*
X139075714Y-105145390D02*
X139028095Y-105193009D01*
X139028095Y-105193009D02*
X138932857Y-105240628D01*
X138932857Y-105240628D02*
X138551905Y-105240628D01*
X139980476Y-104716819D02*
X139790000Y-104716819D01*
X139790000Y-104716819D02*
X139694762Y-104764438D01*
X139694762Y-104764438D02*
X139647143Y-104812057D01*
X139647143Y-104812057D02*
X139551905Y-104954914D01*
X139551905Y-104954914D02*
X139504286Y-105145390D01*
X139504286Y-105145390D02*
X139504286Y-105526342D01*
X139504286Y-105526342D02*
X139551905Y-105621580D01*
X139551905Y-105621580D02*
X139599524Y-105669200D01*
X139599524Y-105669200D02*
X139694762Y-105716819D01*
X139694762Y-105716819D02*
X139885238Y-105716819D01*
X139885238Y-105716819D02*
X139980476Y-105669200D01*
X139980476Y-105669200D02*
X140028095Y-105621580D01*
X140028095Y-105621580D02*
X140075714Y-105526342D01*
X140075714Y-105526342D02*
X140075714Y-105288247D01*
X140075714Y-105288247D02*
X140028095Y-105193009D01*
X140028095Y-105193009D02*
X139980476Y-105145390D01*
X139980476Y-105145390D02*
X139885238Y-105097771D01*
X139885238Y-105097771D02*
X139694762Y-105097771D01*
X139694762Y-105097771D02*
X139599524Y-105145390D01*
X139599524Y-105145390D02*
X139551905Y-105193009D01*
X139551905Y-105193009D02*
X139504286Y-105288247D01*
X172623333Y-82886819D02*
X172147143Y-82886819D01*
X172147143Y-82886819D02*
X172147143Y-81886819D01*
X173099524Y-82315390D02*
X173004286Y-82267771D01*
X173004286Y-82267771D02*
X172956667Y-82220152D01*
X172956667Y-82220152D02*
X172909048Y-82124914D01*
X172909048Y-82124914D02*
X172909048Y-82077295D01*
X172909048Y-82077295D02*
X172956667Y-81982057D01*
X172956667Y-81982057D02*
X173004286Y-81934438D01*
X173004286Y-81934438D02*
X173099524Y-81886819D01*
X173099524Y-81886819D02*
X173290000Y-81886819D01*
X173290000Y-81886819D02*
X173385238Y-81934438D01*
X173385238Y-81934438D02*
X173432857Y-81982057D01*
X173432857Y-81982057D02*
X173480476Y-82077295D01*
X173480476Y-82077295D02*
X173480476Y-82124914D01*
X173480476Y-82124914D02*
X173432857Y-82220152D01*
X173432857Y-82220152D02*
X173385238Y-82267771D01*
X173385238Y-82267771D02*
X173290000Y-82315390D01*
X173290000Y-82315390D02*
X173099524Y-82315390D01*
X173099524Y-82315390D02*
X173004286Y-82363009D01*
X173004286Y-82363009D02*
X172956667Y-82410628D01*
X172956667Y-82410628D02*
X172909048Y-82505866D01*
X172909048Y-82505866D02*
X172909048Y-82696342D01*
X172909048Y-82696342D02*
X172956667Y-82791580D01*
X172956667Y-82791580D02*
X173004286Y-82839200D01*
X173004286Y-82839200D02*
X173099524Y-82886819D01*
X173099524Y-82886819D02*
X173290000Y-82886819D01*
X173290000Y-82886819D02*
X173385238Y-82839200D01*
X173385238Y-82839200D02*
X173432857Y-82791580D01*
X173432857Y-82791580D02*
X173480476Y-82696342D01*
X173480476Y-82696342D02*
X173480476Y-82505866D01*
X173480476Y-82505866D02*
X173432857Y-82410628D01*
X173432857Y-82410628D02*
X173385238Y-82363009D01*
X173385238Y-82363009D02*
X173290000Y-82315390D01*
X142894819Y-117054857D02*
X142418628Y-117388190D01*
X142894819Y-117626285D02*
X141894819Y-117626285D01*
X141894819Y-117626285D02*
X141894819Y-117245333D01*
X141894819Y-117245333D02*
X141942438Y-117150095D01*
X141942438Y-117150095D02*
X141990057Y-117102476D01*
X141990057Y-117102476D02*
X142085295Y-117054857D01*
X142085295Y-117054857D02*
X142228152Y-117054857D01*
X142228152Y-117054857D02*
X142323390Y-117102476D01*
X142323390Y-117102476D02*
X142371009Y-117150095D01*
X142371009Y-117150095D02*
X142418628Y-117245333D01*
X142418628Y-117245333D02*
X142418628Y-117626285D01*
X142894819Y-116102476D02*
X142894819Y-116673904D01*
X142894819Y-116388190D02*
X141894819Y-116388190D01*
X141894819Y-116388190D02*
X142037676Y-116483428D01*
X142037676Y-116483428D02*
X142132914Y-116578666D01*
X142132914Y-116578666D02*
X142180533Y-116673904D01*
X142894819Y-115150095D02*
X142894819Y-115721523D01*
X142894819Y-115435809D02*
X141894819Y-115435809D01*
X141894819Y-115435809D02*
X142037676Y-115531047D01*
X142037676Y-115531047D02*
X142132914Y-115626285D01*
X142132914Y-115626285D02*
X142180533Y-115721523D01*
X178999580Y-91029857D02*
X179047200Y-91077476D01*
X179047200Y-91077476D02*
X179094819Y-91220333D01*
X179094819Y-91220333D02*
X179094819Y-91315571D01*
X179094819Y-91315571D02*
X179047200Y-91458428D01*
X179047200Y-91458428D02*
X178951961Y-91553666D01*
X178951961Y-91553666D02*
X178856723Y-91601285D01*
X178856723Y-91601285D02*
X178666247Y-91648904D01*
X178666247Y-91648904D02*
X178523390Y-91648904D01*
X178523390Y-91648904D02*
X178332914Y-91601285D01*
X178332914Y-91601285D02*
X178237676Y-91553666D01*
X178237676Y-91553666D02*
X178142438Y-91458428D01*
X178142438Y-91458428D02*
X178094819Y-91315571D01*
X178094819Y-91315571D02*
X178094819Y-91220333D01*
X178094819Y-91220333D02*
X178142438Y-91077476D01*
X178142438Y-91077476D02*
X178190057Y-91029857D01*
X178428152Y-90172714D02*
X179094819Y-90172714D01*
X178047200Y-90410809D02*
X178761485Y-90648904D01*
X178761485Y-90648904D02*
X178761485Y-90029857D01*
X178094819Y-89220333D02*
X178094819Y-89410809D01*
X178094819Y-89410809D02*
X178142438Y-89506047D01*
X178142438Y-89506047D02*
X178190057Y-89553666D01*
X178190057Y-89553666D02*
X178332914Y-89648904D01*
X178332914Y-89648904D02*
X178523390Y-89696523D01*
X178523390Y-89696523D02*
X178904342Y-89696523D01*
X178904342Y-89696523D02*
X178999580Y-89648904D01*
X178999580Y-89648904D02*
X179047200Y-89601285D01*
X179047200Y-89601285D02*
X179094819Y-89506047D01*
X179094819Y-89506047D02*
X179094819Y-89315571D01*
X179094819Y-89315571D02*
X179047200Y-89220333D01*
X179047200Y-89220333D02*
X178999580Y-89172714D01*
X178999580Y-89172714D02*
X178904342Y-89125095D01*
X178904342Y-89125095D02*
X178666247Y-89125095D01*
X178666247Y-89125095D02*
X178571009Y-89172714D01*
X178571009Y-89172714D02*
X178523390Y-89220333D01*
X178523390Y-89220333D02*
X178475771Y-89315571D01*
X178475771Y-89315571D02*
X178475771Y-89506047D01*
X178475771Y-89506047D02*
X178523390Y-89601285D01*
X178523390Y-89601285D02*
X178571009Y-89648904D01*
X178571009Y-89648904D02*
X178666247Y-89696523D01*
X178799580Y-96054857D02*
X178847200Y-96102476D01*
X178847200Y-96102476D02*
X178894819Y-96245333D01*
X178894819Y-96245333D02*
X178894819Y-96340571D01*
X178894819Y-96340571D02*
X178847200Y-96483428D01*
X178847200Y-96483428D02*
X178751961Y-96578666D01*
X178751961Y-96578666D02*
X178656723Y-96626285D01*
X178656723Y-96626285D02*
X178466247Y-96673904D01*
X178466247Y-96673904D02*
X178323390Y-96673904D01*
X178323390Y-96673904D02*
X178132914Y-96626285D01*
X178132914Y-96626285D02*
X178037676Y-96578666D01*
X178037676Y-96578666D02*
X177942438Y-96483428D01*
X177942438Y-96483428D02*
X177894819Y-96340571D01*
X177894819Y-96340571D02*
X177894819Y-96245333D01*
X177894819Y-96245333D02*
X177942438Y-96102476D01*
X177942438Y-96102476D02*
X177990057Y-96054857D01*
X178228152Y-95197714D02*
X178894819Y-95197714D01*
X177847200Y-95435809D02*
X178561485Y-95673904D01*
X178561485Y-95673904D02*
X178561485Y-95054857D01*
X177894819Y-94769142D02*
X177894819Y-94150095D01*
X177894819Y-94150095D02*
X178275771Y-94483428D01*
X178275771Y-94483428D02*
X178275771Y-94340571D01*
X178275771Y-94340571D02*
X178323390Y-94245333D01*
X178323390Y-94245333D02*
X178371009Y-94197714D01*
X178371009Y-94197714D02*
X178466247Y-94150095D01*
X178466247Y-94150095D02*
X178704342Y-94150095D01*
X178704342Y-94150095D02*
X178799580Y-94197714D01*
X178799580Y-94197714D02*
X178847200Y-94245333D01*
X178847200Y-94245333D02*
X178894819Y-94340571D01*
X178894819Y-94340571D02*
X178894819Y-94626285D01*
X178894819Y-94626285D02*
X178847200Y-94721523D01*
X178847200Y-94721523D02*
X178799580Y-94769142D01*
X139123333Y-108216819D02*
X138790000Y-107740628D01*
X138551905Y-108216819D02*
X138551905Y-107216819D01*
X138551905Y-107216819D02*
X138932857Y-107216819D01*
X138932857Y-107216819D02*
X139028095Y-107264438D01*
X139028095Y-107264438D02*
X139075714Y-107312057D01*
X139075714Y-107312057D02*
X139123333Y-107407295D01*
X139123333Y-107407295D02*
X139123333Y-107550152D01*
X139123333Y-107550152D02*
X139075714Y-107645390D01*
X139075714Y-107645390D02*
X139028095Y-107693009D01*
X139028095Y-107693009D02*
X138932857Y-107740628D01*
X138932857Y-107740628D02*
X138551905Y-107740628D01*
X140075714Y-108216819D02*
X139504286Y-108216819D01*
X139790000Y-108216819D02*
X139790000Y-107216819D01*
X139790000Y-107216819D02*
X139694762Y-107359676D01*
X139694762Y-107359676D02*
X139599524Y-107454914D01*
X139599524Y-107454914D02*
X139504286Y-107502533D01*
X151829580Y-116578666D02*
X151877200Y-116626285D01*
X151877200Y-116626285D02*
X151924819Y-116769142D01*
X151924819Y-116769142D02*
X151924819Y-116864380D01*
X151924819Y-116864380D02*
X151877200Y-117007237D01*
X151877200Y-117007237D02*
X151781961Y-117102475D01*
X151781961Y-117102475D02*
X151686723Y-117150094D01*
X151686723Y-117150094D02*
X151496247Y-117197713D01*
X151496247Y-117197713D02*
X151353390Y-117197713D01*
X151353390Y-117197713D02*
X151162914Y-117150094D01*
X151162914Y-117150094D02*
X151067676Y-117102475D01*
X151067676Y-117102475D02*
X150972438Y-117007237D01*
X150972438Y-117007237D02*
X150924819Y-116864380D01*
X150924819Y-116864380D02*
X150924819Y-116769142D01*
X150924819Y-116769142D02*
X150972438Y-116626285D01*
X150972438Y-116626285D02*
X151020057Y-116578666D01*
X150924819Y-115721523D02*
X150924819Y-115911999D01*
X150924819Y-115911999D02*
X150972438Y-116007237D01*
X150972438Y-116007237D02*
X151020057Y-116054856D01*
X151020057Y-116054856D02*
X151162914Y-116150094D01*
X151162914Y-116150094D02*
X151353390Y-116197713D01*
X151353390Y-116197713D02*
X151734342Y-116197713D01*
X151734342Y-116197713D02*
X151829580Y-116150094D01*
X151829580Y-116150094D02*
X151877200Y-116102475D01*
X151877200Y-116102475D02*
X151924819Y-116007237D01*
X151924819Y-116007237D02*
X151924819Y-115816761D01*
X151924819Y-115816761D02*
X151877200Y-115721523D01*
X151877200Y-115721523D02*
X151829580Y-115673904D01*
X151829580Y-115673904D02*
X151734342Y-115626285D01*
X151734342Y-115626285D02*
X151496247Y-115626285D01*
X151496247Y-115626285D02*
X151401009Y-115673904D01*
X151401009Y-115673904D02*
X151353390Y-115721523D01*
X151353390Y-115721523D02*
X151305771Y-115816761D01*
X151305771Y-115816761D02*
X151305771Y-116007237D01*
X151305771Y-116007237D02*
X151353390Y-116102475D01*
X151353390Y-116102475D02*
X151401009Y-116150094D01*
X151401009Y-116150094D02*
X151496247Y-116197713D01*
X133028096Y-93816819D02*
X133028096Y-94626342D01*
X133028096Y-94626342D02*
X133075715Y-94721580D01*
X133075715Y-94721580D02*
X133123334Y-94769200D01*
X133123334Y-94769200D02*
X133218572Y-94816819D01*
X133218572Y-94816819D02*
X133409048Y-94816819D01*
X133409048Y-94816819D02*
X133504286Y-94769200D01*
X133504286Y-94769200D02*
X133551905Y-94721580D01*
X133551905Y-94721580D02*
X133599524Y-94626342D01*
X133599524Y-94626342D02*
X133599524Y-93816819D01*
X134028096Y-93912057D02*
X134075715Y-93864438D01*
X134075715Y-93864438D02*
X134170953Y-93816819D01*
X134170953Y-93816819D02*
X134409048Y-93816819D01*
X134409048Y-93816819D02*
X134504286Y-93864438D01*
X134504286Y-93864438D02*
X134551905Y-93912057D01*
X134551905Y-93912057D02*
X134599524Y-94007295D01*
X134599524Y-94007295D02*
X134599524Y-94102533D01*
X134599524Y-94102533D02*
X134551905Y-94245390D01*
X134551905Y-94245390D02*
X133980477Y-94816819D01*
X133980477Y-94816819D02*
X134599524Y-94816819D01*
X133028095Y-106066819D02*
X133028095Y-106876342D01*
X133028095Y-106876342D02*
X133075714Y-106971580D01*
X133075714Y-106971580D02*
X133123333Y-107019200D01*
X133123333Y-107019200D02*
X133218571Y-107066819D01*
X133218571Y-107066819D02*
X133409047Y-107066819D01*
X133409047Y-107066819D02*
X133504285Y-107019200D01*
X133504285Y-107019200D02*
X133551904Y-106971580D01*
X133551904Y-106971580D02*
X133599523Y-106876342D01*
X133599523Y-106876342D02*
X133599523Y-106066819D01*
X134599523Y-107066819D02*
X134028095Y-107066819D01*
X134313809Y-107066819D02*
X134313809Y-106066819D01*
X134313809Y-106066819D02*
X134218571Y-106209676D01*
X134218571Y-106209676D02*
X134123333Y-106304914D01*
X134123333Y-106304914D02*
X134028095Y-106352533D01*
X175299580Y-96054857D02*
X175347200Y-96102476D01*
X175347200Y-96102476D02*
X175394819Y-96245333D01*
X175394819Y-96245333D02*
X175394819Y-96340571D01*
X175394819Y-96340571D02*
X175347200Y-96483428D01*
X175347200Y-96483428D02*
X175251961Y-96578666D01*
X175251961Y-96578666D02*
X175156723Y-96626285D01*
X175156723Y-96626285D02*
X174966247Y-96673904D01*
X174966247Y-96673904D02*
X174823390Y-96673904D01*
X174823390Y-96673904D02*
X174632914Y-96626285D01*
X174632914Y-96626285D02*
X174537676Y-96578666D01*
X174537676Y-96578666D02*
X174442438Y-96483428D01*
X174442438Y-96483428D02*
X174394819Y-96340571D01*
X174394819Y-96340571D02*
X174394819Y-96245333D01*
X174394819Y-96245333D02*
X174442438Y-96102476D01*
X174442438Y-96102476D02*
X174490057Y-96054857D01*
X175394819Y-95102476D02*
X175394819Y-95673904D01*
X175394819Y-95388190D02*
X174394819Y-95388190D01*
X174394819Y-95388190D02*
X174537676Y-95483428D01*
X174537676Y-95483428D02*
X174632914Y-95578666D01*
X174632914Y-95578666D02*
X174680533Y-95673904D01*
X175394819Y-94626285D02*
X175394819Y-94435809D01*
X175394819Y-94435809D02*
X175347200Y-94340571D01*
X175347200Y-94340571D02*
X175299580Y-94292952D01*
X175299580Y-94292952D02*
X175156723Y-94197714D01*
X175156723Y-94197714D02*
X174966247Y-94150095D01*
X174966247Y-94150095D02*
X174585295Y-94150095D01*
X174585295Y-94150095D02*
X174490057Y-94197714D01*
X174490057Y-94197714D02*
X174442438Y-94245333D01*
X174442438Y-94245333D02*
X174394819Y-94340571D01*
X174394819Y-94340571D02*
X174394819Y-94531047D01*
X174394819Y-94531047D02*
X174442438Y-94626285D01*
X174442438Y-94626285D02*
X174490057Y-94673904D01*
X174490057Y-94673904D02*
X174585295Y-94721523D01*
X174585295Y-94721523D02*
X174823390Y-94721523D01*
X174823390Y-94721523D02*
X174918628Y-94673904D01*
X174918628Y-94673904D02*
X174966247Y-94626285D01*
X174966247Y-94626285D02*
X175013866Y-94531047D01*
X175013866Y-94531047D02*
X175013866Y-94340571D01*
X175013866Y-94340571D02*
X174966247Y-94245333D01*
X174966247Y-94245333D02*
X174918628Y-94197714D01*
X174918628Y-94197714D02*
X174823390Y-94150095D01*
X140454819Y-109411904D02*
X141264342Y-109411904D01*
X141264342Y-109411904D02*
X141359580Y-109364285D01*
X141359580Y-109364285D02*
X141407200Y-109316666D01*
X141407200Y-109316666D02*
X141454819Y-109221428D01*
X141454819Y-109221428D02*
X141454819Y-109030952D01*
X141454819Y-109030952D02*
X141407200Y-108935714D01*
X141407200Y-108935714D02*
X141359580Y-108888095D01*
X141359580Y-108888095D02*
X141264342Y-108840476D01*
X141264342Y-108840476D02*
X140454819Y-108840476D01*
X140454819Y-107888095D02*
X140454819Y-108364285D01*
X140454819Y-108364285D02*
X140931009Y-108411904D01*
X140931009Y-108411904D02*
X140883390Y-108364285D01*
X140883390Y-108364285D02*
X140835771Y-108269047D01*
X140835771Y-108269047D02*
X140835771Y-108030952D01*
X140835771Y-108030952D02*
X140883390Y-107935714D01*
X140883390Y-107935714D02*
X140931009Y-107888095D01*
X140931009Y-107888095D02*
X141026247Y-107840476D01*
X141026247Y-107840476D02*
X141264342Y-107840476D01*
X141264342Y-107840476D02*
X141359580Y-107888095D01*
X141359580Y-107888095D02*
X141407200Y-107935714D01*
X141407200Y-107935714D02*
X141454819Y-108030952D01*
X141454819Y-108030952D02*
X141454819Y-108269047D01*
X141454819Y-108269047D02*
X141407200Y-108364285D01*
X141407200Y-108364285D02*
X141359580Y-108411904D01*
X134123333Y-118516819D02*
X133790000Y-118040628D01*
X133551905Y-118516819D02*
X133551905Y-117516819D01*
X133551905Y-117516819D02*
X133932857Y-117516819D01*
X133932857Y-117516819D02*
X134028095Y-117564438D01*
X134028095Y-117564438D02*
X134075714Y-117612057D01*
X134075714Y-117612057D02*
X134123333Y-117707295D01*
X134123333Y-117707295D02*
X134123333Y-117850152D01*
X134123333Y-117850152D02*
X134075714Y-117945390D01*
X134075714Y-117945390D02*
X134028095Y-117993009D01*
X134028095Y-117993009D02*
X133932857Y-118040628D01*
X133932857Y-118040628D02*
X133551905Y-118040628D01*
X134504286Y-117612057D02*
X134551905Y-117564438D01*
X134551905Y-117564438D02*
X134647143Y-117516819D01*
X134647143Y-117516819D02*
X134885238Y-117516819D01*
X134885238Y-117516819D02*
X134980476Y-117564438D01*
X134980476Y-117564438D02*
X135028095Y-117612057D01*
X135028095Y-117612057D02*
X135075714Y-117707295D01*
X135075714Y-117707295D02*
X135075714Y-117802533D01*
X135075714Y-117802533D02*
X135028095Y-117945390D01*
X135028095Y-117945390D02*
X134456667Y-118516819D01*
X134456667Y-118516819D02*
X135075714Y-118516819D01*
X132953095Y-118866819D02*
X132953095Y-119676342D01*
X132953095Y-119676342D02*
X133000714Y-119771580D01*
X133000714Y-119771580D02*
X133048333Y-119819200D01*
X133048333Y-119819200D02*
X133143571Y-119866819D01*
X133143571Y-119866819D02*
X133334047Y-119866819D01*
X133334047Y-119866819D02*
X133429285Y-119819200D01*
X133429285Y-119819200D02*
X133476904Y-119771580D01*
X133476904Y-119771580D02*
X133524523Y-119676342D01*
X133524523Y-119676342D02*
X133524523Y-118866819D01*
X133905476Y-118866819D02*
X134524523Y-118866819D01*
X134524523Y-118866819D02*
X134191190Y-119247771D01*
X134191190Y-119247771D02*
X134334047Y-119247771D01*
X134334047Y-119247771D02*
X134429285Y-119295390D01*
X134429285Y-119295390D02*
X134476904Y-119343009D01*
X134476904Y-119343009D02*
X134524523Y-119438247D01*
X134524523Y-119438247D02*
X134524523Y-119676342D01*
X134524523Y-119676342D02*
X134476904Y-119771580D01*
X134476904Y-119771580D02*
X134429285Y-119819200D01*
X134429285Y-119819200D02*
X134334047Y-119866819D01*
X134334047Y-119866819D02*
X134048333Y-119866819D01*
X134048333Y-119866819D02*
X133953095Y-119819200D01*
X133953095Y-119819200D02*
X133905476Y-119771580D01*
X143969580Y-80278666D02*
X144017200Y-80326285D01*
X144017200Y-80326285D02*
X144064819Y-80469142D01*
X144064819Y-80469142D02*
X144064819Y-80564380D01*
X144064819Y-80564380D02*
X144017200Y-80707237D01*
X144017200Y-80707237D02*
X143921961Y-80802475D01*
X143921961Y-80802475D02*
X143826723Y-80850094D01*
X143826723Y-80850094D02*
X143636247Y-80897713D01*
X143636247Y-80897713D02*
X143493390Y-80897713D01*
X143493390Y-80897713D02*
X143302914Y-80850094D01*
X143302914Y-80850094D02*
X143207676Y-80802475D01*
X143207676Y-80802475D02*
X143112438Y-80707237D01*
X143112438Y-80707237D02*
X143064819Y-80564380D01*
X143064819Y-80564380D02*
X143064819Y-80469142D01*
X143064819Y-80469142D02*
X143112438Y-80326285D01*
X143112438Y-80326285D02*
X143160057Y-80278666D01*
X143064819Y-79373904D02*
X143064819Y-79850094D01*
X143064819Y-79850094D02*
X143541009Y-79897713D01*
X143541009Y-79897713D02*
X143493390Y-79850094D01*
X143493390Y-79850094D02*
X143445771Y-79754856D01*
X143445771Y-79754856D02*
X143445771Y-79516761D01*
X143445771Y-79516761D02*
X143493390Y-79421523D01*
X143493390Y-79421523D02*
X143541009Y-79373904D01*
X143541009Y-79373904D02*
X143636247Y-79326285D01*
X143636247Y-79326285D02*
X143874342Y-79326285D01*
X143874342Y-79326285D02*
X143969580Y-79373904D01*
X143969580Y-79373904D02*
X144017200Y-79421523D01*
X144017200Y-79421523D02*
X144064819Y-79516761D01*
X144064819Y-79516761D02*
X144064819Y-79754856D01*
X144064819Y-79754856D02*
X144017200Y-79850094D01*
X144017200Y-79850094D02*
X143969580Y-79897713D01*
X136123333Y-88591580D02*
X136075714Y-88639200D01*
X136075714Y-88639200D02*
X135932857Y-88686819D01*
X135932857Y-88686819D02*
X135837619Y-88686819D01*
X135837619Y-88686819D02*
X135694762Y-88639200D01*
X135694762Y-88639200D02*
X135599524Y-88543961D01*
X135599524Y-88543961D02*
X135551905Y-88448723D01*
X135551905Y-88448723D02*
X135504286Y-88258247D01*
X135504286Y-88258247D02*
X135504286Y-88115390D01*
X135504286Y-88115390D02*
X135551905Y-87924914D01*
X135551905Y-87924914D02*
X135599524Y-87829676D01*
X135599524Y-87829676D02*
X135694762Y-87734438D01*
X135694762Y-87734438D02*
X135837619Y-87686819D01*
X135837619Y-87686819D02*
X135932857Y-87686819D01*
X135932857Y-87686819D02*
X136075714Y-87734438D01*
X136075714Y-87734438D02*
X136123333Y-87782057D01*
X136504286Y-87782057D02*
X136551905Y-87734438D01*
X136551905Y-87734438D02*
X136647143Y-87686819D01*
X136647143Y-87686819D02*
X136885238Y-87686819D01*
X136885238Y-87686819D02*
X136980476Y-87734438D01*
X136980476Y-87734438D02*
X137028095Y-87782057D01*
X137028095Y-87782057D02*
X137075714Y-87877295D01*
X137075714Y-87877295D02*
X137075714Y-87972533D01*
X137075714Y-87972533D02*
X137028095Y-88115390D01*
X137028095Y-88115390D02*
X136456667Y-88686819D01*
X136456667Y-88686819D02*
X137075714Y-88686819D01*
X147413811Y-93691819D02*
X147413811Y-92691819D01*
X148461429Y-93596580D02*
X148413810Y-93644200D01*
X148413810Y-93644200D02*
X148270953Y-93691819D01*
X148270953Y-93691819D02*
X148175715Y-93691819D01*
X148175715Y-93691819D02*
X148032858Y-93644200D01*
X148032858Y-93644200D02*
X147937620Y-93548961D01*
X147937620Y-93548961D02*
X147890001Y-93453723D01*
X147890001Y-93453723D02*
X147842382Y-93263247D01*
X147842382Y-93263247D02*
X147842382Y-93120390D01*
X147842382Y-93120390D02*
X147890001Y-92929914D01*
X147890001Y-92929914D02*
X147937620Y-92834676D01*
X147937620Y-92834676D02*
X148032858Y-92739438D01*
X148032858Y-92739438D02*
X148175715Y-92691819D01*
X148175715Y-92691819D02*
X148270953Y-92691819D01*
X148270953Y-92691819D02*
X148413810Y-92739438D01*
X148413810Y-92739438D02*
X148461429Y-92787057D01*
X148842382Y-92787057D02*
X148890001Y-92739438D01*
X148890001Y-92739438D02*
X148985239Y-92691819D01*
X148985239Y-92691819D02*
X149223334Y-92691819D01*
X149223334Y-92691819D02*
X149318572Y-92739438D01*
X149318572Y-92739438D02*
X149366191Y-92787057D01*
X149366191Y-92787057D02*
X149413810Y-92882295D01*
X149413810Y-92882295D02*
X149413810Y-92977533D01*
X149413810Y-92977533D02*
X149366191Y-93120390D01*
X149366191Y-93120390D02*
X148794763Y-93691819D01*
X148794763Y-93691819D02*
X149413810Y-93691819D01*
X157557142Y-81979580D02*
X157509523Y-82027200D01*
X157509523Y-82027200D02*
X157366666Y-82074819D01*
X157366666Y-82074819D02*
X157271428Y-82074819D01*
X157271428Y-82074819D02*
X157128571Y-82027200D01*
X157128571Y-82027200D02*
X157033333Y-81931961D01*
X157033333Y-81931961D02*
X156985714Y-81836723D01*
X156985714Y-81836723D02*
X156938095Y-81646247D01*
X156938095Y-81646247D02*
X156938095Y-81503390D01*
X156938095Y-81503390D02*
X156985714Y-81312914D01*
X156985714Y-81312914D02*
X157033333Y-81217676D01*
X157033333Y-81217676D02*
X157128571Y-81122438D01*
X157128571Y-81122438D02*
X157271428Y-81074819D01*
X157271428Y-81074819D02*
X157366666Y-81074819D01*
X157366666Y-81074819D02*
X157509523Y-81122438D01*
X157509523Y-81122438D02*
X157557142Y-81170057D01*
X158509523Y-82074819D02*
X157938095Y-82074819D01*
X158223809Y-82074819D02*
X158223809Y-81074819D01*
X158223809Y-81074819D02*
X158128571Y-81217676D01*
X158128571Y-81217676D02*
X158033333Y-81312914D01*
X158033333Y-81312914D02*
X157938095Y-81360533D01*
X158842857Y-81074819D02*
X159509523Y-81074819D01*
X159509523Y-81074819D02*
X159080952Y-82074819D01*
X152647142Y-88591580D02*
X152599523Y-88639200D01*
X152599523Y-88639200D02*
X152456666Y-88686819D01*
X152456666Y-88686819D02*
X152361428Y-88686819D01*
X152361428Y-88686819D02*
X152218571Y-88639200D01*
X152218571Y-88639200D02*
X152123333Y-88543961D01*
X152123333Y-88543961D02*
X152075714Y-88448723D01*
X152075714Y-88448723D02*
X152028095Y-88258247D01*
X152028095Y-88258247D02*
X152028095Y-88115390D01*
X152028095Y-88115390D02*
X152075714Y-87924914D01*
X152075714Y-87924914D02*
X152123333Y-87829676D01*
X152123333Y-87829676D02*
X152218571Y-87734438D01*
X152218571Y-87734438D02*
X152361428Y-87686819D01*
X152361428Y-87686819D02*
X152456666Y-87686819D01*
X152456666Y-87686819D02*
X152599523Y-87734438D01*
X152599523Y-87734438D02*
X152647142Y-87782057D01*
X153599523Y-88686819D02*
X153028095Y-88686819D01*
X153313809Y-88686819D02*
X153313809Y-87686819D01*
X153313809Y-87686819D02*
X153218571Y-87829676D01*
X153218571Y-87829676D02*
X153123333Y-87924914D01*
X153123333Y-87924914D02*
X153028095Y-87972533D01*
X154504285Y-87686819D02*
X154028095Y-87686819D01*
X154028095Y-87686819D02*
X153980476Y-88163009D01*
X153980476Y-88163009D02*
X154028095Y-88115390D01*
X154028095Y-88115390D02*
X154123333Y-88067771D01*
X154123333Y-88067771D02*
X154361428Y-88067771D01*
X154361428Y-88067771D02*
X154456666Y-88115390D01*
X154456666Y-88115390D02*
X154504285Y-88163009D01*
X154504285Y-88163009D02*
X154551904Y-88258247D01*
X154551904Y-88258247D02*
X154551904Y-88496342D01*
X154551904Y-88496342D02*
X154504285Y-88591580D01*
X154504285Y-88591580D02*
X154456666Y-88639200D01*
X154456666Y-88639200D02*
X154361428Y-88686819D01*
X154361428Y-88686819D02*
X154123333Y-88686819D01*
X154123333Y-88686819D02*
X154028095Y-88639200D01*
X154028095Y-88639200D02*
X153980476Y-88591580D01*
X134123333Y-112716819D02*
X133790000Y-112240628D01*
X133551905Y-112716819D02*
X133551905Y-111716819D01*
X133551905Y-111716819D02*
X133932857Y-111716819D01*
X133932857Y-111716819D02*
X134028095Y-111764438D01*
X134028095Y-111764438D02*
X134075714Y-111812057D01*
X134075714Y-111812057D02*
X134123333Y-111907295D01*
X134123333Y-111907295D02*
X134123333Y-112050152D01*
X134123333Y-112050152D02*
X134075714Y-112145390D01*
X134075714Y-112145390D02*
X134028095Y-112193009D01*
X134028095Y-112193009D02*
X133932857Y-112240628D01*
X133932857Y-112240628D02*
X133551905Y-112240628D01*
X135028095Y-111716819D02*
X134551905Y-111716819D01*
X134551905Y-111716819D02*
X134504286Y-112193009D01*
X134504286Y-112193009D02*
X134551905Y-112145390D01*
X134551905Y-112145390D02*
X134647143Y-112097771D01*
X134647143Y-112097771D02*
X134885238Y-112097771D01*
X134885238Y-112097771D02*
X134980476Y-112145390D01*
X134980476Y-112145390D02*
X135028095Y-112193009D01*
X135028095Y-112193009D02*
X135075714Y-112288247D01*
X135075714Y-112288247D02*
X135075714Y-112526342D01*
X135075714Y-112526342D02*
X135028095Y-112621580D01*
X135028095Y-112621580D02*
X134980476Y-112669200D01*
X134980476Y-112669200D02*
X134885238Y-112716819D01*
X134885238Y-112716819D02*
X134647143Y-112716819D01*
X134647143Y-112716819D02*
X134551905Y-112669200D01*
X134551905Y-112669200D02*
X134504286Y-112621580D01*
X133147142Y-121016819D02*
X132813809Y-120540628D01*
X132575714Y-121016819D02*
X132575714Y-120016819D01*
X132575714Y-120016819D02*
X132956666Y-120016819D01*
X132956666Y-120016819D02*
X133051904Y-120064438D01*
X133051904Y-120064438D02*
X133099523Y-120112057D01*
X133099523Y-120112057D02*
X133147142Y-120207295D01*
X133147142Y-120207295D02*
X133147142Y-120350152D01*
X133147142Y-120350152D02*
X133099523Y-120445390D01*
X133099523Y-120445390D02*
X133051904Y-120493009D01*
X133051904Y-120493009D02*
X132956666Y-120540628D01*
X132956666Y-120540628D02*
X132575714Y-120540628D01*
X134099523Y-121016819D02*
X133528095Y-121016819D01*
X133813809Y-121016819D02*
X133813809Y-120016819D01*
X133813809Y-120016819D02*
X133718571Y-120159676D01*
X133718571Y-120159676D02*
X133623333Y-120254914D01*
X133623333Y-120254914D02*
X133528095Y-120302533D01*
X134718571Y-120016819D02*
X134813809Y-120016819D01*
X134813809Y-120016819D02*
X134909047Y-120064438D01*
X134909047Y-120064438D02*
X134956666Y-120112057D01*
X134956666Y-120112057D02*
X135004285Y-120207295D01*
X135004285Y-120207295D02*
X135051904Y-120397771D01*
X135051904Y-120397771D02*
X135051904Y-120635866D01*
X135051904Y-120635866D02*
X135004285Y-120826342D01*
X135004285Y-120826342D02*
X134956666Y-120921580D01*
X134956666Y-120921580D02*
X134909047Y-120969200D01*
X134909047Y-120969200D02*
X134813809Y-121016819D01*
X134813809Y-121016819D02*
X134718571Y-121016819D01*
X134718571Y-121016819D02*
X134623333Y-120969200D01*
X134623333Y-120969200D02*
X134575714Y-120921580D01*
X134575714Y-120921580D02*
X134528095Y-120826342D01*
X134528095Y-120826342D02*
X134480476Y-120635866D01*
X134480476Y-120635866D02*
X134480476Y-120397771D01*
X134480476Y-120397771D02*
X134528095Y-120207295D01*
X134528095Y-120207295D02*
X134575714Y-120112057D01*
X134575714Y-120112057D02*
X134623333Y-120064438D01*
X134623333Y-120064438D02*
X134718571Y-120016819D01*
X182499580Y-91029857D02*
X182547200Y-91077476D01*
X182547200Y-91077476D02*
X182594819Y-91220333D01*
X182594819Y-91220333D02*
X182594819Y-91315571D01*
X182594819Y-91315571D02*
X182547200Y-91458428D01*
X182547200Y-91458428D02*
X182451961Y-91553666D01*
X182451961Y-91553666D02*
X182356723Y-91601285D01*
X182356723Y-91601285D02*
X182166247Y-91648904D01*
X182166247Y-91648904D02*
X182023390Y-91648904D01*
X182023390Y-91648904D02*
X181832914Y-91601285D01*
X181832914Y-91601285D02*
X181737676Y-91553666D01*
X181737676Y-91553666D02*
X181642438Y-91458428D01*
X181642438Y-91458428D02*
X181594819Y-91315571D01*
X181594819Y-91315571D02*
X181594819Y-91220333D01*
X181594819Y-91220333D02*
X181642438Y-91077476D01*
X181642438Y-91077476D02*
X181690057Y-91029857D01*
X181928152Y-90172714D02*
X182594819Y-90172714D01*
X181547200Y-90410809D02*
X182261485Y-90648904D01*
X182261485Y-90648904D02*
X182261485Y-90029857D01*
X181594819Y-89744142D02*
X181594819Y-89077476D01*
X181594819Y-89077476D02*
X182594819Y-89506047D01*
X128757261Y-126812057D02*
X128662023Y-126764438D01*
X128662023Y-126764438D02*
X128566785Y-126669200D01*
X128566785Y-126669200D02*
X128423928Y-126526342D01*
X128423928Y-126526342D02*
X128328690Y-126478723D01*
X128328690Y-126478723D02*
X128233452Y-126478723D01*
X128281071Y-126716819D02*
X128185833Y-126669200D01*
X128185833Y-126669200D02*
X128090595Y-126573961D01*
X128090595Y-126573961D02*
X128042976Y-126383485D01*
X128042976Y-126383485D02*
X128042976Y-126050152D01*
X128042976Y-126050152D02*
X128090595Y-125859676D01*
X128090595Y-125859676D02*
X128185833Y-125764438D01*
X128185833Y-125764438D02*
X128281071Y-125716819D01*
X128281071Y-125716819D02*
X128471547Y-125716819D01*
X128471547Y-125716819D02*
X128566785Y-125764438D01*
X128566785Y-125764438D02*
X128662023Y-125859676D01*
X128662023Y-125859676D02*
X128709642Y-126050152D01*
X128709642Y-126050152D02*
X128709642Y-126383485D01*
X128709642Y-126383485D02*
X128662023Y-126573961D01*
X128662023Y-126573961D02*
X128566785Y-126669200D01*
X128566785Y-126669200D02*
X128471547Y-126716819D01*
X128471547Y-126716819D02*
X128281071Y-126716819D01*
X129090595Y-125812057D02*
X129138214Y-125764438D01*
X129138214Y-125764438D02*
X129233452Y-125716819D01*
X129233452Y-125716819D02*
X129471547Y-125716819D01*
X129471547Y-125716819D02*
X129566785Y-125764438D01*
X129566785Y-125764438D02*
X129614404Y-125812057D01*
X129614404Y-125812057D02*
X129662023Y-125907295D01*
X129662023Y-125907295D02*
X129662023Y-126002533D01*
X129662023Y-126002533D02*
X129614404Y-126145390D01*
X129614404Y-126145390D02*
X129042976Y-126716819D01*
X129042976Y-126716819D02*
X129662023Y-126716819D01*
X172623333Y-97886819D02*
X172147143Y-97886819D01*
X172147143Y-97886819D02*
X172147143Y-96886819D01*
X173385238Y-96886819D02*
X173194762Y-96886819D01*
X173194762Y-96886819D02*
X173099524Y-96934438D01*
X173099524Y-96934438D02*
X173051905Y-96982057D01*
X173051905Y-96982057D02*
X172956667Y-97124914D01*
X172956667Y-97124914D02*
X172909048Y-97315390D01*
X172909048Y-97315390D02*
X172909048Y-97696342D01*
X172909048Y-97696342D02*
X172956667Y-97791580D01*
X172956667Y-97791580D02*
X173004286Y-97839200D01*
X173004286Y-97839200D02*
X173099524Y-97886819D01*
X173099524Y-97886819D02*
X173290000Y-97886819D01*
X173290000Y-97886819D02*
X173385238Y-97839200D01*
X173385238Y-97839200D02*
X173432857Y-97791580D01*
X173432857Y-97791580D02*
X173480476Y-97696342D01*
X173480476Y-97696342D02*
X173480476Y-97458247D01*
X173480476Y-97458247D02*
X173432857Y-97363009D01*
X173432857Y-97363009D02*
X173385238Y-97315390D01*
X173385238Y-97315390D02*
X173290000Y-97267771D01*
X173290000Y-97267771D02*
X173099524Y-97267771D01*
X173099524Y-97267771D02*
X173004286Y-97315390D01*
X173004286Y-97315390D02*
X172956667Y-97363009D01*
X172956667Y-97363009D02*
X172909048Y-97458247D01*
X155829580Y-98054857D02*
X155877200Y-98102476D01*
X155877200Y-98102476D02*
X155924819Y-98245333D01*
X155924819Y-98245333D02*
X155924819Y-98340571D01*
X155924819Y-98340571D02*
X155877200Y-98483428D01*
X155877200Y-98483428D02*
X155781961Y-98578666D01*
X155781961Y-98578666D02*
X155686723Y-98626285D01*
X155686723Y-98626285D02*
X155496247Y-98673904D01*
X155496247Y-98673904D02*
X155353390Y-98673904D01*
X155353390Y-98673904D02*
X155162914Y-98626285D01*
X155162914Y-98626285D02*
X155067676Y-98578666D01*
X155067676Y-98578666D02*
X154972438Y-98483428D01*
X154972438Y-98483428D02*
X154924819Y-98340571D01*
X154924819Y-98340571D02*
X154924819Y-98245333D01*
X154924819Y-98245333D02*
X154972438Y-98102476D01*
X154972438Y-98102476D02*
X155020057Y-98054857D01*
X155924819Y-97102476D02*
X155924819Y-97673904D01*
X155924819Y-97388190D02*
X154924819Y-97388190D01*
X154924819Y-97388190D02*
X155067676Y-97483428D01*
X155067676Y-97483428D02*
X155162914Y-97578666D01*
X155162914Y-97578666D02*
X155210533Y-97673904D01*
X154924819Y-96245333D02*
X154924819Y-96435809D01*
X154924819Y-96435809D02*
X154972438Y-96531047D01*
X154972438Y-96531047D02*
X155020057Y-96578666D01*
X155020057Y-96578666D02*
X155162914Y-96673904D01*
X155162914Y-96673904D02*
X155353390Y-96721523D01*
X155353390Y-96721523D02*
X155734342Y-96721523D01*
X155734342Y-96721523D02*
X155829580Y-96673904D01*
X155829580Y-96673904D02*
X155877200Y-96626285D01*
X155877200Y-96626285D02*
X155924819Y-96531047D01*
X155924819Y-96531047D02*
X155924819Y-96340571D01*
X155924819Y-96340571D02*
X155877200Y-96245333D01*
X155877200Y-96245333D02*
X155829580Y-96197714D01*
X155829580Y-96197714D02*
X155734342Y-96150095D01*
X155734342Y-96150095D02*
X155496247Y-96150095D01*
X155496247Y-96150095D02*
X155401009Y-96197714D01*
X155401009Y-96197714D02*
X155353390Y-96245333D01*
X155353390Y-96245333D02*
X155305771Y-96340571D01*
X155305771Y-96340571D02*
X155305771Y-96531047D01*
X155305771Y-96531047D02*
X155353390Y-96626285D01*
X155353390Y-96626285D02*
X155401009Y-96673904D01*
X155401009Y-96673904D02*
X155496247Y-96721523D01*
X159612142Y-93209580D02*
X159564523Y-93257200D01*
X159564523Y-93257200D02*
X159421666Y-93304819D01*
X159421666Y-93304819D02*
X159326428Y-93304819D01*
X159326428Y-93304819D02*
X159183571Y-93257200D01*
X159183571Y-93257200D02*
X159088333Y-93161961D01*
X159088333Y-93161961D02*
X159040714Y-93066723D01*
X159040714Y-93066723D02*
X158993095Y-92876247D01*
X158993095Y-92876247D02*
X158993095Y-92733390D01*
X158993095Y-92733390D02*
X159040714Y-92542914D01*
X159040714Y-92542914D02*
X159088333Y-92447676D01*
X159088333Y-92447676D02*
X159183571Y-92352438D01*
X159183571Y-92352438D02*
X159326428Y-92304819D01*
X159326428Y-92304819D02*
X159421666Y-92304819D01*
X159421666Y-92304819D02*
X159564523Y-92352438D01*
X159564523Y-92352438D02*
X159612142Y-92400057D01*
X160469285Y-92638152D02*
X160469285Y-93304819D01*
X160231190Y-92257200D02*
X159993095Y-92971485D01*
X159993095Y-92971485D02*
X160612142Y-92971485D01*
X160945476Y-92400057D02*
X160993095Y-92352438D01*
X160993095Y-92352438D02*
X161088333Y-92304819D01*
X161088333Y-92304819D02*
X161326428Y-92304819D01*
X161326428Y-92304819D02*
X161421666Y-92352438D01*
X161421666Y-92352438D02*
X161469285Y-92400057D01*
X161469285Y-92400057D02*
X161516904Y-92495295D01*
X161516904Y-92495295D02*
X161516904Y-92590533D01*
X161516904Y-92590533D02*
X161469285Y-92733390D01*
X161469285Y-92733390D02*
X160897857Y-93304819D01*
X160897857Y-93304819D02*
X161516904Y-93304819D01*
X182499580Y-114554857D02*
X182547200Y-114602476D01*
X182547200Y-114602476D02*
X182594819Y-114745333D01*
X182594819Y-114745333D02*
X182594819Y-114840571D01*
X182594819Y-114840571D02*
X182547200Y-114983428D01*
X182547200Y-114983428D02*
X182451961Y-115078666D01*
X182451961Y-115078666D02*
X182356723Y-115126285D01*
X182356723Y-115126285D02*
X182166247Y-115173904D01*
X182166247Y-115173904D02*
X182023390Y-115173904D01*
X182023390Y-115173904D02*
X181832914Y-115126285D01*
X181832914Y-115126285D02*
X181737676Y-115078666D01*
X181737676Y-115078666D02*
X181642438Y-114983428D01*
X181642438Y-114983428D02*
X181594819Y-114840571D01*
X181594819Y-114840571D02*
X181594819Y-114745333D01*
X181594819Y-114745333D02*
X181642438Y-114602476D01*
X181642438Y-114602476D02*
X181690057Y-114554857D01*
X181690057Y-114173904D02*
X181642438Y-114126285D01*
X181642438Y-114126285D02*
X181594819Y-114031047D01*
X181594819Y-114031047D02*
X181594819Y-113792952D01*
X181594819Y-113792952D02*
X181642438Y-113697714D01*
X181642438Y-113697714D02*
X181690057Y-113650095D01*
X181690057Y-113650095D02*
X181785295Y-113602476D01*
X181785295Y-113602476D02*
X181880533Y-113602476D01*
X181880533Y-113602476D02*
X182023390Y-113650095D01*
X182023390Y-113650095D02*
X182594819Y-114221523D01*
X182594819Y-114221523D02*
X182594819Y-113602476D01*
X181594819Y-112983428D02*
X181594819Y-112888190D01*
X181594819Y-112888190D02*
X181642438Y-112792952D01*
X181642438Y-112792952D02*
X181690057Y-112745333D01*
X181690057Y-112745333D02*
X181785295Y-112697714D01*
X181785295Y-112697714D02*
X181975771Y-112650095D01*
X181975771Y-112650095D02*
X182213866Y-112650095D01*
X182213866Y-112650095D02*
X182404342Y-112697714D01*
X182404342Y-112697714D02*
X182499580Y-112745333D01*
X182499580Y-112745333D02*
X182547200Y-112792952D01*
X182547200Y-112792952D02*
X182594819Y-112888190D01*
X182594819Y-112888190D02*
X182594819Y-112983428D01*
X182594819Y-112983428D02*
X182547200Y-113078666D01*
X182547200Y-113078666D02*
X182499580Y-113126285D01*
X182499580Y-113126285D02*
X182404342Y-113173904D01*
X182404342Y-113173904D02*
X182213866Y-113221523D01*
X182213866Y-113221523D02*
X181975771Y-113221523D01*
X181975771Y-113221523D02*
X181785295Y-113173904D01*
X181785295Y-113173904D02*
X181690057Y-113126285D01*
X181690057Y-113126285D02*
X181642438Y-113078666D01*
X181642438Y-113078666D02*
X181594819Y-112983428D01*
X172623333Y-105386819D02*
X172147143Y-105386819D01*
X172147143Y-105386819D02*
X172147143Y-104386819D01*
X173432857Y-104386819D02*
X172956667Y-104386819D01*
X172956667Y-104386819D02*
X172909048Y-104863009D01*
X172909048Y-104863009D02*
X172956667Y-104815390D01*
X172956667Y-104815390D02*
X173051905Y-104767771D01*
X173051905Y-104767771D02*
X173290000Y-104767771D01*
X173290000Y-104767771D02*
X173385238Y-104815390D01*
X173385238Y-104815390D02*
X173432857Y-104863009D01*
X173432857Y-104863009D02*
X173480476Y-104958247D01*
X173480476Y-104958247D02*
X173480476Y-105196342D01*
X173480476Y-105196342D02*
X173432857Y-105291580D01*
X173432857Y-105291580D02*
X173385238Y-105339200D01*
X173385238Y-105339200D02*
X173290000Y-105386819D01*
X173290000Y-105386819D02*
X173051905Y-105386819D01*
X173051905Y-105386819D02*
X172956667Y-105339200D01*
X172956667Y-105339200D02*
X172909048Y-105291580D01*
X130394819Y-96578666D02*
X129918628Y-96911999D01*
X130394819Y-97150094D02*
X129394819Y-97150094D01*
X129394819Y-97150094D02*
X129394819Y-96769142D01*
X129394819Y-96769142D02*
X129442438Y-96673904D01*
X129442438Y-96673904D02*
X129490057Y-96626285D01*
X129490057Y-96626285D02*
X129585295Y-96578666D01*
X129585295Y-96578666D02*
X129728152Y-96578666D01*
X129728152Y-96578666D02*
X129823390Y-96626285D01*
X129823390Y-96626285D02*
X129871009Y-96673904D01*
X129871009Y-96673904D02*
X129918628Y-96769142D01*
X129918628Y-96769142D02*
X129918628Y-97150094D01*
X129728152Y-95721523D02*
X130394819Y-95721523D01*
X129347200Y-95959618D02*
X130061485Y-96197713D01*
X130061485Y-96197713D02*
X130061485Y-95578666D01*
X130585833Y-86091580D02*
X130538214Y-86139200D01*
X130538214Y-86139200D02*
X130395357Y-86186819D01*
X130395357Y-86186819D02*
X130300119Y-86186819D01*
X130300119Y-86186819D02*
X130157262Y-86139200D01*
X130157262Y-86139200D02*
X130062024Y-86043961D01*
X130062024Y-86043961D02*
X130014405Y-85948723D01*
X130014405Y-85948723D02*
X129966786Y-85758247D01*
X129966786Y-85758247D02*
X129966786Y-85615390D01*
X129966786Y-85615390D02*
X130014405Y-85424914D01*
X130014405Y-85424914D02*
X130062024Y-85329676D01*
X130062024Y-85329676D02*
X130157262Y-85234438D01*
X130157262Y-85234438D02*
X130300119Y-85186819D01*
X130300119Y-85186819D02*
X130395357Y-85186819D01*
X130395357Y-85186819D02*
X130538214Y-85234438D01*
X130538214Y-85234438D02*
X130585833Y-85282057D01*
X131538214Y-86186819D02*
X130966786Y-86186819D01*
X131252500Y-86186819D02*
X131252500Y-85186819D01*
X131252500Y-85186819D02*
X131157262Y-85329676D01*
X131157262Y-85329676D02*
X131062024Y-85424914D01*
X131062024Y-85424914D02*
X130966786Y-85472533D01*
%TO.C,L7*%
D12*
X170650000Y-75772000D02*
X174930000Y-75772000D01*
X170650000Y-76509000D02*
X170650000Y-75772000D01*
X170650000Y-80052000D02*
X170650000Y-79315000D01*
X174930000Y-75772000D02*
X174930000Y-76509000D01*
X174930000Y-79315000D02*
X174930000Y-80052000D01*
X174930000Y-80052000D02*
X170650000Y-80052000D01*
%TO.C,TH1*%
X144380000Y-70500000D02*
X145000000Y-70500000D01*
X144380000Y-70500000D02*
G75*
G02*
X142540000Y-70500000I-920000J0D01*
G01*
X142540000Y-70500000D02*
G75*
G02*
X144380000Y-70500000I920000J0D01*
G01*
%TO.C,C45*%
X179380000Y-74123252D02*
X179380000Y-72700748D01*
X181200000Y-74123252D02*
X181200000Y-72700748D01*
%TO.C,R3*%
X156562936Y-91677000D02*
X157017064Y-91677000D01*
X156562936Y-93147000D02*
X157017064Y-93147000D01*
%TO.C,C7*%
X140555000Y-96688248D02*
X140555000Y-97210752D01*
X142025000Y-96688248D02*
X142025000Y-97210752D01*
%TO.C,J1*%
D13*
X112770000Y-89435000D02*
X112770000Y-99285000D01*
X112770000Y-99285000D02*
X114170000Y-99285000D01*
X114170000Y-89435000D02*
X112770000Y-89435000D01*
X118570000Y-89435000D02*
X116570000Y-89435000D01*
X118770000Y-99285000D02*
X116570000Y-99285000D01*
X120770000Y-89435000D02*
X122640000Y-89435000D01*
X122640000Y-89435000D02*
X122640000Y-99285000D01*
X122640000Y-99285000D02*
X120570000Y-99285000D01*
D14*
X123105000Y-91610000D02*
X123105000Y-91610000D01*
X123205000Y-91610000D02*
X123205000Y-91610000D01*
X123105000Y-91610000D02*
G75*
G02*
X123205000Y-91610000I50000J0D01*
G01*
X123205000Y-91610000D02*
G75*
G02*
X123105000Y-91610000I-50000J0D01*
G01*
%TO.C,L1*%
D12*
X142379758Y-82852000D02*
X143200242Y-82852000D01*
X142379758Y-83972000D02*
X143200242Y-83972000D01*
%TO.C,Q1*%
X128030000Y-116852000D02*
X129550000Y-116852000D01*
X128030000Y-117852000D02*
X128030000Y-116852000D01*
X128030000Y-119972000D02*
X128030000Y-118972000D01*
X129550000Y-116852000D02*
X129550000Y-116902000D01*
X129550000Y-118022000D02*
X129550000Y-118802000D01*
X129550000Y-119922000D02*
X129550000Y-119972000D01*
X129550000Y-119972000D02*
X128030000Y-119972000D01*
X130090000Y-118792000D02*
X129850000Y-118462000D01*
X130330000Y-118462000D01*
X130090000Y-118792000D01*
G36*
X130090000Y-118792000D02*
G01*
X129850000Y-118462000D01*
X130330000Y-118462000D01*
X130090000Y-118792000D01*
G37*
%TO.C,C18*%
X175880000Y-113200748D02*
X175880000Y-114623252D01*
X177700000Y-113200748D02*
X177700000Y-114623252D01*
%TO.C,C3*%
X128491248Y-91177000D02*
X129013752Y-91177000D01*
X128491248Y-92647000D02*
X129013752Y-92647000D01*
%TO.C,U4*%
D15*
X132858899Y-108896055D02*
X132858899Y-109921345D01*
X135221099Y-109921345D02*
X135221099Y-108896055D01*
X133391599Y-111318400D02*
G75*
G02*
X133188399Y-111318400I-101600J0D01*
G01*
X133188399Y-111318400D02*
G75*
G02*
X133391599Y-111318400I101600J0D01*
G01*
%TO.C,R9*%
D12*
X142562936Y-90177000D02*
X143017064Y-90177000D01*
X142562936Y-91647000D02*
X143017064Y-91647000D01*
%TO.C,C9*%
X144555000Y-116113248D02*
X144555000Y-116635752D01*
X146025000Y-116113248D02*
X146025000Y-116635752D01*
%TO.C,R7*%
X140562936Y-86677000D02*
X141017064Y-86677000D01*
X140562936Y-88147000D02*
X141017064Y-88147000D01*
%TO.C,C14*%
X146765000Y-98688748D02*
X146765000Y-99211252D01*
X148235000Y-98688748D02*
X148235000Y-99211252D01*
%TO.C,C4*%
X126551252Y-98677000D02*
X126028748Y-98677000D01*
X126551252Y-100147000D02*
X126028748Y-100147000D01*
%TO.C,C44*%
X175880000Y-74098252D02*
X175880000Y-72675748D01*
X177700000Y-74098252D02*
X177700000Y-72675748D01*
%TO.C,R8*%
X144562936Y-86677000D02*
X145017064Y-86677000D01*
X144562936Y-88147000D02*
X145017064Y-88147000D01*
%TO.C,C8*%
X131051252Y-84177000D02*
X130528748Y-84177000D01*
X131051252Y-85647000D02*
X130528748Y-85647000D01*
%TO.C,R6*%
X139062936Y-106177000D02*
X139517064Y-106177000D01*
X139062936Y-107647000D02*
X139517064Y-107647000D01*
%TO.C,L8*%
X170650000Y-83272000D02*
X174930000Y-83272000D01*
X170650000Y-84009000D02*
X170650000Y-83272000D01*
X170650000Y-87552000D02*
X170650000Y-86815000D01*
X174930000Y-83272000D02*
X174930000Y-84009000D01*
X174930000Y-86815000D02*
X174930000Y-87552000D01*
X174930000Y-87552000D02*
X170650000Y-87552000D01*
%TO.C,R11*%
X140055000Y-116184936D02*
X140055000Y-116639064D01*
X141525000Y-116184936D02*
X141525000Y-116639064D01*
%TO.C,C46*%
X175880000Y-89675748D02*
X175880000Y-91098252D01*
X177700000Y-89675748D02*
X177700000Y-91098252D01*
%TO.C,C43*%
X179380000Y-96123252D02*
X179380000Y-94700748D01*
X181200000Y-96123252D02*
X181200000Y-94700748D01*
%TO.C,R1*%
X139062936Y-108677000D02*
X139517064Y-108677000D01*
X139062936Y-110147000D02*
X139517064Y-110147000D01*
%TO.C,C6*%
X149055000Y-116150748D02*
X149055000Y-116673252D01*
X150525000Y-116150748D02*
X150525000Y-116673252D01*
%TO.C,U2*%
D13*
X131565002Y-92137001D02*
X132190002Y-92137001D01*
X131565002Y-92762001D02*
X131565002Y-92137001D01*
X131565002Y-96586999D02*
X131565002Y-96362001D01*
X131565002Y-96586999D02*
X131790000Y-96586999D01*
X135790002Y-92137001D02*
X136015000Y-92137001D01*
X135790002Y-96586999D02*
X136015000Y-96586999D01*
X136015000Y-92361999D02*
X136015000Y-92137001D01*
X136015000Y-96586999D02*
X136015000Y-96362001D01*
%TO.C,U1*%
D12*
X131480000Y-99027000D02*
X136100000Y-99027000D01*
X136100000Y-105797000D02*
X131480000Y-105797000D01*
X137650000Y-105342000D02*
X137980000Y-105102000D01*
X137980000Y-105582000D01*
X137650000Y-105342000D01*
G36*
X137980000Y-105582000D02*
G01*
X137650000Y-105342000D01*
X137980000Y-105102000D01*
X137980000Y-105582000D01*
G37*
%TO.C,C19*%
X175880000Y-96123252D02*
X175880000Y-94700748D01*
X177700000Y-96123252D02*
X177700000Y-94700748D01*
%TO.C,U5*%
X142090000Y-106740000D02*
X143350000Y-106740000D01*
X142090000Y-110500000D02*
X142090000Y-106740000D01*
X148910000Y-106740000D02*
X147650000Y-106740000D01*
X148910000Y-110500000D02*
X148910000Y-106740000D01*
X142190000Y-111780000D02*
X141860000Y-112020000D01*
X141860000Y-111540000D01*
X142190000Y-111780000D01*
G36*
X142190000Y-111780000D02*
G01*
X141860000Y-112020000D01*
X141860000Y-111540000D01*
X142190000Y-111780000D01*
G37*
%TO.C,R2*%
X134517064Y-115677000D02*
X134062936Y-115677000D01*
X134517064Y-117147000D02*
X134062936Y-117147000D01*
%TO.C,U3*%
X132930000Y-122312000D02*
X134500000Y-122312000D01*
X133135000Y-120512000D02*
X134495000Y-120512000D01*
X132815000Y-120512000D02*
X132535000Y-120512000D01*
X132815000Y-120232000D01*
X132815000Y-120512000D01*
G36*
X132815000Y-120512000D02*
G01*
X132535000Y-120512000D01*
X132815000Y-120232000D01*
X132815000Y-120512000D01*
G37*
%TO.C,C5*%
X144555000Y-80373252D02*
X144555000Y-79850748D01*
X146025000Y-80373252D02*
X146025000Y-79850748D01*
%TO.C,C2*%
X136028748Y-89177000D02*
X136551252Y-89177000D01*
X136028748Y-90647000D02*
X136551252Y-90647000D01*
%TO.C,IC2*%
D13*
X145940001Y-90537000D02*
X146665001Y-90537000D01*
X145940001Y-91262000D02*
X145940001Y-90537000D01*
X145940001Y-95937000D02*
X145940001Y-95687000D01*
X145940001Y-95937000D02*
X146190000Y-95937000D01*
X150590002Y-90537000D02*
X150840001Y-90537000D01*
X150590002Y-95937000D02*
X150840001Y-95937000D01*
X150840001Y-90787000D02*
X150840001Y-90537000D01*
X150840001Y-95937000D02*
X150840001Y-95687000D01*
%TO.C,C17*%
D12*
X157938748Y-82565000D02*
X158461252Y-82565000D01*
X157938748Y-84035000D02*
X158461252Y-84035000D01*
%TO.C,C15*%
X153028748Y-89177000D02*
X153551252Y-89177000D01*
X153028748Y-90647000D02*
X153551252Y-90647000D01*
%TO.C,R5*%
X134062936Y-113177000D02*
X134517064Y-113177000D01*
X134062936Y-114647000D02*
X134517064Y-114647000D01*
%TO.C,R10*%
X134017064Y-118177000D02*
X133562936Y-118177000D01*
X134017064Y-119647000D02*
X133562936Y-119647000D01*
%TO.C,C47*%
X179380000Y-89675748D02*
X179380000Y-91098252D01*
X181200000Y-89675748D02*
X181200000Y-91098252D01*
%TO.C,Q2*%
X128092500Y-122302000D02*
X129612500Y-122302000D01*
X128092500Y-123302000D02*
X128092500Y-122302000D01*
X128092500Y-125422000D02*
X128092500Y-124422000D01*
X129612500Y-122302000D02*
X129612500Y-122352000D01*
X129612500Y-123472000D02*
X129612500Y-124252000D01*
X129612500Y-125372000D02*
X129612500Y-125422000D01*
X129612500Y-125422000D02*
X128092500Y-125422000D01*
X130152500Y-124242000D02*
X129912500Y-123912000D01*
X130392500Y-123912000D01*
X130152500Y-124242000D01*
G36*
X130152500Y-124242000D02*
G01*
X129912500Y-123912000D01*
X130392500Y-123912000D01*
X130152500Y-124242000D01*
G37*
%TO.C,L6*%
X170650000Y-98272000D02*
X174930000Y-98272000D01*
X170650000Y-99009000D02*
X170650000Y-98272000D01*
X170650000Y-102552000D02*
X170650000Y-101815000D01*
X174930000Y-98272000D02*
X174930000Y-99009000D01*
X174930000Y-101815000D02*
X174930000Y-102552000D01*
X174930000Y-102552000D02*
X170650000Y-102552000D01*
%TO.C,C16*%
X153055000Y-97150748D02*
X153055000Y-97673252D01*
X154525000Y-97150748D02*
X154525000Y-97673252D01*
%TO.C,C20*%
X179380000Y-113200748D02*
X179380000Y-114623252D01*
X181200000Y-113200748D02*
X181200000Y-114623252D01*
%TO.C,L5*%
X170650000Y-105772000D02*
X174930000Y-105772000D01*
X170650000Y-106509000D02*
X170650000Y-105772000D01*
X170650000Y-110052000D02*
X170650000Y-109315000D01*
X174930000Y-105772000D02*
X174930000Y-106509000D01*
X174930000Y-109315000D02*
X174930000Y-110052000D01*
X174930000Y-110052000D02*
X170650000Y-110052000D01*
%TO.C,R4*%
X127555000Y-96184936D02*
X127555000Y-96639064D01*
X129025000Y-96184936D02*
X129025000Y-96639064D01*
%TO.C,C1*%
X130491248Y-86677000D02*
X131013752Y-86677000D01*
X130491248Y-88147000D02*
X131013752Y-88147000D01*
%TD*%
M02*
