%TF.GenerationSoftware,KiCad,Pcbnew,10.0.4-10.0.4~ubuntu24.04.1*%
%TF.CreationDate,2026-07-22T03:06:05-06:00*%
%TF.ProjectId,PRISM_Power,50524953-4d5f-4506-9f77-65722e6b6963,rev?*%
%TF.SameCoordinates,Original*%
%TF.FileFunction,Soldermask,Top*%
%TF.FilePolarity,Negative*%
%FSLAX46Y46*%
G04 Gerber Fmt 4.6, Leading zero omitted, Abs format (unit mm)*
G04 Created by KiCad (PCBNEW 10.0.4-10.0.4~ubuntu24.04.1) date 2026-07-22 03:06:05*
%MOMM*%
%LPD*%
G01*
G04 APERTURE LIST*
G04 Aperture macros list*
%AMRoundRect*
0 Rectangle with rounded corners*
0 $1 Rounding radius*
0 $2 $3 $4 $5 $6 $7 $8 $9 X,Y pos of 4 corners*
0 Add a 4 corners polygon primitive as box body*
4,1,4,$2,$3,$4,$5,$6,$7,$8,$9,$2,$3,0*
0 Add four circle primitives for the rounded corners*
1,1,$1+$1,$2,$3*
1,1,$1+$1,$4,$5*
1,1,$1+$1,$6,$7*
1,1,$1+$1,$8,$9*
0 Add four rect primitives between the rounded corners*
20,1,$1+$1,$2,$3,$4,$5,0*
20,1,$1+$1,$4,$5,$6,$7,0*
20,1,$1+$1,$6,$7,$8,$9,0*
20,1,$1+$1,$8,$9,$2,$3,0*%
G04 Aperture macros list end*
%ADD10C,0.000000*%
%ADD11RoundRect,0.250000X-0.677250X-0.893000X0.677250X-0.893000X0.677250X0.893000X-0.677250X0.893000X0*%
%ADD12C,1.400000*%
%ADD13RoundRect,0.250000X0.650000X-0.325000X0.650000X0.325000X-0.650000X0.325000X-0.650000X-0.325000X0*%
%ADD14RoundRect,0.250000X-0.350000X-0.450000X0.350000X-0.450000X0.350000X0.450000X-0.350000X0.450000X0*%
%ADD15RoundRect,0.250000X0.750000X-0.250000X0.750000X0.250000X-0.750000X0.250000X-0.750000X-0.250000X0*%
%ADD16RoundRect,0.250000X-0.475000X0.337500X-0.475000X-0.337500X0.475000X-0.337500X0.475000X0.337500X0*%
%ADD17C,0.650000*%
%ADD18C,1.150000*%
%ADD19R,0.900000X0.300000*%
%ADD20C,0.560000*%
%ADD21C,1.500000*%
%ADD22C,1.815000*%
%ADD23RoundRect,0.250000X-0.275000X-0.350000X0.275000X-0.350000X0.275000X0.350000X-0.275000X0.350000X0*%
%ADD24RoundRect,0.150000X0.587500X0.150000X-0.587500X0.150000X-0.587500X-0.150000X0.587500X-0.150000X0*%
%ADD25RoundRect,0.750000X2.250000X-0.750000X2.250000X0.750000X-2.250000X0.750000X-2.250000X-0.750000X0*%
%ADD26RoundRect,0.075000X0.075000X-0.125000X0.075000X0.125000X-0.075000X0.125000X-0.075000X-0.125000X0*%
%ADD27RoundRect,0.250000X-0.650000X0.325000X-0.650000X-0.325000X0.650000X-0.325000X0.650000X0.325000X0*%
%ADD28RoundRect,0.250000X-0.337500X-0.475000X0.337500X-0.475000X0.337500X0.475000X-0.337500X0.475000X0*%
%ADD29R,0.254000X0.711200*%
%ADD30R,1.295400X0.889000*%
%ADD31RoundRect,0.250000X-0.475000X0.250000X-0.475000X-0.250000X0.475000X-0.250000X0.475000X0.250000X0*%
%ADD32RoundRect,0.250000X0.337500X0.475000X-0.337500X0.475000X-0.337500X-0.475000X0.337500X-0.475000X0*%
%ADD33RoundRect,0.250000X-0.450000X0.350000X-0.450000X-0.350000X0.450000X-0.350000X0.450000X0.350000X0*%
%ADD34RoundRect,1.250000X-3.750000X1.250000X-3.750000X-1.250000X3.750000X-1.250000X3.750000X1.250000X0*%
%ADD35O,0.599999X0.240000*%
%ADD36O,0.240000X0.599999*%
%ADD37R,2.700000X2.700000*%
%ADD38C,0.499999*%
%ADD39RoundRect,0.100000X0.637500X0.100000X-0.637500X0.100000X-0.637500X-0.100000X0.637500X-0.100000X0*%
%ADD40RoundRect,0.375000X0.375000X-0.625000X0.375000X0.625000X-0.375000X0.625000X-0.375000X-0.625000X0*%
%ADD41RoundRect,0.500000X1.400000X-0.500000X1.400000X0.500000X-1.400000X0.500000X-1.400000X-0.500000X0*%
%ADD42RoundRect,0.250000X0.350000X0.450000X-0.350000X0.450000X-0.350000X-0.450000X0.350000X-0.450000X0*%
%ADD43RoundRect,0.070000X-0.355000X0.070000X-0.355000X-0.070000X0.355000X-0.070000X0.355000X0.070000X0*%
%ADD44RoundRect,0.070000X-0.305000X0.070000X-0.305000X-0.070000X0.305000X-0.070000X0.305000X0.070000X0*%
%ADD45RoundRect,0.250000X0.475000X-0.337500X0.475000X0.337500X-0.475000X0.337500X-0.475000X-0.337500X0*%
%ADD46R,0.599999X0.399999*%
%ADD47R,0.599999X0.249999*%
%ADD48R,0.249999X1.819999*%
%ADD49R,2.240001X0.660001*%
%ADD50RoundRect,0.250000X-0.250000X-0.475000X0.250000X-0.475000X0.250000X0.475000X-0.250000X0.475000X0*%
%ADD51RoundRect,0.100000X-0.130000X-0.100000X0.130000X-0.100000X0.130000X0.100000X-0.130000X0.100000X0*%
G04 APERTURE END LIST*
D10*
%TO.C,IC2*%
G36*
X146924911Y-90737175D02*
G01*
X146934441Y-90740066D01*
X146943222Y-90744762D01*
X146950921Y-90751079D01*
X147000921Y-90801079D01*
X147007238Y-90808778D01*
X147011934Y-90817559D01*
X147014825Y-90827089D01*
X147015800Y-90837000D01*
X147015800Y-91562000D01*
X147014825Y-91571911D01*
X147011934Y-91581441D01*
X147007238Y-91590221D01*
X147000921Y-91597920D01*
X146950921Y-91647920D01*
X146943222Y-91654237D01*
X146934441Y-91658934D01*
X146924911Y-91661824D01*
X146915000Y-91662799D01*
X146665001Y-91662799D01*
X146655090Y-91661824D01*
X146645559Y-91658934D01*
X146636779Y-91654237D01*
X146629080Y-91647920D01*
X146579080Y-91597920D01*
X146572763Y-91590221D01*
X146568067Y-91581441D01*
X146565176Y-91571911D01*
X146564201Y-91562000D01*
X146564201Y-90837000D01*
X146565176Y-90827089D01*
X146568067Y-90817559D01*
X146572763Y-90808778D01*
X146579080Y-90801079D01*
X146629080Y-90751079D01*
X146636779Y-90744762D01*
X146645559Y-90740066D01*
X146655090Y-90737175D01*
X146665001Y-90736200D01*
X146915000Y-90736200D01*
X146924911Y-90737175D01*
G37*
G36*
X146924911Y-94812176D02*
G01*
X146934441Y-94815066D01*
X146943222Y-94819763D01*
X146950921Y-94826080D01*
X147000921Y-94876080D01*
X147007238Y-94883779D01*
X147011934Y-94892559D01*
X147014825Y-94902089D01*
X147015800Y-94912000D01*
X147015800Y-95637000D01*
X147014825Y-95646911D01*
X147011934Y-95656441D01*
X147007238Y-95665222D01*
X147000921Y-95672921D01*
X146950921Y-95722921D01*
X146943222Y-95729238D01*
X146934441Y-95733934D01*
X146924911Y-95736825D01*
X146915000Y-95737800D01*
X146665001Y-95737800D01*
X146655090Y-95736825D01*
X146645559Y-95733934D01*
X146636779Y-95729238D01*
X146629080Y-95722921D01*
X146579080Y-95672921D01*
X146572763Y-95665222D01*
X146568067Y-95656441D01*
X146565176Y-95646911D01*
X146564201Y-95637000D01*
X146564201Y-94912000D01*
X146565176Y-94902089D01*
X146568067Y-94892559D01*
X146572763Y-94883779D01*
X146579080Y-94876080D01*
X146629080Y-94826080D01*
X146636779Y-94819763D01*
X146645559Y-94815066D01*
X146655090Y-94812176D01*
X146665001Y-94811201D01*
X146915000Y-94811201D01*
X146924911Y-94812176D01*
G37*
G36*
X150124912Y-90737175D02*
G01*
X150134443Y-90740066D01*
X150143223Y-90744762D01*
X150150922Y-90751079D01*
X150200922Y-90801079D01*
X150207239Y-90808778D01*
X150211935Y-90817559D01*
X150214826Y-90827089D01*
X150215801Y-90837000D01*
X150215801Y-91562000D01*
X150214826Y-91571911D01*
X150211935Y-91581441D01*
X150207239Y-91590221D01*
X150200922Y-91597920D01*
X150150922Y-91647920D01*
X150143223Y-91654237D01*
X150134443Y-91658934D01*
X150124912Y-91661824D01*
X150115001Y-91662799D01*
X149865002Y-91662799D01*
X149855091Y-91661824D01*
X149845561Y-91658934D01*
X149836780Y-91654237D01*
X149829081Y-91647920D01*
X149779081Y-91597920D01*
X149772764Y-91590221D01*
X149768068Y-91581441D01*
X149765177Y-91571911D01*
X149764202Y-91562000D01*
X149764202Y-90837000D01*
X149765177Y-90827089D01*
X149768068Y-90817559D01*
X149772764Y-90808778D01*
X149779081Y-90801079D01*
X149829081Y-90751079D01*
X149836780Y-90744762D01*
X149845561Y-90740066D01*
X149855091Y-90737175D01*
X149865002Y-90736200D01*
X150115001Y-90736200D01*
X150124912Y-90737175D01*
G37*
G36*
X150124912Y-94812176D02*
G01*
X150134443Y-94815066D01*
X150143223Y-94819763D01*
X150150922Y-94826080D01*
X150200922Y-94876080D01*
X150207239Y-94883779D01*
X150211935Y-94892559D01*
X150214826Y-94902089D01*
X150215801Y-94912000D01*
X150215801Y-95637000D01*
X150214826Y-95646911D01*
X150211935Y-95656441D01*
X150207239Y-95665222D01*
X150200922Y-95672921D01*
X150150922Y-95722921D01*
X150143223Y-95729238D01*
X150134443Y-95733934D01*
X150124912Y-95736825D01*
X150115001Y-95737800D01*
X149865002Y-95737800D01*
X149855091Y-95736825D01*
X149845561Y-95733934D01*
X149836780Y-95729238D01*
X149829081Y-95722921D01*
X149779081Y-95672921D01*
X149772764Y-95665222D01*
X149768068Y-95656441D01*
X149765177Y-95646911D01*
X149764202Y-95637000D01*
X149764202Y-94912000D01*
X149765177Y-94902089D01*
X149768068Y-94892559D01*
X149772764Y-94883779D01*
X149779081Y-94876080D01*
X149829081Y-94826080D01*
X149836780Y-94819763D01*
X149845561Y-94815066D01*
X149855091Y-94812176D01*
X149865002Y-94811201D01*
X150115001Y-94811201D01*
X150124912Y-94812176D01*
G37*
%TD*%
D11*
%TO.C,L7*%
X170897750Y-77912000D03*
X174682250Y-77912000D03*
%TD*%
D12*
%TO.C,TH1*%
X143460000Y-70500000D03*
X146000000Y-70500000D03*
%TD*%
D13*
%TO.C,C45*%
X180290000Y-74887000D03*
X180290000Y-71937000D03*
%TD*%
D14*
%TO.C,R3*%
X155790000Y-92412000D03*
X157790000Y-92412000D03*
%TD*%
D15*
%TO.C,REF\u002A\u002A*%
X116500000Y-106000000D03*
%TD*%
D16*
%TO.C,C7*%
X141290000Y-95912000D03*
X141290000Y-97987000D03*
%TD*%
D17*
%TO.C,J1*%
X120940000Y-90760000D03*
D18*
X120940000Y-98110000D03*
D19*
X121500000Y-91610000D03*
X121500000Y-92110000D03*
X121500000Y-92610000D03*
X121500000Y-93110000D03*
X121500000Y-93610000D03*
X121500000Y-94110000D03*
X121500000Y-94610000D03*
X121500000Y-95110000D03*
X121500000Y-95610000D03*
X121500000Y-96110000D03*
X121500000Y-96610000D03*
X121500000Y-97110000D03*
D20*
X120290000Y-97160000D03*
X119590000Y-96760000D03*
X119590000Y-95960000D03*
X120290000Y-95560000D03*
X119590000Y-95160000D03*
X120290000Y-94760000D03*
X120290000Y-93960000D03*
X119590000Y-93560000D03*
X120290000Y-93160000D03*
X119590000Y-92760000D03*
X119590000Y-91960000D03*
X120290000Y-91560000D03*
D21*
X119700000Y-98490000D03*
D22*
X119700000Y-90230000D03*
X115300000Y-98850000D03*
X115300000Y-89870000D03*
%TD*%
D23*
%TO.C,L1*%
X141640000Y-83412000D03*
X143940000Y-83412000D03*
%TD*%
D24*
%TO.C,Q1*%
X129727500Y-119362000D03*
X129727500Y-117462000D03*
X127852500Y-118412000D03*
%TD*%
D25*
%TO.C,REF\u002A\u002A*%
X135000000Y-127500000D03*
%TD*%
D26*
%TO.C,C41*%
X159150000Y-93400000D03*
X159150000Y-92900000D03*
%TD*%
D27*
%TO.C,C18*%
X176790000Y-112437000D03*
X176790000Y-115387000D03*
%TD*%
D28*
%TO.C,C3*%
X127715000Y-91912000D03*
X129790000Y-91912000D03*
%TD*%
D29*
%TO.C,U4*%
X133289998Y-110412000D03*
X133789999Y-110412000D03*
X134289999Y-110412000D03*
X134790000Y-110412000D03*
X134790000Y-108405400D03*
X134289999Y-108405400D03*
X133789999Y-108405400D03*
X133289998Y-108405400D03*
D30*
X134039999Y-109408700D03*
%TD*%
D14*
%TO.C,R9*%
X141790000Y-90912000D03*
X143790000Y-90912000D03*
%TD*%
D16*
%TO.C,C9*%
X145290000Y-115337000D03*
X145290000Y-117412000D03*
%TD*%
D14*
%TO.C,R7*%
X139790000Y-87412000D03*
X141790000Y-87412000D03*
%TD*%
D31*
%TO.C,C14*%
X147500000Y-98000000D03*
X147500000Y-99900000D03*
%TD*%
D32*
%TO.C,C4*%
X127327500Y-99412000D03*
X125252500Y-99412000D03*
%TD*%
D13*
%TO.C,C44*%
X176790000Y-74862000D03*
X176790000Y-71912000D03*
%TD*%
D14*
%TO.C,R8*%
X143790000Y-87412000D03*
X145790000Y-87412000D03*
%TD*%
D32*
%TO.C,C8*%
X131827500Y-84912000D03*
X129752500Y-84912000D03*
%TD*%
D14*
%TO.C,R6*%
X138290000Y-106912000D03*
X140290000Y-106912000D03*
%TD*%
D11*
%TO.C,L8*%
X170897750Y-85412000D03*
X174682250Y-85412000D03*
%TD*%
D33*
%TO.C,R11*%
X140790000Y-115412000D03*
X140790000Y-117412000D03*
%TD*%
D27*
%TO.C,C46*%
X176790000Y-88912000D03*
X176790000Y-91862000D03*
%TD*%
D34*
%TO.C,*%
X168000000Y-126500000D03*
%TD*%
D13*
%TO.C,C43*%
X180290000Y-96887000D03*
X180290000Y-93937000D03*
%TD*%
D14*
%TO.C,R1*%
X138290000Y-109412000D03*
X140290000Y-109412000D03*
%TD*%
D16*
%TO.C,C6*%
X149790000Y-115374500D03*
X149790000Y-117449500D03*
%TD*%
D35*
%TO.C,U2*%
X131890002Y-93112000D03*
X131890002Y-93611999D03*
X131890002Y-94112000D03*
X131890002Y-94612000D03*
X131890002Y-95112001D03*
X131890002Y-95612000D03*
D36*
X132540001Y-96261999D03*
X133040000Y-96261999D03*
X133540001Y-96261999D03*
X134040001Y-96261999D03*
X134540002Y-96261999D03*
X135040001Y-96261999D03*
D35*
X135690000Y-95612000D03*
X135690000Y-95112001D03*
X135690000Y-94612000D03*
X135690000Y-94112000D03*
X135690000Y-93611999D03*
X135690000Y-93112000D03*
D36*
X135040001Y-92462001D03*
X134540002Y-92462001D03*
X134040001Y-92462001D03*
X133540001Y-92462001D03*
X133040000Y-92462001D03*
X132540001Y-92462001D03*
D37*
X133790001Y-94362000D03*
D38*
X132690001Y-94362000D03*
X133790001Y-93262000D03*
X133790001Y-94362000D03*
X133790001Y-95462000D03*
X134890001Y-94362000D03*
%TD*%
D39*
%TO.C,U1*%
X136652500Y-105337000D03*
X136652500Y-104687000D03*
X136652500Y-104037000D03*
X136652500Y-103387000D03*
X136652500Y-102737000D03*
X136652500Y-102087000D03*
X136652500Y-101437000D03*
X136652500Y-100787000D03*
X136652500Y-100137000D03*
X136652500Y-99487000D03*
X130927500Y-99487000D03*
X130927500Y-100137000D03*
X130927500Y-100787000D03*
X130927500Y-101437000D03*
X130927500Y-102087000D03*
X130927500Y-102737000D03*
X130927500Y-103387000D03*
X130927500Y-104037000D03*
X130927500Y-104687000D03*
X130927500Y-105337000D03*
%TD*%
D13*
%TO.C,C19*%
X176790000Y-96887000D03*
X176790000Y-93937000D03*
%TD*%
D40*
%TO.C,U5*%
X143200000Y-111800000D03*
X145500000Y-111800000D03*
D41*
X145500000Y-105500000D03*
D40*
X147800000Y-111800000D03*
%TD*%
D42*
%TO.C,R2*%
X135290000Y-116412000D03*
X133290000Y-116412000D03*
%TD*%
D43*
%TO.C,U3*%
X133190000Y-120912000D03*
D44*
X133140000Y-121412000D03*
X133140000Y-121912000D03*
X134290000Y-121912000D03*
X134290000Y-121412000D03*
X134290000Y-120912000D03*
%TD*%
D45*
%TO.C,C5*%
X145290000Y-81149500D03*
X145290000Y-79074500D03*
%TD*%
D28*
%TO.C,C2*%
X135252500Y-89912000D03*
X137327500Y-89912000D03*
%TD*%
D46*
%TO.C,IC2*%
X146490002Y-91412000D03*
D47*
X146490002Y-91987000D03*
X146490002Y-92487002D03*
X146490002Y-92987000D03*
X146490002Y-93487002D03*
X146490002Y-93987001D03*
X146490002Y-94487000D03*
D46*
X146490002Y-95062000D03*
D48*
X147390000Y-94776999D03*
X147889999Y-94776999D03*
X148390001Y-94776999D03*
X148890000Y-94776999D03*
X149390002Y-94776999D03*
D46*
X150290000Y-95062000D03*
D47*
X150290000Y-94487003D03*
X150290000Y-93987001D03*
X150290000Y-93487002D03*
X150290000Y-92987000D03*
X150290000Y-92487002D03*
X150290000Y-91987003D03*
D46*
X150290000Y-91412000D03*
D48*
X149390002Y-91697001D03*
X148890000Y-91697001D03*
X148390001Y-91697001D03*
X147889999Y-91697001D03*
X147390000Y-91697001D03*
D49*
X148390001Y-93237000D03*
D38*
X147520000Y-93237000D03*
X148390001Y-93237000D03*
X149260002Y-93237000D03*
%TD*%
D50*
%TO.C,C17*%
X157250000Y-83300000D03*
X159150000Y-83300000D03*
%TD*%
%TO.C,C15*%
X152340000Y-89912000D03*
X154240000Y-89912000D03*
%TD*%
D15*
%TO.C,REF\u002A\u002A*%
X116500000Y-109000000D03*
%TD*%
D14*
%TO.C,R5*%
X133290000Y-113912000D03*
X135290000Y-113912000D03*
%TD*%
D42*
%TO.C,R10*%
X134790000Y-118912000D03*
X132790000Y-118912000D03*
%TD*%
D27*
%TO.C,C47*%
X180290000Y-88912000D03*
X180290000Y-91862000D03*
%TD*%
D24*
%TO.C,Q2*%
X129790000Y-124812000D03*
X129790000Y-122912000D03*
X127915000Y-123862000D03*
%TD*%
D11*
%TO.C,L6*%
X170897750Y-100412000D03*
X174682250Y-100412000D03*
%TD*%
D31*
%TO.C,C16*%
X153790000Y-96462000D03*
X153790000Y-98362000D03*
%TD*%
D51*
%TO.C,C42*%
X159935000Y-93900000D03*
X160575000Y-93900000D03*
%TD*%
D27*
%TO.C,C20*%
X180290000Y-112437000D03*
X180290000Y-115387000D03*
%TD*%
D11*
%TO.C,L5*%
X170897750Y-107912000D03*
X174682250Y-107912000D03*
%TD*%
D33*
%TO.C,R4*%
X128290000Y-95412000D03*
X128290000Y-97412000D03*
%TD*%
D28*
%TO.C,C1*%
X129715000Y-87412000D03*
X131790000Y-87412000D03*
%TD*%
D34*
%TO.C,*%
X169000000Y-68500000D03*
%TD*%
M02*
